<svg xmlns="http://www.w3.org/2000/svg" viewBox="0 0 617.52 154.96"><defs><style>.cls-1{isolation:isolate;}</style></defs><g id="Layer_2" data-name="Layer 2"><g id="Layer_1-2" data-name="Layer 1"><g id="Layer_2-2" data-name="Layer 2"><g id="Layer_1-2-2" data-name="Layer 1-2"><text class="cls-1"/><path d="M67,70a142.94,142.94,0,0,0-7.92,26.8,146.87,146.87,0,0,0-2.6,26.38A1.51,1.51,0,0,1,55,124.64H41.44a1.53,1.53,0,0,1-1.52-1.41c-.7-9.13-1.5-18.09-3.94-26.79a154.3,154.3,0,0,0-8.35-21.92,1.53,1.53,0,0,0-2.9.47,86.11,86.11,0,0,0,.09,22.51c1,8.47,2.68,16.84,4.13,25.31a1.52,1.52,0,0,1-1.41,1.78c-5.16.33-20.55.33-26.16-.16A1.52,1.52,0,0,1,0,122.67c2.15-13,3.86-26,3.79-39.25A255.94,255.94,0,0,0,.12,44.25a1.52,1.52,0,0,1,1.5-1.78h36.3a1.52,1.52,0,0,1,1.5,1.25,90.91,90.91,0,0,0,9.39,26.47,1.54,1.54,0,0,0,2.72,0c4.49-8.66,7.15-17.68,10-26.69a1.51,1.51,0,0,1,1.45-1.07H98.53a1.53,1.53,0,0,1,1.52,1.65c-2.28,26.28-4.11,52.5-.13,78.89a1.52,1.52,0,0,1-1.5,1.75H69.1a1.53,1.53,0,0,1-1.53-1.61c.44-8.68,1.09-17.27,1.17-25.86.09-9.12-.45-18.11-.71-27.17Z"/><path d="M266.5,43.42c3,8.52,9.5,12.88,18,15.31a1.51,1.51,0,0,1,1,1.82,36.54,36.54,0,0,0-.41,15.73,1.52,1.52,0,0,1-.87,1.66l-11,5a1.53,1.53,0,0,0-.12,2.72l11.73,6.67a1.51,1.51,0,0,1,.74,1.58A51,51,0,0,0,289,122.25a1.52,1.52,0,0,1-1.41,2.11H264.46a1.52,1.52,0,0,1-1.46-1.08c-1.54-5.49-5.9-8.7-10.57-11.84a1.5,1.5,0,0,1-.66-1.48c.27-1.91.53-3.8.86-5.69a14.53,14.53,0,0,0-.78-8.57,10.37,10.37,0,0,0-13.71-5.22l-.58.29a1.58,1.58,0,0,0-.85,1.38c0,10.2,1.58,20.36,3.63,30.66a1.52,1.52,0,0,1-1.49,1.83H206.43a1.53,1.53,0,0,1-1.51-1.71c.17-1.45.33-2.85.54-4.29,1.84-12.35,3.4-24.72,3.51-37.24a148.94,148.94,0,0,0-4-36.13c-.09-.39-.17-.78-.24-1.21a1.53,1.53,0,0,1,1.51-1.79l58.82.1A1.53,1.53,0,0,1,266.5,43.42Zm-29.95,32.1a1.55,1.55,0,0,0,1.26,1.34c4.13.69,8.11.84,12.07-.56a3.85,3.85,0,0,0,2.86-2.84,25.28,25.28,0,0,0,.39-6.14A4.43,4.43,0,0,0,249.25,63a26.46,26.46,0,0,0-6.88-.38,5.4,5.4,0,0,0-3.59,2.25A16.28,16.28,0,0,0,236.55,75.52Z"/><path d="M300.66,122.85c6.24-26.15,5.93-52,0-78.1a1.52,1.52,0,0,1,1.48-1.86H336a1.53,1.53,0,0,1,1.51,1.28c.2,1.26.41,2.53.54,3.8a39.19,39.19,0,0,0,4.61,14.16c3.46,6.54,7.12,13,10.72,19.45v0a1.52,1.52,0,0,0,2.8-.42,20.54,20.54,0,0,0,.46-6.35A157,157,0,0,0,353,44.9a7.38,7.38,0,0,1-.17-1.48,3.93,3.93,0,0,1,.19-.89h27.22a1.52,1.52,0,0,1,1.49,1.85c-5.74,26.16-6.8,52.23-.6,78.32a1.51,1.51,0,0,1-1.36,1.87c-6.22.43-26.32.52-31.8.08a1.52,1.52,0,0,1-1.34-1.09c-3.81-13.18-9-25.86-18.25-36.91a1.53,1.53,0,0,0-2.69.93,106.11,106.11,0,0,0,4.83,35.18,1.52,1.52,0,0,1-1.45,2H302.13A1.52,1.52,0,0,1,300.66,122.85Z"/><path d="M439.94,42.82h33.7a1.52,1.52,0,0,1,1.51,1.32c.23,1.68.45,3.35.7,5a38.8,38.8,0,0,0,4.24,12.46c3.59,6.76,7.35,13.43,11.06,20.12a24.5,24.5,0,0,0,1.52,2.19l.7-.07a43.58,43.58,0,0,0,.88-6.12V77.6a151.71,151.71,0,0,0-3.62-33.11s0-.07,0-.1a1.53,1.53,0,0,1,1.5-1.82h25.8a1.51,1.51,0,0,1,1.48,1.85c-5.78,26.16-6.84,52.17-.57,78.39a1.53,1.53,0,0,1-1.48,1.89H485.89a1.53,1.53,0,0,1-1.44-1c-1.53-4.49-2.88-9-4.65-13.32A143.36,143.36,0,0,0,473,96.47a57,57,0,0,0-6.88-9.65,1.53,1.53,0,0,0-2.66.89,64.32,64.32,0,0,0,.8,17c1,6.07,2.41,12.09,3.71,18.15a1.53,1.53,0,0,1-1.49,1.85H440a1.52,1.52,0,0,1-1.49-1.82C441,109.8,443,96.89,443,83.73s-2-26.07-4.5-39.1A1.52,1.52,0,0,1,439.94,42.82Z"/><path d="M608.62,124.71H593.53a1.55,1.55,0,0,1-1.11-.48L587.51,119a1.53,1.53,0,0,0-2.33.12l-3.88,5.14a1.54,1.54,0,0,1-1.22.61H554.71a1.54,1.54,0,0,1-1.31-.75c-2.52-4.28-5.4-8.54-9.56-11.63s-8.25-5.57-12.71-8.5a1.53,1.53,0,0,1-.64-1.66c3.28-12.65,4.11-25.74,0-39a1.53,1.53,0,0,1,.93-1.89c4.5-1.69,8.81-3.84,12.22-7.17,3.61-3.52,6.73-7.39,10.31-11.37a1.55,1.55,0,0,1,1.14-.51H589.5a1.54,1.54,0,0,1,1.42,1c3.45,8.36,10.42,12.86,18.31,16.49a1.51,1.51,0,0,1,.77,2c-2,4.49-2,9.11-1.25,13.94A1.51,1.51,0,0,1,607,77.5a53.52,53.52,0,0,0-22.33.17,1.54,1.54,0,0,1-1.82-1c-.72-2.17-1.39-4.26-2.1-6.33a8,8,0,0,0-10.14-5,7.61,7.61,0,0,0-1.21.52,9.24,9.24,0,0,0-4.74,5.25,28.91,28.91,0,0,0-1.86,7.2c-.45,6.23-.73,12.5.88,18.63,1.11,4.27,3,8,7.62,9.44,2.85.92,5-.21,5.63-3.11a6,6,0,0,0-2.86-7,1.48,1.48,0,0,1-.69-1.27V86.23a1.53,1.53,0,0,1,1.72-1.51c11.28,1.37,22.51.71,34,.43a1.52,1.52,0,0,1,1.46,2.06c-4.52,11.79-4.3,23.43-.52,35.5A1.53,1.53,0,0,1,608.62,124.71Z"/><path d="M192.52,63.27a65.18,65.18,0,0,0,.72,40.15,1.51,1.51,0,0,1-.82,1.89c-8.82,4-16.12,9.56-20,18.67a1.54,1.54,0,0,1-1.4.94H135.6a1.54,1.54,0,0,1-1.38-.88c-2.09-4.43-4.65-8.71-8.82-11.51s-8.42-4.92-13-7.47a1.53,1.53,0,0,1-.76-1.59c2.17-13.09,2.82-26.62-.17-40.29a1.52,1.52,0,0,1,1-1.78A37.45,37.45,0,0,0,134,43.76a1.53,1.53,0,0,1,1.34-.8h34.74a1.53,1.53,0,0,1,1.41,1c3.82,9.22,10.6,14.77,20,17.42A1.54,1.54,0,0,1,192.52,63.27Zm-50.34,20c-.05,1-.05,2.09,0,3.13a.53.53,0,0,0,0,.13c.51,4.87,1.82,9.46,5.2,13.17,3.19,3.49,7.74,3.5,11,.07a15.32,15.32,0,0,0,2.32-3.22,29.23,29.23,0,0,0,2.86-17.94,22.35,22.35,0,0,0-4.5-11.39c-3.42-4.25-8.44-4.37-12-.27a17.69,17.69,0,0,0-2.33,3.53,25.43,25.43,0,0,0-2.56,12.69Z"/><path d="M392.74,122.8c6.49-26.39,4.23-52.44-.18-78.61a1.53,1.53,0,0,1,1.5-1.78h32a1.51,1.51,0,0,1,1.49,1.8c-4.83,26.23-6.43,52.33-.13,78.6A1.52,1.52,0,0,1,426,124.7H394.21A1.52,1.52,0,0,1,392.74,122.8Z"/></g></g></g></g></svg>