<svg xmlns="http://www.w3.org/2000/svg" viewBox="0 0 114.91 41.57">
  <defs>
    <style>
      .a808f0ce-9944-4973-99ad-cd99882d133e {
        fill: #414042;
      }

      .ae89e397-48d4-4ec8-abc8-f3f9b9db8c5b {
        fill: #fff;
      }
    </style>
  </defs>
  <g id="b6a73b7c-38d6-46a5-a214-6789aade067c" data-name="Layer 2">
    <g id="bb4bc939-7ac7-4f0a-84b0-b8a60c8804da" data-name="Layer 1">
      <g>
        <path class="a808f0ce-9944-4973-99ad-cd99882d133e" d="M114.69,0,0,.21.23,41.57l114.68-.2ZM9.42,4.89a4.71,4.71,0,1,1-4.7,4.72A4.7,4.7,0,0,1,9.42,4.89Zm.21,32a4.71,4.71,0,1,1,4.7-4.71A4.7,4.7,0,0,1,9.63,36.85ZM105.28,4.72a4.71,4.71,0,1,1-4.69,4.71A4.72,4.72,0,0,1,105.28,4.72Zm.22,32A4.71,4.71,0,1,1,110.19,32,4.72,4.72,0,0,1,105.5,36.68Z"/>
        <g>
          <path class="ae89e397-48d4-4ec8-abc8-f3f9b9db8c5b" d="M22.13,21.18,24,24.44H22.41l-1.88-3.26,1.88-3.25H24Z"/>
          <path class="ae89e397-48d4-4ec8-abc8-f3f9b9db8c5b" d="M30,25.71V30H28.16V19c0-1.43,0-2.38,0-3h1.75A6.91,6.91,0,0,1,30,17a1.93,1.93,0,0,1,1.93-1.23c1.46,0,2.16,1,2.16,3.07v4.38c0,2.39-.84,3.41-2.36,3.41A1.74,1.74,0,0,1,30,25.71Zm2.21-2.43V19c0-1.09-.37-1.55-1-1.55-.85,0-1.21.63-1.21,1.91v3.57c0,1.14.19,2.07,1.12,2.07S32.21,24.36,32.21,23.28Z"/>
          <path class="ae89e397-48d4-4ec8-abc8-f3f9b9db8c5b" d="M35.6,19.54c0-1.72,0-2.55,0-3.57h1.74c0,.23.06,1,.06,1.68a2.27,2.27,0,0,1,2.28-1.83v2.26c-1.24,0-2.22.5-2.22,2.55V26.5H35.6Z"/>
          <path class="ae89e397-48d4-4ec8-abc8-f3f9b9db8c5b" d="M42.29,21.69v1.62c0,.91.19,1.8,1.09,1.8s1-.78,1-1.64v-.06h1.79v.06c0,1.15-.25,3.2-2.8,3.2S40.49,25.1,40.49,23V19.31c0-1.5.5-3.5,2.93-3.5,2.15,0,2.83,1.51,2.83,3.5v2.38Zm2.2-1.46V19.05c0-1-.2-1.69-1.08-1.69s-1.11.63-1.11,1.7v1.17Z"/>
          <path class="ae89e397-48d4-4ec8-abc8-f3f9b9db8c5b" d="M49,16c.33,1.94,1.07,6.29,1.33,8.48h0c.18-2.06,1.06-6.41,1.39-8.48h1.84L51.28,26.5H49.2L47,16Z"/>
          <path class="ae89e397-48d4-4ec8-abc8-f3f9b9db8c5b" d="M54.56,16H56.4V26.5H54.56Zm0-3.76h1.84v2.2H54.57Z"/>
          <path class="ae89e397-48d4-4ec8-abc8-f3f9b9db8c5b" d="M63.85,19.1v4.2c0,2.27-1.11,3.37-3,3.37S58,25.56,58,23.33V19c0-2.17,1.2-3.22,3-3.22S63.85,17,63.85,19.1ZM59.8,19v4.38c0,1,.31,1.65,1.11,1.65S62,24.5,62,23.36V19c0-.91-.27-1.56-1.1-1.56S59.8,18,59.8,19Z"/>
          <path class="ae89e397-48d4-4ec8-abc8-f3f9b9db8c5b" d="M71.19,23.52c0,1.47,0,2.45,0,3H69.46a7.39,7.39,0,0,1-.07-1,1.83,1.83,0,0,1-1.94,1.21c-.93,0-2.07-.42-2.07-2.72V16h1.83v7.5c0,1.08.3,1.55,1,1.55s1.14-.44,1.14-2.08V16h1.84Z"/>
          <path class="ae89e397-48d4-4ec8-abc8-f3f9b9db8c5b" d="M74.26,23.27v.48c0,.8.27,1.36,1,1.36s.94-.41.94-1.23-.24-1.3-1.48-2.11c-1.44-.92-2.12-1.68-2.12-3.17a2.48,2.48,0,0,1,2.66-2.79c1.94,0,2.64,1.13,2.64,2.92v.44H76.1v-.62c0-.8-.25-1.19-.86-1.19s-.83.43-.83,1.09.22,1,1.22,1.64c1.72,1.11,2.4,1.85,2.4,3.58,0,2-1,3-2.85,3-2.24,0-2.78-1.44-2.78-2.92v-.48Z"/>
          <path class="ae89e397-48d4-4ec8-abc8-f3f9b9db8c5b" d="M87,20.09H84v4.72h3.48l-.24,1.69H82.16V12.81h5v1.71H84V18.4h3Z"/>
          <path class="ae89e397-48d4-4ec8-abc8-f3f9b9db8c5b" d="M88.55,12.81h2.81c2.12,0,3.17,1.06,3.17,3.39V17c0,2.17-.73,3.68-3.28,3.68h-.87v5.8H88.55Zm1.83,6.38h.68c1.42,0,1.64-.85,1.64-2.22v-.7c0-1-.21-1.93-1.48-1.93h-.84Z"/>
        </g>
      </g>
    </g>
  </g>
</svg>
