<svg xmlns="http://www.w3.org/2000/svg" viewBox="0 0 115.81 41.57">
  <defs>
    <style>
      .a417a902-f2b3-41da-bbf6-86bc489561cc {
        fill: #be1e2d;
      }

      .a91f7bc8-bebe-4176-a159-155ebae6d251 {
        fill: #fff;
      }
    </style>
  </defs>
  <g id="fca3ff51-6149-49d2-9bcf-6c09172ce6d6" data-name="Layer 2">
    <g id="a22599cb-0a4b-47da-9635-5210d3896ae8" data-name="Layer 1">
      <g>
        <path class="a417a902-f2b3-41da-bbf6-86bc489561cc" d="M115.58,0,0,.21.23,41.57l115.58-.2ZM9.42,4.89a4.71,4.71,0,1,1-4.7,4.72A4.7,4.7,0,0,1,9.42,4.89Zm.21,32a4.71,4.71,0,1,1,4.7-4.71A4.7,4.7,0,0,1,9.63,36.85ZM106.18,4.72a4.71,4.71,0,1,1-4.7,4.71A4.72,4.72,0,0,1,106.18,4.72Zm.21,32A4.71,4.71,0,1,1,111.08,32,4.72,4.72,0,0,1,106.39,36.68Z"/>
        <g>
          <path class="a91f7bc8-bebe-4176-a159-155ebae6d251" d="M35.66,23.65v.47c0,.8.27,1.36,1,1.36s.94-.41.94-1.22-.24-1.3-1.49-2.11C34.66,21.22,34,20.46,34,19a2.48,2.48,0,0,1,2.66-2.8c1.94,0,2.64,1.13,2.64,2.92v.44H37.5v-.62c0-.8-.25-1.18-.86-1.18s-.83.42-.83,1.08.22,1,1.22,1.64c1.72,1.11,2.4,1.85,2.4,3.58,0,2-1,3-2.85,3-2.25,0-2.78-1.44-2.78-2.92v-.47Z"/>
          <path class="a91f7bc8-bebe-4176-a159-155ebae6d251" d="M46.44,23.89c0,1.48,0,2.45,0,3H44.71a7.35,7.35,0,0,1-.07-1A1.82,1.82,0,0,1,42.7,27c-.93,0-2.07-.42-2.07-2.72v-8h1.83v7.5c0,1.09.31,1.55,1,1.55S44.6,25,44.6,23.31v-7h1.84Z"/>
          <path class="a91f7bc8-bebe-4176-a159-155ebae6d251" d="M48.28,12.59h1.84v4.68A1.93,1.93,0,0,1,52,16.18c1.54,0,2.18,1.26,2.18,3.13v3.81c0,2.3-.43,3.91-2.43,3.91A1.69,1.69,0,0,1,50,25.91c0,.41,0,.67-.07,1H48.26c0-.66,0-1.6,0-2.74Zm4,10.87V19.6c0-1.09-.21-1.77-1-1.77-1,0-1.2.87-1.2,2.18v3.38c0,1.35.33,2,1.14,2S52.33,24.78,52.33,23.46Z"/>
          <path class="a91f7bc8-bebe-4176-a159-155ebae6d251" d="M55.7,19.39c0-2,0-2.56,0-3.05h1.75a9.42,9.42,0,0,1,.07.95,1.91,1.91,0,0,1,1.83-1.11A1.57,1.57,0,0,1,61,17.35a2.12,2.12,0,0,1,2-1.17c1.09,0,2,.53,2,2.57v8.12H63.19V19.1c0-.77-.18-1.27-.87-1.27-.84,0-1,.7-1,1.78v7.26H59.44v-7.7c0-1-.29-1.34-.88-1.34-.84,0-1,.72-1,1.8v7.24H55.7Z"/>
          <path class="a91f7bc8-bebe-4176-a159-155ebae6d251" d="M66.87,16.34H68.7V26.87H66.87Zm0-3.75h1.84v2.19H66.88Z"/>
          <path class="a91f7bc8-bebe-4176-a159-155ebae6d251" d="M69.69,16.34h1.16V13.79h1.83v2.55h1.39V18H72.68v6.58c0,.51.08,1,.72,1a2.74,2.74,0,0,0,.61-.06v1.4a3.32,3.32,0,0,1-1.22.19c-1.19,0-1.94-.43-1.94-2.16V18H69.69Z"/>
          <path class="a91f7bc8-bebe-4176-a159-155ebae6d251" d="M79.31,20,77.46,16.7H79L80.91,20,79,23.21H77.47Z"/>
        </g>
      </g>
    </g>
  </g>
</svg>
