<svg xmlns="http://www.w3.org/2000/svg" viewBox="0 0 420.46 402.87">
  <defs>
    <style>
      .acb293f5-7c98-4ab1-bb38-8fbce76c8bce {
        fill: #be1e2d;
      }
      .a8119c45-ddf7-4f09-b3a1-62f2f14d813e {
        fill: #414042;
      }
      .a732da37-3123-4d17-adec-3368060ad485,
      .b26f9af4-ca95-4b15-b4eb-a9ce381e4127 {
        fill: #fff;
      }
      .a107609e-f61c-4a88-924a-9ed47f8a9d92 {
        fill: #231f20;
      }
      .b26f9af4-ca95-4b15-b4eb-a9ce381e4127 {
        stroke: #fff;
        stroke-miterlimit: 10;
        stroke-width: 0.2px;
      }
    </style>
  </defs>
  <g id="a3556e60-309b-4446-8a63-7d3f43af7f71" data-name="Layer 2">
    <g id="a2a6ce3d-469b-40a8-bf47-25d19a55810a" data-name="Layer 1"><path
      class="acb293f5-7c98-4ab1-bb38-8fbce76c8bce"
      d="M207.64,50.2,207.3,0,0,.17l.33,50H0V352.64l.33,50.23,207.31-.15-.34-50.08h.34Zm-6,342.43H6v-6H201.66Zm0-12H6v-6H201.66Zm0-12H6v-6H201.66Zm0-328.55H6v-6H201.66Zm0-12H6v-6H201.66Zm0-12H6v-6H201.66Z"/><path
      class="a8119c45-ddf7-4f09-b3a1-62f2f14d813e"
      d="M420.46,178.52l-.34-50.2-207.3.17.33,50h-.33V352.64l.33,50.23,207.31-.15-.34-50.08h.34Zm-6,214.11H218.8v-6H414.48Zm0-12H218.8v-6H414.48Zm0-12H218.8v-6H414.48Zm0-200.23H218.8v-6H414.48Zm0-12H218.8v-6H414.48Zm0-12H218.8v-6H414.48Z"/><path
      class="a732da37-3123-4d17-adec-3368060ad485"
      d="M53,277.07l0-145H19.54c0,24.1.06,121,.07,145Zm-3.1-139.39a2.62,2.62,0,0,1-2.6,2.6,2.58,2.58,0,1,1,2.6-2.6Zm-27.21-.19a2.52,2.52,0,0,1,2.58-2.36,2.56,2.56,0,0,1,2.4,2,2.61,2.61,0,0,1-2,3.12c-.13,0-.27,0-.4,0A2.6,2.6,0,0,1,22.66,137.49Zm27.24,134a2.57,2.57,0,0,1-5.14,0,2.57,2.57,0,1,1,5.14,0Zm-27.26,0a2.58,2.58,0,0,1,2.56-2.54,2.62,2.62,0,0,1,2.52,2.64,2.54,2.54,0,1,1-5.08-.1Z"/><path
      class="a107609e-f61c-4a88-924a-9ed47f8a9d92"
      d="M38.72,161.77a2.49,2.49,0,0,0,.37-.05s.08.06.08.24a2,2,0,0,0,0,.42l.09.4a2.07,2.07,0,0,1,0,.31s-.08.07-.24.07a.59.59,0,0,1-.2,0,.8.8,0,0,0-.23,0c-.19,0-.3,0-.33.1a2,2,0,0,0-.07.51c0,.2,0,.38-.05.54s0,.36,0,.55A10,10,0,0,1,38,166c-.06.2-.12.37-.18.53l-.2.49a3,3,0,0,1-.2.4l-.21.39-.33.43A3.28,3.28,0,0,1,36,169a2.69,2.69,0,0,1-.71.25l-.74.17a5.71,5.71,0,0,1-1.82.07,3.18,3.18,0,0,1-.71-.17l-.67-.23a2.37,2.37,0,0,1-.34-.19l-.37-.26a1.83,1.83,0,0,1-.37-.37L30,167.8a4.11,4.11,0,0,1-.48-.86,1.79,1.79,0,0,1-.13-.41c0-.15-.06-.29-.1-.43a7.92,7.92,0,0,1-.21-1.06q0-.09,0-.45a4,4,0,0,1,0-.68c0-.13-.06-.19-.2-.19h-.56a4.24,4.24,0,0,0-.57,0l-1,.13c-.24,0-.51.08-.81.11l-.47,0-.5.06c-.24,0-.37,0-.4,0a2.22,2.22,0,0,1-.11-.36c0-.15-.05-.29-.08-.44l0-.18a.5.5,0,0,1,0-.17c0-.27.1-.42.31-.43a1.25,1.25,0,0,1,.38,0,2.58,2.58,0,0,0,.39,0l.39,0c.76-.06,1.18-.1,1.27-.12s.52,0,1.27-.06a4.07,4.07,0,0,1,.5,0c.19,0,.28-.06.27-.19a1.49,1.49,0,0,1,0-.38,1.24,1.24,0,0,0,0-.27q0-.15.21-.18a2.36,2.36,0,0,1,.47,0,4.62,4.62,0,0,0,.5,0c.29,0,.42.09.4.23l0,.11s0,0,0,.11,0,.21,0,.2l.26,0h1.92l.86,0,.86-.05c.25,0,.51,0,.76-.05s.51,0,.77,0l.69,0q.35,0,.69,0A11.16,11.16,0,0,0,38.72,161.77Zm-2.19,1.6a1.89,1.89,0,0,1-.47,0,1.65,1.65,0,0,0-.5,0l-.73,0c-.24,0-.48,0-.73,0l-.43,0-.41,0c-.29,0-.57,0-.84.05l-.83,0-.31,0-.3,0-.32,0s-.05.11-.07.32c0,.05,0,.13,0,.22s0,.17,0,.23a2.78,2.78,0,0,0,.08.72c.06.26.12.5.19.71a4.06,4.06,0,0,0,.48,1,2.74,2.74,0,0,0,.31.38,1.66,1.66,0,0,0,.39.34,2.41,2.41,0,0,0,.77.35,4.84,4.84,0,0,0,1.11.08,2.92,2.92,0,0,0,.45,0,1.71,1.71,0,0,0,.43-.1,2.35,2.35,0,0,0,.72-.51l.39-.45a1.71,1.71,0,0,0,.3-.5,5.44,5.44,0,0,0,.34-1.12,10.28,10.28,0,0,0,.22-1.71C36.73,163.42,36.66,163.35,36.53,163.37Z"/><path
      class="a107609e-f61c-4a88-924a-9ed47f8a9d92"
      d="M31.37,175.19l.3,0a1.15,1.15,0,0,0,.32,0c.18,0,.26-.1.25-.18s-.07-.28-.1-.42a3.07,3.07,0,0,1-.07-.42,4.47,4.47,0,0,1,0-1.66,3.93,3.93,0,0,1,.34-1.12,2.37,2.37,0,0,1,.91-1,2.29,2.29,0,0,1,.71-.27,3.11,3.11,0,0,1,.9-.13,3.4,3.4,0,0,1,1.2.3,3.29,3.29,0,0,1,1.36.91,3.85,3.85,0,0,1,.79,1.68,3.3,3.3,0,0,1,.08.75c0,.25,0,.5,0,.77s0,.25.06.25l.3,0,.22,0h.24c.17,0,.27,0,.28.1a.92.92,0,0,1,0,.33c0,.18,0,.35,0,.52a2.29,2.29,0,0,1,0,.52q0,.21-.09.21h-.28c-1,0-2.07.05-3.21.13-.41,0-.84.05-1.27.05a7.28,7.28,0,0,0-1.25.1l-.82.09-.8.12c-.25,0-.36,0-.34,0a1.33,1.33,0,0,0,0-.44,1.91,1.91,0,0,0-.08-.44,3,3,0,0,1-.12-.43C31.16,175.28,31.22,175.2,31.37,175.19Zm2.2-2.75a4.55,4.55,0,0,0,0,1.07c0,.2,0,.39.05.58a3,3,0,0,0,.11.58c0,.16.07.24.11.25a1.27,1.27,0,0,0,.32,0,4.78,4.78,0,0,0,.53,0l.54,0,.54,0,.54-.05a1.38,1.38,0,0,0,.44-.08,1,1,0,0,0,.14-.39c0-.17.07-.35.1-.53a2.33,2.33,0,0,0,0-.53,2.56,2.56,0,0,0-.33-1.12,1,1,0,0,0-.27-.29l-.31-.23a1.78,1.78,0,0,0-1-.34,3.09,3.09,0,0,0-.67,0,.85.85,0,0,0-.57.31A1.51,1.51,0,0,0,33.57,172.44Z"/><path
      class="a107609e-f61c-4a88-924a-9ed47f8a9d92"
      d="M30.43,177.63a3.42,3.42,0,0,1,.45-.2l.22-.12.21-.1c.16-.07.25-.09.27-.07l.08.17a1.82,1.82,0,0,0,.13.3,3.73,3.73,0,0,0,.33.69c0,.06.09.14.16.25a2.55,2.55,0,0,0,.19.26,2.06,2.06,0,0,0,.84.61l.36.15a2.37,2.37,0,0,0,.55.06,2,2,0,0,0,1-.22,3.17,3.17,0,0,0,.74-.55,3.44,3.44,0,0,1,.72-.55l.45-.28a2.12,2.12,0,0,1,.51-.21l.29-.07.36,0a1.59,1.59,0,0,1,.39,0l.43.1a3.19,3.19,0,0,1,.66.24l.38.19a2.15,2.15,0,0,1,.35.21,6.82,6.82,0,0,1,.88.79,4.18,4.18,0,0,1,.42.64c.13.24.21.41.25.49s.1.24.19.48l.18.51a2.4,2.4,0,0,1,.11.57,1.48,1.48,0,0,1,0,.29s-.09,0-.24,0a2.83,2.83,0,0,0-.43,0H41.4a1.36,1.36,0,0,1-.45,0q-.08,0-.09-.45a2.67,2.67,0,0,0-.08-.58,2.18,2.18,0,0,0-.23-.58c-.15-.22-.26-.36-.33-.45a1.6,1.6,0,0,0-.7-.46,4,4,0,0,0-1-.15,2.23,2.23,0,0,0-1.07.2,1.33,1.33,0,0,0-.4.25,4,4,0,0,1-.33.26l-.3.22-.33.21a2.77,2.77,0,0,1-.69.3,6.45,6.45,0,0,1-.74.13,7,7,0,0,1-1.3,0,4.66,4.66,0,0,1-.85-.2,2.3,2.3,0,0,1-1-.64,1,1,0,0,1-.24-.27l-.21-.28a4.38,4.38,0,0,1-.38-.61l-.23-.45a3.54,3.54,0,0,1-.16-.44l-.12-.41S30.25,177.72,30.43,177.63Z"/><path
      class="a107609e-f61c-4a88-924a-9ed47f8a9d92"
      d="M30.55,188.37l.77,0,.78.05h.38l.4,0h.42a2.9,2.9,0,0,1,.43,0c.21,0,.31-.08.3-.35s0-.48,0-.62c0-.44-.09-.88-.15-1.31s-.11-.86-.15-1.3a1.75,1.75,0,0,0-.07-.46l-.34.06-.55.09-.54.07h-.27l-.26,0H31.4a.53.53,0,0,0-.25.05,1,1,0,0,1-.42.07c-.07,0-.09-.14-.05-.38a2.16,2.16,0,0,0,0-.43c0-.13,0-.28-.05-.43s0-.38.16-.39l.55,0H32.7a2.94,2.94,0,0,1,.41,0c.11,0,.17-.07.18-.23s0-.09,0-.12,0-.26.08-.26l.44,0a3.17,3.17,0,0,1,.52,0h.38c.07,0,.12.09.14.29a.61.61,0,0,0,0,.24c.08.11.27.17.57.15h.42l.2,0h.21l.82,0,.84,0,.52,0A4,4,0,0,0,39,183h.21c.09,0,.14.05.14.12a1,1,0,0,1,0,.28,1,1,0,0,0,0,.31,4.19,4.19,0,0,0,0,.48c0,.29,0,.45-.06.48s-.2.05-.46,0l-.44,0q-.37,0-.81-.06H37a3.49,3.49,0,0,0-.56,0h-.53a1.85,1.85,0,0,0-.69.11c-.11,0-.16.1-.15.17s0,.17,0,.32,0,.27,0,.4l0,.41c.06.56.1,1.08.13,1.57a1.34,1.34,0,0,0,0,.2c0,.06,0,.13,0,.2s0,.13,0,.19a1.65,1.65,0,0,0,0,.21c0,.14,0,.24,0,.3s0,.1.19.11l.4,0a3.39,3.39,0,0,0,.44,0l.43,0c.29,0,.66,0,1.09,0l.34,0,.35,0h.19l.19,0h.11a.24.24,0,0,1,.12,0q.3,0,.24.15a1,1,0,0,0-.06.29l0,.14c0,.05,0,.1,0,.15s0,.2,0,.3l0,.31a.9.9,0,0,1-.06.28s-.11,0-.28,0a1,1,0,0,1-.26,0l-.43-.16a3,3,0,0,0-.43-.08l-.54-.05-.56,0a1.09,1.09,0,0,1-.26,0l-.26,0c-.45,0-.9-.05-1.33-.06-.24,0-.49,0-.73,0l-.75-.07-.76-.05a5.3,5.3,0,0,0-.69,0l-.63,0a4,4,0,0,0-.82.21c-.18.06-.25-.08-.21-.43a2.35,2.35,0,0,0,0-.58c0-.16,0-.34-.08-.53s-.07-.32-.07-.32Z"/><path
      class="a107609e-f61c-4a88-924a-9ed47f8a9d92"
      d="M31.32,196.26l.3,0a1.63,1.63,0,0,0,.31,0c.18,0,.27-.1.26-.17s-.07-.28-.1-.42-.06-.29-.08-.43a4.88,4.88,0,0,1,0-1.65,4,4,0,0,1,.35-1.13,2.29,2.29,0,0,1,1.62-1.26,3,3,0,0,1,.89-.13,3.16,3.16,0,0,1,1.21.29,3.28,3.28,0,0,1,1.35.91,3.85,3.85,0,0,1,.8,1.69,3.18,3.18,0,0,1,.07.75c0,.24,0,.5,0,.77s0,.24.06.24h.31l.22,0h.23c.18,0,.27.05.29.1a2.12,2.12,0,0,1,0,.34c0,.17,0,.35,0,.52a3.05,3.05,0,0,1,0,.52q0,.21-.09.21H39c-1,0-2.08.05-3.22.14-.41,0-.83,0-1.26,0a8.69,8.69,0,0,0-1.26.09l-.81.1-.81.12c-.24,0-.36,0-.34,0a1.17,1.17,0,0,0,0-.44,1.64,1.64,0,0,0-.09-.44c0-.13-.08-.28-.11-.43S31.16,196.26,31.32,196.26Zm2.2-2.75a4.51,4.51,0,0,0,0,1.07c0,.19,0,.39,0,.58a3.78,3.78,0,0,0,.1.57c0,.16.07.25.11.26l.32,0,.54,0a4.87,4.87,0,0,1,.54,0,4.51,4.51,0,0,0,.54,0l.53-.05a1.09,1.09,0,0,0,.44-.08,1,1,0,0,0,.14-.38c0-.18.07-.36.1-.53a2.36,2.36,0,0,0,0-.53,2.62,2.62,0,0,0-.32-1.13,1.11,1.11,0,0,0-.28-.29l-.3-.22a1.79,1.79,0,0,0-1-.35,3.18,3.18,0,0,0-.68,0,.9.9,0,0,0-.56.31A1.5,1.5,0,0,0,33.52,193.51Z"/><path
      class="a107609e-f61c-4a88-924a-9ed47f8a9d92"
      d="M30.84,203.89a3.19,3.19,0,0,0,.08-.75c0-.18,0-.3,0-.37s.11-.08.32-.05l.79.1.3,0c.1,0,.2,0,.3,0l.49,0,.22,0,.23,0,.56,0c.17,0,.36,0,.58,0l1.15.12.93.08.41,0,.41.05.63,0,.63,0q.39,0,.75.09l.75.09.23,0,.24,0,.92.07.45,0,.45,0,.87.08.43.05.44,0,.39,0,.4,0,1.14,0h.51a.12.12,0,0,1,.14.14,2,2,0,0,0,0,.53,2.11,2.11,0,0,1-.07.54c-.07.22-.14.33-.21.34a2.32,2.32,0,0,1-.44,0l-.75-.14-.73-.11-.19,0-.19,0c-.24,0-.49-.08-.73-.13A6.08,6.08,0,0,0,43,205c-.41,0-.72-.07-.92-.07l-.35,0-.38,0-.25,0h-.73a5,5,0,0,1-.5-.07c-.13,0-.21.06-.21.25s0,.28-.08.54a3.64,3.64,0,0,1-.23.91c-.08.17-.16.33-.23.49s-.15.32-.24.49a1.51,1.51,0,0,1-.12.2l-.11.19a4.33,4.33,0,0,1-.63.7l-.18.14-.17.14-.36.22-.4.17-.39.15-.2.07-.21.06a8.68,8.68,0,0,1-1,.17,3.47,3.47,0,0,1-.55,0,4.5,4.5,0,0,1-.84-.22c-.22-.11-.39-.19-.52-.27a2,2,0,0,1-.44-.34,3.11,3.11,0,0,1-.51-.69,3.57,3.57,0,0,1-.28-.56,6.54,6.54,0,0,1-.28-.92,4.53,4.53,0,0,1-.16-.77c0-.08,0-.2,0-.34s0-.24,0-.31,0-.27,0-.42a2.67,2.67,0,0,1,0-.4c0-.11,0-.13-.17-.08l-.23.11c-.21.16-.32.13-.32-.07a.41.41,0,0,1,0-.22C30.8,204.06,30.82,204,30.84,203.89Zm2.19.85q0,.42,0,.66a5.31,5.31,0,0,0,0,.65,4.91,4.91,0,0,0,.13.94,1.51,1.51,0,0,0,.25.61,1.34,1.34,0,0,0,.45.39,1.89,1.89,0,0,0,.73.23,4.62,4.62,0,0,0,.8,0,3.11,3.11,0,0,0,.55-.07,4.1,4.1,0,0,0,.82-.4,2,2,0,0,0,.38-.35,4.37,4.37,0,0,0,.42-.57,3.21,3.21,0,0,0,.2-.46c0-.12.09-.29.16-.49a3.08,3.08,0,0,0,.13-.56q0-.34,0-.42c0-.05-.07-.09-.23-.11a1.91,1.91,0,0,1-.34-.08,2,2,0,0,0-.4-.06l-.54-.05-.54,0-.53-.06a.49.49,0,0,0-.17,0h-.17l-.33,0-.33,0-.47,0a3.25,3.25,0,0,0-.44,0h-.45C33.06,204.38,33,204.5,33,204.74Z"/><path
      class="a107609e-f61c-4a88-924a-9ed47f8a9d92"
      d="M30.62,211.43a2.51,2.51,0,0,1,.49-.08l.5,0a5.06,5.06,0,0,1,.53,0h.58l1.17-.1.93-.08.93-.06.32,0a3.16,3.16,0,0,1,.32,0c.15,0,.23,0,.24-.05a.81.81,0,0,0,0-.26c-.06-.32,0-.48.11-.47a5.07,5.07,0,0,0,.65-.05l.54-.09c.17,0,.27,0,.3.11a1.22,1.22,0,0,1,0,.32,1.88,1.88,0,0,0,0,.33c0,.11.12.18.33.19a7.75,7.75,0,0,0,1-.06c.38,0,.77-.08,1.17-.1a5.49,5.49,0,0,1,.58,0l.58,0,.36,0c.08,0,.12-.1.12-.28s.07-.39.24-.39h.46l.46,0c.21,0,.31,0,.31,0s0,.16,0,.39,0,.43,0,.65,0,.45,0,.67c0,.47,0,1,.06,1.64,0,.25,0,.5,0,.76l0,.77c0,.51,0,1,0,1.53a2.13,2.13,0,0,1,0,.35s-.11,0-.32,0a2.15,2.15,0,0,1-.45,0,1.4,1.4,0,0,0-.41,0c-.19,0-.29-.07-.32-.27v-.51a3.09,3.09,0,0,1,0-.43c0-.14,0-.29,0-.43s0-.29,0-.53v-.74a4.17,4.17,0,0,1,0-.5,4,4,0,0,0,0-.49c0-.12,0-.26,0-.41s-.05-.22-.13-.22a3.62,3.62,0,0,0-.57,0H39.8l-.48,0-.32,0c-.11,0-.21,0-.32,0a1,1,0,0,0-.33.07.93.93,0,0,0,0,.36,4.82,4.82,0,0,1,.05.77q0,.39,0,.78v.73c0,.23,0,.46,0,.7s0,.41,0,.62,0,.42,0,.63,0,.41,0,.62,0,.42.05.63,0,.32,0,.36-.09.07-.26.09a.88.88,0,0,1-.28,0,1.89,1.89,0,0,0-.35,0c-.4,0-.61-.19-.6-.54s0-.64,0-.88,0-.38,0-.56,0-.37,0-.55,0-.57,0-.84l0-.83c0-.23,0-.47,0-.71s0-.47-.05-.7c0-.4-.09-.61-.17-.61l-.67,0-.34,0-.3,0H34.15a3.6,3.6,0,0,0-.56,0l-.5.09-.2,0-.18,0-.37.08c-.06,0-.08.11-.05.3l.09.62c0,.21.07.43.1.66s0,.42.06.64.05.42.08.63,0,.37,0,.4a.7.7,0,0,1-.37,0,1.27,1.27,0,0,0-.75.11c-.17.09-.25.05-.24-.13s0-.32,0-.43,0-.35,0-.52a2.29,2.29,0,0,0-.09-.5c-.09-.36-.17-.7-.22-1a2.27,2.27,0,0,1-.05-.42c0-.13-.09-.17-.29-.11s-.28-.07-.3-.31a2.78,2.78,0,0,1,0-.49,1.34,1.34,0,0,0,0-.47c-.05-.17,0-.25.07-.25A2.4,2.4,0,0,0,30.62,211.43Z"/><path
      class="a107609e-f61c-4a88-924a-9ed47f8a9d92"
      d="M32.08,219.34l.66.09c.16,0,.24,0,.25.1a.91.91,0,0,1,0,.23,1,1,0,0,0,0,.64.84.84,0,0,0,.22.31l.28.27a2.39,2.39,0,0,0,.23.22l.26.22.53.5c.09.09.2.2.31.33l.3.31.43.39.43.45c.22.26.43.49.63.7l.66.67.31.35.3.35a7.6,7.6,0,0,0,.56.61q.16.15.12-.12l-.06-.26a2,2,0,0,1,0-.22c0-.25,0-.48,0-.69s0-.43,0-.68,0-.38,0-.53v-.64c0-.49,0-.93,0-1.31s0-.81,0-1.28V220a1.44,1.44,0,0,0,0-.39,2,2,0,0,0-.11-.29c0-.07,0-.11,0-.11a2.51,2.51,0,0,0,.39.05l.3,0h.47l.22,0h.24q.16,0,.18.27c0,.17,0,.31,0,.43s0,.36,0,.5,0,.32,0,.54,0,.49,0,.81,0,.59,0,.8,0,.36,0,.47,0,.24,0,.41,0,.34,0,.54,0,.42,0,.66,0,.39,0,.59,0,.38,0,.58c0,.75,0,1.42.05,2,0,.13,0,.25,0,.38a2.16,2.16,0,0,0,0,.36c0,.17-.11.27-.34.3s-.68.07-1.16.09h-.35c-.06,0-.06-.08,0-.24a2.9,2.9,0,0,0,.09-.34,3.42,3.42,0,0,1,.11-.35c0-.13,0-.21-.07-.26a1,1,0,0,1-.27-.22c-.44-.48-.83-.88-1.15-1.19l-.46-.46c-.16-.16-.31-.31-.47-.45s-.31-.3-.46-.46-.29-.33-.43-.48l-.32-.33-.32-.31c-.14-.14-.31-.29-.49-.44a4.41,4.41,0,0,1-.5-.45,2.26,2.26,0,0,0-.29-.25,1,1,0,0,1-.26-.28l-.19-.25s-.09,0-.16.17,0,.13-.08.29-.06.26-.07.32q-.09.51-.21,1c-.08.34-.15.68-.2,1l-.15.83-.15.83c-.06.3-.13.6-.2.89a6.8,6.8,0,0,0-.17.92c-.06.42-.11.89-.14,1.41,0,.11,0,.2,0,.26s-.08.11-.22.12a4.52,4.52,0,0,1-.67-.08,3.12,3.12,0,0,1-.61-.12c-.12-.06-.17-.11-.16-.15a.94.94,0,0,1,.06-.18c.08-.23.17-.54.27-.91,0-.07.06-.28.13-.65s.11-.59.13-.7c.05-.3.1-.6.16-.89l.18-.89c.07-.33.14-.66.2-1s.12-.66.17-1,.13-.83.2-1.13a4.16,4.16,0,0,1,.16-.63,1.37,1.37,0,0,0,.07-.62.43.43,0,0,0-.19-.31,1.48,1.48,0,0,1-.29-.22q-.18-.15-.18-.18s.06-.09.19-.2A.74.74,0,0,0,31,220a.46.46,0,0,1,.27-.34c.12-.06.17-.12.13-.17s0-.11.05-.16.23-.14.32-.11Z"/><path
      class="a107609e-f61c-4a88-924a-9ed47f8a9d92"
      d="M31.57,234.32a3.79,3.79,0,0,1,.23-1.14,4.59,4.59,0,0,1,.56-1,2.46,2.46,0,0,1,.5-.57,2.94,2.94,0,0,1,.89-.47l.45-.14a3,3,0,0,1,.46-.08,3.86,3.86,0,0,1,.68,0,2.64,2.64,0,0,1,.85.18,4.56,4.56,0,0,1,.59.24,2,2,0,0,1,.48.29,5.12,5.12,0,0,1,.8.77,3.29,3.29,0,0,1,.48.83,3.07,3.07,0,0,1,.23.89,3.56,3.56,0,0,1,0,.65l-.06.64a3.61,3.61,0,0,1-.12.54c-.09.25-.18.49-.28.72a3,3,0,0,1-.38.62,4.71,4.71,0,0,1-.47.49c-.15.11-.31.21-.48.32a3.22,3.22,0,0,1-1.59.39,5.53,5.53,0,0,1-1.42-.2l-.49-.19a3,3,0,0,1-.37-.21,2.94,2.94,0,0,1-.57-.46,2.51,2.51,0,0,1-.43-.66,5.53,5.53,0,0,1-.37-1.08c0-.14-.08-.34-.13-.6A3.21,3.21,0,0,1,31.57,234.32Zm1.68-.49a3.72,3.72,0,0,0-.13,1.09,2.7,2.7,0,0,0,.13.53,3.2,3.2,0,0,0,.48.74,2.85,2.85,0,0,0,.78.67,1.67,1.67,0,0,0,.75.16,2.41,2.41,0,0,0,.77-.11,2,2,0,0,0,.54-.29,1.75,1.75,0,0,0,.36-.36,3.37,3.37,0,0,0,.37-.79,1.74,1.74,0,0,0,.05-.51,2.81,2.81,0,0,0,0-.53l-.09-.34a1.91,1.91,0,0,0-.12-.35l-.2-.42a3.74,3.74,0,0,0-.26-.39,1.43,1.43,0,0,0-.42-.34,2.09,2.09,0,0,0-.53-.21,3.2,3.2,0,0,0-.49-.07,2.22,2.22,0,0,0-.68.06,1.36,1.36,0,0,0-.73.44,2.82,2.82,0,0,0-.25.37,2.92,2.92,0,0,0-.18.3A1.08,1.08,0,0,0,33.25,233.83Z"/><path
      class="a107609e-f61c-4a88-924a-9ed47f8a9d92"
      d="M37.15,242.68l-.09.11a.36.36,0,0,0-.07.09l-.39.45-.39.46-1,1.14-1,1.14-.31.37-.31.38a3.59,3.59,0,0,0-.32.44,5.35,5.35,0,0,1-.31.45l-.3.37c-.14.16-.23.24-.28.24a.68.68,0,0,1-.28-.15,2.33,2.33,0,0,0-.35-.23l-.34-.2c-.19-.1-.26-.18-.21-.23a3.9,3.9,0,0,0,.29-.34c.2-.26.4-.51.61-.76s.42-.49.62-.74.32-.4.49-.59l.5-.58.73-.87c.24-.29.48-.57.73-.85l.46-.59c.15-.19.3-.38.46-.56s.18-.23.23-.31a2.28,2.28,0,0,1,.24-.28c.11-.12.11-.17,0-.15l-.88.06-.61,0-.61,0-.51,0-.48.05-.29,0-.28.05-1.12.17-.75.11-.74.13a1.68,1.68,0,0,1-.44,0c-.07,0-.14-.12-.2-.34a2.14,2.14,0,0,1-.08-.54,4.88,4.88,0,0,0,0-.53c0-.09,0-.14.12-.14H30a1,1,0,0,1,.25,0h1.14l.62,0,.61-.06.65-.06c.21,0,.43,0,.66-.05l1.14-.09,1.14-.12c.41,0,.91-.09,1.5-.15.21,0,.42,0,.62-.05l.64,0,.87-.09.89-.07.56-.06.57-.05.58-.06a4.73,4.73,0,0,1,.56,0,14.71,14.71,0,0,0,1.56-.09l.79-.1c.21,0,.31,0,.32.06s0,.18,0,.36a2.42,2.42,0,0,0,.07.76c0,.08,0,.16.06.22a.78.78,0,0,1,0,.22c0,.2-.13.23-.33.07l-.23-.11c-.12-.05-.18,0-.17.08a1.09,1.09,0,0,1,0,.18,1.15,1.15,0,0,0,0,.19,1.55,1.55,0,0,0,0,.22v.23c0,.2,0,.35,0,.46a8.61,8.61,0,0,1-.17,1,9.07,9.07,0,0,1-.31.92,3,3,0,0,1-1.75,1.84,7.19,7.19,0,0,1-1,.25,5.55,5.55,0,0,1-.59,0,3.89,3.89,0,0,1-.74-.12l-.28-.09a2.74,2.74,0,0,1-.32-.12c-.37-.19-.69-.38-1-.55l-.23-.17-.27-.22a3.78,3.78,0,0,1-.49-.59,5,5,0,0,1-.26-.46c-.08-.17-.16-.32-.24-.47a.87.87,0,0,1-.07-.17.77.77,0,0,0-.07-.16Q37.21,242.53,37.15,242.68Zm6.35-1.78c0-.25,0-.37-.11-.37H43c-.28,0-.58,0-.91.05l-.41,0-.36,0-.66.06-.64.07-.64.07-.63.09c-.17,0-.26.06-.26.11a4.15,4.15,0,0,0,0,.42,2.93,2.93,0,0,0,.12.55c.07.21.12.38.17.5L39,243a1.77,1.77,0,0,0,.42.62,2.89,2.89,0,0,0,1.2.7l.24.06.32,0a4.82,4.82,0,0,0,.79,0,2,2,0,0,0,.72-.24,1.53,1.53,0,0,0,.42-.45,2.16,2.16,0,0,0,.31-.78,8.32,8.32,0,0,0,.13-.89c0-.27,0-.47,0-.6S43.51,241.1,43.5,240.9Z"/><path
      class="a732da37-3123-4d17-adec-3368060ad485"
      d="M143.23,242.29,67.83,118.4,39.3,135.76c12.53,20.59,62.91,103.31,75.43,123.88ZM68.15,124.81a2.62,2.62,0,0,1-.87,3.57A2.58,2.58,0,0,1,64.63,124,2.6,2.6,0,0,1,68.15,124.81Zm-23.34,14a2.5,2.5,0,0,1,1-3.35,2.56,2.56,0,0,1,3.09.45,2.6,2.6,0,0,1-.12,3.72,3.92,3.92,0,0,1-.32.25A2.58,2.58,0,0,1,44.81,138.79Zm92.88,100.3a2.57,2.57,0,0,1-4.4,2.66,2.57,2.57,0,1,1,4.4-2.66Zm-23.3,14.15a2.57,2.57,0,0,1,.87-3.5,2.62,2.62,0,0,1,3.52.94,2.54,2.54,0,1,1-4.39,2.56Z"/><path
      class="a107609e-f61c-4a88-924a-9ed47f8a9d92"
      d="M58.76,146.44l.26-.16a1.92,1.92,0,0,0,.26-.17c.15-.12.2-.21.14-.27s-.18-.23-.28-.34l-.27-.32a4.7,4.7,0,0,1-.83-1.44,4.11,4.11,0,0,1-.22-1.15,2.39,2.39,0,0,1,.32-1.32,2.26,2.26,0,0,1,.49-.57,3.69,3.69,0,0,1,.73-.54,3.62,3.62,0,0,1,1.2-.32,3.26,3.26,0,0,1,1.62.15,4,4,0,0,1,1.51,1.11,5.75,5.75,0,0,1,.42.63c.11.21.24.43.38.66s.14.21.16.19l.26-.15.19-.13.21-.12c.16-.07.25-.09.29-.05a2,2,0,0,1,.19.29,5.05,5.05,0,0,0,.25.45,1.89,1.89,0,0,1,.24.47c0,.13,0,.21,0,.23l-.24.13c-.91.5-1.83,1.05-2.76,1.66-.35.23-.71.44-1.09.65a7.85,7.85,0,0,0-1.05.67l-.67.48-.66.48c-.2.15-.3.2-.29.17a1.92,1.92,0,0,0-.21-.39,1.34,1.34,0,0,0-.28-.34,3.14,3.14,0,0,1-.31-.32C58.62,146.63,58.63,146.52,58.76,146.44Zm.63-3.46a4.35,4.35,0,0,0,.49,1c.1.16.2.33.31.48a3.92,3.92,0,0,0,.37.46c.11.12.18.18.22.17a2,2,0,0,0,.29-.14,4.25,4.25,0,0,0,.46-.27l.47-.28a4.92,4.92,0,0,0,.45-.28,4.39,4.39,0,0,1,.45-.3,1.29,1.29,0,0,0,.34-.28.93.93,0,0,0-.06-.41c0-.17-.11-.34-.16-.51a2.12,2.12,0,0,0-.23-.48,2.36,2.36,0,0,0-.82-.84.94.94,0,0,0-.37-.12l-.38,0a1.64,1.64,0,0,0-1,.16,2.77,2.77,0,0,0-.58.36.93.93,0,0,0-.35.54.83.83,0,0,0,0,.41Z"/><path
      class="a107609e-f61c-4a88-924a-9ed47f8a9d92"
      d="M67.53,147.87a.89.89,0,0,1,0,.15.23.23,0,0,0,0,.11c0,.23-.08.42-.1.59s-.06.36-.09.59c-.09.49-.17,1-.25,1.48l-.24,1.48c0,.16,0,.32-.07.48l-.06.49a4.31,4.31,0,0,0,0,.54c0,.15,0,.33,0,.54s0,.25-.06.48a.75.75,0,0,1-.12.35.73.73,0,0,1-.32,0,2.87,2.87,0,0,0-.41,0h-.4q-.33,0-.3-.09c0-.07,0-.22.07-.44s.08-.65.13-1,.1-.64.14-1,.07-.5.11-.75.09-.51.13-.76.12-.74.17-1.12l.18-1.11c0-.25.07-.49.09-.74s.06-.48.1-.72,0-.29,0-.38,0-.21,0-.37,0-.2-.08-.12l-.72.51-.51.35c-.17.11-.33.23-.49.35a3.34,3.34,0,0,0-.42.29l-.39.3-.23.17-.21.2-.87.72-.58.48-.57.5a2.6,2.6,0,0,1-.35.26c-.07,0-.19,0-.35-.19a2.18,2.18,0,0,1-.35-.41,3,3,0,0,0-.29-.44c-.06-.08,0-.14,0-.19a1,1,0,0,0,.22-.15,1.35,1.35,0,0,1,.21-.13c.17-.1.33-.2.47-.3a4.59,4.59,0,0,1,.51-.3c.17-.1.34-.22.51-.34l.5-.36.51-.4.54-.38c.31-.21.62-.44.93-.67l.92-.7c.33-.24.73-.54,1.19-.91l.51-.36c.18-.11.35-.24.53-.37l.7-.52c.23-.18.47-.35.72-.53l.45-.34.46-.34.46-.35a3.82,3.82,0,0,1,.47-.32,12.46,12.46,0,0,0,1.28-.89c.28-.21.49-.37.63-.49s.26-.17.29-.12.09.17.17.32a2.17,2.17,0,0,0,.45.62l.17.16a.5.5,0,0,1,.15.17c.09.18,0,.25-.24.23l-.26,0c-.13,0-.17.07-.1.15a.89.89,0,0,1,.08.17.65.65,0,0,0,.09.16,1.86,1.86,0,0,0,.1.2l.12.19c.11.17.18.31.23.4a8.92,8.92,0,0,1,.36.92c.08.26.15.58.22.93a2.83,2.83,0,0,1,0,1.48,2.88,2.88,0,0,1-.5,1,5.53,5.53,0,0,1-.72.73,4.89,4.89,0,0,1-.5.32,3.92,3.92,0,0,1-.69.28l-.29.07-.33.06a11,11,0,0,1-1.11,0l-.28,0-.35-.05a4.52,4.52,0,0,1-.73-.25l-.46-.26-.44-.28a.56.56,0,0,1-.15-.1l-.15-.11C67.55,147.75,67.51,147.77,67.53,147.87Zm4.5-4.82c-.14-.2-.24-.28-.29-.25a3,3,0,0,1-.37.23l-.74.52-.34.24L70,144l-.53.4-.5.39c-.18.12-.35.26-.52.39l-.49.41c-.13.11-.19.18-.16.23s.11.15.25.33a3.36,3.36,0,0,0,.39.41l.4.34.41.3a1.8,1.8,0,0,0,.68.32,3.05,3.05,0,0,0,1.39,0l.23-.08a1.75,1.75,0,0,0,.29-.13,4.32,4.32,0,0,0,.66-.45,2,2,0,0,0,.49-.58,1.53,1.53,0,0,0,.13-.61,2.48,2.48,0,0,0-.14-.82c-.12-.31-.24-.58-.36-.83s-.23-.41-.3-.52S72.15,143.22,72,143.05Z"/><path
      class="a107609e-f61c-4a88-924a-9ed47f8a9d92"
      d="M64.41,157.9a5.57,5.57,0,0,1,.9-.59c.18-.11.34-.19.49-.27l.53-.28c.33-.18.69-.4,1.1-.66l.85-.51.86-.5.28-.18.29-.18c.14-.09.21-.14.21-.17a.9.9,0,0,0-.15-.23c-.21-.28-.25-.44-.12-.5a6.52,6.52,0,0,0,.59-.35l.48-.35c.14-.11.25-.12.34,0a1.75,1.75,0,0,1,.18.29.92.92,0,0,0,.18.3c.09.11.15.16.18.13a.5.5,0,0,1,.22-.1,2.62,2.62,0,0,0,.5-.26l.48-.29.52-.34.55-.31q.48-.28,1-.6l1-.6.3-.16.31-.16.28-.16s.13.09.32.3a4.58,4.58,0,0,1,.35.45,1.67,1.67,0,0,0,.37.38c.11.09.08.19-.1.31l-.52.3-.88.48-.87.48a4.85,4.85,0,0,1-.67.31,6.93,6.93,0,0,0-.66.32l-.44.24-.44.25c-.27.15-.47.26-.59.34a1.16,1.16,0,0,0-.29.23,1.94,1.94,0,0,0,.2.32c.29.44.45.69.47.74l.46.78a1.9,1.9,0,0,1,.17.35s-.08.12-.24.22a1.69,1.69,0,0,1-.27.11l-.35.14a.93.93,0,0,1-.48.12q-.19,0-.36-.36c-.09-.17-.18-.34-.28-.5s-.23-.38-.38-.63-.39-.54-.46-.5l-.66.36-.57.25c-.54.24-1,.44-1.24.6s-.92.57-1.75,1.15-1.32.92-1.47,1.06-.3.07-.44-.15a2.21,2.21,0,0,1-.23-.47,1.47,1.47,0,0,0-.27-.42c-.13-.14-.14-.23,0-.28A2.67,2.67,0,0,0,64.41,157.9Z"/><path
      class="a107609e-f61c-4a88-924a-9ed47f8a9d92"
      d="M70.8,166.3l.67-.37.7-.36.33-.19.35-.18.36-.23a2.69,2.69,0,0,1,.38-.19c.2-.08.22-.23.07-.46s-.26-.4-.34-.52c-.26-.36-.53-.7-.8-1s-.54-.68-.8-1-.3-.38-.31-.36-.1.09-.25.23l-.43.36a5.38,5.38,0,0,1-.43.34l-.21.15-.21.17-.23.15a.66.66,0,0,0-.19.18,1.11,1.11,0,0,1-.32.28c-.07,0-.15-.08-.25-.3a1.51,1.51,0,0,0-.21-.38l-.26-.35c-.15-.19-.18-.33-.06-.41s.26-.18.46-.3l.18-.11.2-.12.38-.24a3,3,0,0,0,.37-.24,2.93,2.93,0,0,1,.35-.21c.1-.06.11-.16,0-.29a.29.29,0,0,0-.07-.1q-.15-.21-.06-.27l.36-.25a3,3,0,0,1,.43-.29l.33-.2c.05,0,.14,0,.26.17s.13.16.17.17.32,0,.57-.16l.17-.11.17-.12.17-.12.17-.11.69-.47.68-.47.43-.31a4.16,4.16,0,0,0,.39-.32.7.7,0,0,1,.18-.11q.12-.06.18,0a1.45,1.45,0,0,1,.11.25.89.89,0,0,0,.12.29,4.7,4.7,0,0,0,.26.41,1,1,0,0,1,.2.44c0,.05-.14.14-.38.26l-.39.19a7,7,0,0,0-.73.36l-.21.12-.21.12a3.43,3.43,0,0,0-.49.28c-.15.1-.3.2-.45.28a2.2,2.2,0,0,0-.53.46c-.07.09-.08.16,0,.22s.11.14.2.25l.23.33a4.15,4.15,0,0,0,.24.34c.33.44.64.87.93,1.27,0,.06.07.11.1.16l.13.17.11.16a.83.83,0,0,0,.12.16A1.21,1.21,0,0,1,75,164c0,.06.1.06.23,0a1.86,1.86,0,0,1,.36-.17l.4-.19.38-.2c.25-.15.57-.33,1-.53l.3-.16.31-.15a.7.7,0,0,1,.17-.09l.17-.09.09-.07.1-.05c.18-.09.27-.09.29,0a.77.77,0,0,0,.1.29s0,.08,0,.13,0,.08.07.13.09.18.14.27.09.18.13.28a1.4,1.4,0,0,1,.1.26s-.07.1-.22.2a.62.62,0,0,1-.24.1l-.44.1a2.65,2.65,0,0,0-.41.15l-.49.23-.5.27-.24.11-.24.1c-.4.21-.79.42-1.16.65-.21.12-.42.24-.65.35l-.67.33-.67.35a4.48,4.48,0,0,0-.6.35l-.52.34a3.77,3.77,0,0,0-.6.61c-.12.14-.26.06-.4-.26a2.37,2.37,0,0,0-.29-.51c-.09-.12-.21-.26-.34-.41l-.22-.23Z"/><path
      class="a107609e-f61c-4a88-924a-9ed47f8a9d92"
      d="M82.26,169.08c.12-.07.2-.11.23-.1s.1.09.2.25a2.57,2.57,0,0,1,.24.46,1.38,1.38,0,0,0,.29.42c.11.13.13.23,0,.29l-.32.21-.3.2-.23.17-.52.33-.48.29c-.16.1-.31.21-.46.32l-.44.31a3.88,3.88,0,0,0-.44.33c-.28.21-.57.43-.87.64l-.89.62-.57.4-.57.38a3.19,3.19,0,0,0-.38.26l-.37.27-.32.23-.28.24s-.11,0-.19-.15a3.23,3.23,0,0,0-.34-.42l-.23-.21a1.37,1.37,0,0,1-.19-.24s0-.1.16-.18l.17-.1a.86.86,0,0,0,.21-.11c.15-.11.19-.18.14-.22a2,2,0,0,1-.36-.35l-.37-.4a2.44,2.44,0,0,1-.33-.43,3.26,3.26,0,0,1-.29-.55c-.08-.18-.15-.37-.22-.57a7.14,7.14,0,0,1-.26-1.08,3.74,3.74,0,0,1-.07-1.08,3,3,0,0,1,.33-1.33,2.73,2.73,0,0,1,.42-.59,5.48,5.48,0,0,1,.58-.51,11.59,11.59,0,0,1,1-.71c.37-.26.64-.43.79-.53l.38-.23.47-.29L78,165l.27-.16.27-.16c.19-.12.3-.16.35-.14a1.18,1.18,0,0,1,.24.28l.27.35a2.17,2.17,0,0,1,.21.29c.12.25.09.42-.09.52a.5.5,0,0,1-.16.05,2,2,0,0,0-.47.19l-.43.24-.66.41-.66.39-.44.25a2.62,2.62,0,0,0-.43.27,2.23,2.23,0,0,0-.36.28,1.67,1.67,0,0,0-.3.32,2.39,2.39,0,0,0-.35.82c0,.16,0,.29,0,.39s0,.22,0,.39a2.28,2.28,0,0,0,.05.57c0,.2.1.39.15.56a2.23,2.23,0,0,0,.45.81l.28.3a2.86,2.86,0,0,0,.31.27,1.3,1.3,0,0,0,.19.13.62.62,0,0,1,.14.14.19.19,0,0,0,.3,0l.38-.25.43-.28.38-.28.39-.28.52-.39c.17-.13.35-.25.52-.36l.28-.19.28-.19.22-.16.21-.15.22-.15.22-.15.23-.2.24-.19.32-.27A2.13,2.13,0,0,1,82.26,169.08Z"/><path
      class="a107609e-f61c-4a88-924a-9ed47f8a9d92"
      d="M84.22,175.48a.78.78,0,0,1,0,.14.59.59,0,0,0,0,.11c0,.23-.07.43-.1.59s-.06.37-.09.6c-.09.49-.17,1-.25,1.48s-.16,1-.23,1.48c0,.16,0,.32-.07.48s0,.32-.07.48a4.28,4.28,0,0,0,0,.55c0,.14,0,.32,0,.54s0,.25-.07.47-.08.33-.12.35a.66.66,0,0,1-.32,0,1.89,1.89,0,0,0-.41,0H82c-.22,0-.32,0-.3-.1a4,4,0,0,0,.07-.44c0-.32.08-.64.13-1l.15-1c0-.25.07-.51.11-.76s.08-.5.13-.75.11-.75.16-1.12l.18-1.11c0-.25.07-.5.09-.74s.06-.49.1-.72,0-.3,0-.39,0-.21.06-.36,0-.2-.09-.13l-.72.51-.51.35-.49.35c-.16.11-.3.2-.42.3s-.24.19-.39.29l-.22.18-.22.19q-.55.48-.87.72l-.58.49-.57.5a1.57,1.57,0,0,1-.35.25c-.07,0-.18,0-.34-.18a1.51,1.51,0,0,1-.35-.42c-.09-.15-.19-.29-.3-.44s0-.13,0-.18l.21-.15.21-.13.48-.3a4.4,4.4,0,0,1,.5-.3l.51-.34.5-.37.52-.39c.17-.14.35-.26.54-.39s.62-.43.92-.67.61-.47.92-.69.73-.55,1.2-.91l.51-.37.53-.36c.22-.17.45-.35.69-.52l.72-.53.45-.34.46-.35.46-.35a4.79,4.79,0,0,1,.47-.31,14.26,14.26,0,0,0,1.28-.89c.29-.21.5-.38.63-.49s.26-.17.3-.12a3,3,0,0,1,.16.32,2.43,2.43,0,0,0,.46.61l.17.17a.61.61,0,0,1,.14.17c.1.17,0,.25-.24.22l-.26,0c-.13,0-.16.06-.1.15a.8.8,0,0,1,.08.16l.09.17.11.19.12.2c.1.17.18.3.22.39a6.32,6.32,0,0,1,.36.92c.08.27.15.58.22.94A2.94,2.94,0,0,1,91,174a3.06,3.06,0,0,1-.5,1,6.8,6.8,0,0,1-.73.72,3.47,3.47,0,0,1-.49.32,3.63,3.63,0,0,1-.7.28l-.29.08a1.94,1.94,0,0,1-.33,0c-.42,0-.79.05-1.11,0l-.28,0-.35-.05a3.45,3.45,0,0,1-.72-.25,3,3,0,0,1-.46-.26l-.45-.27-.15-.11-.14-.11C84.24,175.36,84.21,175.38,84.22,175.48Zm4.5-4.83c-.14-.2-.23-.28-.28-.24l-.37.23c-.24.15-.49.32-.75.52a4,4,0,0,0-.34.23l-.29.22-.53.39-.51.39-.52.39-.49.42c-.13.1-.19.18-.16.22s.11.16.25.34a3.43,3.43,0,0,0,.39.4l.4.34.41.3a1.76,1.76,0,0,0,.69.32,3,3,0,0,0,1.38,0l.24-.08.29-.13a6,6,0,0,0,.65-.45,2.08,2.08,0,0,0,.49-.59,1.48,1.48,0,0,0,.13-.6,2.3,2.3,0,0,0-.14-.83c-.12-.3-.24-.58-.36-.83l-.3-.52C88.93,171,88.84,170.82,88.72,170.65Z"/><path
      class="a107609e-f61c-4a88-924a-9ed47f8a9d92"
      d="M93.89,190.3c-.37.2-.58.21-.64,0a3.8,3.8,0,0,0-.59-1.12,8,8,0,0,0-.83-1,3.69,3.69,0,0,0-.87-.66,4.27,4.27,0,0,0-1.17-.4,2.3,2.3,0,0,0-.94,0,1.4,1.4,0,0,0-.29.09l-.28.11a3.7,3.7,0,0,0-.68.4,2.85,2.85,0,0,0-.62.5,2.14,2.14,0,0,0-.43.59,3.09,3.09,0,0,0-.22.54,1.63,1.63,0,0,0-.08.37c0,.13,0,.24,0,.35a2.5,2.5,0,0,0,.07.71,10.07,10.07,0,0,0,.33,1.18,2.65,2.65,0,0,0,.39.79,2,2,0,0,1,.16.21l.12.15c.15.17.23.25.26.24a1.88,1.88,0,0,0,.32-.14,2,2,0,0,1,.29-.16l.3-.16.48-.27c.36-.22.57-.35.63-.4s0-.27-.23-.64a2.86,2.86,0,0,1-.3-.58,3.7,3.7,0,0,0-.36-.56c-.14-.21-.19-.38-.14-.49a1.28,1.28,0,0,1,.35-.36,2.49,2.49,0,0,0,.24-.19.7.7,0,0,1,.18-.14c.17-.09.27-.12.28-.08l.2.33.55.91c.12.19.24.39.36.62s.35.62.54.92.38.61.57.91l.18.29a1.48,1.48,0,0,1,.15.31c0,.13,0,.22-.19.28l-.22.07-.2.09a4.89,4.89,0,0,0-.61.35c-.11.09-.23,0-.37-.35a.78.78,0,0,0-.15-.25s-.12,0-.29.16-.56.37-.77.51l-.52.38-.55.35-.47.31a1.8,1.8,0,0,0-.25.17l-.28.17c-.14.07-.24.06-.3,0s-.24-.35-.41-.58c-.07-.08-.18-.25-.34-.49l-.32-.52-.44-.76a8,8,0,0,1-.59-1.38c0-.07-.08-.21-.14-.41s-.09-.36-.12-.5,0-.26-.07-.47a4.24,4.24,0,0,1,0-.58,3.94,3.94,0,0,1,0-.55,2,2,0,0,1,.14-.58c.09-.22.18-.4.26-.56a3.49,3.49,0,0,1,.34-.52,5.43,5.43,0,0,1,.35-.44,3.84,3.84,0,0,1,.46-.45,5.25,5.25,0,0,1,.57-.41l.61-.37c.17-.1.41-.21.72-.35a3.65,3.65,0,0,1,1.35-.35,4.07,4.07,0,0,1,1.14.12,3.26,3.26,0,0,1,.75.3,4.26,4.26,0,0,1,.66.39,5.94,5.94,0,0,1,.93.77,12.49,12.49,0,0,1,1.45,1.83c.21.34.36.58.43.72s0,.29-.26.46a1.48,1.48,0,0,0-.25.16Z"/><path
      class="a107609e-f61c-4a88-924a-9ed47f8a9d92"
      d="M91.63,198.55a3.75,3.75,0,0,1-.4-1.1,4.76,4.76,0,0,1-.06-1.17,2.71,2.71,0,0,1,.14-.75,2.52,2.52,0,0,1,.52-.85,4.07,4.07,0,0,1,.3-.36,3.12,3.12,0,0,1,.35-.31,4.25,4.25,0,0,1,.58-.35,2.72,2.72,0,0,1,.83-.29,3.78,3.78,0,0,1,.62-.1,2.62,2.62,0,0,1,.56,0,4.53,4.53,0,0,1,1.08.24A3.23,3.23,0,0,1,97,194a3.34,3.34,0,0,1,.66.64,3.19,3.19,0,0,1,.35.55c.1.18.19.38.28.57a2.31,2.31,0,0,1,.18.52c.06.27.1.52.14.77a2.49,2.49,0,0,1,0,.73,3.54,3.54,0,0,1-.14.66,4.89,4.89,0,0,1-.25.52,2.62,2.62,0,0,1-.4.55,2.8,2.8,0,0,1-.75.61,5.22,5.22,0,0,1-1.32.56,3,3,0,0,1-.51.1H94.8a2.81,2.81,0,0,1-.73-.09,2.66,2.66,0,0,1-.71-.34,5.76,5.76,0,0,1-.87-.73c-.11-.1-.25-.25-.43-.45A3.73,3.73,0,0,1,91.63,198.55Zm1.18-1.29a3.31,3.31,0,0,0,.45,1,2.39,2.39,0,0,0,.39.39,3,3,0,0,0,.8.39,2.63,2.63,0,0,0,1,.16,1.64,1.64,0,0,0,.72-.25,2.39,2.39,0,0,0,.6-.49,2.14,2.14,0,0,0,.32-.53,2.06,2.06,0,0,0,.11-.5,3.19,3.19,0,0,0-.09-.86,1.58,1.58,0,0,0-.22-.47c-.11-.18-.21-.33-.29-.44l-.26-.25a2.64,2.64,0,0,0-.28-.23l-.39-.25a2.17,2.17,0,0,0-.43-.2,1.51,1.51,0,0,0-.53-.08,2.41,2.41,0,0,0-.57.1,3.18,3.18,0,0,0-.45.2,1.93,1.93,0,0,0-.54.4,1.32,1.32,0,0,0-.4.76,1.79,1.79,0,0,0,0,.44,2,2,0,0,0,0,.35A1.06,1.06,0,0,0,92.81,197.26Z"/><path
      class="a107609e-f61c-4a88-924a-9ed47f8a9d92"
      d="M94.23,204.38c-.17-.14-.22-.23-.16-.27a2.17,2.17,0,0,0,.35-.27l.76-.61.76-.61.6-.47c.21-.15.41-.3.61-.47s.59-.49.88-.75.59-.49.9-.72l1.23-.93,1.23-.94.56-.47a6.36,6.36,0,0,1,.57-.46l.41-.33a4.47,4.47,0,0,1,.41-.32l.15-.11.17-.11c.09,0,.19,0,.29.16a3.29,3.29,0,0,1,.23.33,3.93,3.93,0,0,1,.21.36,3.49,3.49,0,0,1,.18.36s-.09.1-.27.21a9.19,9.19,0,0,0-1,.67c-.2.16-.39.31-.57.47l-.59.45-.64.46-.64.46a12.73,12.73,0,0,0-1.41,1.09q-.28.24-.57.45l-.57.45-.51.42-.49.43-.39.32-.38.31c-.21.18-.41.35-.59.53a6.47,6.47,0,0,1-.56.5l-.3.21s-.11-.06-.28-.24a3.6,3.6,0,0,0-.3-.32l-.15-.12Z"/><path
      class="a107609e-f61c-4a88-924a-9ed47f8a9d92"
      d="M97.32,208.28l.27-.53c.1-.19.19-.36.28-.5q.67-1.09,1.41-2.13t1.41-2.13l.27-.45.21-.38a4.4,4.4,0,0,1,.3-.52c.11-.17.18-.25.23-.27a.73.73,0,0,1,.32.12l.39.2.17.07.18.06c.19.08.27.15.22.21s-.12.18-.24.37-.35.55-.52.82l-.53.81c-.34.54-.69,1.07-1,1.59s-.71,1-1,1.58c-.14.2-.27.41-.4.63s-.25.42-.38.62l-.21.32a2.93,2.93,0,0,1-.2.32q-.11.18,0,.15l.68-.13c.22-.05.45-.09.68-.12l.37-.07a1.86,1.86,0,0,1,.34-.06l.5-.07a3.38,3.38,0,0,0,.49-.11l.81-.24.84-.24.71-.2.73-.21a2.24,2.24,0,0,1,.42-.1c.08,0,.16.11.25.33a2,2,0,0,1,.13.52,3.39,3.39,0,0,0,.1.52.12.12,0,0,1-.12.15,1.09,1.09,0,0,0-.26,0,1,1,0,0,1-.24,0l-.56.07-.58.07c-.94.14-1.87.33-2.78.56s-1.84.46-2.77.65l-1.47.27c-.59.11-1.1.2-1.52.26l-.7.11-.66.09a8.94,8.94,0,0,0-1,.2c-.46.1-.91.22-1.36.35l-.87.27-.54.18c-.2,0-.3,0-.32-.12s0-.11-.06-.31a2.53,2.53,0,0,1-.06-.45,2.36,2.36,0,0,0-.1-.42c0-.17,0-.27.06-.28a1.89,1.89,0,0,0,.37-.1l.53-.14.52-.11a4.31,4.31,0,0,1,.56-.09c.16,0,.36,0,.6-.08l.62-.13.62-.12c.32-.07.65-.13,1-.18l1-.16a4.72,4.72,0,0,1,.62-.08,2.22,2.22,0,0,0,.64-.15.35.35,0,0,0,.17-.14,1.5,1.5,0,0,1,.09-.18,3.38,3.38,0,0,0,.24-.41Z"/><path
      class="a107609e-f61c-4a88-924a-9ed47f8a9d92"
      d="M102.7,217.54a2.2,2.2,0,0,1,.25-.17,2,2,0,0,0,.26-.18c.13-.13.17-.23.12-.29l-.3-.31c-.1-.1-.2-.21-.29-.32a4.63,4.63,0,0,1-.89-1.39,4.13,4.13,0,0,1-.29-1.15,2.29,2.29,0,0,1,.26-1.32,2.21,2.21,0,0,1,.46-.59,3.18,3.18,0,0,1,.7-.58,3.47,3.47,0,0,1,1.19-.38,3.24,3.24,0,0,1,1.63.08,3.85,3.85,0,0,1,2,1.63c.12.21.26.42.41.65s.14.2.17.18l.25-.17.18-.14a1.06,1.06,0,0,1,.2-.12c.16-.08.26-.1.3-.07a1.75,1.75,0,0,1,.19.28c.09.15.19.29.28.43a2.28,2.28,0,0,1,.26.46c.06.13.07.2,0,.23l-.24.15c-.85.52-1.74,1.12-2.67,1.78-.34.24-.69.48-1.06.7a7.79,7.79,0,0,0-1,.73l-.65.51c-.2.16-.41.33-.62.52s-.3.21-.29.18-.07-.15-.22-.38a2,2,0,0,0-.31-.33,3.07,3.07,0,0,1-.32-.31C102.57,217.73,102.57,217.63,102.7,217.54Zm.45-3.49a5.18,5.18,0,0,0,.53.93l.35.47a3.16,3.16,0,0,0,.39.44c.11.12.18.17.22.16a1.57,1.57,0,0,0,.29-.15c.15-.09.3-.18.45-.29s.3-.21.45-.3a3.84,3.84,0,0,0,.44-.32l.43-.32a1.13,1.13,0,0,0,.33-.29A.92.92,0,0,0,107,214c-.06-.17-.12-.33-.19-.5a2.12,2.12,0,0,0-.25-.47,2.56,2.56,0,0,0-.86-.79.94.94,0,0,0-.38-.1l-.38,0a1.78,1.78,0,0,0-1,.21,3.26,3.26,0,0,0-.56.38.92.92,0,0,0-.32.56A1.55,1.55,0,0,0,103.15,214.05Z"/><path
      class="a107609e-f61c-4a88-924a-9ed47f8a9d92"
      d="M111,219.38a.12.12,0,0,0-.13.14,2.43,2.43,0,0,1,0,.25c-.12.85-.26,1.7-.42,2.56s-.29,1.7-.39,2.56c0,.22,0,.38-.05.5a4.36,4.36,0,0,0,0,.5c0,.11,0,.2,0,.28s0,.17,0,.27c0,.28-.18.4-.43.37l-.44,0h-.19l-.19,0c-.21,0-.31,0-.3-.1a3.7,3.7,0,0,0,.07-.43c0-.33.08-.65.14-1s.09-.64.14-1c.08-.63.18-1.25.28-1.88s.21-1.24.31-1.86l.09-.74q0-.37.09-.72c0-.17,0-.3,0-.38a2.11,2.11,0,0,1,.05-.37q0-.24-.09-.12c-.33.24-.71.5-1.13.78l-.6.41a8.9,8.9,0,0,0-.81.58c-.23.18-.45.37-.66.56s-.42.37-.64.56-.4.32-.58.48l-.56.5a2,2,0,0,1-.36.26c-.07,0-.19,0-.34-.19a2.63,2.63,0,0,1-.35-.41,5,5,0,0,1-.29-.45.11.11,0,0,1,0-.18c.16-.1.31-.18.44-.27l.45-.3a5.71,5.71,0,0,1,.51-.31c.16-.1.38-.24.67-.45.61-.43,1.28-.94,2-1.54s1.36-1.07,1.85-1.41l1.22-.87c.48-.34.91-.63,1.28-.87l.59-.4.57-.35a16.4,16.4,0,0,0,1.63-1.27q1.17-1,1.38-1.2c.14-.14.29-.1.45.11a3.78,3.78,0,0,1,.26.43,1.58,1.58,0,0,0,.32.41c.13.12.15.21.06.26a1.39,1.39,0,0,0-.3.27,4.35,4.35,0,0,1-.41.34l-.44.31a3.79,3.79,0,0,1-.47.31,5.27,5.27,0,0,0-.5.33l-.52.37-.51.38-.81.57-.81.55c-.27.18-.61.38-1,.59s-.61.39-.65.51.08.22.37.33l.26.09.24.07a9.14,9.14,0,0,0,1.45.3c.44.06.87.14,1.31.23l1.3.25c.6.1,1.24.18,1.93.23a.7.7,0,0,1,.24,0,1.09,1.09,0,0,0,.26,0q.17,0,.12.15a3.34,3.34,0,0,0-.09.52,2.09,2.09,0,0,1-.11.53c-.09.21-.17.32-.24.32a1.72,1.72,0,0,1-.43-.08l-1.28-.33-1.27-.33-.77-.2a4,4,0,0,0-.77-.13l-.36-.06-.36-.06-.49-.08-.48-.08Z"/><path
      class="a107609e-f61c-4a88-924a-9ed47f8a9d92"
      d="M111.07,230.71a4.19,4.19,0,0,1-.39-1.1,4.36,4.36,0,0,1-.06-1.17,2.75,2.75,0,0,1,.13-.75,2.93,2.93,0,0,1,.52-.86l.31-.35a2,2,0,0,1,.35-.31,3.77,3.77,0,0,1,.58-.36,3,3,0,0,1,.82-.29,6,6,0,0,1,.63-.1,2.62,2.62,0,0,1,.56,0,5.21,5.21,0,0,1,1.08.24,3.45,3.45,0,0,1,.85.47,3.29,3.29,0,0,1,.66.63,3.55,3.55,0,0,1,.34.55c.1.19.2.38.29.58a3.6,3.6,0,0,1,.18.52c.06.27.1.52.13.76a2.94,2.94,0,0,1,0,.73c-.06.34-.11.56-.14.67s-.16.34-.25.51a3,3,0,0,1-1.16,1.17,5.38,5.38,0,0,1-1.31.56,4.38,4.38,0,0,1-.52.09,2.75,2.75,0,0,1-.43,0,2.48,2.48,0,0,1-.73-.1,2.55,2.55,0,0,1-.7-.33,5.92,5.92,0,0,1-.88-.74,5.09,5.09,0,0,1-.42-.45A3.35,3.35,0,0,1,111.07,230.71Zm1.19-1.3a3.7,3.7,0,0,0,.44,1,2.49,2.49,0,0,0,.4.39,2.9,2.9,0,0,0,.79.38,2.47,2.47,0,0,0,1,.16,1.52,1.52,0,0,0,.72-.25,2.39,2.39,0,0,0,.6-.49,2.26,2.26,0,0,0,.32-.53,1.88,1.88,0,0,0,.11-.5,3.7,3.7,0,0,0-.09-.86,2.3,2.3,0,0,0-.22-.46,3.28,3.28,0,0,0-.3-.44l-.26-.25a2.14,2.14,0,0,0-.28-.24l-.39-.25a2.09,2.09,0,0,0-.42-.19,1.33,1.33,0,0,0-.54-.08,2,2,0,0,0-.56.1,3.21,3.21,0,0,0-.45.19,2,2,0,0,0-.55.41,1.3,1.3,0,0,0-.4.75,2.64,2.64,0,0,0,0,.45,1.9,1.9,0,0,0,0,.34A1,1,0,0,0,112.26,229.41Z"/><path
      class="a107609e-f61c-4a88-924a-9ed47f8a9d92"
      d="M115.56,238.48a1.75,1.75,0,0,1,.11-.24,2,2,0,0,0,.14-.25l.09-.22a2.12,2.12,0,0,1,.11-.21c.1-.22.22-.44.34-.66a3.14,3.14,0,0,0,.18-.37,2,2,0,0,1,.17-.36,3,3,0,0,1,.21-.4q.11-.18.21-.39a6.63,6.63,0,0,0,.4-.94,1.19,1.19,0,0,1,.11-.26l.12-.26c0-.08.07-.16.11-.25l.12-.26a5.38,5.38,0,0,0,.19-.51c.1-.33.17-.59.24-.77l.14-.41,0-.2c0-.1.07-.13.15-.09l.16.11.17.11.14.1.14.11a3.09,3.09,0,0,0,.29.2l.14.09a.3.3,0,0,1,.13.4l-.09.18-.17.32c-.05.1-.1.21-.15.34s-.07.14-.12.22-.09.16-.12.22-.11.23-.15.3a1.92,1.92,0,0,0-.13.28,2.86,2.86,0,0,0-.16.4c0,.11-.08.21-.11.31s-.08.2-.11.3q-.19.5-.3.72a5.58,5.58,0,0,0-.21.52c-.11.32-.2.55-.27.7a2.6,2.6,0,0,1-.12.24c0,.05,0,.07.17.07a.79.79,0,0,0,.25,0,1.1,1.1,0,0,1,.26-.06l.52-.08.53-.08.45-.1a2.92,2.92,0,0,1,.46-.08l.39-.07.39-.07.45-.08c.16,0,.31-.06.47-.09l.45-.09.45-.07c.17,0,.28,0,.32.08a3.51,3.51,0,0,1,.15.32,1.73,1.73,0,0,0,.16.37,2.75,2.75,0,0,1,.15.36c0,.21-.07.3-.35.28a3.45,3.45,0,0,0-.64,0l-.65.07-.38,0-.39.06c-.42.05-.77.11-1,.17l-.36.09-.35.08-.54.12-.53.14c-.32.09-.61.19-.88.29l-.28.11-.28.11a1.9,1.9,0,0,0-.41.23l-.21.12s-.07,0-.18-.13a1.36,1.36,0,0,1-.22-.28c-.08-.11-.15-.21-.22-.29l-.26-.29C115.48,238.77,115.49,238.66,115.56,238.48Z"/><path
      class="a732da37-3123-4d17-adec-3368060ad485"
      d="M164.57,319.06l-145,0v33.4c24.09,0,121-.07,145-.07ZM25.18,322.17a2.61,2.61,0,0,1,2.6,2.59,2.58,2.58,0,1,1-2.6-2.59ZM25,349.37a2.51,2.51,0,0,1-2.36-2.57,2.58,2.58,0,0,1,2-2.41,2.62,2.62,0,0,1,3.12,2c0,.14,0,.27,0,.41A2.59,2.59,0,0,1,25,349.37Zm134-27.23a2.57,2.57,0,1,1,0,5.13,2.57,2.57,0,1,1,0-5.13Zm0,27.25a2.57,2.57,0,0,1-2.54-2.56,2.61,2.61,0,0,1,2.63-2.51,2.54,2.54,0,1,1-.09,5.07Z"/><path
      class="a107609e-f61c-4a88-924a-9ed47f8a9d92"
      d="M40.89,341.47a.92.92,0,0,1-.13-.24l-.12-.25a2.25,2.25,0,0,1-.12-.21,1.39,1.39,0,0,1-.11-.21c-.12-.22-.24-.44-.34-.67a2.31,2.31,0,0,0-.18-.35,3.07,3.07,0,0,1-.2-.36c-.07-.13-.13-.26-.19-.4s-.12-.27-.19-.4a6.49,6.49,0,0,0-.52-.88c0-.08-.1-.15-.15-.24l-.13-.26c-.1-.17-.2-.33-.28-.48a1.14,1.14,0,0,1-.15-.23,2.3,2.3,0,0,0-.15-.23c-.18-.23-.34-.45-.48-.65l-.12-.18a1.13,1.13,0,0,0-.12-.18l-.08-.06-.06-.08c-.07-.08-.07-.13,0-.18l.18-.06.2-.08.33-.1.34-.1.07,0,.08,0a.29.29,0,0,1,.39.13,1,1,0,0,0,.1.17l.16.33.18.33a1.67,1.67,0,0,1,.11.23,2.25,2.25,0,0,0,.11.22l.15.3a1.37,1.37,0,0,0,.14.26l.12.19.11.19.18.27.19.27c.16.26.3.48.41.67a3.44,3.44,0,0,0,.29.47l.2.31c.07.11.13.22.2.32l.12.24s.07,0,.15-.1a.63.63,0,0,0,.12-.23.72.72,0,0,1,.1-.24c.08-.16.16-.32.25-.47l.23-.47c.07-.15.14-.29.19-.43l.21-.42a3.65,3.65,0,0,0,.18-.34c.06-.12.12-.24.17-.36l.21-.42c.07-.14.14-.28.2-.42a6.1,6.1,0,0,1,.41-.82c.07-.16.16-.23.24-.22l.36.08a2.32,2.32,0,0,0,.38.07,1.59,1.59,0,0,1,.39.1c.19.09.19.24,0,.45a3.13,3.13,0,0,0-.38.53l-.32.56-.19.34-.18.34c-.09.16-.18.32-.26.48s-.16.32-.23.48-.1.22-.14.33a1.62,1.62,0,0,1-.13.33c-.13.27-.27.61-.43,1a8.47,8.47,0,0,0-.28.88,2.13,2.13,0,0,1-.09.3,2.06,2.06,0,0,0-.07.29,1.45,1.45,0,0,0-.06.47,1.49,1.49,0,0,0,0,.23s-.07,0-.22.07c0,0,0,0-.22,0h-.5l-.39.06C41.07,341.7,41,341.63,40.89,341.47Z"/><path
      class="a107609e-f61c-4a88-924a-9ed47f8a9d92"
      d="M51.17,340.64a3,3,0,0,1,0-.31,1.62,1.62,0,0,0,0-.31c0-.18-.1-.27-.18-.26l-.42.1a3.1,3.1,0,0,1-.42.08,4.69,4.69,0,0,1-1.66,0,4.11,4.11,0,0,1-1.13-.35,2.28,2.28,0,0,1-1-.91,2.22,2.22,0,0,1-.27-.7,3.11,3.11,0,0,1-.13-.9,3.41,3.41,0,0,1,.29-1.21,3.34,3.34,0,0,1,.91-1.35,4,4,0,0,1,1.69-.8,3.28,3.28,0,0,1,.75-.07h.77q.25,0,.24-.06s0-.13,0-.3a2,2,0,0,0,0-.23.88.88,0,0,1,0-.23c0-.18,0-.27.1-.29a2,2,0,0,1,.33,0,4.43,4.43,0,0,0,.52,0,3.05,3.05,0,0,1,.52,0c.14,0,.21.05.21.1s0,.13,0,.27c0,1,0,2.08.13,3.22,0,.41.05.83.05,1.26a8.69,8.69,0,0,0,.09,1.26c0,.29.07.56.1.81s.07.53.12.81,0,.36,0,.34a1.53,1.53,0,0,0-.44,0,1.49,1.49,0,0,0-.44.09,2.83,2.83,0,0,1-.44.11C51.26,340.85,51.17,340.79,51.17,340.64Zm-2.75-2.2a5.93,5.93,0,0,0,1.07,0l.58-.06a3.07,3.07,0,0,0,.58-.1c.16,0,.24-.07.25-.11a2.36,2.36,0,0,0,0-.32c0-.18,0-.36,0-.54s0-.36,0-.54,0-.37,0-.54a4.15,4.15,0,0,1-.05-.53,1.32,1.32,0,0,0-.08-.44,1,1,0,0,0-.39-.14l-.53-.1a2.33,2.33,0,0,0-.53,0,2.57,2.57,0,0,0-1.12.32,1.11,1.11,0,0,0-.29.28,3,3,0,0,1-.23.3,1.78,1.78,0,0,0-.34,1,3.13,3.13,0,0,0,0,.68.88.88,0,0,0,.32.56A1.42,1.42,0,0,0,48.42,338.44Z"/><path
      class="a107609e-f61c-4a88-924a-9ed47f8a9d92"
      d="M61.06,341.29l-.32-.1-.33-.08c-.16,0-.23-.08-.23-.13a1.25,1.25,0,0,1,.07-.21,1.28,1.28,0,0,0,.12-.65,1.06,1.06,0,0,0-.18-.33l-.25-.3c-.07-.09-.21-.26-.43-.5s-.25-.3-.45-.56l-.28-.37-.25-.34-.38-.45c-.13-.15-.24-.32-.36-.49a9.42,9.42,0,0,0-.55-.78c-.17-.22-.35-.48-.54-.76-.09-.11-.18-.24-.28-.38s-.18-.27-.25-.38a6.8,6.8,0,0,0-.47-.68c-.1-.11-.15-.08-.14.09a4.76,4.76,0,0,1,0,.5c0,.24,0,.46-.08.67s-.07.44-.1.67-.06.39-.08.54-.05.36-.08.63c-.07.48-.12.92-.16,1.29s-.1.81-.16,1.28c0,.13,0,.25,0,.36a1.34,1.34,0,0,0,0,.4,1.35,1.35,0,0,0,.08.3c0,.1,0,.13-.07.1l-.38-.09-.29-.06a2,2,0,0,0-.24,0l-.23,0H53.5l-.23,0c-.11,0-.16-.12-.14-.3a2.1,2.1,0,0,1,0-.43q.06-.27.09-.48l.1-.53c0-.22.08-.49.13-.8s.09-.58.13-.79,0-.36.06-.47,0-.24.06-.4,0-.35.08-.54.07-.41.1-.65.06-.39.07-.58a5.41,5.41,0,0,1,.07-.58c.09-.73.15-1.4.2-2a2.45,2.45,0,0,1,0-.38l.06-.37c0-.17.13-.25.36-.25a11.54,11.54,0,0,1,1.17.07l.34,0c.06,0,0,.08,0,.23s-.1.23-.14.33-.08.21-.13.33-.05.21,0,.26a1.26,1.26,0,0,1,.24.26l.48.68.51.65.39.52c.14.17.27.34.41.5s.26.34.39.52.25.36.38.53l.26.36.28.35a4.93,4.93,0,0,0,.44.5,6.66,6.66,0,0,1,.44.51,2.17,2.17,0,0,0,.24.29,1.5,1.5,0,0,1,.24.31c.06.12.1.21.14.27s.09,0,.18-.15l.11-.27c.06-.14.1-.25.12-.31.1-.33.22-.66.34-1s.23-.65.34-1,.16-.53.25-.8.17-.53.26-.8.19-.59.3-.87.21-.57.3-.88.2-.82.33-1.38a1.46,1.46,0,0,1,.06-.26c0-.07.09-.1.23-.09a5.55,5.55,0,0,1,.66.16,5.75,5.75,0,0,1,.58.2q.18.12.15.18a.89.89,0,0,1-.09.16c-.1.22-.23.51-.38.88l-.21.62c-.12.36-.19.59-.22.69-.09.28-.19.57-.28.86s-.2.57-.29.85l-.33,1c-.11.32-.2.63-.29.95s-.11.38-.16.56-.11.36-.18.54-.16.38-.25.6a1.31,1.31,0,0,0-.14.61.38.38,0,0,0,.14.33,2,2,0,0,1,.26.24.77.77,0,0,1,.15.22s-.07.07-.21.17a.83.83,0,0,0-.3.39.49.49,0,0,1-.3.31c-.13,0-.19.09-.16.15s0,.11-.07.15-.25.11-.34.06A2.42,2.42,0,0,0,61.06,341.29Z"/><path
      class="a107609e-f61c-4a88-924a-9ed47f8a9d92"
      d="M69.27,340.5,69,340c-.11-.19-.2-.35-.28-.51-.39-.76-.75-1.53-1.09-2.31s-.69-1.55-1.08-2.31l-.25-.46L66,334a4.51,4.51,0,0,1-.29-.52.71.71,0,0,1-.11-.33c0-.05.1-.12.27-.22l.37-.23a.72.72,0,0,0,.15-.11l.15-.13c.17-.11.26-.14.29-.07s.09.2.19.4.29.58.43.87l.42.87c.28.57.55,1.14.81,1.72s.53,1.15.81,1.71l.33.66.34.65a2.91,2.91,0,0,0,.17.35,3.5,3.5,0,0,1,.16.33c.06.13.11.14.15.06s.15-.44.23-.65.17-.43.26-.65.09-.24.13-.35a2.56,2.56,0,0,1,.12-.32l.2-.46a3.79,3.79,0,0,0,.17-.48l.21-.82c.07-.28.15-.56.23-.83s.14-.49.2-.72l.2-.73a1.77,1.77,0,0,1,.14-.41c0-.07.17-.08.4,0a1.9,1.9,0,0,1,.51.15,3,3,0,0,0,.5.19.12.12,0,0,1,.07.18.84.84,0,0,0-.1.25l-.09.22c-.09.18-.17.36-.24.52s-.14.33-.23.52a26,26,0,0,0-1,2.68c-.27.91-.57,1.8-.89,2.69l-.53,1.41c-.21.56-.4,1-.57,1.42l-.27.66c-.08.21-.17.42-.26.61s-.2.51-.35.95-.29.9-.41,1.36-.16.62-.21.88-.1.43-.14.55-.16.26-.26.22l-.3-.12c-.2-.07-.33-.13-.42-.17a1.26,1.26,0,0,0-.41-.14c-.18-.05-.24-.11-.21-.2a1.66,1.66,0,0,0,.11-.37c0-.17.1-.35.16-.52l.17-.5a3.7,3.7,0,0,1,.22-.52c.07-.15.15-.34.24-.56l.21-.6c.08-.2.15-.39.22-.59s.22-.63.35-.93.25-.6.36-.9.15-.36.25-.57a2,2,0,0,0,.21-.63.34.34,0,0,0,0-.21,1.94,1.94,0,0,1-.1-.17,4.49,4.49,0,0,0-.24-.42C69.43,340.78,69.35,340.64,69.27,340.5Z"/><path
      class="a107609e-f61c-4a88-924a-9ed47f8a9d92"
      d="M80,340.71c0-.1,0-.2,0-.3a1.73,1.73,0,0,0,0-.32c0-.18-.1-.26-.17-.25l-.42.1-.43.07a4.41,4.41,0,0,1-1.65,0,3.71,3.71,0,0,1-1.13-.35,2.26,2.26,0,0,1-1-.9,2.4,2.4,0,0,1-.27-.71,3.11,3.11,0,0,1-.13-.9A3.16,3.16,0,0,1,75,336a3.38,3.38,0,0,1,.91-1.36,4.08,4.08,0,0,1,1.69-.8,3.88,3.88,0,0,1,.75-.07c.24,0,.5,0,.77,0s.25,0,.24-.06,0-.13,0-.3,0-.15,0-.22a1.93,1.93,0,0,1,0-.24c0-.17.05-.27.1-.28a1.2,1.2,0,0,1,.34,0,4.51,4.51,0,0,0,.52,0,2.29,2.29,0,0,1,.52,0q.21,0,.21.09s0,.14,0,.28c0,1,0,2.07.13,3.21,0,.41,0,.84,0,1.27a8.45,8.45,0,0,0,.09,1.25c0,.29.07.56.1.82s.07.52.12.8,0,.36,0,.34a1.41,1.41,0,0,0-.45,0,2.14,2.14,0,0,0-.44.08,2.43,2.43,0,0,1-.43.12C80.07,340.92,80,340.86,80,340.71Zm-2.75-2.2a4.51,4.51,0,0,0,1.07,0l.58-.05a3.11,3.11,0,0,0,.58-.11c.15,0,.24-.07.25-.11a2.16,2.16,0,0,0,0-.32c0-.17,0-.35,0-.53a5.06,5.06,0,0,1,0-.54,4.32,4.32,0,0,0,0-.54c0-.17,0-.35-.05-.54a1.14,1.14,0,0,0-.08-.44,1,1,0,0,0-.38-.14l-.53-.1a1.89,1.89,0,0,0-.53,0,2.49,2.49,0,0,0-1.13.32,1.08,1.08,0,0,0-.29.27c-.06.1-.14.2-.22.31a1.76,1.76,0,0,0-.35,1,3.09,3.09,0,0,0,0,.67.9.9,0,0,0,.31.57A1.59,1.59,0,0,0,77.23,338.51Z"/><path
      class="a107609e-f61c-4a88-924a-9ed47f8a9d92"
      d="M90.33,341.6c0-.08-.09-.16-.13-.24l-.12-.25L90,340.9l-.11-.21c-.12-.22-.23-.45-.33-.67a3.9,3.9,0,0,0-.19-.35c-.07-.11-.13-.23-.2-.36s-.13-.26-.19-.4-.12-.27-.19-.41a7.16,7.16,0,0,0-.52-.88l-.15-.23c0-.09-.09-.17-.13-.26s-.2-.33-.28-.49a1.3,1.3,0,0,1-.15-.23l-.15-.22c-.18-.23-.34-.45-.47-.65l-.13-.18a.57.57,0,0,0-.12-.18l-.08-.07-.06-.07c-.07-.08-.07-.14,0-.18l.17-.06.2-.08.33-.1.34-.11.07,0,.08,0a.3.3,0,0,1,.39.13l.1.18.17.33a2,2,0,0,0,.17.32c0,.07.07.15.11.23l.11.23c.07.13.12.22.15.29a1.77,1.77,0,0,0,.14.27l.12.19.12.19c0,.09.11.18.17.27l.19.27c.16.25.3.48.41.67a3.31,3.31,0,0,0,.29.46l.2.32c.07.11.14.21.2.32l.12.23q0,.07.15-.09a.57.57,0,0,0,.12-.23,1.09,1.09,0,0,1,.1-.25l.25-.47c.08-.15.16-.31.23-.47a3.89,3.89,0,0,0,.19-.42q.09-.2.21-.42a2.79,2.79,0,0,0,.18-.34l.18-.36c.06-.14.13-.28.2-.42s.14-.28.2-.43a6.76,6.76,0,0,1,.41-.82c.08-.15.16-.23.24-.22l.36.08a1.59,1.59,0,0,0,.39.08,1.26,1.26,0,0,1,.38.1c.19.09.2.24,0,.44a4.15,4.15,0,0,0-.37.53l-.33.56-.19.35-.18.34-.26.48c-.08.16-.16.32-.23.48s-.1.22-.14.33a2.26,2.26,0,0,1-.13.33c-.13.27-.27.61-.43,1a7.75,7.75,0,0,0-.28.88,2.45,2.45,0,0,1-.08.29,1.32,1.32,0,0,0-.08.3,1.38,1.38,0,0,0-.06.46,1.68,1.68,0,0,0,0,.23s-.07,0-.21.07h-.23l-.25,0H91l-.39.05C90.51,341.83,90.42,341.76,90.33,341.6Z"/><path
      class="a107609e-f61c-4a88-924a-9ed47f8a9d92"
      d="M96.81,341.41a1.93,1.93,0,0,1-.08-.49c0-.16,0-.33,0-.5a5.29,5.29,0,0,1,0-.53c0-.17,0-.36,0-.58q0-.75-.09-1.17t-.09-.93q0-.48-.06-.93l0-.32a3.11,3.11,0,0,1,0-.32c0-.15,0-.23,0-.24a.79.79,0,0,0-.26,0c-.32.06-.48,0-.48-.11a4.61,4.61,0,0,0,0-.65l-.1-.54c0-.17,0-.27.12-.3a1.17,1.17,0,0,1,.32,0,1.77,1.77,0,0,0,.32,0c.12,0,.18-.12.2-.33s0-.58-.06-1.05-.08-.77-.1-1.17c0-.19,0-.38,0-.58s0-.39,0-.58,0-.29,0-.37-.11-.11-.28-.11-.4-.07-.4-.24,0-.33,0-.46,0-.28,0-.46,0-.31,0-.31h1.71c.48,0,1,0,1.64-.06l.76,0,.77,0h1.54l.35,0s0,.11,0,.32a3.19,3.19,0,0,1,0,.45.94.94,0,0,0,0,.41c0,.19-.08.29-.28.32H99.31a4,4,0,0,1-.49,0h-.5a2.57,2.57,0,0,1-.4,0c-.15,0-.22,0-.22.13a3.62,3.62,0,0,0,0,.57c0,.19,0,.38,0,.57s0,.34,0,.52a4.17,4.17,0,0,0,0,.5c0,.17,0,.33,0,.47a4.12,4.12,0,0,0,0,.48l0,.32a1.73,1.73,0,0,0,0,.32,1,1,0,0,0,.07.33s.13,0,.35,0a4.9,4.9,0,0,1,.77-.05h1.51l.71,0,.62,0,.63,0,.62,0,.63-.05.36,0s.07.09.09.26a1.37,1.37,0,0,1,0,.28,1.83,1.83,0,0,0,0,.35q0,.6-.54.6h-.87l-.57,0-.55,0-.84,0-.82,0-.71,0-.7.05c-.41,0-.61.09-.61.17s0,.3,0,.67a1.88,1.88,0,0,1,0,.34c0,.11,0,.21,0,.3s0,.45,0,.66,0,.42,0,.62a3.64,3.64,0,0,0,0,.56c0,.18.06.35.09.5a1.68,1.68,0,0,1,0,.2q0,.08,0,.18c0,.19.07.31.08.37s.11.08.31.05l.62-.09.66-.1.63-.06.64-.08c.24,0,.37,0,.4,0a.7.7,0,0,1,0,.37,1.19,1.19,0,0,0,.11.75c.09.17,0,.25-.14.25H101l-.52.05a2.28,2.28,0,0,0-.51.09c-.36.09-.69.16-1,.22a2.37,2.37,0,0,1-.43.05c-.12,0-.16.09-.11.29s-.06.28-.31.3a2.75,2.75,0,0,1-.49,0,1.35,1.35,0,0,0-.47,0c-.16.05-.24,0-.25-.07A2.2,2.2,0,0,0,96.81,341.41Z"/><path
      class="a107609e-f61c-4a88-924a-9ed47f8a9d92"
      d="M112.5,341.42l-.32-.09-.33-.09c-.15,0-.23-.08-.23-.12a1.28,1.28,0,0,1,.07-.22,1.26,1.26,0,0,0,.12-.65,1.06,1.06,0,0,0-.18-.33,1.76,1.76,0,0,1-.24-.3c-.07-.09-.22-.25-.43-.49s-.26-.31-.46-.57l-.28-.37-.25-.34-.38-.45a4.73,4.73,0,0,1-.35-.49c-.2-.29-.38-.55-.55-.78a8.89,8.89,0,0,1-.55-.76l-.28-.37c-.1-.15-.18-.27-.25-.39a6.32,6.32,0,0,0-.47-.68c-.1-.11-.15-.08-.14.09a2.91,2.91,0,0,1,0,.5c0,.24-.05.46-.08.68s-.07.43-.1.66-.06.39-.08.54,0,.37-.08.64c-.06.48-.12.91-.16,1.29s-.1.8-.16,1.28c0,.12,0,.24,0,.35a1.78,1.78,0,0,0,0,.4,1.35,1.35,0,0,0,.08.3c0,.1,0,.13-.07.1l-.38-.09-.29-.06-.24,0-.23,0H105a.85.85,0,0,1-.23,0c-.12,0-.16-.12-.15-.3a2,2,0,0,1,.05-.42l.1-.49c0-.15,0-.32.09-.53s.08-.49.13-.8.09-.58.13-.79.05-.36.06-.47,0-.24.06-.4,0-.34.08-.53.07-.41.1-.66a5.73,5.73,0,0,0,.07-.58c0-.19,0-.39.07-.58.09-.73.15-1.39.2-2a2.58,2.58,0,0,1,0-.38l.06-.37c0-.16.13-.25.36-.25s.69,0,1.17.07l.35,0s0,.09,0,.23-.1.24-.14.34a2.69,2.69,0,0,1-.13.32c-.06.13,0,.21,0,.26a1,1,0,0,1,.24.26c.16.23.32.46.49.68l.5.66.4.51c.13.17.26.34.4.5l.39.52c.13.18.25.36.38.53a4.33,4.33,0,0,0,.27.37l.27.34a5.08,5.08,0,0,0,.44.5,6.66,6.66,0,0,1,.44.51,1.68,1.68,0,0,0,.24.29,1.5,1.5,0,0,1,.24.31l.14.27c0,.06.09,0,.18-.14s0-.12.11-.27l.12-.32c.11-.33.22-.66.34-1s.24-.65.34-1,.16-.53.25-.8.17-.53.26-.8.2-.59.3-.87.21-.57.3-.88.2-.82.33-1.38c0-.12,0-.21.06-.26s.09-.1.23-.09a4.48,4.48,0,0,1,.66.17,4.53,4.53,0,0,1,.58.19q.18.12.15.18a1.47,1.47,0,0,1-.09.17c-.1.21-.23.5-.38.87l-.21.63c-.12.35-.19.58-.22.68-.09.29-.18.57-.28.86s-.2.57-.29.85l-.33,1c-.1.32-.2.64-.29,1s-.11.38-.16.56-.11.36-.18.54-.15.38-.25.6a1.46,1.46,0,0,0-.14.62.39.39,0,0,0,.14.32,2,2,0,0,1,.26.24,1,1,0,0,1,.15.22s-.07.08-.21.17a.83.83,0,0,0-.3.39.47.47,0,0,1-.3.31c-.13,0-.19.09-.16.15s0,.11-.07.15a.36.36,0,0,1-.34.07A2.33,2.33,0,0,0,112.5,341.42Z"/><path
      class="a107609e-f61c-4a88-924a-9ed47f8a9d92"
      d="M126.12,335.17l-.53,1c-.18.33-.29.54-.32.61a3.58,3.58,0,0,1-.25.52l-.3.49a5.14,5.14,0,0,1-.37.53,1.27,1.27,0,0,0-.26.57.38.38,0,0,0,.07.35,1.94,1.94,0,0,1,.21.29,1,1,0,0,1,.1.24s-.09.06-.24.13a.85.85,0,0,0-.38.32.43.43,0,0,1-.36.23c-.14,0-.2.06-.18.13s0,.11-.1.13l-.12,0c-.17,0-.27,0-.3-.08a1.19,1.19,0,0,0-.21-.17l-.29-.15-.3-.15c-.14-.07-.21-.13-.2-.17a.52.52,0,0,1,.1-.2,1.09,1.09,0,0,0,.25-.6,1.07,1.07,0,0,0-.1-.36,4,4,0,0,1-.17-.36,1.57,1.57,0,0,0-.19-.26,1,1,0,0,1-.17-.28c-.19-.42-.35-.76-.47-1s-.29-.61-.47-1l-.15-.36-.14-.38a1.87,1.87,0,0,1-.15-.32,1.48,1.48,0,0,0-.17-.33q-.24-.33-.3-.15c0,.13-.07.2-.07.2s0,.29,0,.49a4.55,4.55,0,0,1-.09.73c0,.24-.09.48-.13.72s-.06.38-.09.5a3.83,3.83,0,0,0-.07.53c0,.48-.11,1-.19,1.45s-.15,1-.2,1.44a1.84,1.84,0,0,0,0,.24.92.92,0,0,0,0,.29.21.21,0,0,0,0,.12s0,.08,0,.11,0,.16-.07.11a1.49,1.49,0,0,0-.34-.09l-.33-.08-.46-.06h-.23l-.24,0c-.1,0-.15-.12-.14-.3a4.21,4.21,0,0,1,.12-.71,6.1,6.1,0,0,0,.14-.72c0-.26.08-.52.12-.8s.1-.54.15-.79,0-.2.05-.3,0-.21,0-.31.08-.48.13-.72.09-.48.13-.73A5.7,5.7,0,0,0,118,335c0-.19,0-.39.06-.58s.09-.65.14-1,.07-.67.09-1a1.61,1.61,0,0,1,0-.37c0-.12,0-.25.07-.37s.14-.25.37-.25.74,0,1.16.09l.34,0c.06,0,0,.09,0,.24a.73.73,0,0,0-.08.25l-.06.24a.25.25,0,0,0,.08.3,3.8,3.8,0,0,1,.51.77l.42.74.42.74.46.83.5.87c0,.11.12.22.18.34a1.89,1.89,0,0,1,.16.36,2.83,2.83,0,0,0,.08.3c0,.06.09,0,.21-.1l.17-.24.17-.28a9.33,9.33,0,0,1,.82-1.36,7.24,7.24,0,0,0,.78-1.38c.25-.48.45-.9.61-1.27l0-.12.06-.12a.24.24,0,0,1,.2-.13h.1l.42,0h.74c.06,0,.08,0,.08.1a.17.17,0,0,0,0,.07v.06a.53.53,0,0,1,0,.14,7.58,7.58,0,0,0,.07,1.19c0,.25,0,.49.08.74l.09.72c0,.5.07.87.09,1.11s0,.45,0,.63,0,.4.07.63.09.59.18,1.07c0,.17,0,.33.07.49s0,.32.07.48a10.34,10.34,0,0,0,.26,1.36v.08s0,.06,0,.09c0,.21,0,.33,0,.36s-.11.06-.34.11l-.43.09-.19.07-.18.07c-.2.05-.3.05-.3,0a3.37,3.37,0,0,0-.06-.44c-.05-.32-.09-.64-.13-1s-.07-.65-.11-1l-.09-.76c0-.25,0-.5-.09-.76s-.08-.52-.09-.57v-.09a.45.45,0,0,0,0-.08q0-.07-.09-.57a5.08,5.08,0,0,1-.07-.67c0-.23,0-.47,0-.71s0-.42,0-.5S126.18,335,126.12,335.17Z"/><path
      class="a107609e-f61c-4a88-924a-9ed47f8a9d92"
      d="M130.45,341.5a2.64,2.64,0,0,1-.08-.49c0-.17,0-.33,0-.51a3.25,3.25,0,0,1,0-.53c0-.16,0-.35,0-.57,0-.5-.06-.89-.09-1.18s-.06-.61-.09-.93,0-.62-.05-.93c0-.1,0-.21,0-.31a1.73,1.73,0,0,1,0-.32c0-.15,0-.23-.05-.24a.79.79,0,0,0-.26,0c-.32.06-.48,0-.48-.11a3.41,3.41,0,0,0,0-.65c0-.1,0-.28-.09-.55s0-.26.11-.3a1.16,1.16,0,0,1,.32,0l.32,0c.12,0,.19-.12.2-.32a9.88,9.88,0,0,0-.06-1c-.05-.39-.08-.78-.1-1.17,0-.2,0-.39,0-.58s0-.39,0-.58,0-.3,0-.37-.1-.11-.28-.11-.4-.07-.4-.25,0-.33,0-.46,0-.28,0-.45,0-.31,0-.32h1.72c.47,0,1,0,1.63-.07l.77,0,.77,0h1.53l.35,0s0,.12,0,.32a3.42,3.42,0,0,1,0,.46,1.41,1.41,0,0,0,0,.41c0,.18-.08.29-.28.31H132a2.68,2.68,0,0,1-.41,0c-.15,0-.22,0-.22.12a3.79,3.79,0,0,0,0,.58c0,.18,0,.37,0,.57s0,.34,0,.51a4.25,4.25,0,0,0,0,.51v.47a4.12,4.12,0,0,0,0,.48c0,.11,0,.21,0,.32a1.82,1.82,0,0,0,0,.32,1,1,0,0,0,.07.33,1.47,1.47,0,0,0,.35,0,4.9,4.9,0,0,1,.77,0h1.51l.71,0h.62l.63-.05.62,0,.63-.05.36,0s.07.08.09.26a1.37,1.37,0,0,1,0,.28,1.79,1.79,0,0,0,0,.34c0,.41-.18.61-.54.61h-.87l-.57,0-.55,0-.84,0-.82,0-.71.05-.7,0c-.41,0-.61.09-.61.16s0,.3,0,.67a1.9,1.9,0,0,1,0,.35c0,.1,0,.2,0,.3s0,.44,0,.66,0,.41,0,.61a3.43,3.43,0,0,0,.05.56q0,.28.09.51a1.76,1.76,0,0,1,0,.19s0,.12,0,.19.07.31.08.37.12.07.31,0l.62-.08.66-.1.63-.06.64-.09c.24,0,.37,0,.4,0a.74.74,0,0,1,0,.38,1.27,1.27,0,0,0,.11.75c.09.16,0,.25-.14.24h-.42l-.52,0-.51.09c-.35.1-.69.17-1,.23a2.29,2.29,0,0,1-.43,0c-.12,0-.16.1-.11.29s-.06.29-.3.31a2,2,0,0,1-.49,0,1.42,1.42,0,0,0-.48.05c-.16.05-.24,0-.25-.08A2.11,2.11,0,0,0,130.45,341.5Z"/><path
      class="a107609e-f61c-4a88-924a-9ed47f8a9d92"
      d="M142,334.92l.11.09.09.07.45.39.46.38,1.14,1,1.14,1,.37.3.38.31c.17.14.32.25.44.33l.45.3.37.3c.16.14.24.24.24.29a.68.68,0,0,1-.15.28,2.26,2.26,0,0,0-.23.34c-.06.12-.13.23-.2.35s-.18.26-.23.21a3.9,3.9,0,0,0-.34-.29c-.26-.2-.51-.41-.75-.62l-.75-.62-.59-.48-.58-.51-.87-.72-.85-.73c-.2-.16-.39-.32-.59-.46s-.38-.3-.56-.46a3,3,0,0,0-.31-.24l-.28-.23c-.12-.11-.17-.11-.15,0s0,.47.06.88l0,.61c0,.2,0,.4,0,.6s0,.37,0,.51,0,.31.05.49l0,.28c0,.11,0,.2.06.29.07.48.12.86.16,1.12s.07.51.11.74.09.48.13.75a1.62,1.62,0,0,1,0,.43c0,.08-.12.14-.34.2a1.51,1.51,0,0,1-.54.08l-.53,0c-.09,0-.14,0-.13-.13a1.42,1.42,0,0,0,0-.26,1,1,0,0,1,0-.25c0-.2,0-.39,0-.56a5.6,5.6,0,0,1,0-.58c0-.2,0-.41,0-.62s0-.42,0-.62-.05-.42-.07-.64,0-.44,0-.66q0-.57-.09-1.14c-.05-.39-.08-.77-.12-1.14s-.08-.91-.15-1.5c0-.21,0-.42,0-.63s0-.42,0-.64,0-.57-.08-.86-.06-.59-.08-.89l-.06-.57c0-.18,0-.37,0-.57s0-.4-.06-.57a4.86,4.86,0,0,1,0-.56,14.42,14.42,0,0,0-.09-1.56c0-.36-.07-.62-.1-.8s0-.31.06-.31l.36,0a2.37,2.37,0,0,0,.76-.06l.23-.07a.69.69,0,0,1,.22,0c.2,0,.22.12.07.33a.88.88,0,0,0-.12.23c0,.12,0,.17.08.16l.18,0h1.1a7.13,7.13,0,0,1,1,.17,9.54,9.54,0,0,1,.91.3,2.86,2.86,0,0,1,1.24.81,3.07,3.07,0,0,1,.61.95,8.5,8.5,0,0,1,.24,1,5.55,5.55,0,0,1,0,.59,3.77,3.77,0,0,1-.12.74c0,.11-.06.2-.09.29a1.38,1.38,0,0,1-.12.31,9.06,9.06,0,0,1-.55,1l-.17.22-.22.28a3.32,3.32,0,0,1-.59.48,5.06,5.06,0,0,1-.46.27l-.47.23-.17.08-.16.06C141.94,334.83,141.94,334.87,142,334.92Zm-1.78-6.36q-.37,0-.36.12v.44c0,.28,0,.58,0,.9l0,.42,0,.36c0,.24,0,.46.06.65s.05.41.07.64,0,.43.07.65.06.42.1.63.06.26.1.26l.42-.05a2.78,2.78,0,0,0,.55-.12l.5-.16.47-.2a1.58,1.58,0,0,0,.63-.42,2.94,2.94,0,0,0,.69-1.19l.06-.25c0-.08,0-.19,0-.31a4.82,4.82,0,0,0-.05-.79,2,2,0,0,0-.24-.72A1.33,1.33,0,0,0,143,329a2.28,2.28,0,0,0-.78-.31,8.15,8.15,0,0,0-.89-.12c-.27,0-.47,0-.6,0Z"/><path
      class="a732da37-3123-4d17-adec-3368060ad485"
      d="M164.57,281.27l-145,0v33.4l145-.07ZM25.18,284.38a2.62,2.62,0,0,1,2.6,2.59,2.58,2.58,0,1,1-2.6-2.59ZM25,311.58A2.51,2.51,0,0,1,22.63,309a2.57,2.57,0,0,1,2-2.4,2.6,2.6,0,0,1,3.12,2c0,.13,0,.26,0,.4A2.58,2.58,0,0,1,25,311.58Zm134-27.23a2.57,2.57,0,1,1,0,5.14,2.57,2.57,0,1,1,0-5.14Zm0,27.25a2.57,2.57,0,0,1-2.54-2.55,2.61,2.61,0,0,1,2.63-2.52,2.54,2.54,0,1,1-.09,5.07Z"/><path
      class="a107609e-f61c-4a88-924a-9ed47f8a9d92"
      d="M31.19,304.94l-.2-.36-.11-.17-.1-.17c-.07-.12-.1-.19-.08-.21l.13-.08.12-.06.13-.07a3.76,3.76,0,0,0,.54-.33l.2-.15a2,2,0,0,0,.2-.18,2.1,2.1,0,0,0,.45-.74l.08-.3a1.51,1.51,0,0,0,0-.47,1.76,1.76,0,0,0-.26-.79,2.63,2.63,0,0,0-.52-.58,2.42,2.42,0,0,1-.51-.55c-.08-.1-.16-.22-.26-.36a1.41,1.41,0,0,1-.21-.4,2.77,2.77,0,0,1-.15-.53,1.82,1.82,0,0,1,0-.33c0-.09,0-.21,0-.35a2.63,2.63,0,0,1,.14-.57,3.89,3.89,0,0,1,.29-.63,3.94,3.94,0,0,1,.58-.79,2.65,2.65,0,0,1,.5-.4l.19-.13.2-.12.38-.19.41-.19a1.64,1.64,0,0,1,.46-.13c.2,0,.29,0,.28.18a1.37,1.37,0,0,0,0,.37,2.87,2.87,0,0,0,0,.34,1.62,1.62,0,0,1,0,.38s-.14.07-.37.1a2.4,2.4,0,0,0-.48.12,1.65,1.65,0,0,0-.46.23,2.06,2.06,0,0,0-.33.31,1.3,1.3,0,0,0-.34.61,2.09,2.09,0,0,0-.05.42v.41a2,2,0,0,0,.25.87,1.36,1.36,0,0,0,.24.31l.24.25.2.23a2.71,2.71,0,0,1,.2.27,2.51,2.51,0,0,1,.3.54,3.74,3.74,0,0,1,.16.61,5.63,5.63,0,0,1,.11,1.07,4.07,4.07,0,0,1-.11.72,2.1,2.1,0,0,1-.44.9,2.13,2.13,0,0,1-.22.21l-.21.2a3.33,3.33,0,0,1-.48.36l-.34.22a2,2,0,0,1-.36.17l-.33.13S31.28,305.08,31.19,304.94Z"/><path
      class="a107609e-f61c-4a88-924a-9ed47f8a9d92"
      d="M35.07,304.82a5.52,5.52,0,0,1,0-.9c0-.17,0-.32,0-.46s0-.31,0-.51,0-.66,0-1.06,0-.54,0-.82,0-.55,0-.83V300a2.81,2.81,0,0,1,0-.29c0-.14,0-.21,0-.22a.6.6,0,0,0-.23,0c-.28,0-.42,0-.41-.14a3.16,3.16,0,0,0,0-.57c0-.16,0-.32,0-.49s0-.23.13-.25a.66.66,0,0,1,.28,0h.29c.12,0,.18,0,.17-.07a.46.46,0,0,1,0-.21,2.48,2.48,0,0,0,0-.47v-.46c0-.17,0-.34,0-.52s0-.34,0-.52,0-.63,0-.94v-1c0-.09,0-.19,0-.29l0-.28a1.37,1.37,0,0,1,0-.27s.12,0,.35-.09l.47-.06a1.43,1.43,0,0,0,.43-.09c.11-.05.17,0,.18.19s0,.4,0,.51c0,.28,0,.55,0,.83l0,.82c0,.17,0,.37-.07.61a4,4,0,0,0-.06.61c0,.15,0,.29,0,.42s0,.28,0,.42,0,.44,0,.57a1,1,0,0,0,0,.3h.31l.73,0h.75l.32,0s.06.11.06.27a.75.75,0,0,1,0,.24,2.24,2.24,0,0,0-.05.31.81.81,0,0,1-.12.39c-.06.08-.2.12-.41.1l-.48,0H37c-.37,0-.55,0-.56.1s0,.28,0,.63q0,.17-.06.51c-.06.49-.1.87-.11,1.14s0,.9,0,1.74.09,1.34.12,1.5-.08.25-.29.25a1.83,1.83,0,0,1-.44,0,1.15,1.15,0,0,0-.41,0c-.15,0-.23,0-.22-.08S35.08,305,35.07,304.82Z"/><path
      class="a107609e-f61c-4a88-924a-9ed47f8a9d92"
      d="M43.3,303.25a2,2,0,0,1,0-.25,2.46,2.46,0,0,0,0-.26q-.06-.23-.15-.21l-.35.08-.35.06a3.83,3.83,0,0,1-1.38,0,3.42,3.42,0,0,1-.94-.29,1.93,1.93,0,0,1-.82-.76,1.75,1.75,0,0,1-.23-.58,2.78,2.78,0,0,1-.11-.75,2.86,2.86,0,0,1,.25-1A2.68,2.68,0,0,1,40,298.2a3.2,3.2,0,0,1,1.4-.66,2.21,2.21,0,0,1,.62-.06h.64c.14,0,.21,0,.21-.05a1.3,1.3,0,0,1,0-.25,1.11,1.11,0,0,1,0-.19,1.28,1.28,0,0,1,0-.19c0-.15,0-.23.08-.24l.28,0h.43a2.16,2.16,0,0,1,.44,0c.11,0,.17,0,.17.08s0,.11,0,.23c0,.84,0,1.73.11,2.67,0,.35,0,.7,0,1.06a7.17,7.17,0,0,0,.08,1c0,.24.06.46.08.68s.06.43.1.67,0,.3,0,.28a1.09,1.09,0,0,0-.37,0,1.53,1.53,0,0,0-.37.08,1.9,1.9,0,0,1-.36.09Q43.32,303.45,43.3,303.25ZM41,301.42a4.2,4.2,0,0,0,.9,0l.48,0,.48-.09q.2,0,.21-.09a1.16,1.16,0,0,0,0-.27,3.54,3.54,0,0,0,0-.45c0-.15,0-.3,0-.44s0-.31,0-.45,0-.29,0-.45a.82.82,0,0,0-.07-.36.68.68,0,0,0-.32-.12l-.44-.08a1.6,1.6,0,0,0-.44,0,2.14,2.14,0,0,0-.93.27.76.76,0,0,0-.24.23l-.19.26a1.42,1.42,0,0,0-.29.8,2.67,2.67,0,0,0,0,.56.76.76,0,0,0,.26.47A1.28,1.28,0,0,0,41,301.42Z"/><path
      class="a107609e-f61c-4a88-924a-9ed47f8a9d92"
      d="M51.52,303.8l-.26-.08-.27-.07c-.13,0-.19-.07-.19-.11a.71.71,0,0,1,.05-.18.89.89,0,0,0,.1-.53.69.69,0,0,0-.15-.28,2.43,2.43,0,0,1-.2-.25l-.36-.41c-.09-.1-.21-.25-.38-.47s-.15-.19-.23-.31l-.21-.28-.31-.38a3,3,0,0,1-.3-.4,8,8,0,0,0-.46-.65l-.45-.63a3,3,0,0,1-.23-.32c-.08-.11-.15-.22-.21-.32s-.25-.38-.39-.56-.12-.07-.11.08a2.5,2.5,0,0,1,0,.41c0,.2,0,.38-.07.56s0,.36-.08.56-.05.32-.07.44,0,.31-.06.53c-.06.4-.1.76-.14,1.07s-.08.67-.13,1.07c0,.1,0,.2,0,.29a1.92,1.92,0,0,0,0,.34,2.14,2.14,0,0,0,.07.25c0,.08,0,.1-.06.08l-.32-.08-.24-.05-.2,0-.19,0h-.19l-.19,0c-.09,0-.13-.1-.12-.25a2,2,0,0,1,0-.35c0-.16.06-.29.08-.41l.08-.44c0-.18.07-.41.11-.67s.08-.48.1-.65,0-.3.06-.39a3.11,3.11,0,0,1,.05-.34c0-.13,0-.28.07-.44s0-.34.08-.54l.06-.49c0-.16,0-.32.05-.48.08-.61.13-1.16.17-1.66a1.71,1.71,0,0,1,0-.31c0-.1,0-.21.05-.31s.11-.2.3-.2.58,0,1,.05l.29,0s0,.08,0,.2a1.24,1.24,0,0,0-.11.28l-.11.27c-.05.1-.05.17,0,.21a1.11,1.11,0,0,1,.2.22c.14.19.27.38.41.56s.27.37.42.55l.32.43.34.41a5,5,0,0,1,.32.44c.11.15.22.29.32.44l.22.3.23.29a3.51,3.51,0,0,0,.37.41,4.82,4.82,0,0,1,.36.43,1.59,1.59,0,0,0,.2.24,1.06,1.06,0,0,1,.2.26l.12.22q0,.08.15-.12l.09-.22.1-.26c.09-.28.18-.56.28-.83s.2-.54.29-.82.13-.44.2-.67.14-.44.22-.66.16-.49.25-.73.17-.48.25-.73l.27-1.15c0-.1,0-.17,0-.21s.08-.09.19-.08a4.29,4.29,0,0,1,.55.14c.28.08.44.14.49.16s.13.12.12.15l-.07.14c-.09.17-.2.42-.32.72l-.18.53c-.09.29-.16.48-.18.56-.08.24-.15.48-.23.72s-.17.48-.24.71-.19.54-.28.8-.17.53-.24.8-.09.31-.13.46l-.15.45c-.06.15-.13.32-.21.5a1.26,1.26,0,0,0-.12.51.32.32,0,0,0,.12.27,2.09,2.09,0,0,1,.22.2.6.6,0,0,1,.12.18s-.06.06-.17.14a.68.68,0,0,0-.25.33.41.41,0,0,1-.25.26c-.11,0-.16.07-.13.12s0,.09-.06.13-.21.09-.28.05A1.38,1.38,0,0,0,51.52,303.8Z"/><path
      class="a107609e-f61c-4a88-924a-9ed47f8a9d92"
      d="M57,298.35a2.33,2.33,0,0,1-.08.38c0,.11-.06.24-.09.37s-.05.24-.07.37,0,.24-.05.35l0,.17c0,.06,0,.12,0,.16s0,.31,0,.44,0,.28,0,.43,0,.36,0,.64v.4c0,.17,0,.31,0,.4s0,.31,0,.4v.23a2.58,2.58,0,0,0,0,.32c0,.1,0,.14,0,.11s0,.15,0,.16-.2.06-.19,0,0-.07-.13-.11a1.36,1.36,0,0,0-.56-.11h-.29s0-.12,0-.33a1.68,1.68,0,0,1,.06-.36,5.68,5.68,0,0,0,.08-.8c0-.17,0-.34,0-.51s0-.35,0-.53a5.32,5.32,0,0,1,.06-.56c0-.18,0-.37.08-.56s0-.31,0-.47,0-.32,0-.49,0-.21,0-.32,0-.22,0-.33,0-.14.06-.14l.34,0h.35l.35,0S57,298.15,57,298.35Zm-.74-2.09a.93.93,0,0,1-.2-.85.84.84,0,0,1,.27-.38,1,1,0,0,1,.28-.17,1.75,1.75,0,0,1,.34-.1.94.94,0,0,1,.53.06.65.65,0,0,1,.24.29,1.82,1.82,0,0,1,.12.35.87.87,0,0,1,0,.36,1,1,0,0,1-.14.33,1.65,1.65,0,0,1-.23.22.78.78,0,0,1-.85.15A.68.68,0,0,1,56.21,296.26Z"/><path
      class="a107609e-f61c-4a88-924a-9ed47f8a9d92"
      d="M58.35,304.07c-.05-.09-.1-.22-.17-.38s-.06-.11-.09-.17l-.09-.18c0-.14-.07-.21,0-.22l.13-.08a1.63,1.63,0,0,0,.25-.1,2.41,2.41,0,0,0,.58-.28c.05,0,.11-.07.21-.13l.22-.16a1.68,1.68,0,0,0,.5-.7l.12-.29a1.47,1.47,0,0,0,0-.46,1.51,1.51,0,0,0-.18-.82,2.56,2.56,0,0,0-.46-.62,2.67,2.67,0,0,1-.46-.59c-.06-.11-.14-.23-.23-.38a1.76,1.76,0,0,1-.17-.42c0-.08,0-.16,0-.24a1.21,1.21,0,0,1,0-.3,1.12,1.12,0,0,1,0-.33l.08-.35a2.56,2.56,0,0,1,.2-.56l.15-.31a3.06,3.06,0,0,1,.18-.29,5.08,5.08,0,0,1,.66-.73,3.24,3.24,0,0,1,.53-.35l.41-.21.4-.16.42-.14a2.3,2.3,0,0,1,.47-.1,1.14,1.14,0,0,1,.25,0s0,.07,0,.19a2.55,2.55,0,0,0,0,.36,2.07,2.07,0,0,0,0,.36,1.17,1.17,0,0,1,0,.37s-.14.07-.37.07a2.4,2.4,0,0,0-.49.07,2.28,2.28,0,0,0-.48.19,3.72,3.72,0,0,0-.37.28,1.35,1.35,0,0,0-.39.58,4,4,0,0,0-.12.82,1.83,1.83,0,0,0,.17.88,1.32,1.32,0,0,0,.2.34,2.94,2.94,0,0,1,.22.27l.19.25.17.27a3.26,3.26,0,0,1,.25.58,4.91,4.91,0,0,1,.11.61,5.61,5.61,0,0,1,0,1.09,3.88,3.88,0,0,1-.16.71,1.88,1.88,0,0,1-.53.84,1.33,1.33,0,0,1-.22.2l-.24.18a3.57,3.57,0,0,1-.51.31l-.37.19a2.93,2.93,0,0,1-.37.14l-.34.1S58.42,304.22,58.35,304.07Z"/><path
      class="a107609e-f61c-4a88-924a-9ed47f8a9d92"
      d="M63.94,303.67c-.17.06-.26.06-.26,0a2.71,2.71,0,0,0,0-.37c0-.26-.08-.53-.11-.8s-.06-.54-.1-.81,0-.42-.07-.62,0-.43-.07-.64l-.15-.95c-.06-.32-.1-.63-.13-1s-.09-.85-.13-1.28-.09-.85-.14-1.28c0-.2-.05-.4-.08-.6a6,6,0,0,1-.09-.61,2.83,2.83,0,0,0-.06-.42c0-.14,0-.29,0-.43a.81.81,0,0,0,0-.16v-.17c0-.09.08-.14.23-.13l.34,0h.35l.33,0s0,.11,0,.28a8.82,8.82,0,0,0,.05,1l.09.61q0,.3.06.6c0,.22,0,.44.06.66s0,.44.05.66a10.82,10.82,0,0,0,.16,1.47c0,.2,0,.4.07.6s0,.4.08.59.05.37.08.55l.09.54.06.4c0,.14,0,.27,0,.41s.08.45.13.65.08.41.11.62l0,.3s-.1.05-.3.09l-.35.08-.15.05Z"/><path
      class="a107609e-f61c-4a88-924a-9ed47f8a9d92"
      d="M69.38,303.32a2.11,2.11,0,0,1,0-.25,1.14,1.14,0,0,0,0-.26q0-.22-.15-.21l-.35.08a2,2,0,0,1-.35.06,3.59,3.59,0,0,1-1.38,0,3,3,0,0,1-.93-.29,1.88,1.88,0,0,1-.83-.75,1.74,1.74,0,0,1-.22-.59,2.42,2.42,0,0,1-.11-.74,2.63,2.63,0,0,1,.24-1,2.7,2.7,0,0,1,.76-1.12,3.15,3.15,0,0,1,1.4-.67,3.44,3.44,0,0,1,.63-.06c.2,0,.41,0,.64,0s.2,0,.2,0,0-.11,0-.26,0-.12,0-.18a.67.67,0,0,1,0-.2c0-.14,0-.22.08-.24h.28l.43,0a2.1,2.1,0,0,1,.43,0c.12,0,.18,0,.18.08v.23c0,.83,0,1.72.11,2.67,0,.34,0,.69,0,1.05a6,6,0,0,0,.07,1.05c0,.24.06.46.08.67s.06.44.1.67,0,.3,0,.29a1.06,1.06,0,0,0-.37,0,1.91,1.91,0,0,0-.36.07l-.36.1Q69.38,303.52,69.38,303.32Zm-2.29-1.83a4.1,4.1,0,0,0,.89,0l.48,0a2.67,2.67,0,0,0,.48-.08c.13,0,.2-.06.22-.09s0-.13,0-.27,0-.3,0-.45,0-.3,0-.45a3.19,3.19,0,0,0,0-.45c0-.14,0-.28,0-.44a.94.94,0,0,0-.06-.37,1,1,0,0,0-.32-.11l-.44-.09a2.2,2.2,0,0,0-.44,0,2.14,2.14,0,0,0-.94.27.88.88,0,0,0-.24.23,2.07,2.07,0,0,1-.19.25,1.47,1.47,0,0,0-.28.81,2.67,2.67,0,0,0,0,.56.74.74,0,0,0,.26.47A1.2,1.2,0,0,0,67.09,301.49Z"/><path
      class="a107609e-f61c-4a88-924a-9ed47f8a9d92"
      d="M74.7,303.2a1,1,0,0,1-.12-.19l-.12-.2-.12-.16-.1-.17c-.11-.17-.22-.35-.32-.53s-.12-.2-.18-.28a2.08,2.08,0,0,1-.19-.29,3.21,3.21,0,0,1-.19-.31l-.18-.32a7.26,7.26,0,0,0-.5-.69l-.14-.19-.13-.2c0-.06-.09-.12-.13-.19l-.14-.19a3.06,3.06,0,0,0-.28-.36l-.44-.5c-.13-.17-.21-.26-.23-.28l-.12-.11q-.1-.09,0-.15l.14-.07.15-.07.13-.06.14-.05.27-.12.13-.06a.23.23,0,0,1,.33.08l.09.14.16.26.18.26s.06.11.1.18a1.42,1.42,0,0,0,.11.18l.14.23.14.21.22.3a1.73,1.73,0,0,1,.17.21,1.63,1.63,0,0,0,.17.2c.18.24.31.41.39.53a3.4,3.4,0,0,0,.27.37c.18.21.3.38.38.49a1.67,1.67,0,0,0,.12.19s.07,0,.12-.09a.54.54,0,0,0,.08-.19.79.79,0,0,1,.06-.22c.06-.13.11-.27.17-.4s.12-.27.17-.41a3.16,3.16,0,0,0,.12-.37q.06-.17.15-.36l.12-.31.12-.3.14-.36c0-.12.09-.24.13-.37a3.82,3.82,0,0,1,.13-.36l.15-.35c.06-.13.12-.19.19-.19l.3,0a1.75,1.75,0,0,0,.33,0,1.13,1.13,0,0,1,.32.05c.17.06.18.18,0,.37a2.53,2.53,0,0,0-.27.46l-.23.49c0,.1-.09.2-.13.29s-.08.2-.13.3c-.14.32-.25.6-.33.83a2.46,2.46,0,0,0-.09.29,2.31,2.31,0,0,1-.1.28c0,.14-.1.29-.14.43s-.09.29-.13.44a4.93,4.93,0,0,0-.17.75c0,.09,0,.17,0,.25a1.87,1.87,0,0,0,0,.25,1.21,1.21,0,0,0,0,.39v.19s-.06,0-.17.08a1.21,1.21,0,0,1-.3,0l-.3,0-.32.07C74.87,303.38,74.79,303.32,74.7,303.2Z"/><path
      class="a107609e-f61c-4a88-924a-9ed47f8a9d92"
      d="M82.92,304.28c-.17,0-.26,0-.25,0a3.29,3.29,0,0,0,0-.37c0-.27,0-.54-.05-.81s0-.54,0-.81,0-.42,0-.63l0-.64-.09-1c0-.32,0-.63,0-.95s0-.86,0-1.29,0-.86,0-1.28c0-.21,0-.41-.05-.61a6,6,0,0,1,0-.61c0-.15,0-.29,0-.43a3.17,3.17,0,0,1,0-.44v-.16s0-.09,0-.16.08-.12.24-.12h.34l.34,0a1.26,1.26,0,0,1,.33.05s0,.11,0,.29a6.53,6.53,0,0,0,0,1l0,.62c0,.2,0,.4,0,.61s0,.44,0,.66v.66c0,.25,0,.5,0,.74a6.13,6.13,0,0,0,.05.74q0,.3,0,.6t0,.6c0,.19,0,.37,0,.55s0,.37,0,.55a2.93,2.93,0,0,1,0,.41l0,.4a6.37,6.37,0,0,0,.07.66,3.36,3.36,0,0,1,.06.63c0,.17,0,.27,0,.3s-.1,0-.3.07l-.36.05-.16,0Z"/><path
      class="a107609e-f61c-4a88-924a-9ed47f8a9d92"
      d="M86.86,303.07a3.14,3.14,0,0,1-1-.19,3.83,3.83,0,0,1-.86-.46,2.25,2.25,0,0,1-.47-.42,2.21,2.21,0,0,1-.39-.74c0-.11-.08-.23-.12-.37a3.24,3.24,0,0,1-.07-.39,5.23,5.23,0,0,1,0-.56,2.65,2.65,0,0,1,.15-.71,5.12,5.12,0,0,1,.2-.49,2.36,2.36,0,0,1,.24-.4,4.32,4.32,0,0,1,.64-.66,2.62,2.62,0,0,1,.7-.4,2.74,2.74,0,0,1,.73-.2,3.39,3.39,0,0,1,.55,0l.53.05a1.87,1.87,0,0,1,.45.1c.21.07.41.15.6.23a2.62,2.62,0,0,1,.52.32c.21.19.35.32.41.39a4.66,4.66,0,0,1,.25.4,2.53,2.53,0,0,1,.23.52,2.4,2.4,0,0,1,.1.8,4.25,4.25,0,0,1-.17,1.18c-.06.18-.11.32-.15.41l-.18.31a2.23,2.23,0,0,1-.38.47,2,2,0,0,1-.54.36,4.27,4.27,0,0,1-.9.3,4.22,4.22,0,0,1-.51.11A2.64,2.64,0,0,1,86.86,303.07Zm-.41-1.4a3.12,3.12,0,0,0,.9.12,2.33,2.33,0,0,0,.45-.12,2.3,2.3,0,0,0,.62-.4,2.1,2.1,0,0,0,.55-.65,1.24,1.24,0,0,0,.13-.62,1.64,1.64,0,0,0-.32-1.09,1.65,1.65,0,0,0-.31-.29,2.78,2.78,0,0,0-.65-.31,1.58,1.58,0,0,0-.43-.05l-.44,0-.29.08-.29.1-.34.17a1.34,1.34,0,0,0-.32.21,1.11,1.11,0,0,0-.29.35,2.27,2.27,0,0,0-.18.44,3.26,3.26,0,0,0,0,.41,1.81,1.81,0,0,0,0,.56,1,1,0,0,0,.37.61,2.28,2.28,0,0,0,.3.21l.25.15A.91.91,0,0,0,86.45,301.67Z"/><path
      class="a107609e-f61c-4a88-924a-9ed47f8a9d92"
      d="M92,304.31l0-.38c0-.12,0-.25,0-.37s0-.38-.07-.57-.05-.38-.07-.57l-.06-.63c0-.21,0-.42,0-.64s0-.32,0-.49,0-.33,0-.49q-.08-.72-.18-1.38a1.65,1.65,0,0,1,0-.32,3.06,3.06,0,0,0,0-.32c0-.15-.1-.22-.21-.2l-.08,0s0,0-.08.05-.21-.07-.25-.31a.4.4,0,0,0,0-.15,1,1,0,0,1,0-.17.78.78,0,0,1,0-.19,1,1,0,0,1,0-.28c0-.11,0-.18.13-.2l.21-.05a1.66,1.66,0,0,1,.31-.05c.12,0,.16-.1.12-.26a2.35,2.35,0,0,1-.07-.41,1,1,0,0,1,0-.17l0-.18-.06-.4-.06-.41c0-.21,0-.42,0-.64l0-.64c0-.22,0-.43,0-.64s0-.43,0-.65c0-.05,0-.1,0-.15s0-.11,0-.17a2.45,2.45,0,0,0-.11-.5l0-.13c0-.17.1-.27.32-.31h.3l.36,0a1.39,1.39,0,0,1,.32,0s.06.12.06.3,0,.41,0,.52,0,.36,0,.65v.28c0,.28,0,.49,0,.64l.06.7.06.71a3.25,3.25,0,0,0,0,.36c0,.19,0,.33,0,.41a4.82,4.82,0,0,0,.06.63c0,.12.08.17.19.14l.54-.05.29,0a5.16,5.16,0,0,1,1,0,5.85,5.85,0,0,1,.73.12,2.45,2.45,0,0,1,.38.13l.36.14a2.32,2.32,0,0,1,.73.48c.11.14.22.26.31.36a2,2,0,0,1,.27.39,4.34,4.34,0,0,1,.2.42,2.78,2.78,0,0,1,.16.45c0,.19.06.37.1.53s0,.33.07.54a4.33,4.33,0,0,1,0,.8l-.06.45a2.17,2.17,0,0,1-.11.42,1.42,1.42,0,0,1-.2.41l-.27.33-.33.33-.31.24-.33.22-.36.21-.39.19a10,10,0,0,1-1.09.34L94,304l-.37.08a1.18,1.18,0,0,0-.42.12s-.06.13,0,.28a1.49,1.49,0,0,0,0,.19.62.62,0,0,1,0,.16q0,.19,0,.21a1.1,1.1,0,0,1-.24,0h-.27a2.19,2.19,0,0,0-.44,0c-.15,0-.23-.05-.24-.23S92,304.44,92,304.31Zm1.11-1.67c0,.12.06.17.18.14a2.37,2.37,0,0,0,.36-.09l.36-.09a6.87,6.87,0,0,0,1-.33,3,3,0,0,0,.86-.54,2.93,2.93,0,0,0,.38-.43,1.39,1.39,0,0,0,.34-.64,2.7,2.7,0,0,0,0-.49,5.18,5.18,0,0,0-.11-.87l-.1-.29a2.68,2.68,0,0,0-.28-.49,2.09,2.09,0,0,0-.76-.59,3.26,3.26,0,0,0-.52-.18l-.28-.07a2,2,0,0,0-.26-.06l-.25,0-.22,0a2.56,2.56,0,0,0-.94.11c-.17,0-.25.08-.26.1s0,.11,0,.27a9.23,9.23,0,0,0,.06.94c0,.17,0,.34.06.5s0,.33,0,.49,0,.23,0,.4a2.14,2.14,0,0,0,.05.45c0,.14,0,.26,0,.37s0,.22,0,.36.06.43.07.55,0,.22,0,.28A1.31,1.31,0,0,1,93.14,302.64Z"/><path
      class="a107609e-f61c-4a88-924a-9ed47f8a9d92"
      d="M102.61,303.41a2.28,2.28,0,0,1,0-.26,1.18,1.18,0,0,0,0-.26q0-.22-.15-.21l-.35.08-.35.07a4,4,0,0,1-1.38,0,3.35,3.35,0,0,1-.93-.29,1.89,1.89,0,0,1-.83-.76,1.67,1.67,0,0,1-.22-.58,2.43,2.43,0,0,1-.11-.75,2.58,2.58,0,0,1,.24-1,2.74,2.74,0,0,1,.76-1.13,3.25,3.25,0,0,1,1.4-.66,3.44,3.44,0,0,1,.63-.06h.64c.14,0,.2,0,.2-.05s0-.11,0-.25,0-.12,0-.19a.61.61,0,0,1,0-.19c0-.15,0-.23.08-.24l.28,0h.43a1.57,1.57,0,0,1,.43,0c.12,0,.18,0,.18.07V297c0,.84,0,1.73.11,2.68,0,.34.05.69.05,1.05a7.08,7.08,0,0,0,.07,1c0,.24.06.47.09.68s0,.44.09.67,0,.3,0,.28a.94.94,0,0,0-.37,0,1.35,1.35,0,0,0-.36.07,2.11,2.11,0,0,1-.36.09C102.68,303.58,102.61,303.53,102.61,303.41Zm-2.29-1.83a4.18,4.18,0,0,0,.89,0l.48,0a2.7,2.7,0,0,0,.48-.09c.13,0,.2-.06.22-.09s0-.12,0-.27,0-.29,0-.44,0-.3,0-.45a3.19,3.19,0,0,0,0-.45c0-.14,0-.29,0-.44a.9.9,0,0,0-.06-.37,1.17,1.17,0,0,0-.32-.12l-.44-.08a1.64,1.64,0,0,0-.44,0,1.91,1.91,0,0,0-.94.27.85.85,0,0,0-.24.22,2.14,2.14,0,0,1-.19.26,1.43,1.43,0,0,0-.28.8,2.8,2.8,0,0,0,0,.57.76.76,0,0,0,.26.47A1.29,1.29,0,0,0,100.32,301.58Z"/><path
      class="a107609e-f61c-4a88-924a-9ed47f8a9d92"
      d="M108.58,304.51l-.28,0-.35-.05a1.86,1.86,0,0,1-.34-.07l-.46-.1a2.26,2.26,0,0,1-.43-.17,3.2,3.2,0,0,1-.56-.31,2.9,2.9,0,0,1-.61-.51,4.19,4.19,0,0,1-.4-.46l-.24-.33c-.08-.11-.15-.23-.22-.35a2.45,2.45,0,0,1-.28-.61,4,4,0,0,1-.18-1,3,3,0,0,1,.07-.66,4.28,4.28,0,0,1,.2-.61c.12-.29.22-.5.29-.64s.13-.23.2-.35a4,4,0,0,1,.22-.34,3.67,3.67,0,0,1,.66-.62,6.54,6.54,0,0,1,1.43-.76c.2-.08.45-.15.73-.23l.22-.06s.06.06.09.19a5,5,0,0,1,.14.64c0,.16,0,.28.07.35s0,.11-.22.12a6,6,0,0,0-.94.18,2.2,2.2,0,0,0-.71.34,2.3,2.3,0,0,0-.5.47,2.68,2.68,0,0,0-.36.52c-.06.13-.13.25-.18.34a1.52,1.52,0,0,0-.12.36,2,2,0,0,0,0,.72,3.51,3.51,0,0,0,.69,1.77,1.48,1.48,0,0,0,.42.35,5.27,5.27,0,0,0,.52.27,3.1,3.1,0,0,0,.65.23l.42.11a3,3,0,0,0,.43.09c.25.05.37.1.38.14s0,.2,0,.46a.88.88,0,0,0,0,.17c0,.05,0,.11,0,.17s0,.28-.05.31S108.76,304.54,108.58,304.51Z"/><path
      class="a107609e-f61c-4a88-924a-9ed47f8a9d92"
      d="M114.08,304.09l0-.64c0-.21,0-.43,0-.65s0-.21,0-.32a3.25,3.25,0,0,0,0-.33v-.35a1.46,1.46,0,0,1,0-.36c0-.17-.07-.25-.3-.25l-.52,0c-.36,0-.73.07-1.08.12s-.72.09-1.08.12a1.64,1.64,0,0,0-.39.06s0,.11,0,.28,0,.31.08.46,0,.29,0,.45a1.64,1.64,0,0,0,0,.22l0,.22v.23a.46.46,0,0,0,.05.21,1,1,0,0,1,.06.35c0,.06-.12.07-.32,0a1.47,1.47,0,0,0-.36,0l-.36,0c-.2,0-.31,0-.32-.13s0-.27,0-.45V303c0-.16,0-.29,0-.37a3.56,3.56,0,0,0,0-.37,1.92,1.92,0,0,1,0-.34c0-.09-.06-.14-.19-.15h-.11c-.14,0-.21,0-.21-.07s0-.18,0-.36a3.22,3.22,0,0,1,0-.43v-.32c0-.06.07-.1.23-.12a.56.56,0,0,0,.2,0,.58.58,0,0,0,.13-.48c0-.05,0-.1,0-.16v-.18c0-.06,0-.12,0-.17s0-.12,0-.17l0-.69c0-.23,0-.46,0-.69s0-.29,0-.44a2.7,2.7,0,0,0-.06-.41.53.53,0,0,1,0-.18c0-.08,0-.11.1-.11l.23,0a1,1,0,0,0,.26,0h.4c.24,0,.37,0,.4.05s0,.16,0,.38,0,.21,0,.36a4.68,4.68,0,0,0,0,.67c0,.07,0,.14,0,.2s0,.14,0,.21,0,.31,0,.46,0,.3,0,.44a1.5,1.5,0,0,0,.1.58c0,.09.08.13.13.12l.27,0,.34,0,.34,0c.46,0,.89-.08,1.3-.1h.16l.17,0h.59s.08,0,.09-.16a1.42,1.42,0,0,1,0-.33,2.6,2.6,0,0,0,0-.37q0-.12,0-.36t0-.9c0-.1,0-.19,0-.29a2.64,2.64,0,0,1,0-.28c0-.06,0-.11,0-.16a.86.86,0,0,0,0-.16V297a.14.14,0,0,1,0-.09c0-.17.05-.24.12-.2l.24.05h.25l.25,0,.25,0,.23.05s0,.09,0,.24a.66.66,0,0,1,0,.21c-.05.15-.1.27-.12.36a1.43,1.43,0,0,0-.07.36c0,.17,0,.32,0,.45s0,.28,0,.47a1.49,1.49,0,0,1,0,.21.78.78,0,0,0,0,.22c0,.37,0,.74,0,1.1,0,.2,0,.41,0,.61s0,.41,0,.62,0,.44,0,.63a5.61,5.61,0,0,0,0,.58c0,.22,0,.39,0,.52a2.58,2.58,0,0,0,.17.68c0,.16-.07.21-.36.18a2,2,0,0,0-.48,0l-.44.07-.27.06S114.07,304.3,114.08,304.09Z"/><path
      class="a107609e-f61c-4a88-924a-9ed47f8a9d92"
      d="M117.47,304a2.57,2.57,0,0,1-.06-.4c0-.14,0-.28,0-.42s0-.31,0-.45,0-.29,0-.48c0-.41-.06-.74-.08-1s0-.51-.07-.77,0-.52,0-.78c0-.08,0-.17,0-.26a2.46,2.46,0,0,1,0-.26c0-.13,0-.2,0-.21l-.22,0c-.26.05-.4,0-.39-.09a4.8,4.8,0,0,0,0-.54c0-.08,0-.24-.08-.46s0-.22.1-.24a.82.82,0,0,1,.26,0,1.22,1.22,0,0,0,.27,0c.1,0,.16-.1.17-.28a8.63,8.63,0,0,0-.05-.87c0-.32-.07-.64-.09-1l0-.48c0-.17,0-.33,0-.49s0-.24,0-.3-.09-.09-.23-.09-.33-.06-.33-.21,0-.27,0-.38,0-.24,0-.38,0-.26,0-.26h1.43l1.36-.06.64,0,.64,0h1.27a1.24,1.24,0,0,1,.3,0,.8.8,0,0,1,0,.27,2.43,2.43,0,0,1,0,.38.91.91,0,0,0,0,.33c0,.16-.06.25-.23.27h-3l-.34,0c-.12,0-.18,0-.18.1a2.5,2.5,0,0,0,0,.47c0,.16,0,.32,0,.48s0,.28,0,.43a2.94,2.94,0,0,0,0,.42c0,.14,0,.27,0,.39s0,.26,0,.4a2.35,2.35,0,0,1,0,.26l0,.27a1.61,1.61,0,0,0,.06.28,1,1,0,0,0,.29,0,4.64,4.64,0,0,1,.65,0h1.25l.59,0h.51l.53,0,.51,0,.53,0,.3,0s.06.07.07.21a1,1,0,0,1,0,.24,1.2,1.2,0,0,0,0,.28q0,.51-.45.51h-.72l-.47,0-.46,0-.7,0-.68,0-.59,0-.59,0c-.33,0-.5.08-.5.14s0,.25,0,.56a2.46,2.46,0,0,1,0,.28,2.29,2.29,0,0,0,0,.25c0,.19,0,.37,0,.55s0,.35,0,.51a2.49,2.49,0,0,0,0,.47c0,.15,0,.29.08.42s0,.12,0,.16a.44.44,0,0,0,0,.15c0,.16.06.26.06.31s.1.06.26,0l.51-.07.55-.08.53-.06.53-.06c.2,0,.31,0,.34,0a.65.65,0,0,1,0,.31,1.05,1.05,0,0,0,.09.63c.08.13,0,.2-.11.2h-.36l-.43,0a2.37,2.37,0,0,0-.42.08c-.29.07-.58.14-.84.18a1.56,1.56,0,0,1-.35,0c-.11,0-.14.08-.1.24s0,.24-.25.26h-.41a1.12,1.12,0,0,0-.39,0q-.21.06-.21-.06A1.57,1.57,0,0,0,117.47,304Z"/><path
      class="a107609e-f61c-4a88-924a-9ed47f8a9d92"
      d="M127.63,303.33l-.13-.18a2.12,2.12,0,0,0-.11-.21.61.61,0,0,1-.12-.16l-.1-.17a5.31,5.31,0,0,1-.32-.53,2.75,2.75,0,0,0-.19-.28,1.34,1.34,0,0,1-.18-.28,3.45,3.45,0,0,1-.2-.32c0-.1-.12-.21-.18-.32a7,7,0,0,0-.49-.69.9.9,0,0,1-.15-.19l-.12-.2-.14-.18-.13-.2-.28-.36c-.2-.21-.35-.37-.45-.5l-.22-.28-.13-.11c-.07-.06-.07-.1,0-.14l.15-.07.15-.08.13-.05.14-.06.27-.11.12-.06a.24.24,0,0,1,.34.08l.09.14.16.25.17.26.11.18a1.45,1.45,0,0,0,.1.18,2.06,2.06,0,0,1,.15.24l.14.21a2,2,0,0,0,.22.29l.17.21.16.21.39.52a3.64,3.64,0,0,0,.28.38c.17.21.3.37.38.49l.11.19s.07,0,.13-.09a.59.59,0,0,0,.07-.2c0-.07,0-.14.07-.22s.11-.26.17-.4.11-.27.17-.41l.12-.36c0-.12.09-.24.14-.36a2.45,2.45,0,0,0,.12-.31c0-.1.08-.21.13-.31s.09-.23.13-.35.1-.25.14-.37a1.91,1.91,0,0,1,.13-.36l.15-.35c0-.13.12-.2.19-.19l.29,0a1.86,1.86,0,0,0,.33,0l.33,0c.16.06.18.19.05.37a2.16,2.16,0,0,0-.28.47c-.08.17-.15.33-.23.48l-.13.3-.12.3a8.24,8.24,0,0,0-.33.82c0,.1-.07.2-.1.29a1.31,1.31,0,0,1-.09.28l-.15.44-.13.43c-.07.27-.13.52-.17.76a1.84,1.84,0,0,1-.05.25c0,.07,0,.16,0,.25a1.57,1.57,0,0,0,0,.38c0,.12,0,.19,0,.2s-.05,0-.16.07a1,1,0,0,1-.3,0,2.33,2.33,0,0,0-.3,0l-.32.06C127.8,303.51,127.72,303.46,127.63,303.33Z"/><path
      class="a107609e-f61c-4a88-924a-9ed47f8a9d92"
      d="M131.73,304.26a3.72,3.72,0,0,1-.17-.38l-.1-.18a1.42,1.42,0,0,1-.08-.18c-.06-.13-.08-.2-.06-.22l.14-.07.25-.1a2.86,2.86,0,0,0,.58-.28l.2-.13a1.58,1.58,0,0,0,.22-.16,1.79,1.79,0,0,0,.51-.7l.12-.29a2,2,0,0,0,0-.46,1.72,1.72,0,0,0-.18-.82,2.85,2.85,0,0,0-.46-.62,2.66,2.66,0,0,1-.46-.6,3.51,3.51,0,0,1-.23-.37,1.37,1.37,0,0,1-.17-.43l-.06-.23a2,2,0,0,1,0-.3,1.12,1.12,0,0,1,0-.33l.08-.35a2.56,2.56,0,0,1,.2-.56c0-.09.1-.19.16-.31a1.83,1.83,0,0,1,.18-.29,5.8,5.8,0,0,1,.65-.73,3.91,3.91,0,0,1,.54-.35l.4-.21.4-.16.42-.14a2.4,2.4,0,0,1,.48-.1,1.1,1.1,0,0,1,.24,0s0,.07,0,.19,0,.2,0,.36a1.93,1.93,0,0,0,0,.35,1.08,1.08,0,0,1,0,.38s-.15.07-.38.07a1.79,1.79,0,0,0-.48.07,2.18,2.18,0,0,0-.49.19,3.3,3.3,0,0,0-.36.28,1.19,1.19,0,0,0-.39.58,2.91,2.91,0,0,0-.12.82,1.84,1.84,0,0,0,.16.88,1.12,1.12,0,0,0,.21.34l.22.27.18.25a1.85,1.85,0,0,1,.17.27,2.11,2.11,0,0,1,.25.58,3.56,3.56,0,0,1,.11.61,4.86,4.86,0,0,1,0,1.08,3.8,3.8,0,0,1-.17.71,1.86,1.86,0,0,1-.53.85,1,1,0,0,1-.22.2l-.24.17a3.1,3.1,0,0,1-.5.32l-.37.19a3.67,3.67,0,0,1-.37.14l-.34.09S131.8,304.41,131.73,304.26Z"/><path
      class="a107609e-f61c-4a88-924a-9ed47f8a9d92"
      d="M139.07,298.4a.1.1,0,0,0,.05.15l.16.13c.55.46,1.1.93,1.63,1.4s1.09.94,1.66,1.39l.33.25.34.25.18.14.19.13a.29.29,0,0,1,.07.47c-.05.06-.11.16-.2.3a.64.64,0,0,0-.08.14l-.07.13c-.09.16-.15.22-.19.18a2.56,2.56,0,0,0-.29-.24l-.62-.51-.63-.52q-.61-.49-1.2-1l-1.2-1c-.16-.13-.32-.26-.49-.38l-.47-.38-.25-.2a2.12,2.12,0,0,1-.24-.19c-.09-.09-.14-.09-.12,0,0,.34.05.72.07,1.14q0,.27,0,.6a6.23,6.23,0,0,0,.06.83c0,.24.06.48.11.71s.09.46.12.69.06.43.09.62.07.4.11.62a2.56,2.56,0,0,1,0,.37c0,.07-.1.12-.29.16a2.36,2.36,0,0,1-.44.07l-.45,0c-.07,0-.11,0-.11-.11v-.43c0-.15,0-.29,0-.45a4,4,0,0,1,0-.49c0-.16,0-.38,0-.67,0-.62-.11-1.32-.22-2.11s-.17-1.43-.2-1.93c0-.33-.06-.74-.09-1.24s-.06-.92-.06-1.28l0-.59c0-.19,0-.38,0-.56a12.21,12.21,0,0,0-.2-1.71c-.13-.84-.21-1.34-.25-1.5s0-.25.27-.27h.43a1.13,1.13,0,0,0,.42-.05c.14,0,.21,0,.21.07a1.16,1.16,0,0,0,.06.33,3.64,3.64,0,0,1,.07.44c0,.15,0,.3,0,.45a3.64,3.64,0,0,1,0,.46,4.9,4.9,0,0,0,0,.5l0,.53c0,.18,0,.35.05.53l.06.82c0,.27,0,.54,0,.81s0,.6,0,1a1.16,1.16,0,0,0,.08.67c.06.08.19,0,.39-.11l.18-.16a1.55,1.55,0,0,0,.15-.14,8.78,8.78,0,0,0,.85-.89c.23-.29.47-.56.72-.83l.74-.82a15.87,15.87,0,0,0,1-1.28l.12-.15a.53.53,0,0,0,.15-.17c.05-.07.1-.08.15,0a2.28,2.28,0,0,0,.34.29,1.55,1.55,0,0,1,.32.31c.11.15.16.26.13.31a1.59,1.59,0,0,1-.25.27l-.79.76-.78.77-.47.45a3.43,3.43,0,0,0-.43.5l-.19.22-.21.24-.27.31-.26.31Z"/><path
      class="a107609e-f61c-4a88-924a-9ed47f8a9d92"
      d="M145.91,298.57a2,2,0,0,1-.07.38l-.09.38c0,.12-.05.24-.07.36s0,.25-.05.36l0,.17a1,1,0,0,0,0,.16c0,.16,0,.31-.06.44a3,3,0,0,0,0,.43c0,.15,0,.36,0,.64a.67.67,0,0,0,0,.2v.2c0,.17,0,.31,0,.4s0,.31,0,.4v.23a1.33,1.33,0,0,0,0,.31l0,.12c0,.09,0,.15,0,.16s-.2.06-.2,0,0-.07-.12-.12a1.56,1.56,0,0,0-.57-.1h-.28a2.08,2.08,0,0,1,0-.33,1.68,1.68,0,0,1,.06-.36,5.84,5.84,0,0,0,.08-.8c0-.17,0-.34,0-.51s0-.35,0-.53a5.29,5.29,0,0,1,.05-.56c0-.18.06-.37.08-.56s0-.31.05-.47,0-.33,0-.49l0-.32,0-.34c0-.08,0-.13.06-.13l.35,0h.34l.36,0S145.93,298.38,145.91,298.57Zm-.73-2.08a1.18,1.18,0,0,1-.19-.31.8.8,0,0,1,.26-.92,1,1,0,0,1,.28-.17,1.64,1.64,0,0,1,.33-.1,1,1,0,0,1,.54.06.68.68,0,0,1,.24.28,1.88,1.88,0,0,1,.12.36.87.87,0,0,1,0,.36.85.85,0,0,1-.15.33,1.51,1.51,0,0,1-.22.22.78.78,0,0,1-.85.15A.69.69,0,0,1,145.18,296.49Z"/><path
      class="a107609e-f61c-4a88-924a-9ed47f8a9d92"
      d="M149.94,303.37l-.26-.42a4.57,4.57,0,0,1-.23-.42c-.33-.63-.63-1.27-.91-1.92s-.58-1.29-.9-1.92l-.21-.38c-.05-.1-.11-.2-.18-.32l-.24-.44a.71.71,0,0,1-.08-.27s.08-.1.22-.18l.31-.19.12-.09.12-.11c.15-.1.23-.12.25-.06s.07.16.16.33.24.48.35.73.24.48.35.72c.24.47.46.95.68,1.43s.44.95.67,1.42c.09.19.18.37.28.55s.19.36.28.54a1.58,1.58,0,0,0,.14.29c0,.06.08.16.13.28s.1.12.13,0,.12-.36.19-.54l.21-.53a2.75,2.75,0,0,0,.11-.29,2,2,0,0,1,.11-.28c0-.13.11-.26.16-.38a2.93,2.93,0,0,0,.14-.39l.18-.69c.05-.23.12-.46.19-.69s.11-.4.16-.59l.17-.62a2.23,2.23,0,0,1,.11-.34c0-.05.15-.06.34,0a2,2,0,0,1,.43.13,2.19,2.19,0,0,0,.41.16.1.1,0,0,1,.06.15,1,1,0,0,0-.09.2,1.57,1.57,0,0,1-.07.18c-.08.16-.14.3-.2.43l-.19.44a22,22,0,0,0-.81,2.23c-.23.75-.47,1.5-.74,2.24-.12.32-.26.71-.44,1.17s-.33.86-.47,1.18-.16.37-.23.55-.14.35-.21.51a5.63,5.63,0,0,0-.3.79c-.12.38-.24.75-.34,1.13s-.13.52-.18.73a4.56,4.56,0,0,1-.11.46c-.06.15-.13.22-.22.18l-.25-.1a1.75,1.75,0,0,1-.34-.14,1.41,1.41,0,0,0-.34-.12c-.15,0-.21-.09-.17-.16a2.46,2.46,0,0,0,.09-.31,3,3,0,0,1,.12-.43l.15-.42a2.14,2.14,0,0,1,.18-.43c.06-.13.13-.28.2-.47s.11-.33.18-.5l.18-.49a7.15,7.15,0,0,1,.29-.77l.3-.75a3.63,3.63,0,0,1,.21-.47,2.11,2.11,0,0,0,.17-.52.32.32,0,0,0,0-.18,1,1,0,0,1-.09-.15c-.06-.11-.12-.23-.19-.34S150,303.49,149.94,303.37Z"/><path
      class="b26f9af4-ca95-4b15-b4eb-a9ce381e4127"
      d="M268.13,199.55l.19,32.49c.06,10.5-3.44,17.82-15,17.89-10.67.06-14.51-7.09-14.57-17.59l-.18-32c-.07-11.84,5.19-17.82,14.88-17.87C262.94,182.4,268.07,188.17,268.13,199.55Zm-20.61-.28.19,33.92c0,5.61,1.76,8.46,5.91,8.44,3.94,0,5.7-2.69,5.67-8.78L259.1,199c0-5.6-2-8.3-5.8-8.28S247.49,193.15,247.52,199.27Z"/><path
      class="b26f9af4-ca95-4b15-b4eb-a9ce381e4127"
      d="M304.4,199.35l.18,32.48c.06,10.51-3.44,17.83-15,17.89-10.67.06-14.52-7.08-14.58-17.59l-.18-32c-.06-11.84,5.2-17.81,14.89-17.87C299.21,182.19,304.34,188,304.4,199.35Zm-20.61-.28L284,233c0,5.6,1.76,8.46,5.9,8.44,3.94,0,5.71-2.69,5.67-8.78l-.19-33.83c0-5.61-1.95-8.3-5.79-8.28S283.76,192.94,283.79,199.07Z"/><path class="b26f9af4-ca95-4b15-b4eb-a9ce381e4127" d="M313.36,213.75l-.08-14.57,8.36-.05.08,14.58Zm.2,35-.09-14.58,8.37,0,.08,14.57Z"/><path
      class="b26f9af4-ca95-4b15-b4eb-a9ce381e4127"
      d="M360,199l.18,32.49c.06,10.5-3.44,17.82-15,17.89-10.66.06-14.51-7.09-14.57-17.59l-.18-32c-.07-11.85,5.2-17.82,14.89-17.87C354.83,181.87,360,187.65,360,199Zm-20.61-.28.19,33.92c0,5.61,1.76,8.46,5.9,8.44,3.94,0,5.71-2.69,5.67-8.78L351,198.5c0-5.6-2-8.3-5.8-8.28S339.37,192.63,339.41,198.75Z"/><path
      class="b26f9af4-ca95-4b15-b4eb-a9ce381e4127"
      d="M396.29,198.83l.18,32.48c.06,10.51-3.44,17.83-15,17.89-10.67.06-14.51-7.09-14.57-17.59l-.18-32c-.07-11.84,5.19-17.81,14.89-17.87C391.1,181.67,396.22,187.44,396.29,198.83Zm-20.61-.28.19,33.92c0,5.6,1.76,8.46,5.9,8.44,3.94,0,5.7-2.69,5.67-8.78l-.19-33.83c0-5.61-1.95-8.3-5.8-8.28S375.64,192.42,375.68,198.55Z"/><path class="a732da37-3123-4d17-adec-3368060ad485" d="M270,304.73l3.66,0c2.74,0,4.1,1.38,4.08,4.41v1.06c0,2.82-1,4.77-4.27,4.76H272.3l0,7.53h-2.38Zm2.35,8.28h.88c1.84,0,2.13-1.09,2.14-2.87v-.9c0-1.36-.25-2.5-1.9-2.51h-1.09Z"/><path class="a732da37-3123-4d17-adec-3368060ad485" d="M279.3,313.5c0-2.24,0-3.32,0-4.64h2.26c0,.31.06,1.37.06,2.18a3,3,0,0,1,3-2.36l0,2.94c-1.61,0-2.88.63-2.89,3.29l0,7.62h-2.38Z"/><path
      class="a732da37-3123-4d17-adec-3368060ad485"
      d="M288,316.32v2.1c0,1.18.25,2.33,1.41,2.34s1.36-1,1.36-2.12v-.08h2.33v.07c0,1.5-.35,4.15-3.66,4.14s-3.77-2-3.76-4.82l0-4.73c0-2,.66-4.55,3.81-4.54,2.8,0,3.66,2,3.65,4.56,0,.77,0,2.31,0,3.09Zm2.86-1.88v-1.53c0-1.27-.25-2.19-1.39-2.2s-1.44.81-1.45,2.19v1.52Z"/><path
      class="a732da37-3123-4d17-adec-3368060ad485"
      d="M295,312.88c0-2.62,0-3.32,0-3.95h2.28a9.53,9.53,0,0,1,.08,1.23,2.48,2.48,0,0,1,2.38-1.44,2,2,0,0,1,2.16,1.53,2.76,2.76,0,0,1,2.58-1.51c1.43,0,2.65.7,2.63,3.36l0,10.53h-2.38l0-10.08c0-1-.22-1.65-1.12-1.65-1.09,0-1.34.9-1.35,2.3l0,9.42h-2.4l0-10c0-1.34-.36-1.73-1.13-1.73-1.08,0-1.33.92-1.34,2.33l0,9.39H295Z"/><path class="a732da37-3123-4d17-adec-3368060ad485" d="M309.52,309h2.38l-.06,13.66h-2.38Zm0-4.88h2.39l0,2.86h-2.38Z"/><path
      class="a732da37-3123-4d17-adec-3368060ad485"
      d="M316.22,316.43v2.1c0,1.19.24,2.34,1.41,2.34s1.35-1,1.35-2.11v-.09h2.33v.08c0,1.49-.35,4.15-3.65,4.14s-3.78-2.06-3.77-4.82l0-4.74c0-1.95.67-4.55,3.81-4.53,2.8,0,3.67,2,3.66,4.55,0,.78,0,2.31,0,3.09Zm2.85-1.88V313c0-1.26-.25-2.19-1.39-2.19s-1.44.8-1.44,2.19v1.52Z"/><path class="a732da37-3123-4d17-adec-3368060ad485" d="M323.27,313.68c0-2.24,0-3.32,0-4.64h2.26c0,.31.07,1.37.06,2.18a3,3,0,0,1,3-2.36v2.93c-1.62,0-2.89.64-2.9,3.3l0,7.62h-2.38Z"/><path
      class="a732da37-3123-4d17-adec-3368060ad485"
      d="M331.92,316.5v2.1c0,1.18.25,2.33,1.41,2.34s1.36-1,1.36-2.12v-.08H337v.07c0,1.5-.35,4.15-3.65,4.14s-3.78-2-3.77-4.82l0-4.73c0-2,.67-4.55,3.81-4.54,2.8,0,3.66,2,3.65,4.56,0,.77,0,2.3,0,3.09Zm2.86-1.89v-1.52c0-1.27-.25-2.19-1.39-2.2s-1.44.8-1.44,2.19v1.52Z"/><path
      class="a732da37-3123-4d17-adec-3368060ad485"
      d="M346.41,304.27l-.07,14.85c0,1.89,0,2.93,0,3.68h-2.28c0-.31-.08-1.05-.08-1.32a2.38,2.38,0,0,1-2.41,1.52c-2.39,0-2.89-1.91-2.88-4.55l0-5.45c0-2.39.94-4.09,3.13-4.08a2.31,2.31,0,0,1,2.14,1l0-5.64Zm-5.29,8.88,0,5.46c0,1.46.34,2.23,1.35,2.24,1.24,0,1.51-1.15,1.52-2.84l0-4.33c0-1.48-.13-2.62-1.46-2.62C341.51,311.05,341.12,311.86,341.12,313.15Z"/><path
      class="a732da37-3123-4d17-adec-3368060ad485"
      d="M359.53,313.25l0,5.45c0,2.94-1.45,4.36-3.87,4.35s-3.78-1.45-3.77-4.34l0-5.57c0-2.82,1.57-4.19,3.88-4.18S359.54,310.49,359.53,313.25Zm-5.25-.13,0,5.68c0,1.26.4,2.13,1.44,2.14s1.42-.69,1.42-2.17l0-5.66c0-1.17-.35-2-1.42-2S354.28,311.79,354.28,313.12Z"/><path
      class="a732da37-3123-4d17-adec-3368060ad485"
      d="M361.51,313.39c0-2.76,0-3.55,0-4.19h2.28a11.09,11.09,0,0,1,.08,1.29,2.52,2.52,0,0,1,2.52-1.49c1.59,0,2.76.95,2.74,3.5l0,10.38H366.7l0-9.92c0-1.27-.42-1.81-1.27-1.81-1.05,0-1.57.53-1.58,2.69l0,9h-2.38Z"/><path class="a732da37-3123-4d17-adec-3368060ad485" d="M262,333.79h1.5v-3.31h2.38l0,3.31h1.81v2.09h-1.8l0,8.54c0,.67.1,1.25.94,1.25a3.13,3.13,0,0,0,.79-.07v1.81a4.19,4.19,0,0,1-1.58.24c-1.55,0-2.52-.56-2.51-2.81l0-9H262Z"/><path class="a732da37-3123-4d17-adec-3368060ad485" d="M268.75,345.87l4.4-9.86-4,0v-2.17l6.6,0v1.67l-4.27,9.8,4.28,0-.22,2.17-6.83,0Z"/><path class="a732da37-3123-4d17-adec-3368060ad485" d="M279.25,333.86c.41,2.53,1.35,8.17,1.67,11h0c.24-2.67,1.4-8.3,1.84-11h2.39l-3,13.65h-2.7l-2.8-13.68Z"/><path
      class="a732da37-3123-4d17-adec-3368060ad485"
      d="M288.43,341.32v2.1c0,1.18.25,2.33,1.41,2.34s1.35-1,1.36-2.12v-.08h2.32v.07c0,1.5-.35,4.16-3.65,4.14s-3.77-2-3.76-4.82l0-4.73c0-2,.66-4.55,3.8-4.54,2.8,0,3.67,2,3.66,4.56,0,.78,0,2.31,0,3.09Zm2.86-1.88v-1.53c0-1.27-.24-2.19-1.38-2.19s-1.44.8-1.45,2.19v1.52Z"/><path class="a732da37-3123-4d17-adec-3368060ad485" d="M294.53,333.93H296l0-3.31h2.37v3.31h1.8V336h-1.8l0,8.53c0,.67.1,1.25.94,1.26a3.56,3.56,0,0,0,.79-.08v1.81a4.19,4.19,0,0,1-1.58.24c-1.55,0-2.52-.56-2.51-2.81l0-9h-1.5Z"/><path class="a732da37-3123-4d17-adec-3368060ad485" d="M301.54,338.15c0-2.77,0-3.55,0-4.2h2.27a9.11,9.11,0,0,1,.09,1.3,2.52,2.52,0,0,1,2.52-1.5c1.59,0,2.75,1,2.74,3.51l0,10.38h-2.38l0-9.93c0-1.27-.43-1.8-1.28-1.8-1,0-1.56.53-1.57,2.69l0,9H301.5Z"/><path class="a732da37-3123-4d17-adec-3368060ad485" d="M311.55,334h2.38l-.05,13.67H311.5Zm0-4.87H314V332h-2.38Z"/><path class="a732da37-3123-4d17-adec-3368060ad485" d="M318.68,340.12h0c.63-1.51,2-4.4,2.69-6.09h2.51l-2.56,5,2.79,8.64h-2.6l-1.84-6.32-1,2,0,4.3h-2.36l.08-18.54h2.36Z"/><path class="a732da37-3123-4d17-adec-3368060ad485" d="M325.49,347.71l0-3.82h2.38l0,3.82Z"/><path
      class="a732da37-3123-4d17-adec-3368060ad485"
      d="M337.43,338.16l0,5.45c0,2.94-1.46,4.36-3.87,4.35s-3.79-1.45-3.77-4.34l0-5.57c0-2.82,1.57-4.19,3.88-4.18S337.44,335.4,337.43,338.16Zm-5.25-.13,0,5.68c0,1.26.39,2.13,1.43,2.14s1.42-.7,1.43-2.17l0-5.66c0-1.17-.34-2-1.42-2S332.18,336.7,332.18,338Z"/><path
      class="a732da37-3123-4d17-adec-3368060ad485"
      d="M339.42,338.3c0-2.76,0-3.55,0-4.19h2.27a10.84,10.84,0,0,1,.09,1.29,2.52,2.52,0,0,1,2.51-1.5c1.6,0,2.76,1,2.75,3.51l0,10.38h-2.38l0-9.92c0-1.27-.43-1.81-1.28-1.81-1,0-1.56.53-1.57,2.69l0,9h-2.38Z"/><path class="a732da37-3123-4d17-adec-3368060ad485" d="M349.37,347.81l.08-18.53h2.38l-.08,18.53Z"/><path class="a732da37-3123-4d17-adec-3368060ad485" d="M354.19,334.17h2.38l-.06,13.66h-2.38Zm0-4.87h2.39l0,2.85h-2.38Z"/><path class="a732da37-3123-4d17-adec-3368060ad485" d="M359,338.38c0-2.76,0-3.55,0-4.19h2.27a9.07,9.07,0,0,1,.09,1.29,2.52,2.52,0,0,1,2.52-1.5c1.59,0,2.75,1,2.74,3.51l0,10.38h-2.38l0-9.92c0-1.27-.43-1.81-1.28-1.81-1,0-1.56.53-1.57,2.69l0,9h-2.38Z"/><path
      class="a732da37-3123-4d17-adec-3368060ad485"
      d="M370.88,341.65v2.11c0,1.18.24,2.33,1.41,2.34s1.35-1,1.36-2.12v-.09H376V344c0,1.5-.35,4.15-3.65,4.14s-3.78-2.05-3.76-4.82l0-4.73c0-2,.66-4.55,3.8-4.54,2.8,0,3.67,2,3.66,4.56,0,.77,0,2.3,0,3.08Zm2.86-1.88v-1.52c0-1.27-.24-2.19-1.38-2.2s-1.44.8-1.45,2.19v1.52Z"/><path
      class="b26f9af4-ca95-4b15-b4eb-a9ce381e4127"
      d="M256,267.62l-.07,18.06c0,5.84-2,9.89-8.44,9.87-5.93,0-8-4-8-9.86l.07-17.81c0-6.58,3-9.87,8.38-9.85S256,261.29,256,267.62Zm-11.46-.27-.08,18.86c0,3.12.94,4.72,3.24,4.73s3.18-1.47,3.2-4.86l.08-18.81c0-3.11-1-4.62-3.18-4.63S244.53,263.94,244.52,267.35Z"/><path class="b26f9af4-ca95-4b15-b4eb-a9ce381e4127" d="M262.26,295.16l.13-30.78a22.78,22.78,0,0,1-3.92.55v-3.87a9,9,0,0,0,5.3-2.72l3.68,0-.15,36.82Z"/><path class="b26f9af4-ca95-4b15-b4eb-a9ce381e4127" d="M272.12,295.2l0-8.11,5.05,0,0,8.11Z"/><path class="b26f9af4-ca95-4b15-b4eb-a9ce381e4127" d="M282.15,295.24l.12-30.77a22.59,22.59,0,0,1-3.92.54v-3.87a8.9,8.9,0,0,0,5.3-2.72l3.68,0-.15,36.82Z"/><path
      class="b26f9af4-ca95-4b15-b4eb-a9ce381e4127"
      d="M291.34,295.27v-.63c.07-6.46,2.78-10.92,6.79-16.65,3-4.28,4-5.77,4-9.84s-.51-5.66-2.83-5.67c-2.13,0-2.95,1.62-3,4.64v1.82l-4.67,0v-2c0-4.13,1.34-8.74,7.88-8.71,6.07,0,7.68,4,7.66,9.64,0,5.79-1.79,8.15-4.8,12.26s-5.14,7.77-5.44,10.79l10.89.05-.72,4.36Z"/><path class="b26f9af4-ca95-4b15-b4eb-a9ce381e4127" d="M311.43,295.36l0-8.11,5,0,0,8.11Z"/><path
      class="b26f9af4-ca95-4b15-b4eb-a9ce381e4127"
      d="M319.56,295.39v-.63c.07-6.46,2.78-10.92,6.79-16.66,3-4.28,4-5.76,4-9.84s-.5-5.65-2.82-5.66c-2.13,0-2.95,1.61-3,4.63v1.82l-4.67,0v-2c0-4.13,1.34-8.73,7.88-8.71,6.06,0,7.68,4,7.65,9.64,0,5.79-1.78,8.15-4.79,12.27s-5.15,7.76-5.44,10.79l10.88,0-.71,4.36Z"/><path
      class="b26f9af4-ca95-4b15-b4eb-a9ce381e4127"
      d="M355.28,268l-.07,18.07c0,5.84-2,9.89-8.44,9.86-5.93,0-8-4-8-9.86l.07-17.8c0-6.59,3-9.88,8.38-9.86S355.31,261.69,355.28,268Zm-11.46-.27-.08,18.86c0,3.12.94,4.72,3.24,4.73s3.18-1.46,3.2-4.85l.08-18.81c0-3.12-1-4.63-3.18-4.64S343.83,264.35,343.82,267.75Z"/><path
      class="b26f9af4-ca95-4b15-b4eb-a9ce381e4127"
      d="M358.36,295.55v-.63c.06-6.46,2.77-10.92,6.79-16.66,3-4.28,4-5.77,4-9.84s-.5-5.65-2.83-5.66c-2.12,0-2.94,1.61-2.95,4.63v1.82l-4.67,0v-2c0-4.13,1.35-8.73,7.88-8.71,6.07,0,7.68,4,7.66,9.64,0,5.79-1.78,8.15-4.8,12.27s-5.14,7.76-5.43,10.79l10.88,0-.71,4.36Z"/><path
      class="b26f9af4-ca95-4b15-b4eb-a9ce381e4127"
      d="M394.08,268.18,394,286.24c0,5.84-2,9.9-8.44,9.87-5.93,0-8-4-8-9.86l.07-17.8c0-6.59,3-9.88,8.37-9.86S394.11,261.85,394.08,268.18Zm-11.45-.27-.08,18.86c0,3.12.93,4.72,3.24,4.73S389,290,389,286.65l.07-18.81c0-3.12-1-4.63-3.18-4.64S382.64,264.51,382.63,267.91Z"/><path
      class="a732da37-3123-4d17-adec-3368060ad485"
      d="M52.69,114.41c0-24.08,0-10.24,0-34.33H19.25c0,24.09.06,10.24.07,34.33ZM49.58,85.72a2.62,2.62,0,0,1-2.6,2.6,2.58,2.58,0,1,1,2.6-2.6Zm-27.2-.19A2.52,2.52,0,0,1,25,83.17a2.58,2.58,0,0,1,2.4,2,2.62,2.62,0,0,1-2,3.12l-.4,0A2.58,2.58,0,0,1,22.38,85.53Zm27.23,23.25a2.57,2.57,0,1,1-5.14,0,2.57,2.57,0,1,1,5.14,0Zm-27.26,0a2.58,2.58,0,0,1,2.56-2.54,2.61,2.61,0,0,1,2.52,2.64,2.54,2.54,0,1,1-5.08-.1Z"/><path
      class="a732da37-3123-4d17-adec-3368060ad485"
      d="M74.86,114.41c0-24.08,0-10.24,0-34.33H41.43c0,24.09.06,10.24.07,34.33Zm-3.1-28.69a2.62,2.62,0,0,1-2.6,2.6,2.58,2.58,0,1,1,2.6-2.6Zm-27.2-.19a2.52,2.52,0,0,1,2.57-2.36,2.58,2.58,0,0,1,2.4,2,2.62,2.62,0,0,1-2,3.12l-.4,0A2.58,2.58,0,0,1,44.56,85.53Zm27.23,23.25a2.57,2.57,0,1,1-5.14,0,2.57,2.57,0,1,1,5.14,0Zm-27.26,0a2.58,2.58,0,0,1,2.56-2.54,2.62,2.62,0,0,1,2.52,2.64,2.54,2.54,0,1,1-5.08-.1Z"/><path
      class="a732da37-3123-4d17-adec-3368060ad485"
      d="M52.69,91.45c0-24.07,0-10.23,0-34.33H19.25c0,24.1.06,10.25.07,34.33ZM49.58,62.77a2.62,2.62,0,0,1-2.6,2.6,2.58,2.58,0,1,1,2.6-2.6Zm-27.2-.19A2.51,2.51,0,0,1,25,60.22a2.57,2.57,0,0,1,2.4,2,2.6,2.6,0,0,1-2,3.11c-.13,0-.27,0-.4,0A2.58,2.58,0,0,1,22.38,62.58ZM49.61,85.83a2.57,2.57,0,1,1-5.14,0,2.57,2.57,0,1,1,5.14,0Zm-27.26,0a2.58,2.58,0,0,1,2.56-2.54,2.61,2.61,0,0,1,2.52,2.64,2.54,2.54,0,1,1-5.08-.1Z"/><path
      class="a732da37-3123-4d17-adec-3368060ad485"
      d="M74.86,91.45c0-24.07,0-10.23,0-34.33H41.43c0,24.1.06,10.25.07,34.33Zm-3.1-28.68a2.62,2.62,0,0,1-2.6,2.6,2.58,2.58,0,1,1,2.6-2.6Zm-27.2-.19a2.5,2.5,0,0,1,2.57-2.36,2.57,2.57,0,0,1,2.4,2,2.6,2.6,0,0,1-2,3.11c-.13,0-.27,0-.4,0A2.58,2.58,0,0,1,44.56,62.58ZM71.79,85.83a2.57,2.57,0,1,1-5.14,0,2.57,2.57,0,1,1,5.14,0Zm-27.26,0a2.58,2.58,0,0,1,2.56-2.54,2.62,2.62,0,0,1,2.52,2.64,2.54,2.54,0,1,1-5.08-.1Z"/><rect class="a732da37-3123-4d17-adec-3368060ad485" x="19.31" y="80.02" width="55.52" height="11.44"/><rect class="a732da37-3123-4d17-adec-3368060ad485" x="19.56" y="80.27" width="55.52" height="11.44" transform="translate(133.31 38.67) rotate(90)"/></g>
  </g>
</svg>