<svg xmlns="http://www.w3.org/2000/svg" viewBox="0 0 80.28 162.17"><defs><style>.cls-1{fill:#414042;}.cls-2{fill:#be1e2d;}</style></defs><g id="Layer_2" data-name="Layer 2"><g id="Layer_1-2" data-name="Layer 1"><path class="cls-1" d="M80,111.79,0,111.94l.33,50.23,80-.15ZM74.3,151.93H6v-6H74.3Zm0-12H6v-6H74.3Zm0-12H6v-6H74.3Z"/><path class="cls-1" d="M80,0,0,.15.33,50.38l80-.15ZM74.3,40.14H6v-6H74.3Zm0-12H6v-6H74.3Zm0-12H6v-6H74.3Z"/><path class="cls-2" d="M80,57,0,57.16l.33,50.23,80-.15ZM74.3,97.15H6v-6H74.3Zm0-12H6v-6H74.3Zm0-12H6v-6H74.3Z"/></g></g></svg>