<svg xmlns="http://www.w3.org/2000/svg" viewBox="0 0 505.97 200.98"><defs><style>.cls-1{fill:#808285;}.cls-2{fill:#414042;}.cls-3,.cls-5{fill:#fff;}.cls-4{font-size:18.04px;}.cls-4,.cls-6{fill:#231f20;}.cls-4,.cls-5,.cls-6{font-family:CalvinAndHobbesNormal, Calvin and Hobbes;}.cls-5,.cls-6{font-size:19.45px;}.cls-7{fill:#be1e2d;}</style></defs><g id="Layer_2" data-name="Layer 2"><g id="Layer_1-2" data-name="Layer 1"><path class="cls-1" d="M298.33.54,298.66,201l207.31-.3L505.63.24Zm14.09,193.53a6.89,6.89,0,1,1,6.88-6.9A6.89,6.89,0,0,1,312.42,194.07Zm-.28-172.9A6.89,6.89,0,1,1,319,14.28,6.89,6.89,0,0,1,312.14,21.17Zm180,172.65a6.89,6.89,0,1,1,6.87-6.9A6.89,6.89,0,0,1,492.18,193.82Zm-.28-172.9a6.89,6.89,0,1,1,6.87-6.9A6.88,6.88,0,0,1,491.9,20.92Z"/><path class="cls-2" d="M0,.3.17,200.75l292.44-.3L292.44,0ZM13.93,193.84a6.89,6.89,0,1,1,6.87-6.9A6.9,6.9,0,0,1,13.93,193.84Zm-.12-172.9A6.89,6.89,0,1,1,20.68,14,6.9,6.9,0,0,1,13.81,20.94Zm265,172.64a6.89,6.89,0,1,1,6.88-6.9A6.89,6.89,0,0,1,278.82,193.58Zm-.12-172.9a6.89,6.89,0,1,1,6.88-6.89A6.89,6.89,0,0,1,278.7,20.68Z"/><path class="cls-3" d="M218.8,37.38l-145,0v33.4l145-.08ZM79.41,40.48A2.62,2.62,0,0,1,82,43.08a2.58,2.58,0,1,1-2.61-2.6Zm-.19,27.21a2.52,2.52,0,0,1-2.35-2.58,2.56,2.56,0,0,1,2-2.4,2.61,2.61,0,0,1,3.12,2,2.71,2.71,0,0,1,0,.4A2.59,2.59,0,0,1,79.22,67.69Zm134-27.24a2.57,2.57,0,1,1,0,5.14,2.57,2.57,0,1,1,0-5.14Zm0,27.26a2.58,2.58,0,0,1-2.54-2.56,2.61,2.61,0,0,1,2.64-2.51,2.54,2.54,0,1,1-.1,5.07Z"/><text class="cls-4" transform="matrix(1, 0, 0, 1, 81.62, 62.42)">Angelina Venmer</text><path class="cls-2" d="M490.3,64.39l-139.11-41-9.45,32,139.12,41ZM355.74,27.89a2.61,2.61,0,0,1,1.76,3.22,2.58,2.58,0,1,1-1.76-3.22Zm-7.89,26a2.5,2.5,0,0,1-1.53-3.13,2.55,2.55,0,0,1,2.59-1.74,2.6,2.6,0,0,1,2.42,2.83c0,.13-.05.26-.07.4A2.59,2.59,0,0,1,347.85,53.92ZM484,65.74a2.57,2.57,0,1,1-1.46,4.93A2.57,2.57,0,1,1,484,65.74Zm-7.73,26.14a2.58,2.58,0,0,1-1.72-3.17A2.63,2.63,0,0,1,477.84,87a2.54,2.54,0,1,1-1.53,4.84Z"/><text class="cls-5" transform="translate(368.42 54.95) rotate(16.27)">Matas Buckus</text><path class="cls-3" d="M470.47,123.8,328,150.7l6.2,32.82c23.68-4.47,118.84-22.47,142.51-26.93ZM334.06,152.67a2.62,2.62,0,0,1,3,2.07,2.58,2.58,0,1,1-3-2.07Zm4.86,26.77a2.52,2.52,0,0,1-2.79-2.1,2.57,2.57,0,0,1,1.51-2.73,2.6,2.6,0,0,1,3.44,1.42c.05.13.08.26.12.39A2.6,2.6,0,0,1,338.92,179.44Zm126.6-51.58a2.57,2.57,0,0,1,.94,5,2.57,2.57,0,1,1-.94-5Zm5,26.79a2.57,2.57,0,0,1-3-2,2.61,2.61,0,0,1,2.13-3,2.54,2.54,0,1,1,.84,5Z"/><text class="cls-6" transform="translate(342.58 173.96) rotate(-10.85)">Szymon Hernik</text><path class="cls-7" d="M479.43,105.53l-138.82-42-9.67,32,138.82,42ZM345.12,68.09a2.61,2.61,0,0,1,1.74,3.24,2.58,2.58,0,1,1-1.74-3.24Zm-8.06,26a2.5,2.5,0,0,1-1.51-3.15,2.56,2.56,0,0,1,2.6-1.72,2.61,2.61,0,0,1,2.4,2.85c0,.13-.05.26-.08.4A2.58,2.58,0,0,1,337.06,94.07Zm136.1,12.77a2.57,2.57,0,0,1-1.5,4.92,2.57,2.57,0,1,1,1.5-4.92Zm-7.92,26.08a2.58,2.58,0,0,1-1.69-3.18,2.62,2.62,0,0,1,3.26-1.64,2.53,2.53,0,1,1-1.57,4.82Z"/><text class="cls-5" transform="translate(365.12 97.84) rotate(16.67)">Kexin HAo</text><path class="cls-3" d="M115.62,10.51h1.95c1.46,0,2.19.73,2.19,2.34v.57c0,1.5-.5,2.54-2.27,2.54h-.6v4h-1.27Zm1.27,4.41h.47c1,0,1.14-.59,1.14-1.54V12.9c0-.72-.15-1.33-1-1.33h-.58Z"/><path class="cls-3" d="M122,10.1v3.22a1.37,1.37,0,0,1,1.34-.74c1.1,0,1.44.83,1.44,1.87V20h-1.27V14.78c0-.56-.1-1-.69-1s-.82.46-.82,1.39V20h-1.27V10.1Z"/><path class="cls-3" d="M129.9,14.86v2.9c0,1.57-.76,2.33-2.05,2.33s-2-.77-2-2.31v-3a2,2,0,0,1,2.06-2.23C129.17,12.58,129.9,13.38,129.9,14.86Zm-2.8-.06v3c0,.68.22,1.14.77,1.14s.76-.37.76-1.16v-3c0-.63-.19-1.08-.76-1.08S127.1,14.09,127.1,14.8Z"/><path class="cls-3" d="M130.38,12.69h.8V10.93h1.26v1.76h1v1.12h-1v4.55c0,.35.06.66.5.66a1.66,1.66,0,0,0,.42,0v1a2.35,2.35,0,0,1-.84.13c-.82,0-1.34-.3-1.34-1.49V13.81h-.8Z"/><path class="cls-3" d="M138,14.86v2.9c0,1.57-.76,2.33-2.05,2.33s-2-.77-2-2.31v-3A2,2,0,0,1,136,12.58C137.26,12.58,138,13.38,138,14.86Zm-2.8-.06v3c0,.68.22,1.14.77,1.14s.76-.37.76-1.16v-3c0-.63-.19-1.08-.76-1.08S135.19,14.09,135.19,14.8Z"/><path class="cls-3" d="M142.92,19.67c0,1.56-.16,2.86-2.13,2.86a1.69,1.69,0,0,1-1.93-1.86v0h1.27v0a.72.72,0,0,0,.73.8c.66,0,.79-.51.79-1.48v-.85a1.2,1.2,0,0,1-1.21.7c-1.24,0-1.59-.94-1.59-2.26V14.77c0-1.11.45-2.19,1.74-2.19a1.09,1.09,0,0,1,1.19.75,3.68,3.68,0,0,1,.07-.64h1.09c0,.43,0,1.06,0,1.86Zm-2.8-4.82V17.5c0,.82.21,1.23.71,1.23.71,0,.82-.63.82-1.56V15c0-.71-.07-1.3-.74-1.3S140.12,14.09,140.12,14.85Z"/><path class="cls-3" d="M144.18,15.16c0-1.19,0-1.76,0-2.47h1.2c0,.17,0,.73,0,1.17A1.58,1.58,0,0,1,147,12.59v1.56c-.86,0-1.54.35-1.54,1.76V20h-1.27Z"/><path class="cls-3" d="M151.3,18.58c0,.47,0,1.14,0,1.39h-1.17c0-.15-.08-.44-.09-.56a1.2,1.2,0,0,1-1.19.68c-1.08,0-1.51-1-1.51-2.09v-.13c0-1.73,1.13-2.25,2.44-2.25H150v-1c0-.6-.08-1-.58-1s-.6.37-.6.87v.15H147.6v-.13a1.7,1.7,0,0,1,1.9-1.94c1.35,0,1.8.78,1.8,1.92Zm-1.24-2h-.29c-.73,0-1.19.29-1.19,1.26V18c0,.57.19,1,.7,1s.78-.42.78-1.44Z"/><path class="cls-3" d="M153.85,19.43v3h-1.27V14.79c0-1,0-1.65,0-2.1h1.21a6,6,0,0,1,.05.75,1.33,1.33,0,0,1,1.33-.86c1,0,1.49.7,1.49,2.12v3c0,1.65-.58,2.36-1.63,2.36A1.21,1.21,0,0,1,153.85,19.43Zm1.53-1.68V14.8c0-.76-.26-1.07-.7-1.07-.59,0-.83.43-.83,1.32v2.46c0,.79.13,1.43.77,1.43S155.38,18.49,155.38,17.75Z"/><path class="cls-3" d="M159,10.1v3.22a1.4,1.4,0,0,1,1.35-.74c1.1,0,1.44.83,1.44,1.87V20h-1.27V14.78c0-.56-.1-1-.69-1s-.83.46-.83,1.39V20h-1.26V10.1Z"/><path class="cls-3" d="M163.84,12.69c.43,2.5.83,4.84.89,5.74h0c.13-1.22.51-3,1-5.74H167l-1.63,7.65c-.44,2.06-1.14,2.18-2,2.18a3.6,3.6,0,0,1-.61-.06l0-1.14a2.5,2.5,0,0,0,.41,0c.49,0,.72-.19.88-1.11l-1.63-7.56Z"/><path class="cls-3" d="M169.57,10.1h1.27v3.23a1.34,1.34,0,0,1,1.29-.75c1.07,0,1.51.87,1.51,2.16v2.64c0,1.59-.3,2.7-1.68,2.7a1.17,1.17,0,0,1-1.2-.77,5.58,5.58,0,0,1,0,.66h-1.15c0-.46,0-1.1,0-1.89Zm2.8,7.51V14.94c0-.75-.15-1.21-.71-1.21s-.83.59-.83,1.5v2.34c0,.93.23,1.36.79,1.36S172.37,18.52,172.37,17.61Z"/><path class="cls-3" d="M175.52,12.69c.42,2.5.83,4.84.89,5.74h0c.14-1.22.51-3,1-5.74h1.27l-1.62,7.65c-.45,2.06-1.15,2.18-2,2.18a3.72,3.72,0,0,1-.62-.06l0-1.14a2.53,2.53,0,0,0,.42,0c.48,0,.72-.19.88-1.11l-1.63-7.56Z"/><path class="cls-3" d="M173.76,190.82v.57c0,.78.25,1.21.85,1.21s.82-.52.82-1.31c0-1-.23-1.42-1.24-2.21s-1.55-1.29-1.55-2.69c0-1.23.37-2.44,2-2.44s1.91,1.12,1.91,2.22v.48h-1.26v-.44c0-.72-.12-1.16-.68-1.16s-.69.48-.69,1.15.15,1.09,1,1.72c1.37,1,1.79,1.61,1.79,3.19,0,1.33-.43,2.58-2.12,2.58s-2.09-1.07-2.09-2.31v-.56Z"/><path class="cls-3" d="M181.67,188.44v2.9c0,1.57-.76,2.33-2,2.33s-2-.77-2-2.31v-3a2,2,0,0,1,2.06-2.24C180.94,186.16,181.67,187,181.67,188.44Zm-2.79-.06v3c0,.67.21,1.13.77,1.13s.75-.37.75-1.15v-3c0-.63-.19-1.08-.76-1.08S178.88,187.67,178.88,188.38Z"/><path class="cls-3" d="M186.75,191.5c0,1,0,1.69,0,2.06h-1.21c0-.15,0-.5,0-.72a1.27,1.27,0,0,1-1.34.83c-.65,0-1.44-.29-1.44-1.88v-5.51H184v5.18c0,.75.21,1.07.69,1.07s.79-.3.79-1.44v-4.81h1.27Z"/><path class="cls-3" d="M188,188.51c0-1.47,0-1.89,0-2.23h1.21a5.81,5.81,0,0,1,.05.69,1.34,1.34,0,0,1,1.34-.81c.84,0,1.46.51,1.46,1.87v5.53h-1.26v-5.29c0-.68-.23-1-.69-1s-.83.28-.83,1.43v4.82H188Z"/><path class="cls-3" d="M197.22,183.68v7.92c0,1,0,1.56,0,2H196c0-.17-.05-.57-.05-.71a1.27,1.27,0,0,1-1.28.82c-1.27,0-1.54-1-1.54-2.42v-2.9c0-1.28.49-2.19,1.65-2.19a1.23,1.23,0,0,1,1.15.53v-3Zm-2.8,4.74v2.91c0,.78.19,1.19.72,1.19s.81-.61.81-1.51V188.7c0-.79-.08-1.39-.78-1.39C194.62,187.31,194.42,187.74,194.42,188.42Z"/><path class="cls-3" d="M197.88,186.28h.8v-1.77h1.26v1.77h1v1.11h-1v4.55c0,.36.06.67.5.67a2.3,2.3,0,0,0,.42,0v1a2.15,2.15,0,0,1-.84.13c-.82,0-1.34-.29-1.34-1.49v-4.78h-.8Z"/><path class="cls-3" d="M201.62,188.75c0-1.2,0-1.77,0-2.47h1.2c0,.16,0,.73,0,1.16a1.58,1.58,0,0,1,1.58-1.27v1.57c-.86,0-1.54.34-1.54,1.76v4.06h-1.27Z"/><path class="cls-3" d="M208.74,192.16c0,.48,0,1.14,0,1.4H207.6c0-.16-.07-.45-.08-.56a1.23,1.23,0,0,1-1.2.67c-1.08,0-1.51-1-1.51-2.09v-.13c0-1.73,1.13-2.25,2.44-2.25h.23v-1c0-.61-.09-1-.58-1s-.61.37-.61.88v.15H205v-.13a1.7,1.7,0,0,1,1.9-2c1.35,0,1.8.79,1.8,1.92Zm-1.24-2h-.29c-.73,0-1.19.29-1.19,1.25v.12c0,.57.2,1,.7,1s.78-.42.78-1.44Z"/><path class="cls-3" d="M213.65,191.19v.1c0,1.29-.33,2.38-1.93,2.38s-1.9-1.07-1.9-2.56v-2.63c0-1.21.42-2.32,2-2.32s1.87,1.21,1.87,2.14v.28H212.4v-.28c0-.6-.1-1.06-.64-1.06s-.67.37-.67,1.09v3.14c0,.57.11,1.12.66,1.12s.65-.38.65-1.1v-.3Z"/><path class="cls-3" d="M215.82,189.53h0c.33-.81,1-2.35,1.42-3.25h1.34L217.25,189l1.5,4.6h-1.39l-1-3.37-.55,1.08v2.29h-1.26v-9.88h1.26Z"/><path class="cls-3" d="M221.07,183.68h1.27v3.24a1.36,1.36,0,0,1,1.3-.76c1.06,0,1.5.88,1.5,2.17V191c0,1.59-.29,2.7-1.67,2.7a1.19,1.19,0,0,1-1.21-.77,6,6,0,0,1,0,.67h-1.15c0-.46,0-1.11,0-1.9Zm2.8,7.51v-2.66c0-.75-.14-1.22-.7-1.22s-.83.6-.83,1.5v2.34c0,.93.22,1.37.78,1.37S223.87,192.11,223.87,191.19Z"/><path class="cls-3" d="M227,186.28c.43,2.49.83,4.83.89,5.74h0c.13-1.23.51-3,1-5.74h1.27l-1.63,7.64c-.44,2.07-1.14,2.18-2,2.18A3.6,3.6,0,0,1,226,196l0-1.13s.26,0,.41,0c.49,0,.72-.19.88-1.1l-1.63-7.56Z"/><path class="cls-3" d="M59.74,177v.57c0,.78.25,1.21.85,1.21s.81-.52.81-1.32c0-1.05-.23-1.41-1.23-2.2s-1.55-1.3-1.55-2.7c0-1.22.37-2.44,2-2.43s1.92,1.12,1.92,2.22v.47H61.26v-.44c0-.71-.13-1.16-.68-1.16s-.69.48-.69,1.16.14,1.08,1,1.71c1.37,1,1.8,1.61,1.8,3.19,0,1.34-.43,2.58-2.13,2.58s-2.08-1.06-2.08-2.31V177Z"/><path class="cls-3" d="M67.65,174.62v2.9c0,1.56-.76,2.32-2.05,2.32s-2-.76-2-2.3v-3a2,2,0,0,1,2.06-2.23C66.92,172.34,67.65,173.14,67.65,174.62Zm-2.8-.07v3c0,.67.22,1.14.77,1.14s.76-.38.76-1.16v-3c0-.62-.19-1.08-.76-1.08S64.85,173.85,64.85,174.55Z"/><path class="cls-3" d="M68.71,174.68c0-1.47,0-1.89,0-2.23h1.21a6.16,6.16,0,0,1,0,.69,1.34,1.34,0,0,1,1.34-.8c.84,0,1.47.5,1.47,1.86v5.53H71.5v-5.29c0-.67-.23-1-.69-1s-.83.29-.83,1.44v4.81H68.71Z"/><path class="cls-3" d="M74,172.45h1.27v7.28H74Zm0-2.59h1.27v1.51H74.05Z"/><path class="cls-3" d="M80.22,177.36v.1c0,1.29-.33,2.38-1.94,2.38s-1.89-1.06-1.89-2.55v-2.64c0-1.2.41-2.31,2-2.31s1.87,1.2,1.87,2.13v.29H79v-.29c0-.6-.1-1.06-.65-1.06s-.66.37-.66,1.09v3.14c0,.57.11,1.13.66,1.13s.65-.38.65-1.11v-.3Z"/><path class="cls-3" d="M87,177v.35c0,1.13-.2,2.56-2.08,2.56-1.7,0-2-1.12-2-2.54v-4.79c0-1.48.66-2.39,2.05-2.39,1.7,0,2,1.15,2,2.43v.4H85.64v-.53c0-.68-.14-1.15-.74-1.15s-.76.44-.76,1.16v5c0,.76.16,1.3.78,1.3s.75-.52.75-1.3V177Z"/><path class="cls-3" d="M91.86,174.62v2.9c0,1.56-.76,2.32-2,2.32s-2-.76-2-2.3v-3a2,2,0,0,1,2.06-2.23C91.13,172.34,91.86,173.14,91.86,174.62Zm-2.8-.07v3c0,.67.22,1.14.77,1.14s.76-.38.76-1.16v-3c0-.62-.19-1.08-.76-1.08S89.06,173.85,89.06,174.55Z"/><path class="cls-3" d="M92.93,174.68c0-1.47,0-1.89,0-2.23h1.21a4.44,4.44,0,0,1,0,.69,1.34,1.34,0,0,1,1.34-.8c.85,0,1.47.5,1.47,1.86v5.53H95.71v-5.29c0-.67-.23-1-.68-1s-.84.29-.84,1.44v4.81H92.93Z"/><path class="cls-3" d="M102.12,169.86v7.91c0,1,0,1.56,0,2h-1.21c0-.16,0-.56,0-.7a1.28,1.28,0,0,1-1.28.81c-1.28,0-1.55-1-1.55-2.41v-2.91c0-1.28.49-2.18,1.66-2.18a1.24,1.24,0,0,1,1.14.52v-3Zm-2.8,4.74v2.91c0,.78.19,1.19.73,1.19s.8-.62.8-1.52v-2.3c0-.8-.07-1.4-.78-1.4C99.52,173.48,99.32,173.91,99.32,174.6Z"/><path class="cls-3" d="M107.36,177.67c0,1,0,1.69,0,2.06h-1.21a4.87,4.87,0,0,1,0-.72,1.25,1.25,0,0,1-1.34.83c-.64,0-1.43-.28-1.43-1.88v-5.51h1.27v5.18c0,.75.21,1.07.69,1.07s.79-.3.79-1.43v-4.82h1.26Z"/><path class="cls-3" d="M112.27,177.36v.1c0,1.29-.33,2.38-1.94,2.38s-1.89-1.06-1.89-2.55v-2.64c0-1.2.41-2.31,2-2.31s1.87,1.2,1.87,2.13v.29H111v-.29c0-.6-.1-1.06-.64-1.06s-.66.37-.66,1.09v3.14c0,.57.1,1.13.65,1.13s.65-.38.65-1.11v-.3Z"/><path class="cls-3" d="M112.8,172.45h.8v-1.76h1.26v1.76h1v1.12h-1v4.54c0,.36.06.67.5.67a1.66,1.66,0,0,0,.42,0v1a2.15,2.15,0,0,1-.84.13c-.82,0-1.34-.29-1.34-1.49v-4.77h-.8Z"/><path class="cls-3" d="M120.41,174.62v2.9c0,1.56-.76,2.32-2,2.32s-2-.76-2-2.3v-3a2,2,0,0,1,2.06-2.23C119.68,172.34,120.41,173.14,120.41,174.62Zm-2.8-.07v3c0,.67.22,1.14.77,1.14s.76-.38.76-1.16v-3c0-.62-.19-1.08-.76-1.08S117.61,173.85,117.61,174.55Z"/><path class="cls-3" d="M121.47,174.92c0-1.19,0-1.77,0-2.47h1.2c0,.16,0,.73,0,1.16a1.56,1.56,0,0,1,1.58-1.26v1.56c-.86,0-1.54.34-1.54,1.76v4.06h-1.27Z"/><path class="cls-3" d="M74.76,188.19l-1.47,3.59C72.67,193.27,72,194,70.91,194c-1.37,0-2-1.05-2-2.56s.57-2.06,1.78-3c.87-.72,1.11-1.07,1.11-2,0-.62-.1-1-.58-1s-.58.45-.58,1a2.82,2.82,0,0,0,.49,1.84l3.5,5.68H73.26l-3-4.79a4,4,0,0,1-.77-2.61c0-1.38.62-2.17,1.75-2.17s1.73.71,1.73,2-.38,1.83-1.65,2.83a2.19,2.19,0,0,0-1.14,2.13c0,1,.31,1.41.87,1.41s.8-.39,1.16-1.28l1.32-3.28Z"/><path class="cls-3" d="M78.27,191.16v.57c0,.79.25,1.21.85,1.21s.81-.52.81-1.31c0-1-.23-1.42-1.23-2.21s-1.55-1.29-1.55-2.69c0-1.23.37-2.44,2-2.44s1.92,1.12,1.92,2.22V187H79.79v-.44c0-.71-.13-1.16-.68-1.16s-.69.48-.69,1.16.14,1.08,1,1.71c1.37,1,1.8,1.61,1.8,3.19,0,1.33-.43,2.58-2.13,2.58S77,193,77,191.72v-.56Z"/><path class="cls-3" d="M86.18,188.78v2.9c0,1.57-.76,2.33-2.05,2.33s-2-.77-2-2.31v-3a2,2,0,0,1,2.06-2.23C85.45,186.51,86.18,187.31,86.18,188.78Zm-2.8-.06v3c0,.67.22,1.13.77,1.13s.76-.37.76-1.15v-3c0-.62-.19-1.08-.76-1.08S83.38,188,83.38,188.72Z"/><path class="cls-3" d="M91.26,191.84c0,1,0,1.69,0,2.06H90.06a5,5,0,0,1,0-.72,1.25,1.25,0,0,1-1.34.83c-.64,0-1.43-.29-1.43-1.88v-5.51h1.27v5.18c0,.75.21,1.07.69,1.07s.79-.3.79-1.43v-4.82h1.27Z"/><path class="cls-3" d="M92.53,188.85c0-1.47,0-1.89,0-2.23h1.21a4.35,4.35,0,0,1,0,.69,1.34,1.34,0,0,1,1.34-.8c.85,0,1.47.5,1.47,1.86v5.53H95.31v-5.29c0-.68-.23-1-.68-1s-.83.29-.83,1.44v4.81H92.53Z"/><path class="cls-3" d="M101.72,184v7.92c0,1,0,1.56,0,2h-1.21a5.91,5.91,0,0,1,0-.7,1.26,1.26,0,0,1-1.28.81c-1.27,0-1.55-1-1.55-2.42v-2.9c0-1.28.5-2.18,1.66-2.18a1.24,1.24,0,0,1,1.14.52v-3Zm-2.79,4.75v2.91c0,.77.18,1.19.72,1.19s.8-.62.8-1.52v-2.3c0-.8-.07-1.4-.78-1.4C99.13,187.65,98.93,188.08,98.93,188.77Z"/><path class="cls-3" d="M104.87,184h1.27v3.24a1.33,1.33,0,0,1,1.29-.75c1.07,0,1.51.87,1.51,2.16v2.64c0,1.58-.3,2.69-1.68,2.69a1.18,1.18,0,0,1-1.21-.77c0,.28,0,.47,0,.67h-1.16c0-.46,0-1.11,0-1.9Zm2.79,7.51v-2.66c0-.75-.14-1.22-.7-1.22s-.83.6-.83,1.5v2.34c0,.93.23,1.37.79,1.37S107.66,192.45,107.66,191.53Z"/><path class="cls-3" d="M110.81,186.62c.43,2.49.84,4.84.9,5.74h0c.14-1.22.51-3,1-5.74H114l-1.63,7.64c-.44,2.07-1.14,2.18-2,2.18a5.19,5.19,0,0,1-.62-.05l0-1.14a2.91,2.91,0,0,0,.42,0c.48,0,.71-.18.87-1.1l-1.63-7.56Z"/><path class="cls-3" d="M377.34,193.81l-1.3-9.46h1.35c.25,2.15.62,5.64.69,7.3h0c.18-1.8.68-5.16,1-7.3h1.26c.3,2.19.79,5.32.95,7.25h0c.11-1.76.48-5,.73-7.25h1.29l-1.42,9.46H380.6c-.28-2.16-.74-5.2-.93-7h0c-.21,1.87-.69,4.88-1,7Z"/><path class="cls-3" d="M385,190.48v1.12c0,.63.14,1.25.76,1.25s.72-.54.72-1.14v0h1.24v0c0,.8-.18,2.21-1.94,2.21s-2-1.08-2-2.56v-2.52c0-1,.35-2.42,2-2.42,1.49,0,2,1,2,2.42v1.64Zm1.52-1v-.81c0-.67-.13-1.17-.74-1.17s-.77.43-.77,1.17v.81Z"/><path class="cls-3" d="M388.72,183.94H390v3.23a1.34,1.34,0,0,1,1.29-.75c1.07,0,1.51.87,1.51,2.16v2.64c0,1.59-.3,2.69-1.68,2.69a1.18,1.18,0,0,1-1.21-.77,6,6,0,0,1,0,.67H388.7c0-.46,0-1.11,0-1.9Zm2.8,7.51v-2.67c0-.75-.15-1.22-.71-1.22s-.83.6-.83,1.5v2.34c0,.93.23,1.37.79,1.37S391.52,192.36,391.52,191.45Z"/><path class="cls-3" d="M395.76,184.35h1.9c2,0,2.41,1.13,2.41,2.78v3.68c0,1.44-.24,3-2.44,3h-1.87Zm1.27,8.37h.51c1,0,1.24-.63,1.24-1.72v-4c0-1-.17-1.57-1.24-1.57H397Z"/><path class="cls-3" d="M402.27,190.48v1.12c0,.63.13,1.25.75,1.25s.72-.54.72-1.14v0H405v0c0,.8-.18,2.21-1.94,2.21s-2-1.08-2-2.56v-2.52c0-1,.34-2.42,2-2.42,1.49,0,1.95,1,1.95,2.42v1.64Zm1.51-1v-.81c0-.67-.13-1.17-.74-1.17s-.77.43-.77,1.17v.81Z"/><path class="cls-3" d="M407,191.58v.33c0,.55.19.94.68.94s.65-.29.65-.85-.17-.9-1-1.46-1.46-1.16-1.46-2.19a1.71,1.71,0,0,1,1.84-1.93c1.34,0,1.82.78,1.82,2v.3h-1.22v-.42c0-.56-.18-.83-.6-.83s-.57.3-.57.75.15.69.84,1.14c1.19.76,1.66,1.28,1.66,2.47,0,1.36-.66,2.07-2,2.07-1.55,0-1.92-1-1.92-2v-.32Z"/><path class="cls-3" d="M410.56,186.53h1.27v7.28h-1.27Zm0-2.59h1.27v1.51h-1.27Z"/><path class="cls-3" d="M417,193.51c0,1.56-.16,2.86-2.13,2.86a1.69,1.69,0,0,1-1.93-1.86v0h1.27v0a.72.72,0,0,0,.73.8c.66,0,.79-.5.79-1.47V193a1.19,1.19,0,0,1-1.21.71c-1.24,0-1.59-.94-1.59-2.26v-2.82c0-1.11.45-2.19,1.74-2.19a1.1,1.1,0,0,1,1.2.75,3.67,3.67,0,0,1,.06-.64H417q0,.65,0,1.86Zm-2.79-4.83v2.65c0,.83.2,1.24.7,1.24.71,0,.82-.63.82-1.56v-2.14c0-.71-.07-1.31-.73-1.31S414.19,187.93,414.19,188.68Z"/><path class="cls-3" d="M418.24,188.76c0-1.47,0-1.89,0-2.23h1.21a6.16,6.16,0,0,1,.05.69,1.34,1.34,0,0,1,1.34-.8c.84,0,1.47.5,1.47,1.86v5.53H421v-5.29c0-.67-.23-1-.69-1s-.83.29-.83,1.44v4.81h-1.27Z"/><path class="cls-3" d="M425.45,183.94h1.27v3.23a1.35,1.35,0,0,1,1.3-.75c1.06,0,1.5.87,1.5,2.16v2.64c0,1.59-.29,2.69-1.67,2.69a1.18,1.18,0,0,1-1.21-.77,5.77,5.77,0,0,1-.05.67h-1.15c0-.46,0-1.11,0-1.9Zm2.8,7.51v-2.67c0-.75-.14-1.22-.7-1.22s-.83.6-.83,1.5v2.34c0,.93.22,1.37.78,1.37S428.25,192.36,428.25,191.45Z"/><path class="cls-3" d="M431.4,186.53c.43,2.49.83,4.84.89,5.74h0c.13-1.22.51-3,1-5.74h1.27l-1.63,7.64c-.45,2.07-1.14,2.19-2,2.19a3.6,3.6,0,0,1-.61-.06l0-1.14a2.5,2.5,0,0,0,.41,0c.49,0,.72-.19.88-1.11L430,186.53Z"/><path class="cls-3" d="M373.48,20.66h-1c0-.16-.06-.55-.07-.76a1.38,1.38,0,0,1-1.41.89c-1.36,0-1.8-1-1.8-2.55V13.67c0-1.55.61-2.6,2.15-2.6,1.85,0,2.1,1.33,2.1,2.43v.28h-1.27v-.33c0-.57-.08-1.23-.83-1.23-.58,0-.86.39-.86,1.28v4.85c0,.84.23,1.31.83,1.31s.88-.64.88-1.71V16.52h-.92v-1.1h2.2Z"/><path class="cls-3" d="M374.68,15.85c0-1.19,0-1.77,0-2.47h1.21c0,.16,0,.73,0,1.16a1.58,1.58,0,0,1,1.58-1.27v1.57c-.86,0-1.54.34-1.54,1.76v4.06h-1.26Z"/><path class="cls-3" d="M381.79,19.26c0,.48,0,1.15,0,1.4h-1.17c0-.16-.07-.45-.08-.56a1.22,1.22,0,0,1-1.2.67c-1.08,0-1.51-1-1.51-2.09v-.12c0-1.74,1.13-2.26,2.44-2.26h.23v-1c0-.61-.09-1-.58-1s-.61.38-.61.88v.15h-1.25v-.13a1.7,1.7,0,0,1,1.9-1.94c1.35,0,1.8.78,1.8,1.91Zm-1.24-2h-.29c-.73,0-1.18.29-1.18,1.26v.11c0,.57.19,1,.69,1s.78-.42.78-1.45Z"/><path class="cls-3" d="M384.35,20.11v3h-1.27V15.47c0-1,0-1.64,0-2.09h1.21a4.48,4.48,0,0,1,.05.74,1.34,1.34,0,0,1,1.33-.85c1,0,1.5.69,1.5,2.12v3c0,1.65-.58,2.35-1.63,2.35A1.21,1.21,0,0,1,384.35,20.11Zm1.52-1.68V15.48c0-.75-.25-1.07-.69-1.07-.59,0-.84.44-.84,1.32V18.2c0,.78.13,1.43.78,1.43S385.87,19.18,385.87,18.43Z"/><path class="cls-3" d="M389.49,10.78V14a1.37,1.37,0,0,1,1.34-.73c1.11,0,1.44.82,1.44,1.87v5.52H391V15.47c0-.57-.09-1.06-.69-1.06s-.82.46-.82,1.39v4.86h-1.27V10.78Z"/><path class="cls-3" d="M393.55,13.38h1.26v7.28h-1.26Zm0-2.6h1.26V12.3h-1.26Z"/><path class="cls-3" d="M399.72,18.29v.1c0,1.29-.32,2.38-1.93,2.38s-1.9-1.06-1.9-2.56V15.58c0-1.21.42-2.31,2-2.31s1.87,1.2,1.87,2.13v.29h-1.25V15.4c0-.6-.1-1.06-.64-1.06s-.66.37-.66,1.09v3.14c0,.57.1,1.12.65,1.12s.65-.37.65-1.1v-.3Z"/><path class="cls-3" d="M402.56,11.2h1.89c2,0,2.42,1.13,2.42,2.78v3.67c0,1.45-.24,3-2.44,3h-1.87Zm1.27,8.37h.51c1,0,1.24-.63,1.24-1.72v-4c0-1-.18-1.56-1.24-1.56h-.51Z"/><path class="cls-3" d="M409.06,17.33v1.12c0,.63.14,1.24.76,1.24s.72-.53.72-1.13v0h1.23v0c0,.8-.17,2.21-1.93,2.21s-2-1.08-2-2.56V15.69c0-1,.35-2.42,2-2.42,1.49,0,2,1,2,2.42v1.64Zm1.52-1v-.81c0-.68-.14-1.17-.74-1.17s-.77.43-.77,1.17v.81Z"/><path class="cls-3" d="M413.81,18.43v.32c0,.56.19.94.67.94s.65-.28.65-.84-.16-.9-1-1.46-1.46-1.16-1.46-2.19a1.71,1.71,0,0,1,1.84-1.93c1.34,0,1.82.78,1.82,2v.31h-1.23v-.43c0-.55-.17-.82-.59-.82s-.58.29-.58.75.15.69.84,1.14c1.19.76,1.67,1.27,1.67,2.47,0,1.36-.66,2.07-2,2.07-1.55,0-1.92-1-1.92-2v-.32Z"/><path class="cls-3" d="M417.36,13.38h1.27v7.28h-1.27Zm0-2.6h1.27V12.3h-1.27Z"/><path class="cls-3" d="M423.77,20.36c0,1.55-.16,2.86-2.12,2.86a1.69,1.69,0,0,1-1.93-1.86v0H421v0a.72.72,0,0,0,.73.8c.66,0,.79-.5.79-1.47v-.86a1.21,1.21,0,0,1-1.22.71c-1.23,0-1.58-.94-1.58-2.26V15.46c0-1.11.45-2.19,1.74-2.19a1.08,1.08,0,0,1,1.19.75,4.82,4.82,0,0,1,.06-.64h1.1c0,.43,0,1,0,1.86ZM421,15.53v2.65c0,.82.2,1.23.71,1.23.7,0,.82-.63.82-1.55V15.72c0-.71-.07-1.31-.74-1.31S421,14.78,421,15.53Z"/><path class="cls-3" d="M425,15.61c0-1.47,0-1.89,0-2.23h1.21a6.27,6.27,0,0,1,0,.69,1.35,1.35,0,0,1,1.34-.8c.85,0,1.47.5,1.47,1.86v5.53h-1.27V15.37c0-.68-.23-1-.68-1s-.83.29-.83,1.44v4.81H425Z"/><path class="cls-3" d="M432.25,10.78h1.27V14a1.35,1.35,0,0,1,1.29-.75c1.07,0,1.51.87,1.51,2.16v2.64c0,1.58-.3,2.69-1.68,2.69a1.17,1.17,0,0,1-1.2-.77,5.77,5.77,0,0,1-.05.67h-1.15c0-.46,0-1.11,0-1.9Zm2.8,7.52V15.63c0-.75-.15-1.22-.71-1.22s-.82.6-.82,1.5v2.34c0,.93.22,1.37.78,1.37S435.05,19.21,435.05,18.3Z"/><path class="cls-3" d="M438.2,13.38c.43,2.49.83,4.84.89,5.74h0c.14-1.22.51-3,1-5.74h1.28L439.73,21c-.45,2.07-1.15,2.18-2,2.18a3.89,3.89,0,0,1-.62-.05l0-1.14a2.91,2.91,0,0,0,.42,0c.49,0,.72-.18.88-1.1l-1.63-7.56Z"/><path class="cls-7" d="M146.19,100.73,4.41,131.26l7,32.65,141.78-30.56ZM10.57,133.07a2.62,2.62,0,0,1,3.09,2,2.58,2.58,0,1,1-3.09-2Zm5.54,26.63a2.5,2.5,0,0,1-2.85-2,2.56,2.56,0,0,1,1.45-2.77,2.59,2.59,0,0,1,3.47,1.33c.05.12.09.25.13.38A2.58,2.58,0,0,1,16.11,159.7Zm125.23-54.79a2.57,2.57,0,0,1,1.08,5,2.57,2.57,0,1,1-1.08-5Zm5.72,26.65a2.56,2.56,0,0,1-3-2,2.63,2.63,0,0,1,2.05-3,2.54,2.54,0,1,1,1,5Z"/><text class="cls-5" transform="translate(53.99 146.48) rotate(-12.32)">In.Finit</text><path class="cls-1" d="M281.69,94.06,139.91,124.59l7,32.65,141.78-30.56ZM146.07,126.4a2.62,2.62,0,0,1,3.09,2,2.58,2.58,0,1,1-3.09-2ZM151.6,153a2.52,2.52,0,0,1-2.84-2,2.57,2.57,0,0,1,1.44-2.77,2.61,2.61,0,0,1,3.48,1.33c0,.12.08.25.12.38A2.59,2.59,0,0,1,151.6,153ZM276.84,98.25a2.57,2.57,0,1,1,1.08,5,2.57,2.57,0,1,1-1.08-5Zm5.72,26.65a2.58,2.58,0,0,1-3-2,2.61,2.61,0,0,1,2-3,2.54,2.54,0,1,1,1,5Z"/><text class="cls-5" transform="translate(167.64 144.59) rotate(-12.32)">facial agnosia</text></g></g></svg>