<svg xmlns="http://www.w3.org/2000/svg" viewBox="0 0 421.07 200.75">
  <defs>
    <style>
      .beab912d-7f63-4931-a8e7-5c8c2e15bb27 {
        fill: #808285;
      }
      .b80b46da-b97c-4208-a9d1-24cfac9f3e2c {
        fill: #414042;
      }
      .a7ca9a1f-b49b-4a89-a49b-c9793f61402b {
        fill: #fff;
      }
      .a985854c-e8ed-48e8-a896-06e8a2494876 {
        fill: #231f20;
      }
    </style>
  </defs>
  <g id="e37ab427-8bec-481c-82ad-085dfb9bb764" data-name="Layer 2">
    <g id="eea56115-68f2-49f0-b072-4bb5d1442409" data-name="Layer 1"><path
      class="beab912d-7f63-4931-a8e7-5c8c2e15bb27"
      d="M213.43.3l.33,200.45,207.31-.3L420.74,0Zm14.1,193.54a6.89,6.89,0,1,1,6.87-6.9A6.89,6.89,0,0,1,227.53,193.84Zm-.29-172.9a6.89,6.89,0,1,1,6.88-6.9A6.9,6.9,0,0,1,227.24,20.94Zm180,172.64a6.89,6.89,0,1,1,6.88-6.9A6.89,6.89,0,0,1,407.28,193.58ZM407,20.68a6.89,6.89,0,1,1,6.87-6.89A6.88,6.88,0,0,1,407,20.68Z"/><path
      class="b80b46da-b97c-4208-a9d1-24cfac9f3e2c"
      d="M0,.55l.48,200.2,207.3-.3L207.3.25ZM14.24,193.84a6.89,6.89,0,1,1,6.88-6.9A6.9,6.9,0,0,1,14.24,193.84Zm.92-172.78a6.89,6.89,0,1,1,5.4-5.42A6.9,6.9,0,0,1,15.16,21.06ZM194,193.58a6.89,6.89,0,1,1,6.87-6.9A6.89,6.89,0,0,1,194,193.58Zm.91-172.77a6.89,6.89,0,1,1,5.41-5.42A6.9,6.9,0,0,1,194.91,20.81Z"/><path
      class="a7ca9a1f-b49b-4a89-a49b-c9793f61402b"
      d="M383.53,110.16,240.87,136.3l6,32.85L389.54,143ZM247,138.3a2.62,2.62,0,0,1,3,2.08,2.58,2.58,0,1,1-3-2.08Zm4.71,26.79A2.51,2.51,0,0,1,248.9,163a2.56,2.56,0,0,1,1.53-2.72,2.61,2.61,0,0,1,3.43,1.44,2.5,2.5,0,0,1,.11.39A2.58,2.58,0,0,1,251.68,165.09ZM378.55,114.2a2.57,2.57,0,1,1,.92,5,2.57,2.57,0,1,1-.92-5ZM383.44,141a2.58,2.58,0,0,1-3-2.06,2.62,2.62,0,0,1,2.14-2.95,2.58,2.58,0,0,1,2.95,2.13A2.56,2.56,0,0,1,383.44,141Z"/><path
      class="a985854c-e8ed-48e8-a896-06e8a2494876"
      d="M259.64,157.62h-.82a2.33,2.33,0,0,1-.46,0l-.6-.06a3.75,3.75,0,0,1-.58-.13,4.9,4.9,0,0,1-.78-.3,3.67,3.67,0,0,1-.87-.54,5.17,5.17,0,0,1-.6-.52l-.36-.39a2.8,2.8,0,0,1-.35-.41,3.65,3.65,0,0,1-.47-.72,5.88,5.88,0,0,1-.43-1.31,3.57,3.57,0,0,1,0-.87,4.27,4.27,0,0,1,.14-.81c0-.14.07-.29.11-.43a2.64,2.64,0,0,1,.15-.45c.07-.15.13-.31.19-.48a2.86,2.86,0,0,1,.22-.47,4.05,4.05,0,0,1,.74-.91,8.11,8.11,0,0,1,1.7-1.25c.19-.1.49-.25.9-.43a1.67,1.67,0,0,1,.27-.1s.08.07.15.23a7.57,7.57,0,0,1,.29.79,2.76,2.76,0,0,0,.15.43c0,.08,0,.15-.25.19a8.37,8.37,0,0,0-1.18.41,2.71,2.71,0,0,0-.86.56,4.34,4.34,0,0,0-.55.7,3.85,3.85,0,0,0-.37.73l-.16.47a1.56,1.56,0,0,0-.1.47,3,3,0,0,0,.06.95,4.69,4.69,0,0,0,.47,1.17,3.41,3.41,0,0,0,.75,1,1.73,1.73,0,0,0,.6.39c.25.1.48.19.7.26a4.67,4.67,0,0,0,.89.16c.39.06.77.1,1.13.12s.5.05.51.11,0,.25,0,.59v.23a1.48,1.48,0,0,1,0,.21v.41S259.88,157.62,259.64,157.62Z"/><path
      class="a985854c-e8ed-48e8-a896-06e8a2494876"
      d="M266.56,155.49c-.05-.27-.09-.54-.12-.82s-.07-.56-.1-.84,0-.27-.07-.41,0-.27,0-.42-.06-.29-.09-.45a2.49,2.49,0,0,1-.05-.46c0-.23-.15-.31-.44-.25L265,152q-.69.19-1.35.42c-.45.15-.9.28-1.36.42s-.48.15-.47.17.06.13.14.34.13.39.2.56l.18.57a2.86,2.86,0,0,0,.07.28c0,.08.06.18.09.27s.05.19.06.29a.76.76,0,0,0,.11.26,1.09,1.09,0,0,1,.16.43c0,.08-.13.12-.39.13a1.94,1.94,0,0,0-.46.07l-.45.13c-.26.09-.41,0-.44-.09a4,4,0,0,1-.13-.58c0-.07,0-.15-.05-.23s0-.16,0-.24-.07-.37-.1-.48a4.53,4.53,0,0,0-.1-.46,3.11,3.11,0,0,1-.08-.43c0-.13-.12-.18-.28-.15l-.13,0c-.18.05-.28,0-.3,0s-.05-.23-.11-.45a2.55,2.55,0,0,1-.13-.55,3.34,3.34,0,0,0-.08-.4c0-.08.07-.14.27-.2a.52.52,0,0,0,.24-.11c.11-.11.13-.32.06-.64a1.08,1.08,0,0,1-.05-.21,1.74,1.74,0,0,1-.05-.22l-.06-.22a1.6,1.6,0,0,1,0-.21l-.21-.87c-.07-.29-.14-.58-.22-.87l-.15-.55a3.81,3.81,0,0,0-.17-.51.66.66,0,0,1-.05-.23c0-.1,0-.15.1-.17a1.45,1.45,0,0,1,.3,0,1.35,1.35,0,0,0,.34,0,4.77,4.77,0,0,0,.5-.1,1.17,1.17,0,0,1,.53,0,1.19,1.19,0,0,1,.12.49c0,.11,0,.27,0,.46s.05.57.1.87l0,.27c0,.08,0,.16,0,.25a4.14,4.14,0,0,0,.09.6c.05.19.09.38.12.56a2.14,2.14,0,0,0,.26.71q.09.17.21.12l.32-.1.43-.11.43-.12,1.64-.45.2,0,.21-.06.21-.05.21-.07a1.3,1.3,0,0,1,.32-.06c.07,0,.1-.08.07-.23a4,4,0,0,1,0-.44,3.26,3.26,0,0,0,0-.47c0-.11,0-.26-.05-.46s-.12-.7-.17-1.17c0-.12,0-.24-.05-.36s0-.25,0-.38a1.2,1.2,0,0,1,0-.2,1.5,1.5,0,0,0,0-.2l0-.12a.25.25,0,0,1,0-.12c0-.22,0-.31.1-.29a1.16,1.16,0,0,0,.33,0H266l.16,0,.32,0,.33,0a1.13,1.13,0,0,1,.31,0s.07.1.12.29a.9.9,0,0,1,0,.28c0,.2-.06.36-.07.48a1.91,1.91,0,0,0,0,.48c0,.22,0,.41,0,.58s0,.36.08.6,0,.19,0,.28a2.46,2.46,0,0,0,0,.28c.05.49.12,1,.21,1.42,0,.26.08.52.1.79s.05.53.08.8.07.57.1.82a6.77,6.77,0,0,0,.13.74c.06.27.11.49.15.65a3.42,3.42,0,0,0,.38.83c.1.18,0,.28-.41.31a2.43,2.43,0,0,0-.62.1c-.17.05-.35.11-.55.19l-.32.14Z"/><path
      class="a985854c-e8ed-48e8-a896-06e8a2494876"
      d="M272.08,147.07l.14.07.11.06.56.32.56.32,1.4.81,1.4.8.46.25.47.26a4.63,4.63,0,0,0,.53.25c.15.06.33.13.54.23l.45.25c.19.12.3.2.31.25a.74.74,0,0,1-.11.33c-.07.14-.12.28-.17.41s-.09.27-.14.41-.14.31-.2.26l-.42-.23-.93-.5c-.3-.18-.6-.35-.91-.51l-.72-.4-.72-.42-1.06-.59c-.36-.2-.71-.4-1.05-.61l-.72-.37c-.23-.11-.47-.24-.69-.37l-.37-.19-.35-.19c-.14-.09-.2-.08-.15,0s.12.5.24.92l.15.64c.06.22.11.43.17.63a4.17,4.17,0,0,0,.14.54c.05.15.1.32.15.5a2.43,2.43,0,0,0,.09.3l.12.29.39,1.15c.09.28.18.53.27.77l.29.76a2.68,2.68,0,0,1,.13.46c0,.08-.11.17-.32.28a2.06,2.06,0,0,1-.56.19,4,4,0,0,0-.55.13c-.1,0-.16,0-.18-.11a1.41,1.41,0,0,0-.06-.27,2.07,2.07,0,0,1-.06-.26c0-.22-.08-.41-.12-.59s-.08-.39-.11-.63-.09-.42-.15-.64-.12-.44-.18-.65-.13-.44-.2-.67-.13-.45-.19-.68c-.09-.4-.2-.8-.32-1.2s-.24-.79-.35-1.18-.27-.95-.46-1.56c-.07-.22-.13-.44-.18-.65s-.11-.44-.17-.68-.17-.59-.26-.89-.18-.62-.26-.93l-.17-.59-.18-.59-.17-.6a3.89,3.89,0,0,1-.15-.59,13.4,13.4,0,0,0-.41-1.63,8.33,8.33,0,0,0-.26-.82c-.07-.22-.07-.33,0-.35l.39-.05a2.26,2.26,0,0,0,.79-.22l.23-.11a.72.72,0,0,1,.22-.08c.22,0,.26.08.14.33a1.57,1.57,0,0,0-.07.27c0,.14,0,.19.11.16l.2,0,.2,0,.24,0,.24-.05.49-.08a8.92,8.92,0,0,1,1.06,0,9.59,9.59,0,0,1,1,.14,3.14,3.14,0,0,1,1.47.6,3.2,3.2,0,0,1,.83.89,6.72,6.72,0,0,1,.46,1,5.32,5.32,0,0,1,.14.62,4.24,4.24,0,0,1,0,.81,1.91,1.91,0,0,0,0,.32c0,.09,0,.21-.07.35q-.19.66-.39,1.14a2.74,2.74,0,0,1-.13.27l-.18.34a5.34,5.34,0,0,1-.53.63,5.7,5.7,0,0,1-.44.37l-.44.34-.17.11-.16.11C272,147,272,147,272.08,147.07Zm-3.16-6.38c-.26.07-.38.13-.36.2a3.23,3.23,0,0,1,.1.46c.06.3.14.61.23,1,0,.15.08.29.11.43l.11.38c.07.25.13.48.2.68s.13.43.2.66.13.46.2.67.15.44.23.66.11.26.16.24l.44-.12a4,4,0,0,0,.56-.24,5.62,5.62,0,0,0,.49-.28l.46-.3a1.76,1.76,0,0,0,.58-.57,3.13,3.13,0,0,0,.5-1.41,2.17,2.17,0,0,0,0-.26,2.12,2.12,0,0,0,0-.34,4.57,4.57,0,0,0-.21-.83,2.1,2.1,0,0,0-.4-.72,1.59,1.59,0,0,0-.56-.36,2.5,2.5,0,0,0-.88-.17c-.36,0-.68,0-1,0l-.64.11Z"/><path
      class="a985854c-e8ed-48e8-a896-06e8a2494876"
      d="M279.2,143a1.42,1.42,0,0,1-.31-.36,1,1,0,0,1-.14-.68,1.15,1.15,0,0,1,.24-.55,1.56,1.56,0,0,1,.32-.29l.4-.2a1.14,1.14,0,0,1,.7-.05.77.77,0,0,1,.37.3,2.28,2.28,0,0,1,.25.42,1.45,1.45,0,0,1,.09.46,1.11,1.11,0,0,1-.1.45,2.14,2.14,0,0,1-.24.34,1,1,0,0,1-1,.4A.9.9,0,0,1,279.2,143Zm1.44,2.48a4.17,4.17,0,0,1,0,.5c0,.15,0,.32,0,.5a3.84,3.84,0,0,0,0,.48c0,.16,0,.31,0,.47s0,.14,0,.22a1.34,1.34,0,0,0,0,.21l0,.57a5.62,5.62,0,0,0,.06.56c0,.18.06.46.11.82a2,2,0,0,0,0,.26,2.21,2.21,0,0,1,.05.25c0,.22.06.4.08.51s.09.4.11.51,0,.2.06.29a2.1,2.1,0,0,0,.1.4c.07.12.09.17.07.14s0,.19,0,.22-.23.12-.24.08-.06-.08-.19-.12a1.84,1.84,0,0,0-.74,0,1.32,1.32,0,0,1-.36.07,3.48,3.48,0,0,1-.06-.42,2.64,2.64,0,0,1,0-.47,7,7,0,0,0-.09-1c0-.22-.08-.44-.11-.66s-.06-.45-.1-.67a6.21,6.21,0,0,1-.07-.73c0-.24,0-.48,0-.73s0-.41-.05-.62,0-.42-.06-.63,0-.28-.05-.42,0-.28,0-.43,0-.18.05-.19l.43-.13.43-.1.46-.06C280.57,145.12,280.61,145.24,280.64,145.49Z"/><path
      class="a985854c-e8ed-48e8-a896-06e8a2494876"
      d="M283.81,152.44a4.43,4.43,0,0,1-.31-.44l-.16-.2-.16-.21c-.1-.16-.14-.24-.12-.27l.16-.12.29-.19a3.75,3.75,0,0,0,.67-.5l.23-.22a2.91,2.91,0,0,0,.25-.25,2.41,2.41,0,0,0,.47-1c0-.16.06-.29.08-.4a2,2,0,0,0,0-.6,2.18,2.18,0,0,0-.43-1,3.34,3.34,0,0,0-.73-.68,3.24,3.24,0,0,1-.73-.65l-.39-.42a2.2,2.2,0,0,1-.32-.5c0-.09-.08-.19-.13-.29a3.24,3.24,0,0,1-.12-.37,1.72,1.72,0,0,1-.05-.43c0-.12,0-.27,0-.46a3.66,3.66,0,0,1,.13-.76c0-.12.07-.27.12-.43a2.18,2.18,0,0,1,.16-.42,6.54,6.54,0,0,1,.66-1.08,3.72,3.72,0,0,1,.6-.58l.46-.37.48-.3c.16-.09.32-.19.5-.28a2.35,2.35,0,0,1,.58-.24,1,1,0,0,1,.31,0s.07.08.07.24a2.41,2.41,0,0,0,0,.47,2.88,2.88,0,0,0,.09.45,2,2,0,0,1,.08.48c0,.05-.17.11-.46.18a2.48,2.48,0,0,0-.6.2,2.35,2.35,0,0,0-.57.36,5.07,5.07,0,0,0-.4.44,1.8,1.8,0,0,0-.36.83,4.56,4.56,0,0,0,0,1.08,2.38,2.38,0,0,0,.43,1.09,1.3,1.3,0,0,0,.34.37l.34.3.3.27c.07.07.17.17.29.31a3.92,3.92,0,0,1,.45.67,5.89,5.89,0,0,1,.29.76,6.73,6.73,0,0,1,.25,1.38,5.12,5.12,0,0,1,0,.94,2.5,2.5,0,0,1-.48,1.21,1.92,1.92,0,0,1-.23.31,3.58,3.58,0,0,0-.26.28,6.22,6.22,0,0,1-.57.52l-.43.33a4,4,0,0,1-.44.26l-.41.21S283.94,152.62,283.81,152.44Z"/><path
      class="a985854c-e8ed-48e8-a896-06e8a2494876"
      d="M290.09,152.33a5.93,5.93,0,0,1-.26-1.13c0-.21-.06-.41-.08-.59s-.05-.4-.09-.65c-.06-.4-.14-.85-.24-1.36-.07-.34-.13-.69-.19-1l-.18-1.06a3.59,3.59,0,0,0-.08-.35c0-.12-.05-.24-.07-.37a.71.71,0,0,0-.09-.27.87.87,0,0,0-.29.06c-.36.11-.55.09-.56-.07a4.58,4.58,0,0,0-.12-.73c0-.2-.11-.41-.17-.61s0-.31.09-.36a1.61,1.61,0,0,1,.37-.07,1,1,0,0,0,.37-.07c.15,0,.21-.09.19-.13a1,1,0,0,1,0-.27,2.46,2.46,0,0,0-.07-.6l-.12-.59c-.05-.21-.09-.43-.13-.65s-.08-.45-.11-.68l-.24-1.2c-.08-.4-.16-.8-.23-1.21,0-.12,0-.25-.06-.37s0-.25,0-.37a1.42,1.42,0,0,1-.05-.34s.14-.1.42-.21.4-.14.59-.19a1.51,1.51,0,0,0,.52-.22q.19-.12.27.21a5.79,5.79,0,0,1,.11.65l.15,1.06c.06.35.11.71.16,1.06a7.33,7.33,0,0,1,.06.8,6.59,6.59,0,0,0,.07.78c0,.19.06.37.08.55s0,.35.08.54.09.56.12.72a1.24,1.24,0,0,0,.12.37,1.52,1.52,0,0,0,.4-.07l.93-.2,1-.16a1.63,1.63,0,0,1,.42,0c.05,0,.09.12.13.32a1.57,1.57,0,0,1,0,.32,2.66,2.66,0,0,0,0,.4.92.92,0,0,1-.06.53c-.06.12-.22.2-.5.23l-.62.09-.77.15c-.46.1-.69.18-.68.27s0,.35.11.81c0,.15,0,.37,0,.66,0,.64.08,1.14.14,1.49s.22,1.14.49,2.19.43,1.69.51,1.89,0,.33-.32.39a3.25,3.25,0,0,1-.56.06,1.67,1.67,0,0,0-.53.11c-.18.07-.28.06-.3-.06A2.48,2.48,0,0,0,290.09,152.33Z"/><path
      class="a985854c-e8ed-48e8-a896-06e8a2494876"
      d="M294.09,140.24a1.36,1.36,0,0,1-.3-.36,1,1,0,0,1-.15-.68,1.08,1.08,0,0,1,.25-.55,1.25,1.25,0,0,1,.31-.29,3.16,3.16,0,0,1,.41-.2,1.1,1.1,0,0,1,.69,0,.77.77,0,0,1,.37.3,2,2,0,0,1,.25.42,1.22,1.22,0,0,1,.09.46,1,1,0,0,1-.1.45,2.27,2.27,0,0,1-.23.34,1,1,0,0,1-1.05.39A1,1,0,0,1,294.09,140.24Zm1.44,2.47a4.16,4.16,0,0,1,0,.5l0,.5v.48l0,.47v.23c0,.07,0,.14,0,.21s0,.39,0,.57a3.82,3.82,0,0,0,.06.56c0,.18.06.45.1.82a2.34,2.34,0,0,0,0,.26,2,2,0,0,1,.05.24c0,.23.06.4.08.52l.12.51c0,.1,0,.2.05.29a2.1,2.1,0,0,0,.1.4c.07.12.09.17.08.14s0,.18,0,.21-.24.12-.24.08-.07-.08-.19-.11a1.89,1.89,0,0,0-.75,0q-.35.09-.36.06a2.78,2.78,0,0,1-.06-.41,2.64,2.64,0,0,1,0-.47,6.85,6.85,0,0,0-.09-1c0-.22-.07-.44-.11-.66s-.06-.45-.1-.67-.06-.49-.07-.73,0-.49,0-.73l-.06-.62-.06-.63c0-.14,0-.28,0-.42s0-.29,0-.43,0-.18,0-.19l.43-.13a3.91,3.91,0,0,1,.44-.1l.46-.06C295.46,142.35,295.5,142.47,295.53,142.71Z"/><path
      class="a985854c-e8ed-48e8-a896-06e8a2494876"
      d="M303.55,147.74a3,3,0,0,1-.08-.32,1.68,1.68,0,0,0-.09-.32q-.12-.28-.24-.24l-.42.19a3.89,3.89,0,0,1-.44.16,5,5,0,0,1-1.74.38,4.21,4.21,0,0,1-1.27-.15,2.48,2.48,0,0,1-1.66-1.45,3.54,3.54,0,0,1-.32-.93,3.71,3.71,0,0,1,.07-1.34,3.56,3.56,0,0,1,.7-1.61,4.12,4.12,0,0,1,1.62-1.19,4.19,4.19,0,0,1,.78-.22c.26,0,.54-.1.82-.17s.25-.07.25-.11a1.89,1.89,0,0,1-.08-.32c0-.07,0-.15-.07-.23a2.21,2.21,0,0,1-.05-.25c0-.19,0-.29.05-.32a1.79,1.79,0,0,1,.35-.09,4.88,4.88,0,0,0,.55-.12,2.43,2.43,0,0,1,.55-.09c.15,0,.24,0,.24.06s0,.15.07.29c.2,1.07.46,2.19.78,3.38.12.43.22.88.31,1.33a8,8,0,0,0,.35,1.32q.14.44.27.84c.08.26.18.54.28.83s.11.37.08.36a1.36,1.36,0,0,0-.47.08,1.51,1.51,0,0,0-.45.18,2.56,2.56,0,0,1-.44.21C303.69,148,303.59,147.9,303.55,147.74ZM300.19,146a5.7,5.7,0,0,0,1.15-.18l.6-.18a3.53,3.53,0,0,0,.59-.22c.16-.07.24-.13.25-.17s0-.16,0-.34-.08-.38-.14-.57-.09-.38-.12-.56a5.71,5.71,0,0,0-.16-.57c-.06-.17-.11-.36-.16-.55a1.18,1.18,0,0,0-.17-.45,1,1,0,0,0-.44-.08H301a2.61,2.61,0,0,0-.56.08,2.65,2.65,0,0,0-1.13.57,1,1,0,0,0-.25.34l-.18.37a1.82,1.82,0,0,0-.17,1.1,3.18,3.18,0,0,0,.17.71,1,1,0,0,0,.44.54A1.64,1.64,0,0,0,300.19,146Z"/><path
      class="a985854c-e8ed-48e8-a896-06e8a2494876"
      d="M314.16,146.45l-.36,0-.37,0c-.16,0-.25,0-.26-.08a.63.63,0,0,1,0-.25,1.21,1.21,0,0,0,0-.7,1,1,0,0,0-.25-.32,4.15,4.15,0,0,1-.32-.27l-.56-.44c-.13-.1-.33-.27-.59-.51a3.53,3.53,0,0,1-.37-.33l-.33-.31-.5-.41a4.81,4.81,0,0,1-.47-.44c-.27-.28-.51-.51-.74-.72s-.47-.43-.73-.69c-.12-.1-.24-.22-.37-.35s-.25-.25-.34-.36-.42-.43-.64-.63-.17,0-.12.13a5.3,5.3,0,0,1,.1.53c0,.26,0,.5.05.73s0,.47,0,.73,0,.42,0,.58,0,.4.05.69c0,.53.05,1,.08,1.4s.06.88.09,1.39c0,.14,0,.26,0,.39a1.4,1.4,0,0,0,.08.42,2.23,2.23,0,0,0,.14.31c0,.09,0,.13,0,.11l-.43,0h-.31l-.26,0h-.25l-.24,0a1,1,0,0,1-.25,0c-.12,0-.19-.09-.22-.28a2.36,2.36,0,0,1,0-.46v-.54c0-.16,0-.35,0-.57s0-.54,0-.88,0-.63,0-.86,0-.4,0-.52,0-.26,0-.43,0-.38,0-.58,0-.45,0-.72,0-.42-.05-.63,0-.41,0-.63c-.05-.79-.11-1.5-.19-2.14a2.83,2.83,0,0,1,0-.41c0-.14,0-.27,0-.41s.09-.29.33-.33.74-.12,1.26-.17l.37,0c.06,0,.07.08,0,.25s-.06.27-.08.38a3.11,3.11,0,0,1-.08.37c0,.15,0,.24.08.27a1.28,1.28,0,0,1,.31.23l.64.62.68.59.51.47c.18.16.35.31.54.45l.51.48.51.48a3.76,3.76,0,0,0,.35.34c.13.1.25.21.36.31a7.07,7.07,0,0,0,.57.44,5.39,5.39,0,0,1,.57.45,1.53,1.53,0,0,0,.31.26,1.69,1.69,0,0,1,.32.28l.2.26s.1,0,.16-.19l.07-.31.06-.35c0-.38.1-.75.16-1.12s.12-.74.16-1.12.07-.59.1-.9l.12-.9c0-.33.09-.66.15-1s.11-.65.14-1,.05-.91.07-1.53a1.75,1.75,0,0,1,0-.29c0-.07.07-.12.22-.14a4.59,4.59,0,0,1,.73,0,5.5,5.5,0,0,1,.66.09c.14.06.2.12.19.16a.82.82,0,0,1-.06.19c-.07.25-.14.58-.23,1,0,.08,0,.31-.1.71s-.09.66-.1.77c0,.32-.07.65-.12,1s-.09.65-.13,1-.11.73-.16,1.09-.09.72-.12,1.07,0,.42-.06.62,0,.41-.08.61-.08.44-.14.69a1.59,1.59,0,0,0,0,.68.41.41,0,0,0,.22.31,2.2,2.2,0,0,1,.32.21c.13.11.2.17.2.2s-.06.09-.19.22a.85.85,0,0,0-.24.47.48.48,0,0,1-.25.39c-.14.08-.18.14-.14.2s0,.11-.05.17-.24.16-.34.13Z"/><path
      class="a985854c-e8ed-48e8-a896-06e8a2494876"
      d="M326.25,138.32a.51.51,0,0,1,.13.09l.09.06,1,.76,1.31,1,1.31.94.43.3.45.3a4.09,4.09,0,0,0,.49.31l.51.29.42.28c.18.15.27.24.28.29s0,.16-.13.31a1.93,1.93,0,0,0-.21.4c-.06.13-.12.26-.19.39s-.17.29-.23.24-.19-.14-.39-.29-.58-.38-.87-.59l-.85-.6-.68-.47c-.22-.15-.45-.32-.67-.49l-1-.7-1-.71-.67-.44-.65-.44c-.15-.1-.26-.18-.34-.22a2.85,2.85,0,0,1-.33-.24c-.13-.09-.19-.08-.17,0s.09.54.15.95c0,.22.06.44.09.66s.07.43.1.64.05.39.08.55.06.33.1.52,0,.19.07.3.06.21.08.3.08.41.13.6.1.4.14.59.12.54.19.79.14.5.21.78a2.19,2.19,0,0,1,.08.47c0,.08-.12.16-.35.24a1.79,1.79,0,0,1-.58.13c-.18,0-.37,0-.57.07s-.14,0-.15-.11a1.32,1.32,0,0,0,0-.29c0-.05,0-.14,0-.26a5.11,5.11,0,0,0-.06-.59,5.75,5.75,0,0,1-.05-.64,5.3,5.3,0,0,0-.07-.66l-.12-.65c0-.23-.08-.46-.13-.7s-.08-.46-.11-.69c0-.4-.12-.81-.2-1.22s-.15-.82-.22-1.22-.1-.54-.15-.8l-.15-.8c0-.22-.07-.44-.1-.67s-.07-.45-.11-.69-.11-.6-.17-.92-.11-.62-.16-.94l-.11-.6c0-.2-.07-.41-.11-.62s-.08-.43-.11-.61a5,5,0,0,1-.07-.6c-.06-.53-.14-1.08-.25-1.66-.07-.38-.13-.67-.17-.85s-.06-.33,0-.34h.4a2.35,2.35,0,0,0,.81-.14l.47-.15c.21,0,.25.12.11.36a1.21,1.21,0,0,0-.11.26c0,.13,0,.19.1.17a.61.61,0,0,1,.19,0h.45l.24,0,.49,0a6.72,6.72,0,0,1,1.06.1,8.47,8.47,0,0,1,1,.23,3.42,3.42,0,0,1,1.41.77,3,3,0,0,1,.73,1,6.2,6.2,0,0,1,.35,1.06,3.91,3.91,0,0,1,.07.62,1.7,1.7,0,0,1,0,.41c0,.1,0,.24-.06.41a4.44,4.44,0,0,1-.18.66,7.75,7.75,0,0,1-.49,1.08,4.15,4.15,0,0,1-.39.57,3.86,3.86,0,0,1-.58.58,5.52,5.52,0,0,1-.47.32l-.47.29-.19.1-.17.08C326.13,138.23,326.13,138.27,326.25,138.32Zm-2.49-6.67c-.26,0-.39.09-.38.16a3.38,3.38,0,0,1,.05.47c0,.21.06.53.14,1s.1.66.13.83.08.49.13.69.08.44.13.69.09.46.14.68.09.45.14.68.09.26.14.25a3.57,3.57,0,0,0,.45-.08,4,4,0,0,0,.58-.18l.52-.21a2.48,2.48,0,0,0,.48-.27l.35-.21a1.28,1.28,0,0,0,.29-.28,3.3,3.3,0,0,0,.65-1.36,4.68,4.68,0,0,0,.05-.6,4.94,4.94,0,0,0-.12-.85,2.12,2.12,0,0,0-.33-.75,1.4,1.4,0,0,0-.51-.42,2.73,2.73,0,0,0-.87-.27l-.48,0-.49,0-.65,0Z"/><path
      class="a985854c-e8ed-48e8-a896-06e8a2494876"
      d="M332,136.2a3.92,3.92,0,0,1,.06-.82c.06-.29.11-.51.16-.67s.12-.43.19-.64a3,3,0,0,1,.23-.58,2.8,2.8,0,0,1,.5-.73,3.33,3.33,0,0,1,.65-.51l.42-.24a3.34,3.34,0,0,1,.55-.19,5.55,5.55,0,0,1,1.59-.22,4.26,4.26,0,0,1,1.08.14,3.5,3.5,0,0,1,.7.32l.55.36a5.11,5.11,0,0,1,.52.55,3.65,3.65,0,0,1,.42.7c.1.25.2.53.3.82a3.27,3.27,0,0,1,.14.61c0,.24,0,.48.05.72a4.34,4.34,0,0,1,0,.72,3.11,3.11,0,0,1-.27,1,4,4,0,0,1-.55.94,6.34,6.34,0,0,1-.91.85,2.65,2.65,0,0,1-.54.32,4.53,4.53,0,0,1-.66.26,4.12,4.12,0,0,1-1,.2,3.79,3.79,0,0,1-.76,0,2.78,2.78,0,0,1-.52-.1l-.5-.17a3.09,3.09,0,0,1-1-.53,2.51,2.51,0,0,1-.57-.65,4.6,4.6,0,0,1-.6-1.16A4.91,4.91,0,0,1,332,136.2Zm1.87.56a1.87,1.87,0,0,0,.15.41c.08.14.14.25.2.34a3.65,3.65,0,0,0,.27.41,1.5,1.5,0,0,0,.81.5,2.28,2.28,0,0,0,.78.08,2.45,2.45,0,0,0,.54-.07,2.27,2.27,0,0,0,.6-.23,1.67,1.67,0,0,0,.47-.38,2.88,2.88,0,0,0,.3-.44c.06-.14.14-.29.23-.46a3.7,3.7,0,0,0,.14-.39c0-.18.08-.31.1-.39a3.09,3.09,0,0,0,.05-.59,2.24,2.24,0,0,0-.06-.58,5.46,5.46,0,0,0-.41-.89,1.94,1.94,0,0,0-.4-.41,2.4,2.4,0,0,0-.61-.33,2.83,2.83,0,0,0-.86-.13,1.79,1.79,0,0,0-.85.17,3.54,3.54,0,0,0-.88.74,3,3,0,0,0-.54.83,2.3,2.3,0,0,0-.16.61A3.62,3.62,0,0,0,333.86,136.76Z"/><path
      class="a985854c-e8ed-48e8-a896-06e8a2494876"
      d="M350.07,139.76l-.36,0-.36,0q-.25,0-.27-.09a1.75,1.75,0,0,1,0-.25,1.34,1.34,0,0,0,0-.7,1.14,1.14,0,0,0-.26-.32,2.69,2.69,0,0,1-.32-.27c-.09-.08-.27-.23-.55-.44a5.13,5.13,0,0,1-.6-.5l-.37-.34-.33-.31-.49-.4a5.11,5.11,0,0,1-.48-.45c-.26-.27-.51-.51-.74-.71s-.47-.44-.73-.7c-.11-.1-.24-.21-.37-.34l-.34-.37a6.25,6.25,0,0,0-.64-.62c-.13-.09-.17-.05-.12.13s.1.46.11.52c0,.26,0,.5,0,.73s0,.48,0,.73,0,.42,0,.59,0,.39,0,.69c0,.52.05,1,.08,1.4s.06.87.09,1.39c0,.13,0,.26,0,.38a2.65,2.65,0,0,0,.08.43,2,2,0,0,0,.15.3q.06.13-.06.12l-.42,0h-.32l-.26,0h-.24l-.25,0a1,1,0,0,1-.25,0c-.12,0-.19-.09-.21-.29a3.44,3.44,0,0,1,0-.46v-.54c0-.15,0-.34,0-.57s0-.54,0-.88,0-.63,0-.86,0-.39,0-.51,0-.26,0-.44,0-.37,0-.58,0-.45,0-.71,0-.43,0-.63,0-.42-.05-.63c-.05-.79-.11-1.51-.18-2.15,0-.13,0-.27,0-.41s0-.27,0-.4.1-.29.33-.34.75-.11,1.26-.16l.38,0c.06,0,.06.08,0,.25a3.56,3.56,0,0,0-.09.39,3.35,3.35,0,0,1-.07.37c0,.14,0,.23.07.27a1.06,1.06,0,0,1,.31.23l.65.62.67.59.52.47c.17.16.35.3.53.44s.34.31.51.48l.51.48a3.89,3.89,0,0,0,.36.34l.36.31a6.41,6.41,0,0,0,.56.44,7.09,7.09,0,0,1,.57.45,1.59,1.59,0,0,0,.32.26,2,2,0,0,1,.31.28,3.16,3.16,0,0,0,.2.26s.1,0,.16-.19a1.43,1.43,0,0,0,.07-.31c0-.17.05-.28.06-.35.05-.38.1-.75.16-1.12s.12-.74.17-1.12.06-.59.1-.89.07-.61.11-.9.09-.67.15-1,.11-.65.14-1,.05-.91.08-1.53a1.87,1.87,0,0,1,0-.28c0-.08.07-.13.22-.15a6.58,6.58,0,0,1,.74,0,3.4,3.4,0,0,1,.65.1c.14.05.2.11.19.16a1.3,1.3,0,0,1-.06.19c-.06.24-.14.58-.22,1,0,.07-.05.31-.1.71s-.09.65-.1.76c0,.33-.08.65-.13,1s-.09.65-.13,1-.11.72-.16,1.08-.09.72-.12,1.07,0,.43,0,.63-.05.4-.08.61-.09.43-.15.68a1.44,1.44,0,0,0,0,.68.36.36,0,0,0,.21.31l.33.21a1.07,1.07,0,0,1,.2.2s-.06.09-.19.22a.88.88,0,0,0-.24.48.53.53,0,0,1-.26.39c-.13.07-.18.13-.14.19s0,.11,0,.17-.25.17-.35.14Z"/><path
      class="a985854c-e8ed-48e8-a896-06e8a2494876"
      d="M360.6,138.55l-.36,0-.46,0a3.38,3.38,0,0,1-.45,0l-.61,0a3.06,3.06,0,0,1-.59-.11,6.1,6.1,0,0,1-.79-.26,4.06,4.06,0,0,1-.9-.51,6.06,6.06,0,0,1-.62-.48c-.12-.13-.25-.25-.38-.37a4.59,4.59,0,0,1-.37-.39,3.61,3.61,0,0,1-.5-.71,6.19,6.19,0,0,1-.49-1.28,4.15,4.15,0,0,1-.06-.87,4.55,4.55,0,0,1,.11-.81,6.7,6.7,0,0,1,.22-.89l.16-.49a4.25,4.25,0,0,1,.21-.49,4.37,4.37,0,0,1,.69-.95,7.79,7.79,0,0,1,1.64-1.32c.24-.14.53-.3.87-.47a1.68,1.68,0,0,1,.27-.12s.08.06.16.22a7,7,0,0,1,.33.78,2.32,2.32,0,0,0,.18.42c0,.08,0,.15-.26.21a9.38,9.38,0,0,0-1.16.46,3,3,0,0,0-.82.6,3.07,3.07,0,0,0-.53.72,4.13,4.13,0,0,0-.32.75l-.15.48a1.72,1.72,0,0,0-.08.48,2.93,2.93,0,0,0,.12.94,4.7,4.7,0,0,0,.52,1.15,4.38,4.38,0,0,0,.79.93,1.94,1.94,0,0,0,.62.35,5.22,5.22,0,0,0,.72.22,4.48,4.48,0,0,0,.89.14l.56,0h.56c.33,0,.51,0,.52.08a3.8,3.8,0,0,1,.06.59,57.6,57.6,0,0,0,0,.45c0,.23,0,.36,0,.4S360.84,138.54,360.6,138.55Z"/><path
      class="a985854c-e8ed-48e8-a896-06e8a2494876"
      d="M362.82,137.43a2.3,2.3,0,0,1-.18-.5l-.15-.53a4.9,4.9,0,0,1-.13-.56c0-.17-.07-.38-.13-.61-.13-.52-.24-.93-.33-1.22s-.19-.64-.28-1-.17-.65-.25-1c0-.11-.06-.22-.1-.33s-.07-.22-.1-.33-.07-.24-.1-.25a.91.91,0,0,0-.26.09c-.33.12-.51.11-.53,0a5.91,5.91,0,0,0-.17-.68l-.21-.56c-.07-.16,0-.28.06-.33a.92.92,0,0,1,.33-.11l.34-.09c.12,0,.17-.16.14-.38a10.41,10.41,0,0,0-.27-1.1c-.13-.4-.25-.81-.35-1.22-.06-.2-.11-.41-.15-.61s-.09-.41-.14-.61a3.45,3.45,0,0,0-.1-.39c0-.07-.13-.09-.31-.06s-.44,0-.47-.18-.08-.35-.11-.48l-.1-.49c-.06-.21-.07-.32,0-.33l.41-.09.7-.14.7-.14c.5-.1,1.07-.23,1.72-.4l.8-.19.81-.19c.54-.11,1.09-.21,1.63-.3a2.82,2.82,0,0,1,.38-.05.86.86,0,0,1,.1.34,2.72,2.72,0,0,1,0,.49,1.43,1.43,0,0,0,.08.43c.06.2,0,.32-.23.39l-.54.11-.45.08-.45.08c-.13,0-.32,0-.57.09l-.4.08-.39.07-.52.1a4.35,4.35,0,0,0-.52.1l-.43.09q-.24,0-.21.18a3.1,3.1,0,0,0,.09.61c.05.2.09.4.13.6l.09.55a4.69,4.69,0,0,0,.11.54l.09.5c0,.15.08.32.13.5s.06.22.08.33.06.22.1.33.12.33.15.34a1.15,1.15,0,0,0,.36-.1,6.85,6.85,0,0,1,.81-.2l.83-.16.77-.15.74-.16.66-.14.66-.17.65-.17.66-.17.37-.1c.05,0,.1.08.15.26a2.72,2.72,0,0,1,0,.3,1.67,1.67,0,0,0,0,.37q.12.65-.45.75l-.93.19-.6.13-.57.13c-.3.08-.59.15-.89.21l-.87.2-.74.19-.73.19c-.42.11-.63.21-.61.29s.07.32.16.71a2.46,2.46,0,0,1,0,.37,3.11,3.11,0,0,0,0,.32c0,.24.08.48.13.7s.1.44.14.65a3.83,3.83,0,0,0,.16.58l.2.52a1.36,1.36,0,0,1,.06.2.89.89,0,0,0,.07.19c.08.19.13.32.16.38s.13,0,.33,0l.64-.22c.22-.08.44-.16.68-.23l.66-.2.66-.21c.25-.07.39-.09.43-.05a.77.77,0,0,1,.09.39,1.36,1.36,0,0,0,.27.77c.13.16.1.26-.09.29l-.46.09-.53.15a3.28,3.28,0,0,0-.52.2c-.36.17-.71.32-1,.44a2.35,2.35,0,0,1-.44.13q-.21,0-.06.33c.07.19,0,.32-.27.39a2.35,2.35,0,0,1-.52.1,1.61,1.61,0,0,0-.49.14c-.16.09-.25.08-.28,0A2.52,2.52,0,0,0,362.82,137.43Z"/><path
      class="a985854c-e8ed-48e8-a896-06e8a2494876"
      d="M376.46,134.17c0-.11-.06-.22-.08-.32a2,2,0,0,0-.09-.33c-.08-.18-.16-.26-.23-.24l-.43.2-.44.16a4.74,4.74,0,0,1-1.74.37,4.2,4.2,0,0,1-1.27-.14,2.45,2.45,0,0,1-1.23-.77,2.16,2.16,0,0,1-.43-.69,3.6,3.6,0,0,1-.32-.92,3.7,3.7,0,0,1,.07-1.34,3.55,3.55,0,0,1,.7-1.62,4.11,4.11,0,0,1,2.41-1.41c.26,0,.53-.1.81-.16s.26-.08.25-.11,0-.14-.08-.32,0-.15-.07-.24a2,2,0,0,1-.05-.24c0-.19,0-.3.05-.33a2.08,2.08,0,0,1,.35-.08l.55-.13a3.31,3.31,0,0,1,.55-.08c.16,0,.24,0,.25.06s0,.14.06.29c.2,1.06.47,2.19.78,3.38.12.43.22.87.31,1.33a7.88,7.88,0,0,0,.35,1.31q.13.45.27.84c.08.27.18.54.28.83s.11.38.08.36a1.54,1.54,0,0,0-.47.09,1.77,1.77,0,0,0-.45.18l-.43.2C376.6,134.37,376.5,134.33,376.46,134.17Zm-3.35-1.78a5.17,5.17,0,0,0,1.14-.19l.6-.17a3.28,3.28,0,0,0,.59-.23c.16-.06.25-.12.25-.16a2.09,2.09,0,0,0,0-.35c0-.19-.08-.37-.13-.56a3.9,3.9,0,0,1-.13-.57c0-.2-.1-.39-.16-.57s-.11-.35-.16-.55a1.18,1.18,0,0,0-.17-.45,1,1,0,0,0-.44-.07,5.61,5.61,0,0,0-.58,0,2.6,2.6,0,0,0-.56.07,2.76,2.76,0,0,0-1.13.57,1,1,0,0,0-.25.35c-.05.12-.11.24-.18.37a1.79,1.79,0,0,0-.17,1.09,3.94,3.94,0,0,0,.17.72,1,1,0,0,0,.44.53A1.67,1.67,0,0,0,373.11,132.39Z"/><path
      class="b80b46da-b97c-4208-a9d1-24cfac9f3e2c"
      d="M386.81,89.52,242.23,78l-2.66,33.3,144.58,11.51Zm-139.2-8a2.62,2.62,0,0,1,2.39,2.8,2.58,2.58,0,1,1-2.39-2.8Zm-2.36,27.1a2.51,2.51,0,0,1-2.14-2.75,2.57,2.57,0,0,1,2.18-2.24,2.6,2.6,0,0,1,2.94,2.28,2.67,2.67,0,0,1,0,.4A2.58,2.58,0,0,1,245.25,108.58ZM381,92.14a2.57,2.57,0,0,1-.42,5.12,2.57,2.57,0,1,1,.42-5.12Zm-2.19,27.17a2.58,2.58,0,0,1-2.33-2.76,2.61,2.61,0,0,1,2.83-2.29,2.54,2.54,0,1,1-.5,5Z"/><path
      class="a7ca9a1f-b49b-4a89-a49b-c9793f61402b"
      d="M270.7,98.16c-.18.36-.36.72-.55,1.08s-.29.59-.32.67-.17.39-.26.57l-.31.54c-.11.18-.23.37-.38.58a1.45,1.45,0,0,0-.27.62.39.39,0,0,0,.09.37,2.62,2.62,0,0,1,.23.32c.08.15.12.23.11.25s-.08.07-.25.14a1.12,1.12,0,0,0-.39.36.53.53,0,0,1-.38.27c-.15,0-.22.07-.2.13s0,.12-.1.15l-.13.05c-.18,0-.29,0-.32-.09A.88.88,0,0,0,267,104l-.32-.16-.34-.15q-.22-.1-.21-.18a.62.62,0,0,1,.11-.22,1.21,1.21,0,0,0,.25-.65,1.27,1.27,0,0,0-.12-.39c-.07-.12-.14-.24-.2-.37a1.1,1.1,0,0,0-.2-.28,1.15,1.15,0,0,1-.2-.29c-.21-.44-.39-.81-.54-1.1s-.33-.67-.54-1.12l-.17-.39c-.07-.17-.12-.3-.17-.39l-.12-.24c0-.11-.08-.19-.11-.27a1.15,1.15,0,0,1-.12-.19c-.17-.23-.31-.21-.41.06,0,.11,0,.29,0,.53a4.15,4.15,0,0,1-.08.79q-.07.39-.12.78c0,.23-.05.41-.07.55a3.3,3.3,0,0,0-.06.57c0,.52-.1,1-.17,1.56s-.13,1-.17,1.56c0,.13,0,.22,0,.27a.85.85,0,0,0,0,.31.5.5,0,0,0,0,.13.5.5,0,0,1,.05.13c0,.11,0,.15-.07.1l-.37-.09-.36-.07-.26,0-.25,0h-.24a1,1,0,0,1-.25,0c-.12,0-.17-.13-.16-.33s0-.26,0-.33.06-.4.1-.61.07-.41.1-.61.07-.56.11-.86.08-.58.13-.86a1.88,1.88,0,0,0,.05-.33c0-.11,0-.22,0-.33s.06-.53.1-.79.09-.52.13-.78,0-.42.05-.63,0-.41.06-.62.07-.71.11-1.07.06-.73.07-1.09a.94.94,0,0,1,0-.26q0-.09,0-.27s0-.08,0-.13,0-.09,0-.14.15-.27.39-.28l.64,0,.63,0,.37,0c.05,0,.05.09,0,.26a.59.59,0,0,0-.07.26,2.61,2.61,0,0,1-.06.27.27.27,0,0,0,.09.32,3.63,3.63,0,0,1,.58.81c.15.26.31.53.48.79l.47.79.52.87.56.92a5,5,0,0,1,.39.76,2,2,0,0,0,.1.3c0,.07.1,0,.22-.12l.17-.25c.1-.15.16-.26.19-.31a8.35,8.35,0,0,1,.84-1.48,8.66,8.66,0,0,0,.8-1.51c.23-.49.43-1,.61-1.4a.69.69,0,0,0,.05-.13l.07-.13a.23.23,0,0,1,.22-.14h.1a3,3,0,0,1,.44,0h.82s.06,0,.08.1a.92.92,0,0,1,0,.15c0,.09,0,.14,0,.15,0,.22,0,.43,0,.64a4.48,4.48,0,0,0,.08.64c.08.49.16,1,.23,1.57s.11.93.13,1.19.05.48.07.68.05.42.09.67.12.64.23,1.15l.09.53c0,.17.05.34.08.52a12.56,12.56,0,0,0,.32,1.45.78.78,0,0,1,0,.19c0,.23.05.36.05.39s-.12.07-.37.13l-.46.11-.2.07-.19.08c-.22.06-.32,0-.33,0s0-.23-.07-.47-.12-.69-.17-1l-.15-1c-.05-.27-.09-.54-.12-.82s-.07-.54-.12-.82-.1-.55-.11-.61a.82.82,0,0,1,0-.1s0,0,0-.08l-.12-.61a5.82,5.82,0,0,1-.09-.73c0-.24,0-.5,0-.77s0-.44,0-.53S270.76,98,270.7,98.16Z"/><path
      class="a7ca9a1f-b49b-4a89-a49b-c9793f61402b"
      d="M279.82,103.63a1.82,1.82,0,0,1,0-.33,1.93,1.93,0,0,0,0-.34c0-.2-.08-.29-.17-.29l-.46.08a3.73,3.73,0,0,1-.46,0,4.74,4.74,0,0,1-1.79-.09,4.26,4.26,0,0,1-1.18-.46,2.42,2.42,0,0,1-1-1.06,2.25,2.25,0,0,1-.24-.78,3.56,3.56,0,0,1-.07-1,3.7,3.7,0,0,1,.41-1.28A3.62,3.62,0,0,1,276,96.77a4.16,4.16,0,0,1,1.88-.72,3.16,3.16,0,0,1,.81,0l.83,0c.18,0,.27,0,.27,0s0-.15,0-.33a1.93,1.93,0,0,0,0-.24,2.28,2.28,0,0,1,0-.26c0-.18.07-.28.13-.3a1.52,1.52,0,0,1,.36,0l.56,0a2.74,2.74,0,0,1,.56.06c.15,0,.22.07.22.12s0,.15,0,.3c-.07,1.08-.11,2.24-.11,3.47,0,.44,0,.9-.05,1.36a7.72,7.72,0,0,0,0,1.36c0,.31,0,.61,0,.89s0,.56.06.87,0,.39,0,.37a1.28,1.28,0,0,0-.47,0,1.86,1.86,0,0,0-.48.06,3.55,3.55,0,0,1-.47.09C279.9,103.86,279.81,103.79,279.82,103.63ZM277,101a4.55,4.55,0,0,0,1.15.12h.62a3.36,3.36,0,0,0,.63-.06c.17,0,.27-.06.28-.1a1.49,1.49,0,0,0,.06-.34c0-.19,0-.39,0-.58s0-.39,0-.58a5.8,5.8,0,0,0,0-.59,5.46,5.46,0,0,1,0-.58,1.4,1.4,0,0,0-.05-.48,1.06,1.06,0,0,0-.41-.18l-.56-.15a2.1,2.1,0,0,0-.56-.07,2.76,2.76,0,0,0-1.24.26,1,1,0,0,0-.33.27l-.27.31a1.9,1.9,0,0,0-.45,1,3,3,0,0,0,0,.73.93.93,0,0,0,.29.64A1.6,1.6,0,0,0,277,101Z"/><path
      class="a7ca9a1f-b49b-4a89-a49b-c9793f61402b"
      d="M286.51,97.71a.53.53,0,0,1,.12.1.28.28,0,0,0,.09.08l.45.46.47.45,1.14,1.15,1.15,1.13c.12.13.25.25.38.37l.38.36c.18.16.32.29.45.39l.46.35.37.36c.16.16.24.27.23.33s-.06.14-.18.28a2.81,2.81,0,0,0-.27.36l-.24.35q-.19.3-.27.21l-.34-.34c-.26-.23-.52-.47-.77-.72l-.75-.73-.59-.57c-.2-.19-.39-.39-.59-.59l-.87-.84c-.29-.29-.58-.57-.86-.86l-.6-.54-.57-.54a3.09,3.09,0,0,0-.31-.28,3.21,3.21,0,0,1-.28-.27c-.12-.13-.17-.13-.17,0v1c0,.22,0,.44,0,.66s0,.43,0,.65a5,5,0,0,0,0,.55c0,.16,0,.34,0,.53s0,.2,0,.31l0,.31c0,.52.07.93.09,1.22s0,.55.06.81,0,.52.08.81a2.6,2.6,0,0,1,0,.47c0,.08-.14.14-.38.19a2,2,0,0,1-.59,0,5.24,5.24,0,0,0-.57,0c-.1,0-.15,0-.14-.14s0-.23,0-.29a1.23,1.23,0,0,1,0-.26c0-.22,0-.42,0-.61a5.27,5.27,0,0,1,.05-.63c0-.21,0-.43,0-.66v-.67l0-.7V101c0-.41,0-.82,0-1.24s0-.82,0-1.23,0-1,0-1.62c0-.23,0-.46,0-.68s0-.45,0-.7,0-.61,0-.93,0-.64,0-1,0-.41,0-.61,0-.42,0-.63,0-.43,0-.62,0-.38,0-.6a15.45,15.45,0,0,0,0-1.69c0-.38,0-.67,0-.86s0-.33.08-.33l.39,0a2.52,2.52,0,0,0,.82,0l.25,0a.9.9,0,0,1,.24,0c.21,0,.23.15.05.36a1.25,1.25,0,0,0-.14.24c-.07.13,0,.19.07.18l.19,0a.69.69,0,0,0,.2,0l.24,0,.25,0a4.16,4.16,0,0,1,.49.05,7,7,0,0,1,1,.26,10.25,10.25,0,0,1,1,.39,3,3,0,0,1,1.26,1,3.26,3.26,0,0,1,.58,1.07,8.07,8.07,0,0,1,.18,1.09,3.63,3.63,0,0,1,0,.64,4.35,4.35,0,0,1-.19.78,3.11,3.11,0,0,0-.12.3,2.39,2.39,0,0,1-.16.33,9.1,9.1,0,0,1-.67,1,1.24,1.24,0,0,1-.19.22l-.26.28a3.81,3.81,0,0,1-.68.48c-.16.08-.33.17-.51.24l-.52.22-.19.07-.19,0C286.42,97.61,286.41,97.65,286.51,97.71Zm-1.4-7c-.27,0-.4,0-.4.1s0,.22,0,.47,0,.63,0,1v.44c0,.15,0,.28,0,.39,0,.27,0,.5,0,.71s0,.45,0,.7,0,.47,0,.69,0,.46.06.69,0,.28.09.29h.46a5.79,5.79,0,0,0,.59-.09c.24,0,.42-.1.55-.14l.52-.17a1.77,1.77,0,0,0,.71-.4,3.22,3.22,0,0,0,.85-1.23c0-.08.05-.17.08-.26s.05-.2.07-.33a5.9,5.9,0,0,0,0-.86,2.1,2.1,0,0,0-.21-.8,1.51,1.51,0,0,0-.44-.49,2.74,2.74,0,0,0-.81-.39c-.35-.09-.66-.16-1-.21s-.5-.06-.64-.06Z"/><path
      class="a7ca9a1f-b49b-4a89-a49b-c9793f61402b"
      d="M298.14,106.45a2.08,2.08,0,0,1-.36-.07l-.45-.09a3.6,3.6,0,0,1-.44-.12l-.58-.18a2.66,2.66,0,0,1-.54-.26,4.13,4.13,0,0,1-.69-.45,4.18,4.18,0,0,1-.74-.72,5.79,5.79,0,0,1-.48-.63c-.08-.15-.18-.3-.27-.46a3,3,0,0,1-.25-.47,2.92,2.92,0,0,1-.3-.81,5.46,5.46,0,0,1-.15-1.36,5.2,5.2,0,0,1,.16-.86,6,6,0,0,1,.32-.76,9,9,0,0,1,.44-.8l.29-.43a3.32,3.32,0,0,1,.32-.42,4.46,4.46,0,0,1,.92-.74,8.26,8.26,0,0,1,1.92-.85l1-.23.29,0s.07.09.1.26a5.18,5.18,0,0,1,.12.84,4.17,4.17,0,0,0,.06.45c0,.09-.07.14-.3.14a11.1,11.1,0,0,0-1.24.14,3,3,0,0,0-.95.37,4,4,0,0,0-1.2,1.2l-.27.43a1.62,1.62,0,0,0-.19.44,2.5,2.5,0,0,0-.13.93,4.06,4.06,0,0,0,.21,1.26,4.87,4.87,0,0,0,.51,1.1,1.92,1.92,0,0,0,.52.5q.33.23.63.39a4.67,4.67,0,0,0,.83.36l.53.19c.17,0,.35.11.54.15s.48.16.48.22a5.62,5.62,0,0,1-.09.58,2.25,2.25,0,0,0-.05.22l0,.22c-.06.23-.09.36-.1.4S298.37,106.51,298.14,106.45Z"/><path
      class="a7ca9a1f-b49b-4a89-a49b-c9793f61402b"
      d="M304.47,107.76a4.88,4.88,0,0,1-.22-.49l-.13-.22-.11-.23c-.09-.17-.11-.26-.09-.28l.18-.1.16-.06.17-.07a4.67,4.67,0,0,0,.73-.39l.27-.17.29-.21a2.66,2.66,0,0,0,.64-.91c.05-.16.1-.29.14-.39a2.17,2.17,0,0,0,.07-.6,2.22,2.22,0,0,0-.27-1,3.2,3.2,0,0,0-.61-.8,4.07,4.07,0,0,1-.61-.76l-.29-.49a1.8,1.8,0,0,1-.24-.54,4.49,4.49,0,0,1-.14-.7,2.58,2.58,0,0,1,0-.42q0-.18.09-.45a2.71,2.71,0,0,1,.24-.73,4.83,4.83,0,0,1,.43-.79,4.71,4.71,0,0,1,.83-1,3.21,3.21,0,0,1,.68-.47l.25-.14a2.44,2.44,0,0,1,.28-.14l.51-.21.54-.2a1.76,1.76,0,0,1,.62-.13c.25,0,.36.07.33.26a3.73,3.73,0,0,0,0,.47c0,.22,0,.37,0,.45a1.56,1.56,0,0,1,0,.49s-.19.09-.49.09a3,3,0,0,0-.62.11,2,2,0,0,0-.62.26,2.73,2.73,0,0,0-.47.37,1.82,1.82,0,0,0-.5.75,3.89,3.89,0,0,0-.1.54c0,.17,0,.35,0,.54a2.56,2.56,0,0,0,.24,1.14,1.75,1.75,0,0,0,.28.43l.29.35.23.31a3.71,3.71,0,0,1,.24.36,3.41,3.41,0,0,1,.33.73,5.49,5.49,0,0,1,.15.8,7.43,7.43,0,0,1,0,1.41,6.9,6.9,0,0,1-.21.92,2.88,2.88,0,0,1-.66,1.12,2.21,2.21,0,0,1-.3.25l-.3.23a3,3,0,0,1-.65.42l-.46.26a2.2,2.2,0,0,1-.48.18l-.44.13S304.57,108,304.47,107.76Z"/><path
      class="a7ca9a1f-b49b-4a89-a49b-c9793f61402b"
      d="M312.49,105.76a4,4,0,0,1-1.21-.34,4.81,4.81,0,0,1-1.06-.68,2.64,2.64,0,0,1-.58-.59,3.08,3.08,0,0,1-.43-1c0-.14-.07-.31-.11-.49a2.35,2.35,0,0,1-.06-.51,4.59,4.59,0,0,1,.06-.73,2.94,2.94,0,0,1,.26-.9,5.4,5.4,0,0,1,.3-.61,2.8,2.8,0,0,1,.36-.49,5.13,5.13,0,0,1,.89-.8,3.57,3.57,0,0,1,.94-.45,3.25,3.25,0,0,1,1-.18,3.35,3.35,0,0,1,.71,0l.68.11a2.57,2.57,0,0,1,.57.17c.27.12.52.23.75.36a3,3,0,0,1,.64.46,5.51,5.51,0,0,1,.5.54c.1.17.2.35.29.54a3,3,0,0,1,.24.7,3.48,3.48,0,0,1,.06,1,6.35,6.35,0,0,1-.33,1.51l-.24.51a4.37,4.37,0,0,1-.26.38,3,3,0,0,1-.54.58,2.67,2.67,0,0,1-.74.41,5.89,5.89,0,0,1-1.19.31l-.66.09A3.56,3.56,0,0,1,312.49,105.76Zm-.39-1.85a3.91,3.91,0,0,0,1.15.24,2.33,2.33,0,0,0,.59-.11,2.92,2.92,0,0,0,.84-.45,2.75,2.75,0,0,0,.77-.79,1.72,1.72,0,0,0,.24-.79,2.63,2.63,0,0,0-.06-.83,2.34,2.34,0,0,0-.26-.62,2.06,2.06,0,0,0-.37-.4,3.58,3.58,0,0,0-.81-.47,2.6,2.6,0,0,0-.55-.1c-.23,0-.42,0-.57,0l-.38.07a2,2,0,0,0-.38.1l-.47.18a2.23,2.23,0,0,0-.43.25,1.49,1.49,0,0,0-.41.42,2.39,2.39,0,0,0-.27.56,4.06,4.06,0,0,0-.11.52,2.47,2.47,0,0,0,0,.73,1.4,1.4,0,0,0,.42.82,1.93,1.93,0,0,0,.37.3l.31.22A1.07,1.07,0,0,0,312.1,103.91Z"/><path
      class="a7ca9a1f-b49b-4a89-a49b-c9793f61402b"
      d="M319.23,107.14q-.33.08-.33,0a3.15,3.15,0,0,0,0-.48q0-.52-.06-1c0-.35,0-.7-.05-1s0-.55,0-.82l0-.83c0-.41-.07-.82-.11-1.24a10.31,10.31,0,0,1-.07-1.24c0-.56,0-1.11,0-1.67s0-1.11-.05-1.66c0-.26,0-.53-.06-.79s0-.53-.05-.79a5.12,5.12,0,0,0,0-.56,5.25,5.25,0,0,1,0-.56,1.34,1.34,0,0,1,0-.21,1.62,1.62,0,0,1,0-.21c0-.12.11-.17.31-.16a6.76,6.76,0,0,1,.89,0,2,2,0,0,1,.42.07s0,.14,0,.37a9.85,9.85,0,0,0,0,1.29c0,.27,0,.53.05.79a7.12,7.12,0,0,1,0,.8c0,.28,0,.57,0,.85s0,.57,0,.85a14.2,14.2,0,0,0,.06,1.92c0,.26,0,.53,0,.79s0,.51,0,.77,0,.48.05.71,0,.47.07.71a4.84,4.84,0,0,1,0,.53c0,.18,0,.35,0,.53s.05.59.09.86a7.53,7.53,0,0,1,.09.8v.4s-.13.06-.39.09l-.47.07-.2,0Z"/><path
      class="a7ca9a1f-b49b-4a89-a49b-c9793f61402b"
      d="M324.4,106.68a4,4,0,0,1-1.21-.34,4.81,4.81,0,0,1-1.06-.68,2.56,2.56,0,0,1-.57-.59,2.77,2.77,0,0,1-.43-1c0-.15-.08-.31-.12-.49a3.36,3.36,0,0,1-.05-.51,4.56,4.56,0,0,1,.05-.73,3.15,3.15,0,0,1,.26-.9c.06-.14.16-.35.31-.62a2.26,2.26,0,0,1,.35-.48,4.76,4.76,0,0,1,.89-.8,3.29,3.29,0,0,1,.94-.45,3.63,3.63,0,0,1,1-.19,5.37,5.37,0,0,1,.7,0l.68.12a2.57,2.57,0,0,1,.57.17,6.7,6.7,0,0,1,.76.36,3.21,3.21,0,0,1,.64.46,5,5,0,0,1,.49.54q.15.25.3.54a3.59,3.59,0,0,1,.23.7,3.12,3.12,0,0,1,.06,1,5.42,5.42,0,0,1-.33,1.51,3.14,3.14,0,0,1-.24.51,4.38,4.38,0,0,1-.26.39,2.73,2.73,0,0,1-.54.58,3,3,0,0,1-.74.41,5.8,5.8,0,0,1-1.19.3,5,5,0,0,1-.66.1A3.56,3.56,0,0,1,324.4,106.68Zm-.39-1.85a3.59,3.59,0,0,0,1.16.23,2.28,2.28,0,0,0,.58-.1,2.92,2.92,0,0,0,.84-.45,2.79,2.79,0,0,0,.78-.79,1.76,1.76,0,0,0,.23-.79,2.75,2.75,0,0,0-.05-.84,2.15,2.15,0,0,0-.27-.61,2.11,2.11,0,0,0-.37-.41,3.55,3.55,0,0,0-.81-.46,2.08,2.08,0,0,0-.54-.1,3.89,3.89,0,0,0-.58,0l-.38.07a1.55,1.55,0,0,0-.38.1c-.18.06-.33.13-.46.18a2.28,2.28,0,0,0-.44.25,1.5,1.5,0,0,0-.41.42,2.39,2.39,0,0,0-.27.56,3.8,3.8,0,0,0-.1.51,2,2,0,0,0,0,.74,1.37,1.37,0,0,0,.41.82,2.62,2.62,0,0,0,.38.3l.3.22A1.43,1.43,0,0,0,324,104.83Z"/><path
      class="a7ca9a1f-b49b-4a89-a49b-c9793f61402b"
      d="M339.43,102.09c-.21.34-.43.68-.65,1a5.8,5.8,0,0,0-.39.63c-.1.19-.21.37-.32.54l-.36.5a5.22,5.22,0,0,1-.44.54,1.67,1.67,0,0,0-.33.59.44.44,0,0,0,.05.38,1.68,1.68,0,0,1,.2.34c.07.16.1.24.09.26s-.09.06-.27.12a.92.92,0,0,0-.43.32.47.47,0,0,1-.4.22q-.23,0-.21.12c0,.07,0,.11-.12.13l-.13,0c-.18,0-.28-.07-.31-.12a1.84,1.84,0,0,0-.22-.19,3.35,3.35,0,0,0-.3-.19l-.31-.19c-.15-.08-.21-.15-.2-.2a.64.64,0,0,1,.13-.2,1.24,1.24,0,0,0,.31-.63,1.09,1.09,0,0,0-.08-.39,2.74,2.74,0,0,1-.15-.4,2.38,2.38,0,0,0-.18-.3.94.94,0,0,1-.17-.31c-.16-.47-.31-.85-.42-1.15s-.26-.69-.42-1.16l-.13-.41c-.06-.17-.1-.31-.13-.41s-.09-.24-.13-.36a1.73,1.73,0,0,0-.16-.37c-.15-.25-.25-.31-.31-.18a1.78,1.78,0,0,0-.09.21,3.89,3.89,0,0,1-.05.52,5.36,5.36,0,0,1-.15.78,7,7,0,0,0-.19.76q-.09.35-.15.54a4.59,4.59,0,0,0-.11.56c-.09.51-.2,1-.32,1.54s-.24,1-.34,1.53c0,.14,0,.22-.05.27a1.82,1.82,0,0,0,0,.31.51.51,0,0,0,0,.13.83.83,0,0,0,0,.12c0,.14,0,.18-.09.11a2,2,0,0,0-.35-.13l-.35-.1-.49-.11-.25,0a1,1,0,0,1-.25,0c-.11,0-.16-.14-.13-.34a4.94,4.94,0,0,1,.18-.76,6.08,6.08,0,0,0,.22-.76c.05-.27.12-.55.19-.84s.14-.58.22-.84c0-.11.05-.22.07-.33s.05-.22.08-.33.12-.51.19-.76.14-.51.2-.77.09-.41.12-.62a4.23,4.23,0,0,1,.11-.62c.07-.34.14-.69.22-1.05s.14-.72.18-1.07a2.66,2.66,0,0,1,.07-.39c0-.14.08-.27.11-.4s.17-.26.41-.23.8.1,1.25.18l.36.06c.06,0,.05.1,0,.26a1.19,1.19,0,0,0-.11.26c0,.08-.05.17-.08.26a.27.27,0,0,0,.06.32,3.64,3.64,0,0,1,.49.87l.39.83.39.83.43.93.47,1c.05.13.11.25.17.39a2.7,2.7,0,0,1,.14.4l.06.32c0,.07.1,0,.23-.09a2.49,2.49,0,0,0,.21-.24l.21-.29a8.44,8.44,0,0,1,1-1.39,9.54,9.54,0,0,0,.95-1.42c.3-.5.55-.94.75-1.33l.07-.12a.75.75,0,0,0,.07-.12.26.26,0,0,1,.23-.13h.55l.44,0h.18l.19,0c.05,0,.08,0,.07.11v.14a.72.72,0,0,1,0,.15,8.19,8.19,0,0,0,0,1.29l0,.79c0,.27,0,.53,0,.79,0,.54,0,.94,0,1.2v.68c0,.2,0,.43,0,.68s.05.64.11,1.17c0,.18,0,.36,0,.53l0,.52a12,12,0,0,0,.17,1.48v.19c0,.23,0,.36,0,.39s-.13.06-.38.09l-.48.07-.2,0-.2.06c-.22,0-.33,0-.33,0a3.15,3.15,0,0,0,0-.48q0-.52-.06-1c0-.35,0-.7,0-1s0-.54,0-.81,0-.55,0-.83,0-.57,0-.63v-.18s0-.26-.06-.62a5.93,5.93,0,0,1,0-.73c0-.24,0-.5,0-.76s0-.45,0-.54S339.5,102,339.43,102.09Z"/><path
      class="a7ca9a1f-b49b-4a89-a49b-c9793f61402b"
      d="M345.83,108.33a4.32,4.32,0,0,1-1.22-.34,5,5,0,0,1-1.06-.68,2.67,2.67,0,0,1-1-1.58c0-.15-.08-.31-.11-.49a2.5,2.5,0,0,1-.06-.51,6.11,6.11,0,0,1,.05-.73,3.51,3.51,0,0,1,.26-.9c.06-.14.16-.35.31-.62a2.26,2.26,0,0,1,.35-.48,4.76,4.76,0,0,1,.89-.8,3.16,3.16,0,0,1,.94-.45,3.63,3.63,0,0,1,1-.19,4.05,4.05,0,0,1,.7,0l.69.12a3.56,3.56,0,0,1,.57.16c.26.12.52.24.75.37a2.64,2.64,0,0,1,.64.46,5,5,0,0,1,.49.54l.3.54a3.59,3.59,0,0,1,.23.7,3.1,3.1,0,0,1,.07,1,5.89,5.89,0,0,1-.34,1.51,3.14,3.14,0,0,1-.24.51,2.92,2.92,0,0,1-.26.39,2.46,2.46,0,0,1-.54.57,2.37,2.37,0,0,1-.73.41,5.4,5.4,0,0,1-1.2.31,4.71,4.71,0,0,1-.66.1A4.16,4.16,0,0,1,345.83,108.33Zm-.4-1.85a3.59,3.59,0,0,0,1.16.23,2.21,2.21,0,0,0,.58-.1,3.45,3.45,0,0,0,1.62-1.24,1.64,1.64,0,0,0,.23-.79,2.46,2.46,0,0,0,0-.84,2.15,2.15,0,0,0-.27-.61,1.64,1.64,0,0,0-.37-.41,3.55,3.55,0,0,0-.81-.46,2.08,2.08,0,0,0-.54-.1c-.24,0-.43,0-.57,0l-.38.08a2.3,2.3,0,0,0-.39.09l-.46.19a2.28,2.28,0,0,0-.44.25,1.35,1.35,0,0,0-.4.42,1.8,1.8,0,0,0-.27.56,2.77,2.77,0,0,0-.11.51,2.23,2.23,0,0,0,0,.74,1.42,1.42,0,0,0,.41.82,2.12,2.12,0,0,0,.38.29,1.67,1.67,0,0,0,.3.22A1.2,1.2,0,0,0,345.43,106.48Z"/><path
      class="a7ca9a1f-b49b-4a89-a49b-c9793f61402b"
      d="M359.15,110.41l-.34-.12-.35-.12c-.16,0-.24-.1-.23-.15a.52.52,0,0,1,.09-.23,1.23,1.23,0,0,0,.17-.68.82.82,0,0,0-.16-.37,3.64,3.64,0,0,1-.24-.35l-.42-.57a6.12,6.12,0,0,1-.45-.64c-.08-.12-.17-.26-.26-.42l-.25-.38c-.12-.18-.25-.35-.37-.52a3.48,3.48,0,0,1-.34-.56c-.19-.33-.37-.62-.53-.88s-.35-.54-.53-.86a4,4,0,0,1-.27-.43l-.24-.43a8.19,8.19,0,0,0-.45-.77q-.15-.18-.15.09c0,.3,0,.48,0,.53q-.07.39-.15.72l-.15.72c-.06.21-.1.41-.14.57s-.08.39-.13.67c-.11.52-.2,1-.28,1.38s-.17.86-.28,1.36c0,.13-.05.26-.08.38a2.72,2.72,0,0,0,0,.43,1.45,1.45,0,0,0,.06.33c0,.1,0,.14-.08.1l-.4-.13-.31-.09-.25,0-.24,0-.25,0a1,1,0,0,1-.24-.05c-.12,0-.17-.14-.14-.33a3.58,3.58,0,0,1,.09-.45c.06-.2.1-.37.14-.52s.09-.34.14-.56.13-.52.21-.85.15-.61.2-.84.08-.38.11-.5a3.6,3.6,0,0,1,.1-.43c0-.17.08-.36.13-.56s.1-.44.15-.7.09-.41.12-.62.07-.41.12-.62c.16-.78.28-1.48.38-2.12a2.57,2.57,0,0,1,.07-.4l.09-.4c0-.18.17-.25.41-.24s.75.08,1.25.17a2.7,2.7,0,0,1,.37.07c.07,0,0,.09,0,.25a3.91,3.91,0,0,0-.18.35,2.62,2.62,0,0,1-.17.33c-.07.13-.07.23,0,.29a1.41,1.41,0,0,1,.24.3c.15.26.3.51.46.76s.32.5.5.75l.37.58c.13.2.27.39.4.57s.25.39.38.59.24.41.36.6a4.78,4.78,0,0,0,.26.42l.27.4c.12.18.27.37.43.57a5.41,5.41,0,0,1,.43.58,2,2,0,0,0,.24.33,1.41,1.41,0,0,1,.23.35l.13.3c0,.07.1,0,.2-.14a1.74,1.74,0,0,0,.15-.28,2.45,2.45,0,0,0,.15-.32c.14-.36.29-.7.45-1s.3-.69.44-1l.33-.84c.11-.28.23-.56.35-.84s.25-.62.39-.91.27-.6.39-.93.28-.86.47-1.46a1,1,0,0,1,.09-.27c0-.07.1-.1.25-.08a5.69,5.69,0,0,1,.7.23,6,6,0,0,1,.61.26c.12.09.16.16.14.21s-.06.1-.11.16c-.13.22-.29.53-.48.91l-.27.66q-.24.56-.3.72c-.12.3-.24.6-.37.9l-.38.9c-.14.34-.29.67-.43,1s-.27.67-.39,1l-.21.59-.24.57c-.09.19-.2.39-.32.62a1.52,1.52,0,0,0-.2.65.42.42,0,0,0,.13.36,3.45,3.45,0,0,1,.26.28,1.05,1.05,0,0,1,.15.24s-.09.08-.25.17a.91.91,0,0,0-.35.4.51.51,0,0,1-.35.31q-.23,0-.18.15c0,.06,0,.12-.09.15a.37.37,0,0,1-.37,0Z"/><path class="a7ca9a1f-b49b-4a89-a49b-c9793f61402b" d="M320.59,40.54h4.06c3.05,0,4.56,1.53,4.56,4.89v1.18c0,3.13-1,5.31-4.72,5.31h-1.25v8.36h-2.65Zm2.65,9.19h1c2,0,2.37-1.22,2.37-3.2v-1c0-1.51-.3-2.78-2.13-2.78h-1.21Z"/><path class="a7ca9a1f-b49b-4a89-a49b-c9793f61402b" d="M331.18,60.28V39.68h2.65v20.6Z"/><path
      class="a7ca9a1f-b49b-4a89-a49b-c9793f61402b"
      d="M343.84,57.37c0,1,0,2.38.06,2.91h-2.43c-.07-.32-.16-.93-.18-1.17a2.54,2.54,0,0,1-2.5,1.4c-2.24,0-3.15-2-3.15-4.35v-.27c0-3.61,2.36-4.7,5.09-4.7h.47V49.06c0-1.27-.18-2-1.21-2s-1.27.78-1.27,1.83v.31h-2.6v-.27c0-2.17.84-4,4-4,2.82,0,3.76,1.63,3.76,4Zm-2.59-4.14h-.6c-1.52,0-2.48.6-2.48,2.62v.25c0,1.19.41,2.09,1.45,2.09s1.63-.88,1.63-3Z"/><path
      class="a7ca9a1f-b49b-4a89-a49b-c9793f61402b"
      d="M354.57,59.65c0,3.25-.33,6-4.44,6-3.42,0-4-2.21-4-3.88v-.07h2.66v.08a1.49,1.49,0,0,0,1.52,1.66c1.38,0,1.65-1,1.65-3.07V58.56A2.51,2.51,0,0,1,349.4,60c-2.58,0-3.31-2-3.31-4.71V49.43c0-2.32.94-4.57,3.62-4.57a2.29,2.29,0,0,1,2.5,1.56,9.06,9.06,0,0,1,.13-1.33h2.29c0,.9-.06,2.2-.06,3.88Zm-5.82-10.07v5.54c0,1.71.42,2.56,1.47,2.56,1.47,0,1.71-1.31,1.71-3.25V50c0-1.48-.15-2.72-1.54-2.72C349.29,47.25,348.75,48,348.75,49.58Z"/><path class="a7ca9a1f-b49b-4a89-a49b-c9793f61402b" d="M365.49,56c0,2.12,0,3.53,0,4.3H363a12.38,12.38,0,0,1-.1-1.5,2.61,2.61,0,0,1-2.79,1.73c-1.34,0-3-.59-3-3.92V45.09h2.64V55.91c0,1.56.44,2.22,1.44,2.22s1.65-.63,1.65-3v-10h2.65Z"/><path
      class="a7ca9a1f-b49b-4a89-a49b-c9793f61402b"
      d="M370.3,53.34v2.33c0,1.32.28,2.6,1.57,2.6s1.5-1.12,1.5-2.36v-.1H376v.09c0,1.66-.37,4.61-4,4.61s-4.21-2.26-4.21-5.34V49.92c0-2.17.72-5.06,4.21-5.06,3.11,0,4.09,2.18,4.09,5v3.44Zm3.16-2.11V49.54c0-1.41-.28-2.44-1.55-2.44s-1.59.9-1.59,2.45v1.68Z"/><path class="a7ca9a1f-b49b-4a89-a49b-c9793f61402b" d="M263.58,20.05h-3.17V17.6h9v2.45h-3.18V37.33h-2.65Z"/><path
      class="a7ca9a1f-b49b-4a89-a49b-c9793f61402b"
      d="M271.48,30.39v2.34c0,1.31.28,2.59,1.58,2.59s1.5-1.11,1.5-2.36v-.09h2.58V33c0,1.67-.37,4.62-4,4.62s-4.2-2.27-4.2-5.34V27c0-2.17.71-5.06,4.21-5.06,3.11,0,4.08,2.18,4.08,5.05v3.43Zm3.17-2.1v-1.7c0-1.41-.29-2.43-1.55-2.43s-1.6.89-1.6,2.44v1.69Z"/><path class="a7ca9a1f-b49b-4a89-a49b-c9793f61402b" d="M281,22.15c.9,2.56,1.48,4.19,1.71,5h0c.32-1.06,1-2.72,1.77-5h2.75l-3.07,7,3.12,8.14h-2.86c-1.05-3-1.57-4.85-1.8-5.58h0c-.27.82-.92,2.87-1.81,5.58H278l3.1-7.82-3-7.36Z"/><path class="a7ca9a1f-b49b-4a89-a49b-c9793f61402b" d="M287.92,22.15h1.66V18.47h2.64v3.68h2v2.33h-2V34c0,.75.12,1.39,1,1.39a4.56,4.56,0,0,0,.88-.08v2a4.74,4.74,0,0,1-1.76.27c-1.73,0-2.81-.61-2.81-3.11v-10h-1.66Z"/><path
      class="a7ca9a1f-b49b-4a89-a49b-c9793f61402b"
      d="M299.65,16.73h2.65v6.75a2.8,2.8,0,0,1,2.7-1.57c2.22,0,3.14,1.82,3.14,4.51v5.5c0,3.32-.62,5.63-3.5,5.63a2.45,2.45,0,0,1-2.51-1.61c0,.59-.05,1-.1,1.39h-2.41c.05-1,0-2.31,0-3.95Zm5.84,15.67V26.84c0-1.56-.3-2.54-1.47-2.54-1.43,0-1.73,1.25-1.73,3.13v4.88c0,1.95.47,2.85,1.64,2.85C304.94,35.16,305.49,34.31,305.49,32.4Z"/><path
      class="a7ca9a1f-b49b-4a89-a49b-c9793f61402b"
      d="M312.05,22.15c.89,5.2,1.73,10.09,1.86,12H314c.29-2.55,1.06-6.34,2-12h2.66l-3.4,15.94c-.93,4.31-2.38,4.55-4.08,4.55a9.42,9.42,0,0,1-1.29-.11l0-2.38a5.41,5.41,0,0,0,.87.08c1,0,1.5-.4,1.83-2.31l-3.4-15.77Z"/><path class="a7ca9a1f-b49b-4a89-a49b-c9793f61402b" d="M301.08,188.89H299v3.26h2.4l-.16,1.17h-3.51v-9.46h3.49V185H299v2.68h2.1Z"/><path
      class="a7ca9a1f-b49b-4a89-a49b-c9793f61402b"
      d="M306,183.44v7.92c0,1,0,1.56,0,2h-1.21c0-.17,0-.56,0-.7a1.26,1.26,0,0,1-1.28.81c-1.27,0-1.54-1-1.54-2.42v-2.9c0-1.28.49-2.18,1.65-2.18a1.26,1.26,0,0,1,1.15.52v-3Zm-2.8,4.75v2.91c0,.78.19,1.19.72,1.19s.81-.62.81-1.52v-2.3c0-.8-.08-1.4-.78-1.4S303.24,187.5,303.24,188.19Z"/><path class="a7ca9a1f-b49b-4a89-a49b-c9793f61402b" d="M307.3,186h1.27v7.28H307.3Zm0-2.6h1.27V185h-1.27Z"/><path class="a7ca9a1f-b49b-4a89-a49b-c9793f61402b" d="M309.25,186h.8v-1.76h1.26V186h1v1.12h-1v4.54c0,.36.06.67.5.67a1.66,1.66,0,0,0,.42,0v1a2.15,2.15,0,0,1-.84.13c-.82,0-1.34-.29-1.34-1.49v-4.77h-.8Z"/><path class="a7ca9a1f-b49b-4a89-a49b-c9793f61402b" d="M313,186h1.26v7.28H313Zm0-2.6h1.27V185H313Z"/><path class="a7ca9a1f-b49b-4a89-a49b-c9793f61402b" d="M315.58,188.27c0-1.47,0-1.89,0-2.23h1.21a4.44,4.44,0,0,1,.05.69,1.34,1.34,0,0,1,1.34-.8c.85,0,1.47.5,1.47,1.86v5.53h-1.27V188c0-.68-.23-1-.68-1s-.84.29-.84,1.44v4.81h-1.27Z"/><path
      class="a7ca9a1f-b49b-4a89-a49b-c9793f61402b"
      d="M324.78,193c0,1.56-.16,2.86-2.13,2.86a1.69,1.69,0,0,1-1.93-1.86v0H322v0a.72.72,0,0,0,.73.8c.66,0,.79-.5.79-1.47v-.86a1.21,1.21,0,0,1-1.22.71c-1.23,0-1.58-.94-1.58-2.26v-2.82c0-1.11.45-2.19,1.74-2.19a1.08,1.08,0,0,1,1.19.75,3.46,3.46,0,0,1,.07-.64h1.09c0,.43,0,1.05,0,1.86Zm-2.8-4.83v2.65c0,.83.2,1.23.71,1.23.7,0,.82-.63.82-1.55v-2.14c0-.71-.07-1.31-.74-1.31S322,187.44,322,188.19Z"/><path
      class="a7ca9a1f-b49b-4a89-a49b-c9793f61402b"
      d="M327.92,183.44h1.27v3.24a1.35,1.35,0,0,1,1.3-.75c1.06,0,1.5.87,1.5,2.16v2.64c0,1.58-.29,2.69-1.67,2.69a1.18,1.18,0,0,1-1.21-.77,5.77,5.77,0,0,1-.05.67h-1.15c0-.46,0-1.11,0-1.9Zm2.8,7.52v-2.67c0-.75-.14-1.22-.7-1.22s-.83.6-.83,1.5v2.34c0,.93.22,1.37.78,1.37S330.72,191.87,330.72,191Z"/><path class="a7ca9a1f-b49b-4a89-a49b-c9793f61402b" d="M333.87,186c.43,2.49.83,4.84.89,5.74h0c.13-1.22.51-3,1-5.74H337l-1.63,7.64c-.44,2.07-1.14,2.18-2,2.18a3.67,3.67,0,0,1-.61-.05l0-1.14a2.5,2.5,0,0,0,.41,0c.49,0,.72-.19.88-1.11L332.51,186Z"/><path
      class="a7ca9a1f-b49b-4a89-a49b-c9793f61402b"
      d="M178.15,146,35,122.44l-5.41,33,143.12,23.47Zm-138-19.57a2.63,2.63,0,0,1,2.15,3,2.58,2.58,0,1,1-2.15-3ZM35.5,153.2a2.53,2.53,0,0,1-1.91-2.93,2.57,2.57,0,0,1,2.36-2,2.6,2.6,0,0,1,2.75,2.51c0,.13,0,.27,0,.4A2.58,2.58,0,0,1,35.5,153.2Zm136.6-5.13a2.57,2.57,0,1,1-.84,5.07,2.57,2.57,0,1,1,.84-5.07ZM167.66,175a2.57,2.57,0,0,1-2.09-2.93,2.62,2.62,0,0,1,3-2.06,2.54,2.54,0,1,1-.92,5Z"/><path
      class="a985854c-e8ed-48e8-a896-06e8a2494876"
      d="M45.5,148.6l-.34-.12-.44-.15a3,3,0,0,1-.41-.18l-.55-.27a3.27,3.27,0,0,1-.5-.32,4.43,4.43,0,0,1-.63-.55,3.79,3.79,0,0,1-.63-.81,4,4,0,0,1-.38-.69l-.21-.48a3.86,3.86,0,0,1-.2-.51,3.74,3.74,0,0,1-.18-.84,5.67,5.67,0,0,1,0-1.38,3.7,3.7,0,0,1,.29-.82,5.31,5.31,0,0,1,.4-.71l.26-.37a2,2,0,0,1,.29-.36l.35-.39a2.16,2.16,0,0,1,.37-.37,3.72,3.72,0,0,1,1-.6,7.82,7.82,0,0,1,2-.59c.22,0,.55-.07,1-.1a1.32,1.32,0,0,1,.3,0s0,.09.06.27,0,.52,0,.84a3.4,3.4,0,0,0,0,.46c0,.09-.09.12-.31.09a9.76,9.76,0,0,0-1.24,0,3.16,3.16,0,0,0-1,.24,4.27,4.27,0,0,0-.75.47,3.49,3.49,0,0,0-.59.56l-.32.38a2,2,0,0,0-.26.42,2.81,2.81,0,0,0-.26.91,4.39,4.39,0,0,0,0,1.26,3.59,3.59,0,0,0,.37,1.16,1.86,1.86,0,0,0,.43.57c.2.18.39.34.58.48a3.87,3.87,0,0,0,.78.46,8.47,8.47,0,0,0,1,.49c.31.13.45.22.45.28s-.07.25-.18.57a4326884871704,4326884871704,0,0,1-.14.42,3,3,0,0,0-.14.38S45.72,148.68,45.5,148.6Z"/><path
      class="a985854c-e8ed-48e8-a896-06e8a2494876"
      d="M52.73,149c.05-.27.11-.54.17-.81s.12-.55.19-.83,0-.26.08-.39l.09-.42c0-.15.05-.3.08-.46a2.12,2.12,0,0,1,.11-.45c.07-.21,0-.34-.33-.38l-.67-.08c-.47,0-.94-.06-1.41-.07s-.94,0-1.41-.08a1.74,1.74,0,0,0-.51,0,2.3,2.3,0,0,1,0,.36v.6c0,.19,0,.38,0,.59a1.43,1.43,0,0,0,0,.29c0,.09,0,.19,0,.28a2.43,2.43,0,0,1,0,.3.66.66,0,0,0,0,.28,1.43,1.43,0,0,1,0,.46c0,.07-.17.07-.42,0a2.26,2.26,0,0,0-.46-.1l-.46,0c-.27,0-.4-.08-.39-.23s0-.35.08-.59a2.23,2.23,0,0,1,0-.23c0-.08,0-.16,0-.25s.06-.37.07-.47.06-.37.07-.47a3.62,3.62,0,0,1,.06-.44c0-.12,0-.2-.21-.23l-.13,0c-.19,0-.27,0-.26-.13s0-.24,0-.47a4.06,4.06,0,0,1,.07-.56,2.45,2.45,0,0,0,.06-.41q0-.1.33-.09a.54.54,0,0,0,.26,0c.14-.06.23-.26.27-.58,0-.07,0-.14,0-.21l0-.23a1.8,1.8,0,0,0,0-.22l0-.22c0-.3.06-.6.1-.89s.07-.59.09-.89,0-.38.05-.57a3.27,3.27,0,0,0,0-.54.74.74,0,0,1,0-.23c0-.1.07-.14.15-.13a1.19,1.19,0,0,1,.28.1l.33.1c.11,0,.28.05.51.07s.47.1.5.15a.94.94,0,0,1-.05.49c0,.11-.07.26-.13.45a7,7,0,0,0-.2.85c0,.09,0,.18-.06.26s0,.17,0,.26a3.84,3.84,0,0,0-.11.59c0,.2-.05.39-.08.57a2.11,2.11,0,0,0,0,.75c0,.13.08.19.16.19a2.38,2.38,0,0,1,.34,0l.44,0,.44,0,1.69.14.21,0,.22,0,.21,0h.22a1.65,1.65,0,0,1,.33.05c.06,0,.11,0,.15-.19a2.51,2.51,0,0,1,.11-.42,4.66,4.66,0,0,0,.13-.45c0-.11.06-.26.1-.46s.13-.7.24-1.15c0-.12.06-.24.08-.36l.09-.37a1.33,1.33,0,0,1,0-.19,1.94,1.94,0,0,0,.05-.2s0-.08,0-.13a.5.5,0,0,1,0-.12c.05-.21.12-.29.2-.23a1,1,0,0,0,.3.11l.15,0,.15,0,.32.08.32.09a1.32,1.32,0,0,1,.29.11.76.76,0,0,1,0,.31.85.85,0,0,1-.09.27c-.1.17-.18.32-.23.43a2.18,2.18,0,0,0-.16.44c-.07.22-.12.41-.16.57s-.09.35-.13.59a2.76,2.76,0,0,1-.08.27,2.76,2.76,0,0,0-.08.27c-.12.48-.22.95-.29,1.41,0,.25-.1.51-.17.77s-.14.52-.2.78-.13.56-.19.8a6,6,0,0,0-.13.74c0,.28-.06.5-.09.66a4.12,4.12,0,0,0,.08.92c0,.2-.13.25-.5.15a2.31,2.31,0,0,0-.61-.13H53l-.35,0Z"/><path
      class="a985854c-e8ed-48e8-a896-06e8a2494876"
      d="M60.8,143a.65.65,0,0,1,.11.12c0,.05.06.08.08.09.16.19.3.36.42.49s.25.31.42.49c.34.42.68.84,1,1.25l1,1.23c.11.14.23.27.34.39l.35.4c.16.18.3.32.41.43l.43.39c.06.08.18.21.34.39s.21.29.2.34a.64.64,0,0,1-.21.27q-.17.17-.3.33a4,4,0,0,1-.27.34c-.15.18-.24.24-.29.18a4,4,0,0,0-.3-.37c-.24-.25-.48-.52-.7-.78l-.69-.8-.54-.62-.53-.63-.79-.93q-.4-.45-.78-.93c-.18-.2-.36-.4-.55-.59s-.36-.39-.52-.59l-.28-.3a2.23,2.23,0,0,1-.26-.3c-.11-.14-.16-.14-.17,0s0,.52-.09.95c0,.22-.05.44-.07.66l-.06.65c0,.21,0,.39,0,.55s0,.33,0,.52a3,3,0,0,0,0,.32c0,.11,0,.21,0,.31,0,.52,0,.93,0,1.22s0,.56,0,.81,0,.53,0,.82a2.15,2.15,0,0,1,0,.47q0,.1-.39.15a1.93,1.93,0,0,1-.59,0,4.93,4.93,0,0,0-.57-.07c-.1,0-.14,0-.13-.16a1.3,1.3,0,0,0,0-.28,1,1,0,0,1,0-.26c0-.21.06-.41.08-.6a5.85,5.85,0,0,1,.11-.62c0-.22.06-.44.08-.66l.06-.67c0-.23,0-.46,0-.69s0-.48.06-.72c.05-.4.08-.81.1-1.23s0-.82.08-1.23.07-1,.1-1.62c0-.23,0-.45.06-.68s0-.45.07-.69,0-.61.06-.93,0-.64.07-1,0-.41,0-.61,0-.41,0-.62,0-.43,0-.62a4.62,4.62,0,0,1,.07-.6,13.61,13.61,0,0,0,.17-1.68c0-.38,0-.67,0-.86s0-.33.11-.32l.38.08a2.47,2.47,0,0,0,.82.07l.26,0H60c.21.05.21.17,0,.36a2.34,2.34,0,0,0-.16.23c-.08.12-.06.18.06.19l.18,0,.2.05.24.05.24,0c.21,0,.38.06.48.09a8.25,8.25,0,0,1,1,.35,9.27,9.27,0,0,1,.92.48,3.24,3.24,0,0,1,1.18,1.07,3.45,3.45,0,0,1,.47,1.13,6.15,6.15,0,0,1,.09,1.1,4.32,4.32,0,0,1-.09.63,3.81,3.81,0,0,1-.26.76c-.06.11-.1.21-.14.29a2.37,2.37,0,0,1-.19.31c-.27.37-.52.68-.75.94l-.22.21L63,142a4.24,4.24,0,0,1-.72.41,4.15,4.15,0,0,1-.53.2l-.54.17-.19.05-.19,0C60.72,142.85,60.71,142.89,60.8,143ZM60,135.88c-.26,0-.4,0-.4.06s0,.22-.07.47-.08.62-.11,1c0,.15,0,.3,0,.45s0,.27,0,.38c0,.27,0,.5,0,.72s0,.44,0,.69,0,.46,0,.69,0,.46,0,.69,0,.29.07.3l.46,0a3.47,3.47,0,0,0,.6,0l.56-.09.54-.12a1.89,1.89,0,0,0,.74-.34,3.2,3.2,0,0,0,.95-1.15l.1-.25a3.12,3.12,0,0,0,.1-.32,6,6,0,0,0,.08-.86,2,2,0,0,0-.13-.81,1.54,1.54,0,0,0-.4-.53,2.54,2.54,0,0,0-.77-.46q-.5-.18-.93-.3l-.64-.12Z"/><path
      class="a985854c-e8ed-48e8-a896-06e8a2494876"
      d="M69.39,144.4a3.27,3.27,0,0,1-.18.47c-.06.14-.13.3-.19.46a4.13,4.13,0,0,0-.17.45c0,.15-.09.3-.14.45s0,.14-.07.21a.89.89,0,0,0-.06.2l-.17.55c0,.17-.09.35-.13.55s-.1.45-.19.8a2.34,2.34,0,0,0,0,.26c0,.08,0,.17,0,.25a4.4,4.4,0,0,0-.1.51c0,.23,0,.4-.07.52a2.5,2.5,0,0,1,0,.29,2.33,2.33,0,0,0,0,.41c0,.14,0,.19,0,.16,0,.12,0,.18-.09.19s-.26,0-.25,0,0-.09-.14-.17a1.79,1.79,0,0,0-.7-.25c-.24,0-.36,0-.36-.07a2.2,2.2,0,0,1,.08-.41,3.45,3.45,0,0,1,.14-.45,6.42,6.42,0,0,0,.28-1c0-.22.08-.44.12-.66s.09-.44.14-.67a7.15,7.15,0,0,1,.18-.7c.08-.23.15-.46.23-.7l.15-.6c.06-.2.11-.41.16-.61l.11-.41c0-.14.07-.28.11-.42s.06-.17.1-.17l.45,0,.45.06.45.1C69.44,144,69.44,144.16,69.39,144.4Zm-.51-2.82a1.32,1.32,0,0,1-.16-.44,1,1,0,0,1,.09-.69,1.07,1.07,0,0,1,.42-.43,1.42,1.42,0,0,1,.39-.17,4,4,0,0,1,.46,0,1.23,1.23,0,0,1,.67.19.77.77,0,0,1,.24.41,1.77,1.77,0,0,1,.09.49,1.51,1.51,0,0,1-.07.46,1.31,1.31,0,0,1-.25.39,2.83,2.83,0,0,1-.34.23,1,1,0,0,1-1.11,0A1,1,0,0,1,68.88,141.58Z"/><path
      class="a985854c-e8ed-48e8-a896-06e8a2494876"
      d="M70,152c0-.13-.09-.3-.14-.52s0-.16-.08-.25a1.17,1.17,0,0,1-.07-.25c0-.17,0-.27,0-.29l.19-.06a2.37,2.37,0,0,0,.34-.08,4.15,4.15,0,0,0,.8-.23l.29-.13.32-.16a2.21,2.21,0,0,0,.79-.79l.22-.35a2,2,0,0,0,.16-.58,2.23,2.23,0,0,0-.06-1.08,3.27,3.27,0,0,0-.46-.89,3.73,3.73,0,0,1-.46-.86c-.06-.14-.14-.32-.21-.53a1.56,1.56,0,0,1-.13-.58c0-.09,0-.2,0-.31a1.81,1.81,0,0,1,0-.39,1.63,1.63,0,0,1,.09-.42l.18-.43a3.31,3.31,0,0,1,.37-.67l.27-.36a2.11,2.11,0,0,1,.29-.34,6.47,6.47,0,0,1,1-.79,3.64,3.64,0,0,1,.76-.34c.27-.09.46-.16.56-.18a4.26,4.26,0,0,1,.55-.12l.57-.1a2.52,2.52,0,0,1,.62,0A1.18,1.18,0,0,1,77,140s0,.1,0,.25-.07.24-.12.46-.06.36-.07.45a1.54,1.54,0,0,1-.08.48c0,.05-.2.05-.5,0a2.17,2.17,0,0,0-.63,0,2.1,2.1,0,0,0-.66.14,4.82,4.82,0,0,0-.53.27,1.82,1.82,0,0,0-.62.66,3.93,3.93,0,0,0-.32,1,2.39,2.39,0,0,0,0,1.16,1.6,1.6,0,0,0,.19.48c.1.16.17.29.22.39s.14.26.19.36.1.22.16.38a3.38,3.38,0,0,1,.2.79,6.87,6.87,0,0,1,0,.81,7,7,0,0,1-.23,1.39,5.78,5.78,0,0,1-.36.87,2.43,2.43,0,0,1-.86,1,1.52,1.52,0,0,1-.33.21l-.34.17a3.7,3.7,0,0,1-.71.3l-.52.16a2.58,2.58,0,0,1-.5.1l-.45.06S70,152.23,70,152Z"/><path
      class="a985854c-e8ed-48e8-a896-06e8a2494876"
      d="M75.91,154.07a6.94,6.94,0,0,1,.15-1.15,5.91,5.91,0,0,1,.13-.59c0-.18.09-.39.14-.64s.16-.84.24-1.35c.05-.35.11-.7.17-1.05s.13-.71.2-1.06c0-.12,0-.24,0-.36s0-.24.05-.36,0-.27,0-.29a.84.84,0,0,0-.3,0c-.38,0-.54-.11-.5-.26a3.93,3.93,0,0,0,.13-.73c0-.2,0-.42,0-.63s.09-.29.22-.3a1.09,1.09,0,0,1,.36.06,1.16,1.16,0,0,0,.38.06c.15,0,.22,0,.22-.06a1.07,1.07,0,0,1,.08-.26,2.45,2.45,0,0,0,.14-.58c0-.2.06-.4.1-.6s0-.44.09-.66.08-.45.13-.67c.07-.4.13-.8.19-1.21s.13-.81.19-1.22c0-.12,0-.25.08-.37s.06-.24.08-.35.06-.32.07-.35a1.46,1.46,0,0,1,.47-.05c.21,0,.42,0,.62,0a1.79,1.79,0,0,0,.57,0c.14,0,.2.06.18.29s-.09.51-.12.65c-.08.35-.15.7-.22,1.05s-.14.69-.22,1a6.92,6.92,0,0,1-.22.76c-.09.31-.16.56-.2.77s-.07.36-.11.53-.08.35-.11.54-.11.56-.13.72a1.09,1.09,0,0,0,0,.39,2.26,2.26,0,0,0,.4.07l.94.13,1,.17a2,2,0,0,1,.4.11s.05.14,0,.35a1.42,1.42,0,0,1-.09.3c0,.11-.09.24-.14.38a1,1,0,0,1-.23.48.62.62,0,0,1-.55,0,4.42,4.42,0,0,0-.61-.13l-.78-.13c-.47-.07-.71-.06-.73,0l-.18.8-.18.64q-.28.91-.39,1.44c-.08.4-.17,1.15-.29,2.23s-.17,1.73-.16,2-.16.3-.43.25a2.63,2.63,0,0,1-.55-.13,1.43,1.43,0,0,0-.54-.08c-.2,0-.28,0-.26-.15A2.21,2.21,0,0,0,75.91,154.07Z"/><path
      class="a985854c-e8ed-48e8-a896-06e8a2494876"
      d="M84.33,146.89a4.44,4.44,0,0,1-.17.48,4.68,4.68,0,0,0-.2.45c-.06.15-.12.31-.17.46s-.09.3-.13.45,0,.13-.08.21,0,.14-.06.2-.11.38-.17.55-.09.35-.13.54L83,151a1.19,1.19,0,0,0-.05.26,2.17,2.17,0,0,1,0,.25c0,.22-.08.39-.1.51s0,.4-.07.52a2.5,2.5,0,0,1,0,.29,2.33,2.33,0,0,0,0,.41c0,.13,0,.19,0,.15,0,.13,0,.19-.09.2s-.26,0-.25,0,0-.1-.14-.17a1.79,1.79,0,0,0-.7-.25,1.13,1.13,0,0,1-.36-.07,2.2,2.2,0,0,1,.08-.41,3,3,0,0,1,.15-.45,7.86,7.86,0,0,0,.27-1l.12-.66c0-.22.1-.44.14-.67a7.15,7.15,0,0,1,.18-.7c.08-.23.16-.47.23-.7s.1-.4.16-.6.1-.41.16-.61.07-.28.1-.41.07-.28.11-.42.06-.17.11-.17l.44,0,.45,0,.45.11C84.38,146.53,84.39,146.65,84.33,146.89Zm-.5-2.81a1.33,1.33,0,0,1-.17-.45,1,1,0,0,1,.09-.68,1.07,1.07,0,0,1,.42-.43,1.24,1.24,0,0,1,.4-.17l.45,0a1.15,1.15,0,0,1,.67.19.71.71,0,0,1,.24.41,1.65,1.65,0,0,1,.09.48,1.2,1.2,0,0,1-.07.46,1,1,0,0,1-.25.39,2.36,2.36,0,0,1-.33.24,1,1,0,0,1-1.12,0A.91.91,0,0,1,83.83,144.08Z"/><path
      class="a985854c-e8ed-48e8-a896-06e8a2494876"
      d="M90.14,154.37a1.84,1.84,0,0,1,0-.33,1.87,1.87,0,0,0,0-.34c0-.2-.06-.3-.14-.3l-.47,0h-.46a5,5,0,0,1-1.77-.25,4.06,4.06,0,0,1-1.14-.57,2.56,2.56,0,0,1-.9-1.14,2.35,2.35,0,0,1-.16-.8,3.22,3.22,0,0,1,0-1,3.67,3.67,0,0,1,.52-1.23,3.57,3.57,0,0,1,1.21-1.28,4.18,4.18,0,0,1,1.93-.55,3.6,3.6,0,0,1,.81.05c.26.05.53.09.82.12s.27,0,.27,0,0-.15,0-.33,0-.16,0-.24a1.9,1.9,0,0,1,0-.25c0-.19.1-.28.16-.29a2.47,2.47,0,0,1,.36,0l.56.07a3.45,3.45,0,0,1,.54.11c.15.05.22.09.21.14s0,.15,0,.3c-.17,1.07-.31,2.21-.42,3.44a13.11,13.11,0,0,1-.17,1.35,10.56,10.56,0,0,0-.12,1.36c0,.31,0,.6,0,.88s0,.57,0,.88,0,.39,0,.36a1.77,1.77,0,0,0-.47-.08,1.91,1.91,0,0,0-.48,0,3.91,3.91,0,0,1-.48,0C90.2,154.61,90.12,154.53,90.14,154.37Zm-2.55-2.83a5,5,0,0,0,1.14.22l.63.05a4.46,4.46,0,0,0,.63,0c.17,0,.27,0,.29-.07a1.49,1.49,0,0,0,.08-.34,5.4,5.4,0,0,0,.08-.58,5.54,5.54,0,0,1,.07-.57c0-.21,0-.4,0-.59s0-.37,0-.57a1.26,1.26,0,0,0,0-.48,1,1,0,0,0-.39-.22l-.54-.2a2.81,2.81,0,0,0-1.82,0,1.12,1.12,0,0,0-.35.23c-.09.1-.19.19-.29.29a1.84,1.84,0,0,0-.54,1,3.4,3.4,0,0,0-.08.73,1,1,0,0,0,.23.65A1.57,1.57,0,0,0,87.59,151.54Z"/><path
      class="a985854c-e8ed-48e8-a896-06e8a2494876"
      d="M100.55,156.79l-.33-.16-.34-.14c-.15-.07-.22-.12-.21-.18a1.07,1.07,0,0,1,.11-.22,1.23,1.23,0,0,0,.23-.66.9.9,0,0,0-.13-.39,3.07,3.07,0,0,1-.2-.36c-.06-.11-.19-.31-.38-.6s-.22-.37-.38-.68c-.08-.13-.15-.28-.23-.44l-.21-.41-.32-.55a4.51,4.51,0,0,1-.3-.58,9.93,9.93,0,0,0-.45-.92c-.14-.27-.29-.57-.45-.91a4.75,4.75,0,0,1-.22-.45c-.08-.16-.15-.32-.2-.45q-.18-.42-.39-.81c-.08-.13-.14-.1-.16.08s-.06.47-.07.52c-.07.26-.14.49-.21.71s-.15.45-.22.7-.14.4-.19.55-.11.38-.19.67c-.15.5-.29.94-.4,1.34s-.25.84-.39,1.33l-.12.38a1.63,1.63,0,0,0-.06.42,1.09,1.09,0,0,0,0,.33c0,.11,0,.14-.1.09l-.39-.16-.29-.11-.25-.07-.24-.07-.24-.05-.24-.07c-.11,0-.15-.15-.1-.35a2.44,2.44,0,0,1,.13-.44c.07-.18.13-.35.18-.5s.12-.33.19-.54.17-.51.28-.84.2-.59.28-.81.12-.38.15-.49.08-.25.13-.42.12-.35.18-.55.14-.42.22-.68a6.13,6.13,0,0,0,.18-.61c.05-.2.1-.4.17-.6.22-.76.41-1.46.56-2.09,0-.13.07-.26.11-.39s.09-.26.13-.39.19-.23.42-.19a12.64,12.64,0,0,1,1.24.27l.36.11q.09,0-.06.24a2.21,2.21,0,0,0-.21.33c-.06.1-.12.21-.2.32s-.09.22,0,.28a1.26,1.26,0,0,1,.21.32l.39.8c.14.27.28.53.43.79l.33.62c.11.21.22.41.34.6s.22.41.32.63l.31.62c.07.15.14.3.22.44s.16.29.24.42a4.64,4.64,0,0,0,.38.61,5.85,5.85,0,0,1,.37.61,2.12,2.12,0,0,0,.21.36,1.46,1.46,0,0,1,.2.37c0,.14.08.24.1.31s.1,0,.22-.12l.17-.27a2.17,2.17,0,0,0,.17-.31l.54-1q.28-.48.54-1c.13-.27.26-.54.4-.81l.42-.8c.15-.31.31-.6.48-.88s.32-.57.47-.88l.59-1.42c0-.12.08-.21.11-.26s.11-.09.26-.06a4.42,4.42,0,0,1,.67.3,4.53,4.53,0,0,1,.59.31q.17.15.12.21l-.12.16c-.15.21-.33.5-.56.86,0,.07-.14.28-.33.64l-.36.68q-.21.44-.45.87l-.45.86c-.18.32-.35.65-.52,1s-.33.64-.48,1-.18.39-.27.57-.18.36-.28.54-.23.38-.38.6a1.51,1.51,0,0,0-.25.63.43.43,0,0,0,.09.36,2.34,2.34,0,0,1,.24.31,1.06,1.06,0,0,1,.12.26s-.09.06-.25.14a.85.85,0,0,0-.39.36.51.51,0,0,1-.38.28c-.15,0-.21.07-.19.13s0,.12-.1.15a.39.39,0,0,1-.38,0Z"/><path
      class="a985854c-e8ed-48e8-a896-06e8a2494876"
      d="M114.69,153.29l.09.13a.25.25,0,0,0,.07.09c.25.37.5.73.72,1.07l.91,1.34c.3.45.6.89.91,1.33a4.84,4.84,0,0,0,.3.44l.31.43a4.3,4.3,0,0,0,.37.46c.1.12.23.26.37.44s.22.31.3.42a.73.73,0,0,1,.16.37c0,.05-.09.13-.23.24l-.33.3-.31.31q-.24.24-.3.15a3.68,3.68,0,0,0-.27-.41c-.21-.28-.42-.56-.61-.85s-.39-.58-.6-.86l-.47-.67-.47-.7c-.23-.32-.46-.66-.69-1s-.45-.67-.68-1l-.48-.64c-.16-.21-.31-.42-.46-.64s-.18-.25-.24-.33a1.81,1.81,0,0,1-.23-.33c-.1-.13-.15-.14-.17,0s-.09.54-.19.95c0,.21-.09.43-.14.64l-.12.64c0,.21-.08.39-.11.55s-.06.33-.09.52a2.53,2.53,0,0,0,0,.3c0,.11,0,.22,0,.31s-.06.41-.08.61-.05.41-.08.61-.07.55-.09.8,0,.52-.07.81a2.09,2.09,0,0,1-.09.46c0,.08-.17.11-.41.11a2.1,2.1,0,0,1-.58-.07,3.06,3.06,0,0,0-.56-.13c-.09,0-.13-.07-.11-.16A2.2,2.2,0,0,0,110,160a.84.84,0,0,1,.06-.26,4.85,4.85,0,0,0,.14-.58c0-.18.1-.39.17-.61a4.28,4.28,0,0,0,.16-.64c0-.23.08-.45.12-.66s.07-.47.11-.7.08-.46.14-.69c.08-.39.16-.8.23-1.21s.13-.82.21-1.23.09-.54.13-.8.09-.52.13-.8.09-.44.13-.66.1-.45.14-.69.1-.61.16-.92.11-.63.17-.94.07-.4.1-.6.07-.41.11-.62.07-.43.1-.61.08-.38.14-.59c.13-.52.25-1.07.34-1.65.07-.38.11-.67.13-.85s.06-.33.13-.31a2.08,2.08,0,0,1,.38.12,2.48,2.48,0,0,0,.81.15l.5,0c.19.07.19.2,0,.37a1.52,1.52,0,0,0-.19.21c-.09.11-.08.17,0,.19a.7.7,0,0,1,.19.06l.19.07.23.07.23.07.47.14a7,7,0,0,1,1,.45,10,10,0,0,1,.87.57,3.59,3.59,0,0,1,1.06,1.2,3.09,3.09,0,0,1,.35,1.16,6.47,6.47,0,0,1,0,1.11,3.86,3.86,0,0,1-.15.61,2.29,2.29,0,0,1-.15.38c0,.09-.11.21-.2.36a3.87,3.87,0,0,1-.39.56,9.39,9.39,0,0,1-.83.85,5.43,5.43,0,0,1-.56.4,3.35,3.35,0,0,1-.75.35c-.17,0-.35.1-.55.14l-.54.11-.21,0-.19,0C114.6,153.17,114.59,153.21,114.69,153.29Zm0-7.12c-.26,0-.4,0-.41,0s0,.22-.12.46-.12.52-.2,1-.13.66-.16.82-.09.49-.12.7-.07.44-.11.69-.08.46-.11.69l-.09.68c0,.18,0,.28.05.29a3,3,0,0,0,.44.07,3.3,3.3,0,0,0,.61,0l.56,0a2.15,2.15,0,0,0,.54-.09l.4-.08a1.12,1.12,0,0,0,.37-.16,3.31,3.31,0,0,0,1.08-1.06,4.12,4.12,0,0,0,.25-.54,4.35,4.35,0,0,0,.18-.85,2.06,2.06,0,0,0,0-.82,1.67,1.67,0,0,0-.34-.56,2.76,2.76,0,0,0-.72-.55l-.44-.2-.46-.18a6.33,6.33,0,0,0-.62-.18Z"/><path
      class="a985854c-e8ed-48e8-a896-06e8a2494876"
      d="M120.81,153.27a3.55,3.55,0,0,1,.34-.75c.15-.25.27-.45.37-.58s.26-.36.4-.53a4,4,0,0,1,.42-.47,3.2,3.2,0,0,1,.72-.52,3.24,3.24,0,0,1,.78-.25l.48-.08h.58a6.44,6.44,0,0,1,1.57.34,3.21,3.21,0,0,1,1.52,1l.39.52a5.45,5.45,0,0,1,.3.7,3.26,3.26,0,0,1,.15.81c0,.27,0,.56,0,.86a2.79,2.79,0,0,1-.09.63c-.05.23-.12.46-.19.69a4.27,4.27,0,0,1-.27.67,3.66,3.66,0,0,1-.6.85,4.15,4.15,0,0,1-.85.68,5.36,5.36,0,0,1-1.14.49,2.43,2.43,0,0,1-.62.12,4.57,4.57,0,0,1-.71,0,4.78,4.78,0,0,1-1-.14,3.52,3.52,0,0,1-.7-.28,1.79,1.79,0,0,1-.45-.27l-.42-.32a3.2,3.2,0,0,1-.75-.84,2.59,2.59,0,0,1-.31-.81,4.67,4.67,0,0,1-.17-1.29A4.59,4.59,0,0,1,120.81,153.27Zm1.57,1.17a1,1,0,0,0,0,.43q0,.24.06.39t.12.48a1.47,1.47,0,0,0,.59.74,2.08,2.08,0,0,0,.7.34,2.27,2.27,0,0,0,.53.12,2,2,0,0,0,.65,0,1.6,1.6,0,0,0,.57-.19,2.84,2.84,0,0,0,.43-.31l.38-.35a3.05,3.05,0,0,0,.26-.32c.11-.15.19-.26.23-.33a4.77,4.77,0,0,0,.25-.54,2,2,0,0,0,.14-.56,4.58,4.58,0,0,0-.08-1,2,2,0,0,0-.23-.52,2.32,2.32,0,0,0-.46-.52,3,3,0,0,0-.77-.42,1.7,1.7,0,0,0-.85-.13,3.36,3.36,0,0,0-1.08.39,3.28,3.28,0,0,0-.8.6,2.41,2.41,0,0,0-.36.51A3.56,3.56,0,0,0,122.38,154.44Z"/><path
      class="a985854c-e8ed-48e8-a896-06e8a2494876"
      d="M136.58,162.81l-.33-.15-.34-.15c-.15-.06-.22-.12-.21-.17a.73.73,0,0,1,.11-.22,1.26,1.26,0,0,0,.23-.67.86.86,0,0,0-.13-.38c-.07-.12-.14-.24-.2-.37l-.38-.6a7.32,7.32,0,0,1-.38-.68,4.42,4.42,0,0,1-.23-.44c-.08-.16-.15-.3-.21-.4l-.33-.55c-.1-.19-.2-.38-.29-.59s-.3-.65-.45-.92l-.45-.9c-.07-.14-.15-.29-.22-.45s-.15-.32-.2-.46-.25-.55-.39-.81-.14-.1-.16.08-.06.47-.07.53c-.07.25-.14.49-.21.7s-.15.46-.22.7l-.19.55c0,.17-.11.39-.19.67-.15.5-.29,1-.4,1.34s-.24.84-.39,1.34l-.12.37a1.7,1.7,0,0,0-.06.42,1.15,1.15,0,0,0,0,.34c0,.1,0,.13-.1.09l-.39-.16-.29-.12-.25-.07-.24-.07-.24-.05a1.09,1.09,0,0,1-.24-.07c-.11,0-.15-.15-.11-.34a3.22,3.22,0,0,1,.14-.44l.18-.51c.06-.15.12-.33.19-.54l.28-.83c.11-.33.2-.6.28-.82s.12-.38.15-.49.08-.25.13-.41.12-.36.18-.56.14-.42.22-.68.13-.4.18-.6a6.09,6.09,0,0,1,.17-.61c.22-.76.41-1.45.56-2.08,0-.13.07-.26.11-.4s.09-.26.13-.38.19-.24.42-.2.74.15,1.24.27l.36.11q.09,0-.06.24a2.21,2.21,0,0,0-.21.33c-.06.1-.12.21-.2.33s-.09.21,0,.28a1,1,0,0,1,.21.31l.39.81.43.79.33.61c.11.21.22.41.34.61s.22.4.32.62l.31.63c.07.14.14.29.22.43s.16.29.24.42a4.64,4.64,0,0,0,.38.61,5.06,5.06,0,0,1,.37.62,2.5,2.5,0,0,0,.21.35,1.46,1.46,0,0,1,.2.37c0,.14.08.25.1.31s.1,0,.22-.12l.17-.27a3.5,3.5,0,0,0,.18-.31c.17-.34.35-.67.53-1s.37-.66.54-1l.4-.81.42-.8c.15-.3.31-.6.48-.88s.32-.57.47-.88.35-.84.59-1.41a1.51,1.51,0,0,1,.11-.26c0-.08.11-.1.26-.07a5.84,5.84,0,0,1,.67.3,6.53,6.53,0,0,1,.59.31c.11.1.15.17.12.22l-.12.15c-.15.21-.33.5-.56.87l-.33.63-.36.68q-.21.44-.45.87l-.45.86c-.18.32-.35.65-.52,1s-.33.64-.48,1-.18.39-.27.57l-.28.55c-.11.18-.23.37-.38.59a1.51,1.51,0,0,0-.25.63.43.43,0,0,0,.09.37,1.76,1.76,0,0,1,.24.3c.09.15.13.24.12.26s-.09.07-.25.14a.87.87,0,0,0-.39.37.5.5,0,0,1-.38.27c-.15,0-.21.07-.19.14s0,.11-.1.14a.39.39,0,0,1-.38,0Z"/><path
      class="a985854c-e8ed-48e8-a896-06e8a2494876"
      d="M146.88,165.28l-.35-.1-.44-.13c-.14-.05-.29-.1-.42-.16l-.57-.23a2.78,2.78,0,0,1-.51-.31,4.76,4.76,0,0,1-.65-.51,3.73,3.73,0,0,1-.67-.79,4.65,4.65,0,0,1-.42-.66l-.23-.48a4.25,4.25,0,0,1-.21-.49,3,3,0,0,1-.23-.84,5.3,5.3,0,0,1,0-1.37,4.38,4.38,0,0,1,.23-.84,4.79,4.79,0,0,1,.39-.72,7.25,7.25,0,0,1,.51-.77l.32-.4a3.33,3.33,0,0,1,.36-.39,4.48,4.48,0,0,1,1-.65,8.07,8.07,0,0,1,2-.68c.27,0,.59-.1,1-.14l.3,0s.06.09.08.27a8.12,8.12,0,0,1,0,.85,2.57,2.57,0,0,0,0,.45c0,.09-.09.13-.31.11a9.34,9.34,0,0,0-1.25,0,3.47,3.47,0,0,0-1,.28,3.73,3.73,0,0,0-.74.51,3.94,3.94,0,0,0-.56.59c-.11.15-.22.28-.3.4a1.66,1.66,0,0,0-.24.42,2.51,2.51,0,0,0-.21.92,4.27,4.27,0,0,0,.1,1.27,4.92,4.92,0,0,0,.41,1.14,1.94,1.94,0,0,0,.47.54q.31.25.6.45a4.44,4.44,0,0,0,.79.43l.51.23a4.87,4.87,0,0,0,.53.21c.31.11.46.2.46.26s-.06.25-.15.57l-.06.22-.06.21a3.48,3.48,0,0,0-.12.39S147.11,165.35,146.88,165.28Z"/><path
      class="a985854c-e8ed-48e8-a896-06e8a2494876"
      d="M149.35,165a2.44,2.44,0,0,1,0-.54c0-.18,0-.36.05-.54a3.41,3.41,0,0,1,.07-.58c0-.17.06-.37.08-.61.06-.54.09-1,.11-1.26s0-.67.07-1,.07-.67.1-1c0-.11,0-.23,0-.34s0-.23,0-.34,0-.26,0-.27a.87.87,0,0,0-.28,0c-.35,0-.52-.07-.49-.21a4.07,4.07,0,0,0,.07-.69V157c0-.18.05-.28.17-.3a1,1,0,0,1,.34,0,2.07,2.07,0,0,0,.35,0c.13,0,.22-.1.27-.31a10.85,10.85,0,0,0,.12-1.13q0-.63.09-1.26c0-.21,0-.42.07-.63s.05-.41.08-.62,0-.31,0-.39-.09-.14-.28-.17-.41-.15-.37-.33,0-.35.06-.49,0-.3.07-.49,0-.33.08-.33l.42.06.7.11.71.1c.5.08,1.08.15,1.75.22l.82.09.82.11c.55.08,1.09.17,1.63.27l.37.08s0,.13,0,.35a3.37,3.37,0,0,1-.12.48,1.46,1.46,0,0,0-.08.43c0,.21-.13.3-.34.29s-.25,0-.55-.08l-.45-.07-.45-.09-.58-.1-.39-.07-.39-.07-.53-.08a4.34,4.34,0,0,0-.52-.09l-.44-.05c-.15,0-.24,0-.25.09a4.29,4.29,0,0,0-.13.6c0,.2-.05.41-.08.61s-.07.37-.11.55-.06.36-.08.54-.05.34-.07.5a3.92,3.92,0,0,0-.06.52l0,.34a1.94,1.94,0,0,0,0,.34,1.06,1.06,0,0,0,0,.37,1.28,1.28,0,0,0,.38,0,4.67,4.67,0,0,1,.83.08l.84.14.77.12.75.1c.22,0,.44.07.67.09l.67.07.67.07.68.06.39,0s.06.1,0,.29a1.28,1.28,0,0,1-.07.3,2.45,2.45,0,0,0-.08.36c-.08.43-.3.61-.68.55l-.93-.15-.61-.08-.59-.07-.9-.11-.88-.11-.77-.08-.75-.07c-.44,0-.66,0-.68.07l-.09.72a3.21,3.21,0,0,1-.08.36,2.37,2.37,0,0,0-.08.31c-.05.25-.08.48-.11.71s-.06.44-.1.66a3,3,0,0,0,0,.6v.56a1.34,1.34,0,0,1,0,.21v.2c0,.2,0,.34,0,.4s.11.1.32.11h.67l.72,0,.69,0,.69,0c.26,0,.4,0,.43.1a1.05,1.05,0,0,1-.05.41,1.36,1.36,0,0,0,0,.82c.07.19,0,.26-.18.23a3.72,3.72,0,0,0-.46-.07l-.56,0a2.54,2.54,0,0,0-.55,0l-1.12.06a3.13,3.13,0,0,1-.46,0c-.14,0-.19.07-.17.29s-.12.29-.38.27a2.28,2.28,0,0,1-.52-.08,1.37,1.37,0,0,0-.51,0c-.19,0-.27,0-.26-.13A1.66,1.66,0,0,0,149.35,165Z"/><path
      class="a985854c-e8ed-48e8-a896-06e8a2494876"
      d="M163.29,166.59a1.82,1.82,0,0,1,0-.32,2,2,0,0,0,0-.34c0-.2-.06-.3-.14-.3l-.47,0h-.46a4.81,4.81,0,0,1-1.77-.24,4.35,4.35,0,0,1-1.14-.57,2.56,2.56,0,0,1-.9-1.14,2.35,2.35,0,0,1-.16-.8,3.22,3.22,0,0,1,0-1,3.47,3.47,0,0,1,.52-1.23,3.57,3.57,0,0,1,1.21-1.28,4.07,4.07,0,0,1,1.93-.55,3.6,3.6,0,0,1,.81,0c.26.05.53.09.82.12s.27,0,.27,0,0-.14,0-.32,0-.16,0-.24a1,1,0,0,1,0-.25c.05-.19.1-.28.16-.29a1.55,1.55,0,0,1,.36,0l.55.07a2.55,2.55,0,0,1,.55.11c.15,0,.22.09.21.14s0,.14,0,.29q-.26,1.6-.42,3.45a13.11,13.11,0,0,1-.17,1.35,9,9,0,0,0-.12,1.35c0,.32,0,.61,0,.89s0,.57,0,.88,0,.39,0,.36a1.2,1.2,0,0,0-.47-.08,2,2,0,0,0-.49,0,3.56,3.56,0,0,1-.47.05C163.34,166.83,163.26,166.76,163.29,166.59Zm-2.55-2.82a5,5,0,0,0,1.14.22l.62,0a4.58,4.58,0,0,0,.64,0c.17,0,.27,0,.29-.08a1.35,1.35,0,0,0,.08-.33,5.41,5.41,0,0,0,.07-.58c0-.19,0-.39.08-.57s0-.41.05-.59a3.82,3.82,0,0,1,0-.57,1.34,1.34,0,0,0,0-.49,1.36,1.36,0,0,0-.39-.22l-.54-.19a2.25,2.25,0,0,0-.56-.12,2.77,2.77,0,0,0-1.26.14,1.35,1.35,0,0,0-.35.24c-.09.1-.19.19-.29.29a1.84,1.84,0,0,0-.54,1,3.4,3.4,0,0,0-.08.73,1,1,0,0,0,.23.65A1.65,1.65,0,0,0,160.74,163.77Z"/><path class="a7ca9a1f-b49b-4a89-a49b-c9793f61402b" d="M23.09,26.23h4.07c3.05,0,4.56,1.52,4.56,4.88v1.18c0,3.13-1,5.31-4.72,5.31H25.74V46H23.09Zm2.65,9.18h1c2,0,2.36-1.22,2.36-3.2v-1c0-1.51-.29-2.78-2.13-2.78H25.74Z"/><path class="a7ca9a1f-b49b-4a89-a49b-c9793f61402b" d="M33.69,46V25.36h2.64V46Z"/><path
      class="a7ca9a1f-b49b-4a89-a49b-c9793f61402b"
      d="M46.34,43.05c0,1,0,2.39.06,2.91H44c-.07-.32-.16-.93-.18-1.16a2.52,2.52,0,0,1-2.49,1.4c-2.25,0-3.15-2.05-3.15-4.36v-.27c0-3.61,2.36-4.7,5.08-4.7h.48V34.74c0-1.27-.18-2-1.21-2s-1.27.78-1.27,1.83v.31H38.62v-.27c0-2.17.84-4.05,4-4.05,2.81,0,3.75,1.63,3.75,4Zm-2.58-4.14h-.6c-1.52,0-2.48.61-2.48,2.62v.25c0,1.19.4,2.09,1.45,2.09s1.63-.87,1.63-3Z"/><path
      class="a7ca9a1f-b49b-4a89-a49b-c9793f61402b"
      d="M57.08,45.33c0,3.25-.34,6-4.44,6-3.43,0-4-2.21-4-3.88v-.07h2.65v.08a1.49,1.49,0,0,0,1.52,1.66c1.38,0,1.65-1,1.65-3.07V44.24a2.49,2.49,0,0,1-2.53,1.47c-2.58,0-3.3-2-3.3-4.71V35.11c0-2.32.93-4.57,3.62-4.57a2.28,2.28,0,0,1,2.49,1.57,9.21,9.21,0,0,1,.13-1.34h2.3c0,.9-.06,2.2-.06,3.88ZM51.25,35.27V40.8c0,1.71.42,2.56,1.47,2.56,1.48,0,1.72-1.31,1.72-3.25V35.65c0-1.48-.15-2.72-1.54-2.72C51.79,32.93,51.25,33.69,51.25,35.27Z"/><path class="a7ca9a1f-b49b-4a89-a49b-c9793f61402b" d="M68,41.66c0,2.12,0,3.53,0,4.3H65.5a12.38,12.38,0,0,1-.1-1.5,2.63,2.63,0,0,1-2.79,1.74c-1.35,0-3-.6-3-3.93V30.77h2.65V41.59c0,1.56.44,2.23,1.43,2.23s1.65-.63,1.65-3V30.77H68Z"/><path
      class="a7ca9a1f-b49b-4a89-a49b-c9793f61402b"
      d="M72.8,39v2.33c0,1.32.28,2.6,1.58,2.6s1.5-1.12,1.5-2.36V41.5h2.58v.08c0,1.66-.37,4.62-4,4.62s-4.2-2.27-4.2-5.34V35.6c0-2.17.71-5.06,4.21-5.06,3.11,0,4.08,2.18,4.08,5V39ZM76,36.92v-1.7c0-1.41-.29-2.43-1.55-2.43s-1.6.89-1.6,2.44v1.69Z"/><path
      class="a7ca9a1f-b49b-4a89-a49b-c9793f61402b"
      d="M86.82,17.4v.35c0,1.13-.19,2.57-2.07,2.57-1.71,0-2-1.13-2-2.55V13c0-1.49.66-2.4,2.06-2.4,1.69,0,2,1.16,2,2.44v.4H85.5V12.9c0-.68-.13-1.15-.74-1.15s-.76.43-.76,1.16v5c0,.76.16,1.3.78,1.3s.76-.51.76-1.29V17.4Z"/><path class="a7ca9a1f-b49b-4a89-a49b-c9793f61402b" d="M91.73,18.12c0,1,0,1.7,0,2.06H90.53a6.56,6.56,0,0,1,0-.71,1.25,1.25,0,0,1-1.33.83c-.65,0-1.44-.29-1.44-1.88V12.91H89v5.18c0,.75.21,1.07.69,1.07s.79-.31.79-1.44V12.91h1.27Z"/><path class="a7ca9a1f-b49b-4a89-a49b-c9793f61402b" d="M93,15.38c0-1.2,0-1.77,0-2.47h1.2c0,.16,0,.72,0,1.16A1.57,1.57,0,0,1,95.8,12.8v1.57c-.85,0-1.53.34-1.53,1.76v4.05H93Z"/><path
      class="a7ca9a1f-b49b-4a89-a49b-c9793f61402b"
      d="M100.12,18.79c0,.47,0,1.14,0,1.39H99c0-.15-.08-.44-.09-.55a1.21,1.21,0,0,1-1.19.67c-1.08,0-1.51-1-1.51-2.09v-.13c0-1.73,1.13-2.25,2.44-2.25h.22v-1c0-.61-.08-1-.58-1s-.61.37-.61.87v.15H96.42v-.13a1.7,1.7,0,0,1,1.9-1.94c1.34,0,1.8.79,1.8,1.92Zm-1.24-2h-.29c-.73,0-1.19.29-1.19,1.25v.12c0,.57.19,1,.7,1s.78-.42.78-1.44Z"/><path class="a7ca9a1f-b49b-4a89-a49b-c9793f61402b" d="M100.73,12.91h.8V11.14h1.27v1.77h1V14h-1v4.55c0,.36,0,.67.5.67a1.73,1.73,0,0,0,.42,0v1a2.37,2.37,0,0,1-.85.13c-.82,0-1.34-.29-1.34-1.49V14h-.8Z"/><path
      class="a7ca9a1f-b49b-4a89-a49b-c9793f61402b"
      d="M105.51,16.86V18c0,.63.14,1.24.76,1.24s.72-.54.72-1.13V18h1.24v0c0,.8-.18,2.22-1.94,2.22s-2-1.09-2-2.56V15.22c0-1,.34-2.43,2-2.43,1.5,0,2,1.05,2,2.42v1.65Zm1.52-1V15c0-.68-.13-1.17-.74-1.17s-.77.43-.77,1.17v.81Z"/><path
      class="a7ca9a1f-b49b-4a89-a49b-c9793f61402b"
      d="M113.2,10.31v7.91c0,1,0,1.56,0,2H112a5.76,5.76,0,0,1-.05-.7,1.27,1.27,0,0,1-1.28.82c-1.27,0-1.55-1-1.55-2.42V15c0-1.27.5-2.18,1.66-2.18a1.25,1.25,0,0,1,1.15.53v-3Zm-2.79,4.74V18c0,.78.19,1.19.72,1.19s.81-.61.81-1.51V15.33c0-.79-.08-1.39-.79-1.39C110.61,13.94,110.41,14.37,110.41,15.05Z"/><path
      class="a7ca9a1f-b49b-4a89-a49b-c9793f61402b"
      d="M116.35,10.31h1.27v3.23a1.34,1.34,0,0,1,1.29-.75c1.07,0,1.51.87,1.51,2.16v2.64c0,1.59-.3,2.7-1.68,2.7a1.17,1.17,0,0,1-1.2-.77,5.58,5.58,0,0,1-.05.66h-1.15c0-.46,0-1.1,0-1.89Zm2.8,7.51V15.15c0-.74-.15-1.21-.71-1.21s-.83.6-.83,1.5v2.34c0,.93.23,1.36.79,1.36S119.15,18.73,119.15,17.82Z"/><path class="a7ca9a1f-b49b-4a89-a49b-c9793f61402b" d="M122.3,12.91c.42,2.49.83,4.83.89,5.73h0c.14-1.22.51-3,1-5.73h1.27l-1.62,7.64c-.45,2.07-1.15,2.18-2,2.18a3.62,3.62,0,0,1-.62-.06l0-1.14a2.53,2.53,0,0,0,.42,0c.48,0,.72-.19.88-1.11l-1.63-7.55Z"/><path
      class="a7ca9a1f-b49b-4a89-a49b-c9793f61402b"
      d="M66.43,190.79v.35c0,1.13-.2,2.57-2.07,2.57-1.71,0-2-1.13-2-2.55v-4.78c0-1.49.66-2.4,2.06-2.4,1.69,0,2,1.16,2,2.44v.4H65.11v-.53c0-.68-.13-1.15-.74-1.15s-.76.43-.76,1.16v5c0,.76.16,1.3.78,1.3s.75-.51.75-1.29v-.48Z"/><path class="a7ca9a1f-b49b-4a89-a49b-c9793f61402b" d="M67.31,188.76c0-1.19,0-1.76,0-2.47h1.2c0,.17,0,.73,0,1.17a1.57,1.57,0,0,1,1.57-1.27v1.56c-.86,0-1.53.35-1.53,1.76v4.06H67.31Z"/><path
      class="a7ca9a1f-b49b-4a89-a49b-c9793f61402b"
      d="M71.93,190.25v1.11c0,.63.14,1.25.76,1.25s.72-.54.72-1.13v0h1.23v0c0,.8-.17,2.22-1.93,2.22s-2-1.09-2-2.56v-2.52c0-1.05.35-2.43,2-2.43,1.49,0,2,1,2,2.42v1.65Zm1.52-1v-.82c0-.67-.14-1.16-.74-1.16s-.77.43-.77,1.17v.81Z"/><path
      class="a7ca9a1f-b49b-4a89-a49b-c9793f61402b"
      d="M79.3,192.18c0,.47,0,1.14,0,1.39H78.16c0-.15-.07-.44-.08-.56a1.22,1.22,0,0,1-1.2.68c-1.08,0-1.51-1-1.51-2.09v-.13c0-1.73,1.13-2.25,2.44-2.25H78v-1c0-.6-.09-1-.58-1s-.61.37-.61.87v.15H75.6v-.13a1.7,1.7,0,0,1,1.9-1.94c1.35,0,1.8.78,1.8,1.92Zm-1.24-2h-.29c-.73,0-1.19.29-1.19,1.26v.12c0,.57.2,1,.7,1s.78-.42.78-1.44Z"/><path class="a7ca9a1f-b49b-4a89-a49b-c9793f61402b" d="M79.92,186.29h.79v-1.76H82v1.76h1v1.12H82V192c0,.35,0,.66.5.66a1.76,1.76,0,0,0,.42,0v1a2.35,2.35,0,0,1-.84.13c-.83,0-1.35-.3-1.35-1.49v-4.78h-.79Z"/><path class="a7ca9a1f-b49b-4a89-a49b-c9793f61402b" d="M83.7,186.29H85v7.28H83.7Zm0-2.59H85v1.52H83.71Z"/><path class="a7ca9a1f-b49b-4a89-a49b-c9793f61402b" d="M87.07,186.29c.22,1.35.74,4.35.91,5.86h0c.12-1.42.73-4.43,1-5.86h1.27l-1.56,7.28H87.23l-1.52-7.28Z"/><path
      class="a7ca9a1f-b49b-4a89-a49b-c9793f61402b"
      d="M92,190.25v1.11c0,.63.13,1.25.75,1.25s.72-.54.72-1.13v0h1.24v0c0,.8-.18,2.22-1.94,2.22s-2-1.09-2-2.56v-2.52c0-1.05.34-2.43,2-2.43,1.49,0,1.95,1,1.95,2.42v1.65Zm1.52-1v-.82c0-.67-.14-1.16-.75-1.16s-.76.43-.76,1.17v.81Z"/><path class="a7ca9a1f-b49b-4a89-a49b-c9793f61402b" d="M97.65,184.11h1.89c2,0,2.41,1.14,2.41,2.79v3.67c0,1.45-.23,3-2.44,3H97.65Zm1.26,8.38h.52c1,0,1.23-.63,1.23-1.72v-4c0-1-.17-1.57-1.24-1.57h-.51Z"/><path class="a7ca9a1f-b49b-4a89-a49b-c9793f61402b" d="M103.11,186.29h1.27v7.28h-1.27Zm0-2.59h1.27v1.52h-1.27Z"/><path class="a7ca9a1f-b49b-4a89-a49b-c9793f61402b" d="M105.66,188.76c0-1.19,0-1.76,0-2.47h1.2c0,.17,0,.73,0,1.17a1.57,1.57,0,0,1,1.57-1.27v1.56c-.85,0-1.53.35-1.53,1.76v4.06h-1.27Z"/><path
      class="a7ca9a1f-b49b-4a89-a49b-c9793f61402b"
      d="M110.28,190.25v1.11c0,.63.14,1.25.76,1.25s.72-.54.72-1.13v0H113v0c0,.8-.18,2.22-1.94,2.22s-2-1.09-2-2.56v-2.52c0-1.05.35-2.43,2-2.43,1.49,0,2,1,2,2.42v1.65Zm1.52-1v-.82c0-.67-.14-1.16-.74-1.16s-.77.43-.77,1.17v.81Z"/><path
      class="a7ca9a1f-b49b-4a89-a49b-c9793f61402b"
      d="M117.73,191.2v.1c0,1.29-.32,2.39-1.93,2.39s-1.9-1.07-1.9-2.56v-2.64c0-1.2.42-2.31,2-2.31s1.87,1.21,1.87,2.14v.28h-1.25v-.28c0-.61-.1-1.06-.64-1.06s-.66.37-.66,1.09v3.14c0,.57.1,1.12.65,1.12s.65-.38.65-1.11v-.3Z"/><path class="a7ca9a1f-b49b-4a89-a49b-c9793f61402b" d="M118.27,186.29h.8v-1.76h1.26v1.76h1v1.12h-1V192c0,.35,0,.66.5.66a1.76,1.76,0,0,0,.42,0v1a2.35,2.35,0,0,1-.84.13c-.83,0-1.34-.3-1.34-1.49v-4.78h-.8Z"/><path class="a7ca9a1f-b49b-4a89-a49b-c9793f61402b" d="M122.05,186.29h1.27v7.28h-1.27Zm0-2.59h1.27v1.52h-1.27Z"/><path
      class="a7ca9a1f-b49b-4a89-a49b-c9793f61402b"
      d="M128.47,188.46v2.9c0,1.57-.76,2.33-2,2.33s-2-.77-2-2.31v-3a2,2,0,0,1,2.06-2.23C127.74,186.18,128.47,187,128.47,188.46Zm-2.8-.06v3c0,.68.22,1.14.77,1.14s.76-.37.76-1.16v-3c0-.63-.19-1.08-.76-1.08S125.67,187.69,125.67,188.4Z"/><path class="a7ca9a1f-b49b-4a89-a49b-c9793f61402b" d="M129.53,188.53c0-1.47,0-1.89,0-2.24h1.21a6.16,6.16,0,0,1,.05.69,1.34,1.34,0,0,1,1.34-.8c.84,0,1.47.5,1.47,1.86v5.53h-1.27v-5.28c0-.68-.23-1-.69-1s-.83.28-.83,1.43v4.81h-1.27Z"/><path
      class="a7ca9a1f-b49b-4a89-a49b-c9793f61402b"
      d="M136.74,183.7H138v3.23a1.35,1.35,0,0,1,1.3-.75c1.06,0,1.5.87,1.5,2.16V191c0,1.59-.29,2.7-1.67,2.7a1.19,1.19,0,0,1-1.21-.77,5.58,5.58,0,0,1-.05.66h-1.15c0-.46,0-1.11,0-1.89Zm2.8,7.51v-2.67c0-.75-.14-1.21-.7-1.21s-.83.59-.83,1.5v2.34c0,.93.22,1.36.78,1.36S139.54,192.12,139.54,191.21Z"/><path class="a7ca9a1f-b49b-4a89-a49b-c9793f61402b" d="M142.69,186.29c.43,2.5.83,4.84.89,5.74h0c.13-1.22.5-3,1-5.74h1.27l-1.63,7.65c-.45,2.06-1.14,2.18-2,2.18a3.6,3.6,0,0,1-.61-.06v-1.14a2.66,2.66,0,0,0,.42,0c.49,0,.72-.19.88-1.11l-1.63-7.56Z"/><path class="a7ca9a1f-b49b-4a89-a49b-c9793f61402b" d="M121.68,61.18h3.95c4.22,0,5,2.36,5,5.8v7.67c0,3-.49,6.26-5.09,6.26h-3.89Zm2.64,17.46h1.07c2.16,0,2.58-1.31,2.58-3.58V66.74c0-2-.36-3.27-2.58-3.27h-1.07Z"/><path class="a7ca9a1f-b49b-4a89-a49b-c9793f61402b" d="M135.83,60.31V67a2.88,2.88,0,0,1,2.81-1.54c2.3,0,3,1.73,3,3.91V80.91H139V70.09c0-1.18-.21-2.21-1.45-2.21s-1.72,1-1.72,2.9V80.91h-2.64V60.31Z"/><path
      class="a7ca9a1f-b49b-4a89-a49b-c9793f61402b"
      d="M151.75,78c0,1,0,2.39.06,2.91h-2.43c-.07-.32-.16-.93-.18-1.16a2.54,2.54,0,0,1-2.5,1.4c-2.24,0-3.15-2.05-3.15-4.36v-.27c0-3.61,2.36-4.7,5.09-4.7h.47V69.69c0-1.27-.18-2-1.21-2s-1.27.78-1.27,1.83v.31H144v-.27c0-2.16.84-4.05,4-4.05,2.82,0,3.76,1.63,3.76,4Zm-2.59-4.14h-.6c-1.52,0-2.48.61-2.48,2.63v.24c0,1.19.41,2.09,1.45,2.09s1.63-.87,1.63-3Z"/><path class="a7ca9a1f-b49b-4a89-a49b-c9793f61402b" d="M154.42,70.88c0-2.49,0-3.69,0-5.15h2.52c0,.33.08,1.52.08,2.42a3.27,3.27,0,0,1,3.28-2.64v3.26c-1.79,0-3.2.72-3.2,3.68v8.46h-2.65Z"/><path
      class="a7ca9a1f-b49b-4a89-a49b-c9793f61402b"
      d="M161.75,70.12c0-2.91,0-3.69,0-4.39h2.52a9.8,9.8,0,0,1,.1,1.37A2.76,2.76,0,0,1,167,65.49a2.25,2.25,0,0,1,2.4,1.69,3.07,3.07,0,0,1,2.87-1.69c1.58,0,2.94.76,2.94,3.71V80.91h-2.64V69.71c0-1.12-.26-1.83-1.25-1.83-1.22,0-1.5,1-1.5,2.56V80.91h-2.66V69.8c0-1.49-.42-1.92-1.27-1.92-1.21,0-1.48,1-1.48,2.59V80.91h-2.64Z"/><path
      class="a7ca9a1f-b49b-4a89-a49b-c9793f61402b"
      d="M185.3,78c0,1,0,2.39.06,2.91h-2.43c-.07-.32-.16-.93-.18-1.16a2.52,2.52,0,0,1-2.5,1.4c-2.24,0-3.14-2.05-3.14-4.36v-.27c0-3.61,2.36-4.7,5.08-4.7h.48V69.69c0-1.27-.18-2-1.22-2s-1.27.78-1.27,1.83v.31h-2.6v-.27c0-2.16.84-4.05,4-4.05,2.81,0,3.75,1.63,3.75,4Zm-2.58-4.14h-.6c-1.52,0-2.48.61-2.48,2.63v.24c0,1.19.4,2.09,1.44,2.09s1.64-.87,1.64-3Z"/><path class="a7ca9a1f-b49b-4a89-a49b-c9793f61402b" d="M105.92,90.71v19.74h-2.64V90.71Z"/><path class="a7ca9a1f-b49b-4a89-a49b-c9793f61402b" d="M108.5,99.92c0-3.07,0-3.94,0-4.66H111a11.19,11.19,0,0,1,.1,1.44A2.8,2.8,0,0,1,113.88,95c1.78,0,3.07,1,3.07,3.88v11.54h-2.64v-11c0-1.41-.49-2-1.43-2-1.16,0-1.74.59-1.74,3v10H108.5Z"/><path class="a7ca9a1f-b49b-4a89-a49b-c9793f61402b" d="M119.6,95.26h2.65v15.19H119.6Zm0-5.41h2.65V93h-2.65Z"/><path class="a7ca9a1f-b49b-4a89-a49b-c9793f61402b" d="M123.67,95.26h1.66V91.58H128v3.68h2v2.33h-2v9.49c0,.74.12,1.39,1.05,1.39a3.72,3.72,0,0,0,.88-.09v2a4.55,4.55,0,0,1-1.76.28c-1.72,0-2.81-.61-2.81-3.11v-10h-1.66Z"/><path class="a7ca9a1f-b49b-4a89-a49b-c9793f61402b" d="M131.56,95.26h2.65v15.19h-2.65Zm0-5.41h2.65V93h-2.65Z"/><path
      class="a7ca9a1f-b49b-4a89-a49b-c9793f61402b"
      d="M144.25,107.54c0,1,0,2.38.06,2.91h-2.43c-.07-.32-.16-.93-.18-1.17a2.54,2.54,0,0,1-2.5,1.4c-2.25,0-3.15-2-3.15-4.35v-.27c0-3.61,2.36-4.7,5.09-4.7h.47V99.23c0-1.27-.18-2-1.21-2s-1.27.78-1.27,1.83v.31h-2.6v-.27c0-2.17.83-4,4-4,2.81,0,3.76,1.63,3.76,4Zm-2.59-4.14h-.6c-1.52,0-2.48.61-2.48,2.62v.25c0,1.19.41,2.09,1.45,2.09s1.63-.88,1.63-3Z"/><path class="a7ca9a1f-b49b-4a89-a49b-c9793f61402b" d="M145.53,95.26h1.66V91.58h2.64v3.68h2v2.33h-2v9.49c0,.74.11,1.39,1,1.39a3.69,3.69,0,0,0,.87-.09v2a4.49,4.49,0,0,1-1.76.28c-1.72,0-2.8-.61-2.8-3.11v-10h-1.66Z"/><path class="a7ca9a1f-b49b-4a89-a49b-c9793f61402b" d="M153.42,95.26h2.65v15.19h-2.65Zm0-5.41h2.65V93h-2.65Z"/><path class="a7ca9a1f-b49b-4a89-a49b-c9793f61402b" d="M160.43,95.26c.48,2.81,1.55,9.08,1.91,12.22h0c.26-3,1.53-9.24,2-12.22H167l-3.25,15.19h-3L157.6,95.26Z"/><path
      class="a7ca9a1f-b49b-4a89-a49b-c9793f61402b"
      d="M170.67,103.51v2.33c0,1.32.29,2.6,1.58,2.6s1.5-1.12,1.5-2.36V106h2.58v.09c0,1.66-.36,4.61-4,4.61s-4.2-2.26-4.2-5.33v-5.26c0-2.17.72-5.06,4.21-5.06,3.11,0,4.08,2.18,4.08,5v3.44Zm3.17-2.11V99.71c0-1.41-.28-2.44-1.55-2.44s-1.6.9-1.6,2.45v1.68Z"/><path
      class="a7ca9a1f-b49b-4a89-a49b-c9793f61402b"
      d="M180.57,105.79v.69c0,1.16.39,2,1.41,2s1.35-.6,1.35-1.77-.34-1.87-2.13-3c-2.07-1.34-3-2.42-3-4.57,0-2.43,1.26-4,3.84-4,2.79,0,3.8,1.63,3.8,4.21v.64h-2.56V99c0-1.16-.36-1.72-1.24-1.72s-1.2.61-1.2,1.57.32,1.43,1.75,2.37c2.48,1.59,3.47,2.66,3.47,5.15,0,2.84-1.37,4.32-4.12,4.32-3.23,0-4-2.07-4-4.21v-.68Z"/><path
      class="a7ca9a1f-b49b-4a89-a49b-c9793f61402b"
      d="M103.22,55l-3.07,7.48c-1.29,3.11-2.64,4.64-5,4.64-2.85,0-4.06-2.19-4.06-5.34s1.19-4.29,3.71-6.35c1.82-1.49,2.32-2.22,2.32-4.21,0-1.28-.22-2.12-1.2-2.12s-1.22.94-1.22,2.12a5.87,5.87,0,0,0,1,3.85l7.31,11.83h-3l-6.24-10a8.49,8.49,0,0,1-1.59-5.45c0-2.88,1.29-4.54,3.65-4.54s3.61,1.5,3.61,4.29-.81,3.81-3.45,5.9c-1.92,1.53-2.37,2.23-2.37,4.44,0,2,.64,3,1.82,3s1.67-.83,2.42-2.68L100.7,55Z"/></g>
  </g>
</svg>