<svg xmlns="http://www.w3.org/2000/svg" viewBox="0 0 421.07 200.75"><defs><style>.cls-1{fill:#808285;}.cls-2{fill:#414042;}.cls-3,.cls-5{fill:#fff;}.cls-4,.cls-5{font-size:19.45px;font-family:CalvinAndHobbesNormal, Calvin and Hobbes;}.cls-4{fill:#231f20;}</style></defs><g id="Layer_2" data-name="Layer 2"><g id="Layer_1-2" data-name="Layer 1"><path class="cls-1" d="M213.43.3l.33,200.45,207.31-.3L420.74,0Zm14.1,193.54a6.89,6.89,0,1,1,6.87-6.9A6.89,6.89,0,0,1,227.53,193.84Zm-.29-172.9a6.89,6.89,0,1,1,6.88-6.9A6.9,6.9,0,0,1,227.24,20.94Zm180,172.64a6.89,6.89,0,1,1,6.88-6.9A6.89,6.89,0,0,1,407.28,193.58ZM407,20.68a6.89,6.89,0,1,1,6.87-6.89A6.88,6.88,0,0,1,407,20.68Z"/><path class="cls-2" d="M0,.55l.48,200.2,207.3-.3L207.3.25ZM14.24,193.84a6.89,6.89,0,1,1,6.88-6.9A6.9,6.9,0,0,1,14.24,193.84Zm.92-172.78a6.89,6.89,0,1,1,5.4-5.42A6.9,6.9,0,0,1,15.16,21.06ZM194,193.58a6.89,6.89,0,1,1,6.87-6.9A6.89,6.89,0,0,1,194,193.58Zm.91-172.77a6.89,6.89,0,1,1,5.41-5.42A6.9,6.9,0,0,1,194.91,20.81Z"/><path class="cls-3" d="M383.53,110.16,240.87,136.3l6,32.85L389.54,143ZM247,138.3a2.62,2.62,0,0,1,3,2.08,2.58,2.58,0,1,1-3-2.08Zm4.71,26.79A2.51,2.51,0,0,1,248.9,163a2.56,2.56,0,0,1,1.53-2.72,2.61,2.61,0,0,1,3.43,1.44,2.5,2.5,0,0,1,.11.39A2.58,2.58,0,0,1,251.68,165.09ZM378.55,114.2a2.57,2.57,0,1,1,.92,5,2.57,2.57,0,1,1-.92-5ZM383.44,141a2.58,2.58,0,0,1-3-2.06,2.62,2.62,0,0,1,2.14-2.95,2.58,2.58,0,0,1,2.95,2.13A2.56,2.56,0,0,1,383.44,141Z"/><text class="cls-4" transform="matrix(0.98, -0.18, 0.18, 0.98, 254.52, 159.64)">Christian ROncea</text><path class="cls-2" d="M386.81,89.52,242.23,78l-2.66,33.3,144.58,11.51Zm-139.2-8a2.62,2.62,0,0,1,2.39,2.8,2.58,2.58,0,1,1-2.39-2.8Zm-2.36,27.1a2.51,2.51,0,0,1-2.14-2.75,2.57,2.57,0,0,1,2.18-2.24,2.6,2.6,0,0,1,2.94,2.28,2.67,2.67,0,0,1,0,.4A2.58,2.58,0,0,1,245.25,108.58ZM381,92.14a2.57,2.57,0,0,1-.42,5.12,2.57,2.57,0,1,1,.42-5.12Zm-2.19,27.17a2.58,2.58,0,0,1-2.33-2.76,2.61,2.61,0,0,1,2.83-2.29,2.54,2.54,0,1,1-.5,5Z"/><text class="cls-5" transform="translate(261.06 104.92) rotate(4.4)">Marc Solomon</text><path class="cls-3" d="M320.59,40.54h4.06c3.05,0,4.56,1.53,4.56,4.89v1.18c0,3.13-1,5.31-4.72,5.31h-1.25v8.36h-2.65Zm2.65,9.19h1c2,0,2.37-1.22,2.37-3.2v-1c0-1.51-.3-2.78-2.13-2.78h-1.21Z"/><path class="cls-3" d="M331.18,60.28V39.68h2.65v20.6Z"/><path class="cls-3" d="M343.84,57.37c0,1,0,2.38.06,2.91h-2.43c-.07-.32-.16-.93-.18-1.17a2.53,2.53,0,0,1-2.5,1.4c-2.24,0-3.15-2-3.15-4.35v-.27c0-3.61,2.36-4.7,5.09-4.7h.47V49.06c0-1.27-.18-2-1.21-2s-1.27.78-1.27,1.83v.31h-2.6v-.27c0-2.17.84-4,4-4,2.82,0,3.76,1.63,3.76,4Zm-2.59-4.14h-.6c-1.52,0-2.48.61-2.48,2.62v.25c0,1.19.41,2.09,1.45,2.09s1.63-.88,1.63-3Z"/><path class="cls-3" d="M354.57,59.65c0,3.25-.33,6-4.44,6-3.42,0-4-2.21-4-3.88v-.07h2.66v.08a1.49,1.49,0,0,0,1.52,1.66c1.38,0,1.65-1,1.65-3.07V58.56A2.51,2.51,0,0,1,349.4,60c-2.58,0-3.31-2-3.31-4.71V49.43c0-2.32.94-4.57,3.62-4.57a2.29,2.29,0,0,1,2.5,1.57,9.06,9.06,0,0,1,.13-1.34h2.29c0,.9-.06,2.2-.06,3.88Zm-5.82-10.07v5.54c0,1.71.42,2.56,1.47,2.56,1.47,0,1.71-1.31,1.71-3.25V50c0-1.48-.15-2.72-1.54-2.72C349.29,47.25,348.75,48,348.75,49.58Z"/><path class="cls-3" d="M365.49,56c0,2.12,0,3.53,0,4.3H363a12.38,12.38,0,0,1-.1-1.5,2.61,2.61,0,0,1-2.79,1.73c-1.34,0-3-.59-3-3.92V45.09h2.64V55.91c0,1.56.44,2.22,1.44,2.22s1.65-.62,1.65-3v-10h2.65Z"/><path class="cls-3" d="M370.3,53.34v2.33c0,1.32.28,2.6,1.57,2.6s1.5-1.12,1.5-2.36v-.1H376v.09c0,1.66-.37,4.61-4,4.61s-4.21-2.26-4.21-5.33V49.92c0-2.17.72-5.06,4.21-5.06,3.11,0,4.09,2.18,4.09,5v3.44Zm3.16-2.11V49.54c0-1.41-.28-2.44-1.55-2.44s-1.59.9-1.59,2.45v1.68Z"/><path class="cls-3" d="M263.58,20.05h-3.17V17.6h9v2.45h-3.18V37.33h-2.65Z"/><path class="cls-3" d="M271.48,30.39v2.34c0,1.31.28,2.59,1.58,2.59s1.5-1.11,1.5-2.36v-.09h2.58V33c0,1.67-.37,4.62-4,4.62s-4.2-2.27-4.2-5.34V27c0-2.17.71-5.06,4.21-5.06,3.11,0,4.08,2.18,4.08,5.05v3.43Zm3.17-2.1v-1.7c0-1.41-.28-2.43-1.55-2.43s-1.6.89-1.6,2.44v1.69Z"/><path class="cls-3" d="M281,22.15c.9,2.56,1.48,4.19,1.71,5h0c.32-1.06,1-2.72,1.77-5h2.75l-3.07,7,3.12,8.14h-2.86c-1.05-3-1.57-4.85-1.8-5.58h0c-.27.82-.92,2.87-1.81,5.58H278l3.1-7.82-3-7.36Z"/><path class="cls-3" d="M287.92,22.15h1.66V18.47h2.64v3.68h2v2.33h-2V34c0,.75.12,1.39,1,1.39a4.56,4.56,0,0,0,.88-.08v2a4.74,4.74,0,0,1-1.76.27c-1.73,0-2.81-.61-2.81-3.11v-10h-1.66Z"/><path class="cls-3" d="M299.65,16.73h2.65v6.75a2.8,2.8,0,0,1,2.7-1.57c2.22,0,3.14,1.82,3.14,4.51v5.5c0,3.32-.62,5.63-3.5,5.63a2.45,2.45,0,0,1-2.51-1.61c0,.59-.05,1-.1,1.39h-2.41c.05-1,0-2.31,0-3.95Zm5.84,15.67V26.84c0-1.56-.3-2.54-1.47-2.54-1.43,0-1.73,1.25-1.73,3.13v4.88c0,1.95.47,2.85,1.64,2.85C304.94,35.16,305.49,34.31,305.49,32.4Z"/><path class="cls-3" d="M312.05,22.15c.89,5.2,1.73,10.09,1.86,12H314c.29-2.55,1.06-6.34,2-12h2.66l-3.4,15.94c-.93,4.31-2.38,4.55-4.08,4.55a9.42,9.42,0,0,1-1.29-.11l0-2.38a5.41,5.41,0,0,0,.87.08c1,0,1.5-.4,1.83-2.31l-3.4-15.77Z"/><path class="cls-3" d="M301.08,188.89H299v3.26h2.4l-.16,1.17h-3.51v-9.46h3.49V185H299v2.68h2.1Z"/><path class="cls-3" d="M306,183.44v7.92c0,1,0,1.56,0,2h-1.21c0-.17,0-.56,0-.7a1.26,1.26,0,0,1-1.28.81c-1.27,0-1.54-1-1.54-2.42v-2.9c0-1.28.49-2.18,1.65-2.18a1.26,1.26,0,0,1,1.15.52v-3Zm-2.8,4.75v2.91c0,.78.19,1.19.72,1.19s.81-.62.81-1.52v-2.3c0-.8-.08-1.4-.78-1.4S303.24,187.5,303.24,188.19Z"/><path class="cls-3" d="M307.3,186h1.27v7.28H307.3Zm0-2.6h1.27V185h-1.27Z"/><path class="cls-3" d="M309.25,186h.8v-1.76h1.26V186h1v1.12h-1v4.54c0,.36.06.67.5.67a1.8,1.8,0,0,0,.43,0v1a2.23,2.23,0,0,1-.85.13c-.82,0-1.34-.29-1.34-1.49v-4.77h-.8Z"/><path class="cls-3" d="M313,186h1.26v7.28H313Zm0-2.6h1.27V185H313Z"/><path class="cls-3" d="M315.59,188.27c0-1.47,0-1.89,0-2.23h1.21a4.44,4.44,0,0,1,.05.69,1.34,1.34,0,0,1,1.34-.8c.85,0,1.47.5,1.47,1.86v5.53h-1.27V188c0-.68-.23-1-.68-1s-.84.29-.84,1.44v4.81h-1.26Z"/><path class="cls-3" d="M324.78,193c0,1.56-.16,2.86-2.13,2.86a1.69,1.69,0,0,1-1.93-1.86v0H322v0a.72.72,0,0,0,.73.8c.66,0,.79-.5.79-1.47v-.86a1.21,1.21,0,0,1-1.22.71c-1.23,0-1.58-.94-1.58-2.26v-2.82c0-1.11.45-2.19,1.74-2.19a1.08,1.08,0,0,1,1.19.75,3.46,3.46,0,0,1,.07-.64h1.09c0,.43,0,1.05,0,1.86Zm-2.8-4.83v2.65c0,.83.2,1.23.71,1.23.7,0,.82-.63.82-1.55v-2.14c0-.71-.07-1.31-.74-1.31S322,187.44,322,188.19Z"/><path class="cls-3" d="M327.93,183.44h1.26v3.24a1.35,1.35,0,0,1,1.3-.75c1.06,0,1.51.87,1.51,2.16v2.64c0,1.58-.3,2.69-1.68,2.69a1.18,1.18,0,0,1-1.21-.77,5.77,5.77,0,0,1-.05.67h-1.15c0-.46,0-1.11,0-1.9Zm2.79,7.52v-2.67c0-.75-.14-1.22-.7-1.22s-.83.6-.83,1.5v2.34c0,.93.23,1.37.79,1.37S330.72,191.87,330.72,191Z"/><path class="cls-3" d="M333.87,186c.43,2.49.83,4.84.89,5.74h0c.13-1.22.51-3,1-5.74H337l-1.63,7.64c-.44,2.07-1.14,2.18-2,2.18a3.67,3.67,0,0,1-.61-.05l0-1.14a2.5,2.5,0,0,0,.41,0c.49,0,.72-.19.88-1.11L332.51,186Z"/><path class="cls-3" d="M178.15,146,35,122.44l-5.41,33,143.12,23.47Zm-138-19.57a2.63,2.63,0,0,1,2.15,3,2.58,2.58,0,1,1-2.15-3ZM35.5,153.2a2.53,2.53,0,0,1-1.91-2.93,2.57,2.57,0,0,1,2.36-2,2.6,2.6,0,0,1,2.75,2.51c0,.13,0,.27,0,.4A2.58,2.58,0,0,1,35.5,153.2Zm136.6-5.13a2.57,2.57,0,1,1-.84,5.07,2.57,2.57,0,1,1,.84-5.07ZM167.66,175a2.57,2.57,0,0,1-2.09-2.93,2.62,2.62,0,0,1,3-2.06,2.54,2.54,0,1,1-.92,5Z"/><text class="cls-4" transform="matrix(0.99, 0.16, -0.16, 0.99, 40, 148.75)">Christian ROncea</text><path class="cls-3" d="M23.09,26.23h4.07c3.05,0,4.56,1.52,4.56,4.88v1.18c0,3.13-1,5.31-4.72,5.31H25.74V46H23.09Zm2.65,9.18h1c2,0,2.36-1.22,2.36-3.2v-1c0-1.5-.29-2.78-2.13-2.78H25.74Z"/><path class="cls-3" d="M33.69,46V25.36h2.64V46Z"/><path class="cls-3" d="M46.34,43.05c0,1,0,2.39.06,2.91H44c-.07-.32-.16-.93-.18-1.16a2.52,2.52,0,0,1-2.49,1.4c-2.25,0-3.15-2.05-3.15-4.36v-.27c0-3.61,2.36-4.7,5.08-4.7h.48V34.74c0-1.27-.18-2-1.21-2s-1.27.78-1.27,1.83v.31H38.62v-.27c0-2.17.84-4.05,4-4.05,2.81,0,3.75,1.63,3.75,4Zm-2.58-4.14h-.6c-1.52,0-2.48.61-2.48,2.62v.25c0,1.19.4,2.09,1.45,2.09s1.63-.87,1.63-3Z"/><path class="cls-3" d="M57.08,45.33c0,3.25-.34,6-4.44,6-3.43,0-4-2.21-4-3.88v-.07h2.65v.08a1.5,1.5,0,0,0,1.52,1.67c1.38,0,1.65-1.05,1.65-3.08V44.24a2.49,2.49,0,0,1-2.53,1.47c-2.58,0-3.3-2-3.3-4.71V35.11c0-2.32.93-4.57,3.62-4.57a2.27,2.27,0,0,1,2.49,1.57,8.91,8.91,0,0,1,.13-1.33h2.3c0,.89-.06,2.19-.06,3.87ZM51.25,35.27V40.8c0,1.71.42,2.56,1.47,2.56,1.48,0,1.72-1.31,1.72-3.25V35.65c0-1.48-.15-2.72-1.54-2.72C51.79,32.93,51.25,33.69,51.25,35.27Z"/><path class="cls-3" d="M68,41.66c0,2.13,0,3.53,0,4.3H65.5a12.24,12.24,0,0,1-.1-1.5,2.63,2.63,0,0,1-2.79,1.74c-1.35,0-3-.6-3-3.92V30.78h2.65V41.59c0,1.56.44,2.23,1.43,2.23s1.65-.63,1.65-3v-10H68Z"/><path class="cls-3" d="M72.8,39v2.33c0,1.32.28,2.6,1.58,2.6s1.5-1.12,1.5-2.36V41.5h2.58v.08c0,1.66-.37,4.62-4,4.62s-4.2-2.27-4.2-5.34V35.6c0-2.17.71-5.06,4.21-5.06,3.11,0,4.08,2.18,4.08,5.05V39ZM76,36.92v-1.7c0-1.41-.29-2.43-1.55-2.43s-1.6.89-1.6,2.44v1.69Z"/><path class="cls-3" d="M86.82,17.4v.35c0,1.13-.19,2.57-2.07,2.57-1.71,0-2-1.13-2-2.55V13c0-1.49.66-2.4,2.06-2.4,1.69,0,2,1.16,2,2.44v.4H85.5V12.9c0-.68-.13-1.15-.74-1.15s-.76.43-.76,1.16v5c0,.76.16,1.3.78,1.3s.76-.51.76-1.29V17.4Z"/><path class="cls-3" d="M91.73,18.12c0,1,0,1.7,0,2.06H90.53a6.56,6.56,0,0,1,0-.71,1.25,1.25,0,0,1-1.33.83c-.65,0-1.44-.29-1.44-1.88V12.91H89v5.18c0,.75.21,1.07.69,1.07s.79-.31.79-1.44V12.91h1.27Z"/><path class="cls-3" d="M93,15.38c0-1.2,0-1.77,0-2.47h1.2c0,.16,0,.72,0,1.16A1.57,1.57,0,0,1,95.8,12.8v1.57c-.85,0-1.53.34-1.53,1.76v4.05H93Z"/><path class="cls-3" d="M100.12,18.79c0,.47,0,1.14,0,1.39H99c0-.15-.08-.44-.09-.55a1.21,1.21,0,0,1-1.19.67c-1.08,0-1.51-1-1.51-2.09v-.13c0-1.73,1.13-2.25,2.43-2.25h.23v-1c0-.61-.08-1-.58-1s-.61.37-.61.87v.15H96.41v-.13a1.71,1.71,0,0,1,1.91-1.94c1.34,0,1.8.79,1.8,1.92Zm-1.24-2h-.29c-.73,0-1.19.29-1.19,1.25v.12c0,.57.19,1,.69,1s.79-.42.79-1.44Z"/><path class="cls-3" d="M100.73,12.91h.8V11.14h1.27v1.77h1V14h-1v4.55c0,.36,0,.67.5.67a1.73,1.73,0,0,0,.42,0v1a2.4,2.4,0,0,1-.85.13c-.82,0-1.34-.29-1.34-1.49V14h-.8Z"/><path class="cls-3" d="M105.51,16.86V18c0,.63.14,1.24.76,1.24s.72-.54.72-1.13V18h1.24v0c0,.8-.18,2.22-1.94,2.22s-2-1.09-2-2.56V15.22c0-1,.35-2.43,2-2.43,1.49,0,2,1.05,2,2.42v1.65Zm1.52-1V15c0-.68-.13-1.17-.74-1.17s-.77.43-.77,1.17v.81Z"/><path class="cls-3" d="M113.2,10.31v7.91c0,1,0,1.56,0,2H112a5.76,5.76,0,0,1-.05-.7,1.27,1.27,0,0,1-1.28.82c-1.27,0-1.55-1-1.55-2.42V15c0-1.27.5-2.18,1.66-2.18a1.22,1.22,0,0,1,1.14.53v-3Zm-2.79,4.74V18c0,.78.18,1.19.72,1.19s.8-.61.8-1.51V15.33c0-.79-.07-1.39-.78-1.39C110.61,13.94,110.41,14.37,110.41,15.05Z"/><path class="cls-3" d="M116.35,10.31h1.27v3.23a1.34,1.34,0,0,1,1.29-.75c1.07,0,1.51.87,1.51,2.16v2.64c0,1.59-.3,2.7-1.68,2.7a1.17,1.17,0,0,1-1.2-.77c0,.28,0,.46-.05.66h-1.16c0-.46,0-1.1,0-1.89Zm2.8,7.51V15.15c0-.74-.15-1.21-.71-1.21s-.83.6-.83,1.5v2.34c0,.93.23,1.36.79,1.36S119.15,18.73,119.15,17.82Z"/><path class="cls-3" d="M122.3,12.91c.42,2.49.83,4.83.89,5.73h0c.14-1.22.51-3,1-5.73h1.27l-1.62,7.64c-.45,2.07-1.15,2.18-2,2.18a3.62,3.62,0,0,1-.62-.06l0-1.14a2.53,2.53,0,0,0,.42,0c.48,0,.72-.19.88-1.11l-1.63-7.55Z"/><path class="cls-3" d="M66.43,190.79v.35c0,1.13-.2,2.57-2.07,2.57-1.71,0-2-1.13-2-2.55v-4.78c0-1.49.66-2.4,2.06-2.4,1.69,0,2,1.16,2,2.44v.4H65.11v-.53c0-.68-.13-1.15-.74-1.15s-.76.43-.76,1.16v5c0,.76.16,1.3.78,1.3s.75-.51.75-1.29v-.48Z"/><path class="cls-3" d="M67.31,188.76c0-1.19,0-1.76,0-2.47h1.2c0,.17,0,.73,0,1.17a1.57,1.57,0,0,1,1.57-1.27v1.56c-.86,0-1.53.35-1.53,1.76v4.06H67.31Z"/><path class="cls-3" d="M71.93,190.25v1.11c0,.63.14,1.25.76,1.25s.72-.54.72-1.13v0h1.23v0c0,.8-.17,2.22-1.93,2.22s-2-1.09-2-2.56v-2.52c0-1.05.35-2.43,2-2.43,1.49,0,2,1,2,2.42v1.65Zm1.52-1v-.82c0-.67-.14-1.16-.74-1.16s-.77.43-.77,1.17v.81Z"/><path class="cls-3" d="M79.3,192.18c0,.47,0,1.14,0,1.39H78.16c0-.15-.07-.44-.08-.56a1.22,1.22,0,0,1-1.2.68c-1.08,0-1.51-1-1.51-2.09v-.13c0-1.73,1.13-2.25,2.44-2.25H78v-1c0-.6-.09-1-.58-1s-.61.37-.61.87v.15H75.6v-.13a1.7,1.7,0,0,1,1.9-1.94c1.35,0,1.8.78,1.8,1.92Zm-1.24-2h-.29c-.73,0-1.19.29-1.19,1.26v.12c0,.57.2,1,.7,1s.78-.42.78-1.44Z"/><path class="cls-3" d="M79.91,186.29h.8v-1.76H82v1.76h1v1.12H82V192c0,.35,0,.66.5.66a1.76,1.76,0,0,0,.42,0v1a2.35,2.35,0,0,1-.84.13c-.83,0-1.35-.3-1.35-1.49v-4.78h-.8Z"/><path class="cls-3" d="M83.7,186.29H85v7.28H83.7Zm0-2.59H85v1.52H83.71Z"/><path class="cls-3" d="M87.07,186.29c.22,1.35.73,4.35.91,5.86h0c.12-1.42.73-4.43,1-5.86h1.28l-1.56,7.28H87.23l-1.52-7.28Z"/><path class="cls-3" d="M92,190.25v1.11c0,.63.13,1.25.75,1.25s.72-.54.72-1.13v0h1.24v0c0,.8-.18,2.22-1.94,2.22s-2-1.09-2-2.56v-2.52c0-1.05.34-2.43,2-2.43,1.49,0,1.95,1,1.95,2.42v1.65Zm1.52-1v-.82c0-.67-.14-1.16-.75-1.16s-.76.43-.76,1.17v.81Z"/><path class="cls-3" d="M97.65,184.11h1.89c2,0,2.41,1.14,2.41,2.79v3.67c0,1.45-.24,3-2.44,3H97.65Zm1.26,8.38h.51c1,0,1.24-.63,1.24-1.72v-4c0-1-.17-1.57-1.24-1.57h-.51Z"/><path class="cls-3" d="M103.11,186.29h1.27v7.28h-1.27Zm0-2.59h1.27v1.52h-1.27Z"/><path class="cls-3" d="M105.66,188.76c0-1.19,0-1.76,0-2.47h1.2c0,.17,0,.73,0,1.17a1.57,1.57,0,0,1,1.57-1.27v1.56c-.86,0-1.53.35-1.53,1.76v4.06h-1.27Z"/><path class="cls-3" d="M110.28,190.25v1.11c0,.63.14,1.25.76,1.25s.72-.54.72-1.13v0H113v0c0,.8-.18,2.22-1.94,2.22s-2-1.09-2-2.56v-2.52c0-1.05.35-2.43,2-2.43,1.49,0,2,1,2,2.42v1.65Zm1.52-1v-.82c0-.67-.14-1.16-.74-1.16s-.77.43-.77,1.17v.81Z"/><path class="cls-3" d="M117.73,191.2v.1c0,1.29-.33,2.39-1.94,2.39s-1.89-1.07-1.89-2.56v-2.64c0-1.2.42-2.31,2-2.31s1.87,1.21,1.87,2.14v.28h-1.25v-.28c0-.61-.1-1.06-.64-1.06s-.67.37-.67,1.09v3.14c0,.57.11,1.12.66,1.12s.65-.38.65-1.11v-.3Z"/><path class="cls-3" d="M118.26,186.29h.8v-1.76h1.27v1.76h1v1.12h-1V192c0,.35,0,.66.5.66a1.76,1.76,0,0,0,.42,0v1a2.35,2.35,0,0,1-.84.13c-.83,0-1.35-.3-1.35-1.49v-4.78h-.8Z"/><path class="cls-3" d="M122.05,186.29h1.27v7.28h-1.27Zm0-2.59h1.27v1.52h-1.27Z"/><path class="cls-3" d="M128.47,188.46v2.9c0,1.57-.76,2.33-2,2.33s-2-.77-2-2.31v-3a2,2,0,0,1,2.06-2.23C127.74,186.18,128.47,187,128.47,188.46Zm-2.8-.06v3c0,.68.22,1.14.77,1.14s.76-.37.76-1.16v-3c0-.63-.19-1.08-.76-1.08S125.67,187.69,125.67,188.4Z"/><path class="cls-3" d="M129.53,188.53c0-1.47,0-1.89,0-2.24h1.21a6.16,6.16,0,0,1,.05.69,1.34,1.34,0,0,1,1.34-.8c.84,0,1.46.5,1.46,1.86v5.53h-1.26v-5.28c0-.68-.23-1-.69-1s-.83.28-.83,1.43v4.81h-1.27Z"/><path class="cls-3" d="M136.74,183.7H138v3.23a1.35,1.35,0,0,1,1.3-.75c1.06,0,1.5.87,1.5,2.16V191c0,1.59-.29,2.7-1.68,2.7a1.19,1.19,0,0,1-1.2-.77,5.58,5.58,0,0,1-.05.66h-1.15c0-.46,0-1.11,0-1.89Zm2.8,7.51v-2.67c0-.75-.14-1.21-.71-1.21s-.82.59-.82,1.5v2.34c0,.93.22,1.36.78,1.36S139.54,192.12,139.54,191.21Z"/><path class="cls-3" d="M142.69,186.29c.43,2.5.83,4.84.89,5.74h0c.13-1.22.5-3,.95-5.74h1.28l-1.63,7.65c-.45,2.06-1.14,2.18-2,2.18a3.84,3.84,0,0,1-.62-.06l0-1.14a2.53,2.53,0,0,0,.42,0c.49,0,.72-.19.88-1.11l-1.63-7.56Z"/><path class="cls-3" d="M121.68,61.18h3.95c4.22,0,5,2.36,5,5.8v7.67c0,3-.49,6.26-5.09,6.26h-3.89Zm2.64,17.46h1.07c2.16,0,2.58-1.31,2.58-3.58V66.74c0-2-.36-3.27-2.58-3.27h-1.07Z"/><path class="cls-3" d="M135.83,60.31V67a2.88,2.88,0,0,1,2.81-1.54c2.3,0,3,1.73,3,3.91V80.91H139V70.09c0-1.18-.21-2.21-1.45-2.21s-1.72,1-1.72,2.9V80.91h-2.64V60.31Z"/><path class="cls-3" d="M151.75,78c0,1,0,2.39.06,2.91h-2.43c-.07-.32-.16-.93-.18-1.16a2.54,2.54,0,0,1-2.5,1.4c-2.24,0-3.15-2.05-3.15-4.36v-.27c0-3.61,2.36-4.7,5.09-4.7h.47V69.69c0-1.27-.18-2-1.21-2s-1.27.78-1.27,1.83v.31H144v-.27c0-2.16.84-4.05,4-4.05,2.82,0,3.76,1.63,3.76,4Zm-2.59-4.14h-.6c-1.52,0-2.48.61-2.48,2.63v.24c0,1.19.41,2.09,1.45,2.09s1.63-.87,1.63-3Z"/><path class="cls-3" d="M154.42,70.88c0-2.49,0-3.69,0-5.15h2.52c0,.33.08,1.52.08,2.42a3.27,3.27,0,0,1,3.28-2.64v3.26c-1.79,0-3.2.72-3.2,3.68v8.46h-2.65Z"/><path class="cls-3" d="M161.75,70.12c0-2.91,0-3.69,0-4.39h2.52a9.8,9.8,0,0,1,.1,1.37A2.76,2.76,0,0,1,167,65.49a2.25,2.25,0,0,1,2.4,1.69,3.07,3.07,0,0,1,2.87-1.69c1.58,0,2.94.76,2.94,3.71V80.91h-2.64V69.71c0-1.12-.26-1.83-1.25-1.83-1.22,0-1.5,1-1.5,2.56V80.91h-2.66V69.8c0-1.49-.42-1.92-1.27-1.92-1.21,0-1.48,1-1.48,2.59V80.91h-2.64Z"/><path class="cls-3" d="M185.3,78c0,1,0,2.39.06,2.91h-2.43c-.07-.32-.16-.93-.18-1.16a2.52,2.52,0,0,1-2.5,1.4c-2.24,0-3.14-2.05-3.14-4.36v-.27c0-3.61,2.36-4.7,5.08-4.7h.48V69.69c0-1.27-.18-2-1.22-2s-1.27.78-1.27,1.83v.31h-2.6v-.27c0-2.16.84-4.05,4-4.05,2.81,0,3.75,1.63,3.75,4Zm-2.58-4.14h-.6c-1.52,0-2.48.61-2.48,2.63v.24c0,1.19.4,2.09,1.44,2.09s1.64-.87,1.64-3Z"/><path class="cls-3" d="M105.92,90.71v19.74h-2.64V90.71Z"/><path class="cls-3" d="M108.5,99.92c0-3.07,0-3.94,0-4.66H111a11.19,11.19,0,0,1,.1,1.44A2.8,2.8,0,0,1,113.88,95c1.78,0,3.07,1,3.07,3.88v11.54h-2.64v-11c0-1.41-.49-2-1.43-2-1.16,0-1.74.59-1.74,3v10H108.5Z"/><path class="cls-3" d="M119.6,95.26h2.65v15.19H119.6Zm0-5.41h2.65V93h-2.65Z"/><path class="cls-3" d="M123.67,95.26h1.66V91.58H128v3.68h2v2.33h-2v9.49c0,.74.12,1.39,1.05,1.39a3.72,3.72,0,0,0,.88-.09v2a4.55,4.55,0,0,1-1.76.28c-1.72,0-2.81-.61-2.81-3.11v-10h-1.66Z"/><path class="cls-3" d="M131.56,95.26h2.65v15.19h-2.65Zm0-5.41h2.65V93h-2.65Z"/><path class="cls-3" d="M144.25,107.54c0,1,0,2.38.06,2.91h-2.43c-.07-.32-.16-.93-.18-1.17a2.54,2.54,0,0,1-2.5,1.4c-2.25,0-3.15-2-3.15-4.35v-.27c0-3.61,2.36-4.7,5.09-4.7h.47V99.23c0-1.27-.18-2-1.21-2s-1.27.78-1.27,1.83v.31h-2.6v-.27c0-2.17.83-4,4-4,2.81,0,3.76,1.63,3.76,4Zm-2.59-4.14h-.6c-1.52,0-2.48.61-2.48,2.62v.25c0,1.19.41,2.09,1.45,2.09s1.63-.88,1.63-3Z"/><path class="cls-3" d="M145.53,95.26h1.66V91.58h2.64v3.68h2v2.33h-2v9.49c0,.74.11,1.39,1,1.39a3.69,3.69,0,0,0,.87-.09v2a4.49,4.49,0,0,1-1.76.28c-1.72,0-2.8-.61-2.8-3.11v-10h-1.66Z"/><path class="cls-3" d="M153.42,95.26h2.65v15.19h-2.65Zm0-5.41h2.65V93h-2.65Z"/><path class="cls-3" d="M160.43,95.26c.48,2.81,1.55,9.08,1.91,12.22h0c.26-3,1.53-9.24,2-12.22H167l-3.25,15.19h-3L157.6,95.26Z"/><path class="cls-3" d="M170.67,103.51v2.33c0,1.32.29,2.6,1.58,2.6s1.5-1.12,1.5-2.36V106h2.58v.09c0,1.66-.36,4.61-4,4.61s-4.2-2.26-4.2-5.33v-5.26c0-2.17.72-5.06,4.21-5.06,3.11,0,4.08,2.18,4.08,5v3.44Zm3.17-2.11V99.71c0-1.41-.28-2.44-1.55-2.44s-1.6.9-1.6,2.45v1.68Z"/><path class="cls-3" d="M180.57,105.79v.69c0,1.16.39,2,1.41,2s1.35-.6,1.35-1.77-.34-1.87-2.13-3c-2.07-1.34-3-2.42-3-4.57,0-2.43,1.26-4,3.84-4,2.79,0,3.8,1.63,3.8,4.21v.64h-2.56V99c0-1.16-.36-1.72-1.24-1.72s-1.2.61-1.2,1.57.32,1.43,1.75,2.37c2.48,1.59,3.47,2.66,3.47,5.15,0,2.84-1.37,4.32-4.12,4.32-3.23,0-4-2.07-4-4.21v-.68Z"/><path class="cls-3" d="M103.22,55l-3.07,7.48c-1.29,3.11-2.64,4.64-5,4.64-2.85,0-4.06-2.19-4.06-5.34s1.19-4.29,3.71-6.35c1.82-1.49,2.32-2.22,2.32-4.21,0-1.28-.22-2.12-1.2-2.12s-1.22.94-1.22,2.13a5.86,5.86,0,0,0,1,3.84l7.31,11.84h-3l-6.24-10a8.49,8.49,0,0,1-1.59-5.45c0-2.88,1.29-4.54,3.65-4.54s3.61,1.5,3.61,4.29-.81,3.81-3.45,5.9c-1.92,1.53-2.37,2.23-2.37,4.44,0,2,.64,3,1.82,3s1.67-.83,2.42-2.68L100.7,55Z"/></g></g></svg>