<svg xmlns="http://www.w3.org/2000/svg" viewBox="0 0 1016.91 125.74"><defs><style>.cls-1{fill:#808285;}</style></defs><g id="Layer_2" data-name="Layer 2"><g id="Layer_1-2" data-name="Layer 1"><path class="cls-1" d="M282.22,3.59l-2.77,6.26,11.2,2,9.89,15.59,4.9-3.11.49.57-2.68,2.94,2.8,8H301.7c1.4,2.8,2.48,5,3.16,6.35v14L312,53.63c-2.61,2-3.73,2.88-4.85,3.76l1.25,8.54-2.15-.12c-.95,7.48-1.89,15-2.88,22.77l5.81.34-6.16,1.5c-.65,2.88-1.29,5.66-1.94,8.56l-3.36-2.65V102l-17,12.43.63,3.33L296,119.45c-1-2.84-1.4-4-2.38-6.83l3.75,4.53,8.48-.76-1.5,4.29,7.87-2.83L326,121.07c-.54-2.88-.81-4.28-1.12-5.89l8.28.86c.76-1,1.65-2.18,4-5.26-1.6,4.17-2.35,6.15-3.48,9.1l7.83-.85,3.64-5.78-10.87-8c-1.36-2.68-3.25-6.38-5.13-10.09l-1.7,1.09-2.11-5c-1.46-9.66-2.69-17.86-4-26.33L319,66.07c.22-2.93.42-5.67.65-8.74l-4.37-3.17L322.45,56V40.83l3.64-4.15L323.32,36c.81-2.38,1.66-4.84,2.62-7.64l-1.31-1.88,25.7-22,6.91.59,2.47-3.47.64.32L357,9.78l10.62,1.89c4.22,6.23,7.42,11,10.71,15.82L384.53,23l-3.69,4.9c.91,2.82,1.73,5.35,2.57,8h-2.79C381.33,42.49,382,49,382.79,56l6.9-2.17-5.06,3.55c.4,2.9.8,5.72,1.2,8.55l-2.13-.13c-.93,7.5-1.87,15-2.85,22.82l1.92.12c-1.55,3.09-3.2,6.39-4.86,9.73l-2-1.59a4.55,4.55,0,0,0-.73.3c1.32,11.93-15.17,8.37-15.45,20.69l13.65,1.64-2.28-6.94,3.67,4.63,8.55-.82c-.44,1.15-.81,2.12-1.62,4.21l7.78-2.64,13.94,3c-.54-2.83-.8-4.14-1.11-5.75l8.27.82,4-5.36-3.51,9.11,7.79-.75c1.08-1.65,2-3.1,2.91-4.41L405.46,95.83l-.54.51-3.24-7.1.77.08-3.7-24.2-2.37.85c.25-2.79.48-5.4.74-8.39l-4.21-3.44,6.87,1.91c.54-6.6,1-12.82,1.65-20.27,1.42.75,1,.44.58.34a3.77,3.77,0,0,0-1.25.16c.86-2.66,1.68-5.14,2.62-8l-1.28-1.75L427.88,4.45l6.85.68L437,1.8l.79.34c-1,2.25-2,4.5-3.41,7.73l10.89,1.8,10.3,15.83,4.71-3.15.5.57-2.45,2.8c.88,2.84,1.68,5.4,2.58,8.28h-2.62c.66,6.81,1.28,13.33,1.94,20.13l7.17-2.6L462,57.4l1.28,8.48-2.1-.17c-1,7.61-1.93,15.21-2.93,23.1h3.4l.1.73-3.7.83c-.77,3-1.48,5.76-2.18,8.5l-.71-.53-18.85,16.29.06,2.92,14.31,2.15c-.76-3-1-4.1-1.7-6.66l3.24,4.13,8.08-.75c-.1,1.17-.2,2.32-.35,4.06l7.13-2.65,13.74,3.2c-.53-2.92-.79-4.38-1.05-5.85l8.36.84,2.33-3.29.67.26-2.6,6.73,7.66-.65,3.11-4.45L482.79,95.79l-.46.24c-1.11-2.37-2.08-4.44-2.24-4.77-1.38-9.63-2.54-17.72-3.76-26.2l-2.48,1.12c.23-2.85.45-5.58.71-8.64L470.23,54l7.16,2V40.59l4.15-4.54-3.28.18L480.87,28l-1.28-1.53,25.8-22,6.77.61,2.27-3.26.74.31c-1,2.29-1.92,4.59-3.26,7.82L523,11.62l10,15.94,6.12-4.31c-1.86,2.61-2.62,3.69-3.35,4.72.86,2.8,1.69,5.46,2.52,8.14L535.61,36c.72,6.79,1.4,13.33,2.12,20.22l6.8-2.64-5.06,3.9c.44,2.8.9,5.74,1.37,8.68l-2.14-.18c-1,7.48-2,14.95-3,22.78h2c-1.58,3.16-3.24,6.5-4.91,9.86l-2.08-1.8a3.74,3.74,0,0,0-.69.33c1.61,12.05-15,8.41-15.31,20.65l13.46,1.83c-.79-3-1.09-4.1-1.84-6.92l3.31,4.46,8.49-.72c-.29,1.09-.57,2.19-1.13,4.33l6.85-2.67,5.81,2.46-10.6,1.66c.08,1.38.16,2.7.19,3.37h-11c.1-.59.31-1.91.53-3.29l-25.2-2.12c-.31.62,0,0,.77-1.59l-14.89,4.28c0,.11.21,1,.49,2.15l-28.2-3.72v4.16H450.76c.1-.58.33-1.86.69-3.92l-12.33,1.37-2.29-3.23-11.37,1.47,1.67-2.68L412,122.84l.55,2.19-28.7-3.81c.31,2.28.47,3.46.57,4.25H373.26c.13-.59.4-1.9.85-4l-11.68,1.31V121H348.08c.13-.2.57-.93,1.55-2.53l-15.1,4.4c.06.21.29,1.06.59,2.19l-28.67-3.79c.27,2.28.43,3.59.51,4.25H295.71l1.17-3.92-12,1.15v-1.78h-14.3c.13-.18.61-.87,1.74-2.54l-15.17,4.45.6,2.18L229,121.3c.26,2.27.41,3.57.49,4.22H218.12c.18-.59.53-1.73,1-3.23l-25.55-2.09,1.21-1.81-15,4.41.39,2.24-28.43-3.81c.15,2.22.23,3.52.29,4.34H140.64c.17-.66.46-1.82,1-4l-11.49,1.1V121H115.62l1.55-2.56-14.9,4.37.33,2.22-28.3-3.78.19,4.33H63.21l.91-4-11.48,1.14V121H38.18l1.66-2.44-15.16,4.17.39,2.47L.24,121.27l2.48-3.5c4.55,1.09,8.46,2,13.89,3.35-1-3.28-1.42-4.66-1.86-6.09l8.34,1,4.43-5.4-3.94,9.14,7.87-.8,3.11-4.49-18-20.46L15.39,91.3c-1.5-9.57-2.77-17.66-4.09-26.1L9,66.16c.22-2.81.44-5.62.67-8.67L5.36,53.87l7,2.35V40.55c1.34-1.24,2.59-2.4,4.47-4.16l-3.37-.22c.83-2.67,1.66-5.34,2.59-8.31l-1.17-1.44,25.68-22,6.69.61L49.6,2l.69.3c-.87,2.1-1.73,4.2-3,7.4l11.07,2.24,9.84,15.48L75.33,23l-4.41,4.87q1.26,4,2.64,8.36l-4.4-.54L72.45,42V56.07L79.26,54l-4.52,3.42,1,6.16c-1.83,5.63-3.6,9.39-4.16,13.33-.52,3.64.25,7.47.49,11.78h2.59l.06.79-4,.94c-.65,2.85-1.29,5.68-2,8.82l-1-.94L49,114.74v2.78l14.28,2.19c-.8-3.15-1.12-4.41-1.8-7.12l3.32,4.57,8.63-.75c-.4,1-.79,2.07-1.6,4.22l7.45-2.58,15.17,2.8L92,115l8.5,1,4.49-5.25c-1.82,4.12-2.68,6-4,9l8-.81,2.9-4.57L94.2,94.36c-.29-.61-1.36-2.8-2.42-5l.9.12c-1.31-7.94-2.62-15.88-4-24.21l-2.14.78.59-8.64-4.31-3.53,7,2.3V40.58l4.5-4.25H90.89c.82-2.69,1.63-5.34,2.57-8.44l-1.15-1.47,25.76-22,6.68.61c.71-1,1.52-2.06,3.77-5.08L124.8,9.84l11,2c2.82,4.48,6.23,9.92,9.77,15.54l7.35-4.53-4.6,5.05c.93,2.73,1.83,5.37,2.79,8.21l-4.4-.52,3.26,6.46v14L156.72,54l-4.52,3.44,1.3,8-1.9-.17c-1.12,7.77-2.24,15.53-3.4,23.6l3.72-.31.27.7-4,1.28-1.93,8.66-1-.83-18.9,16.53c0,.94.1,1.88.14,2.82L141,119.53c-1-3.08-1.33-4.34-2.35-7.63l3.61,5.28,8.71-.73c-.41,1.11-.79,2.16-1.55,4.25l7.6-2.76,14.83,2.89c-1.28-3.24-1.75-4.46-2.24-5.69l8.7.92c.77-1,1.64-2.19,2.51-3.36l.68.36c-.84,1.94-1.67,3.88-2.91,6.77l8-.83,2.86-4.41L171.59,94.1l-2.22-4.58,1.44-.35-3.95-12.42c.18-3.57.37-7.49.6-12L164,65.84c.22-2.83.44-5.62.67-8.56l-4.35-3.2,6.91,2V40.56l4.43-3.9-3.24-.72,2.58-8c-.75-.93-1.61-2-1.2-1.47L195.48,4.48l6.78.6,2.25-3.21.71.27-3,7.72,11.66,2.2a45,45,0,0,0,3.24,7c1.77,2.77,4.18,5.13,6.43,7.81l6-3.31L225.75,28l2.88,8.08-4.48-.27,3.24,6.28v14.1l7-2.49-4.72,3.72c.48,2.79.93,5.45,1,5.86-1.89,5.87-3.67,9.64-4.21,13.57-.5,3.63.33,7.44.62,11.79h2.52l.06.79-4,1c-.67,2.92-1.34,5.81-2.27,9.86-.76-1.81-1.25-3-.81-1.94l-18.65,16.42.08,2.8,14.44,2.13c-.93-3.1-1.31-4.33-2.17-7.18l3.59,4.71,8.48-.79-1.41,4.23,7.5-2.7,14.69,3c-1.1-3.1-1.53-4.32-2.06-5.8l8.76.84c.75-1.07,1.54-2.23,2.33-3.38l.7.3c-.77,2-1.54,3.9-2.69,6.83l7.79-.68,2.89-4.47L248.93,93.9c0-.1-1.11-2.29-2.17-4.48l1.48-.32c-1.3-4.08-2.59-8.15-3.75-11.78V64.83L241.39,66c.25-2.85.49-5.62.76-8.65l-4.56-3.26L245,56V39.54l5.47-3.21h-4.77l2.87-8.2-1.35-1.65L272.42,4.87Zm17.39,85.6c1.49-8.45,2.77-15.76,4.16-23.69l-4.93,1.57V55.71l2.61.31V38.9l-4.11.28c-.83-3.77-1.63-7.43-2.41-11l3.85-.23-6.56-5.61c-1.76-7.6-15-12.51-22.54-9-1.79-.15-3.95-.07-5.07,1.05-4.06,4-7.77,8.43-12.68,13.88h4.88c-.76,3.76-1.5,7.44-2.23,11l-5-2.22c-.82,7-1.54,13.15-2.29,19.5l3.19-.69v11a27,27,0,0,0-2.77,11.3c0,2,2.33,4,3.61,5.92l.62-.41L256.17,91l-3.51,1.75,17.6,21.36,1.5-1.2L270.59,110c7.78,2.89,19.18-3.25,23.52-12.48l-1.9-.35q1.82-5.74,3.45-11Zm28.53-22.68-1,0c-.79,3.59-2.23,7.21-2.13,10.78.06,2.31,2.39,4.55,3.7,6.83l.84-.47c1.28,2.38,2.57,4.76,4,7.35l-3.34,1.86,17.59,21.31,1.59-1.26-1.45-2.84c8.06,2.84,19.78-3.55,23.53-12.52l-1.85-.45,3.63-10.69,3.89,2.39c1.42-8,2.72-15.35,4.15-23.39l-5,1.68V55.67l2.71.45c-.23-17.6-.23-17.6-4.17-17.07-.83-3.63-1.63-7.18-2.46-10.82l3.72-.39-6.63-5.7c-.23-1.4-.47-3-1.08-6.78l-23.27-3c1.71.63.68,0,.42.19-5.18,4.55-10.28,9.2-17.13,15.4l5.9.33c-.81,3.77-1.57,7.34-2.34,10.94l-4.82-2.3c-.87,7-1.63,13.13-2.42,19.52l3.42-.69ZM530.7,27.46l-6.41-5.34c-.24-1.6-.48-3.16-1-6.9l-21-2.51c0,.79,0,.17,0-.45l-2.12-2.08L484.62,26.07l1.76,2.06,2.75.2c-.78,3.78-1.51,7.34-2.27,11l-4.68-2.71c-.86,7.21-1.61,13.44-2.38,19.82l3.24-.69V67.24c-4.92,2.09-4.78,9.23.91,17.82l.45-1.35,4.14,7.23L485.16,93c6.12,7.36,11.85,14.24,17.57,21.13l1.51-1.24L502.69,110c8.17,2.91,19.5-3.16,23.8-12.46l-1.79-.52L528,86.32l4.15,2.37c1.36-8.08,2.57-15.31,3.88-23.19l-4.7,1.56V55.77l3.63.58c-3.24-5.77,4.13-14.09-5.42-18-.6-2.81-1.36-6.41-2.13-10ZM36.59,12.56c.73.55-.21-.33-.33-.23-5.43,4.61-10.79,9.29-17.81,15.4l5.95.58-2.31,10.9L17.24,37c-.81,7-1.51,13.13-2.24,19.46l3.13-.65V66l-4,8.81c1.26,3.17,2.64,6.61,4.22,10.57l1.18-2,4.14,7.61-3.28,1.94,17.5,21.19,1.49-1.23c-.46-.85-.91-1.69-1.52-2.85,8.31,2.93,20.15-3.44,23.69-12.37l-1.8-.52c1.27-3.75,2.48-7.31,3.59-10.6l4,2.2c1.39-8,2.65-15.21,4-23.24L66.58,67.1V55.91l3.47.15c-3-5.66,4.58-14.13-5.15-17.35L62.57,28.26l2.58-.46-7.66-9.93,1-2.67ZM222.23,89c1.41-8.35,2.64-15.62,4-23.41L221.38,67V55.76l3.42.55C222,50.38,229.7,42,219.75,38.77c-.68-3.33-1.42-6.92-2.16-10.56l3.68-.25-6.56-5.62c-.4-1.61-.86-3.46-1.8-7.21l-22.46-2.66c1.52.48.39-.19.09.08-5.2,4.56-10.29,9.24-17.23,15.55h6.15c-.81,3.7-1.61,7.4-2.41,11l-4.89-2.08c-.82,6.94-1.56,13.12-2.31,19.45l3.18-.69V67a25.61,25.61,0,0,0-2.73,11.32c0,2,2.36,3.91,3.65,5.86l.64-.46,4,7.23-3.41,1.81L192.85,114l1.44-1.16-1.35-3.05c7.73,3.35,20.14-3.32,23.47-12.21l-1.62-.47,3.53-10.78ZM424.81,12.27l-2.1-2.11c-5.14,5.32-10.28,10.64-17.06,17.64l6.06.53c-.79,3.8-1.54,7.37-2.29,11l-4.69-2.66c-.89,7.16-1.66,13.38-2.46,19.8l3.27-.64v11.1c-1.71,2.92-3.22,6.38-3.14,9.81.05,2.4,2.28,4.74,3.54,7.1l.93-.44,4.26,7.56-3.53,1.72,17.59,21.48L426.8,113c-.44-.89-.88-1.79-1.52-3.07,8.21,3.11,20.06-3.41,23.65-12.47L447.15,97c1.25-3.79,2.39-7.28,3.49-10.65l4,2.41c1.4-8,2.68-15.28,4.1-23.38l-4.9,1.7V55.69l2.48.39c.34-3.68,1.19-7.07.8-10.32-.3-2.61-2.1-5-3.23-7.55l-1.53.78c-.83-3.57-1.66-7.15-2.48-10.71l3.45-.74-6.43-5.38c-.25-1.61-.5-3.17-1.09-6.93l-21-2.51C424.7,13.52,424.75,12.89,424.81,12.27ZM95.55,55.82V66.23l-4,8.68c1.26,2.73,2.78,6,4.29,9.26l1.34-.68c1.28,2.45,2.55,4.9,3.86,7.43-.06,0-.78.52-3.13,2.08l17.44,20.91,1.35-1-1.26-3.18c7.93,3.27,19.58-2.93,23.61-12l-1.68-.64,3.54-10.65c.59.35,1.7,1,3.81,2.26,1.42-8,2.73-15.21,4.13-23.06L144,66.93V55.84l3.47.23C144.55,50.36,152,42,142.26,38.62l-2.19-10.34,2.53-.42C135.74,16.09,122.78,9.66,115.1,14l-1.85-2L96.14,28l5.81.29q-1.24,5.72-2.4,11l-4.81-2.28c-.83,7-1.57,13.14-2.34,19.51Z"/><path class="cls-1" d="M747.39,3.76C747,4.58,746,6.84,744.62,10l11.19,2c2.87,4.53,6.32,10,9.9,15.59l4.9-3.11.48.57c-.89,1-1.79,2-2.67,2.94l2.8,8h-4.35c1.4,2.8,2.48,5,3.16,6.35v14l7.17-2.63c-2.61,2-3.73,2.88-4.85,3.76l1.25,8.54L771.45,66c-1,7.48-1.9,15-2.89,22.77l5.82.34-6.16,1.5c-.66,2.88-1.29,5.66-2,8.56l-3.35-2.65v5.69l-17,12.43.63,3.33,14.57,1.67c-1-2.84-1.4-4-2.39-6.83l3.76,4.53,8.47-.76-1.49,4.28,7.87-2.82,13.77,3.22c-.55-2.88-.81-4.28-1.12-5.89l8.28.86,4-5.26c-1.59,4.17-2.34,6.15-3.47,9.1l7.83-.85,3.64-5.78-10.87-8c-1.36-2.68-3.25-6.38-5.13-10.09l-1.7,1.09-2.11-5c-1.46-9.66-2.69-17.86-4-26.33l-2.31,1.07c.22-2.93.42-5.67.65-8.74l-4.37-3.17,7.19,1.86V41l3.64-4.15-2.78-.69c.82-2.38,1.67-4.84,2.63-7.64l-1.31-1.88,25.7-22,6.9.59,2.48-3.47.64.32L822.12,10l10.61,1.89,10.72,15.82,6.24-4.47L846,28.09l2.57,8h-2.79c.71,6.59,1.41,13.13,2.16,20.08L854.86,54l-5.07,3.55L851,66.08,848.87,66c-.94,7.5-1.87,15-2.85,22.82l1.91.12-4.86,9.73-2-1.59a3.64,3.64,0,0,0-.73.3c1.32,11.93-15.17,8.37-15.45,20.69l13.65,1.64-2.28-6.94c2,2.51,2.86,3.62,3.67,4.63l8.55-.82c-.44,1.15-.81,2.12-1.62,4.21l7.77-2.64,14,3c-.54-2.82-.8-4.13-1.11-5.74l8.27.82,4-5.36-3.51,9.11,7.78-.75,2.92-4.42c-5.5-6.31-10.87-12.49-16.33-18.77l-.54.51-3.25-7.1.77.08c-1.21-8-2.43-16-3.69-24.2l-2.37.85c.25-2.79.48-5.4.74-8.39l-4.21-3.44L865,56.22c.54-6.6,1-12.82,1.64-20.27,1.43.75,1,.44.59.34a4.08,4.08,0,0,0-1.26.15c.87-2.65,1.68-5.13,2.63-8-.72-1-1.52-2.09-1.28-1.75L893.05,4.62l6.84.68c.68-1,1.46-2.17,2.23-3.33l.8.34c-1,2.25-2,4.5-3.41,7.73l10.89,1.8,10.29,15.83,4.72-3.15.49.57-2.44,2.8c.88,2.84,1.68,5.4,2.58,8.28h-2.62c.65,6.8,1.28,13.33,1.93,20.13l7.18-2.6-5.33,3.87,1.28,8.48-2.11-.17c-1,7.61-1.92,15.21-2.92,23.1h3.4l.1.73-3.7.83c-.77,3-1.48,5.76-2.18,8.5-1-.71-1.89-1.41-.71-.54l-18.85,16.3.06,2.92,14.31,2.15c-.76-3-1-4.1-1.7-6.66l3.24,4.13,8.08-.75-.35,4.06,7.13-2.65L946,121.2c-.52-2.92-.78-4.38-1-5.85l8.36.84c.73-1,1.53-2.15,2.33-3.29l.68.26-2.6,6.73,7.66-.65,3.11-4.45L948,96l-.46.24c-1.11-2.37-2.09-4.44-2.24-4.78-1.38-9.62-2.54-17.71-3.76-26.19L939,66.35c.23-2.85.45-5.58.7-8.64l-4.32-3.5,7.15,2V40.76l4.16-4.54-3.28.18L946,28.16l-1.28-1.53,25.8-22,6.77.61c.67-1,1.47-2.11,2.26-3.26l.74.31-3.25,7.82,11.07,1.67c3.31,5.25,6.62,10.51,10,15.94l6.12-4.31c-1.86,2.61-2.62,3.69-3.35,4.72.86,2.8,1.69,5.46,2.51,8.14l-2.68-.17c.71,6.8,1.4,13.34,2.12,20.23l6.79-2.64-5.05,3.9,1.36,8.68-2.13-.18c-1,7.47-2,15-3,22.78h2l-4.92,9.86-2.07-1.8a3.74,3.74,0,0,0-.69.33c1.6,12-15,8.41-15.31,20.65l13.46,1.83c-.79-3-1.09-4.1-1.84-6.92l3.3,4.46,8.5-.72c-.29,1.09-.57,2.19-1.13,4.32l6.85-2.66,5.81,2.46-10.6,1.66c.08,1.38.15,2.7.19,3.37h-11c.09-.59.3-1.91.52-3.29l-25.19-2.12c-.31.62,0,0,.77-1.59L954.58,123c0,.11.22,1,.49,2.15l-28.2-3.72v4.16H915.93c.1-.58.32-1.86.69-3.92L904.29,123,902,119.81l-11.37,1.47,1.67-2.68L877.13,123l.55,2.19L849,121.39c.31,2.28.46,3.46.57,4.25H838.43c.12-.59.4-1.9.85-4l-11.68,1.31c0-.6,0-1.2,0-1.8H813.25c.13-.2.57-.93,1.55-2.53L799.7,123c0,.21.28,1.06.59,2.19l-28.67-3.79c.27,2.28.43,3.59.51,4.25H760.88l1.17-3.92-12,1.15v-1.78h-14.3l1.74-2.54L722.29,123l.6,2.18-28.7-3.73c.26,2.27.41,3.57.48,4.22H683.28l1-3.23-25.55-2.09,1.21-1.81-15,4.41.39,2.24-28.43-3.81c.15,2.22.23,3.52.28,4.34H605.81c.16-.66.45-1.82,1-4l-11.48,1.1v-1.71H580.79l1.55-2.56L567.44,123l.33,2.22-28.3-3.78.19,4.33H528.38l.91-4-11.48,1.14v-1.73H503.34l1.67-2.44-15.16,4.17.39,2.47-24.83-3.92,2.48-3.5c4.55,1.09,8.46,2,13.89,3.35-1-3.28-1.42-4.66-1.86-6.09l8.34,1,4.43-5.4c-1.83,4.25-2.67,6.19-3.95,9.14l7.88-.8,3.11-4.49-18-20.46-1.18-2.77c-1.5-9.57-2.77-17.66-4.09-26.1l-2.26,1c.22-2.81.44-5.62.67-8.67L470.53,54l7,2.35V40.72c1.34-1.24,2.59-2.4,4.47-4.16l-3.37-.22c.83-2.67,1.66-5.34,2.59-8.31-.73-.9-1.58-1.93-1.17-1.44l25.68-22,6.69.61c.71-1,1.53-2,2.34-3.12l.68.3c-.86,2.1-1.73,4.2-3.05,7.4l11.08,2.24,9.83,15.48,7.19-4.4L536.09,28c.83,2.64,1.72,5.43,2.64,8.36l-4.4-.54,3.29,6.32V56.24l6.81-2.1-4.53,3.42,1,6.16c-1.83,5.63-3.6,9.39-4.16,13.32-.52,3.65.25,7.48.48,11.79h2.6l.06.79-4,.94c-.65,2.85-1.3,5.68-2,8.82l-1-.94-18.64,16.47v2.78l14.29,2.19c-.8-3.16-1.12-4.41-1.81-7.12,1.7,2.32,2.51,3.44,3.33,4.57l8.62-.75c-.39,1-.78,2.07-1.59,4.22l7.45-2.58,15.17,2.8-2.45-5.81,8.5,1,4.49-5.24c-1.82,4.12-2.68,6-4,9l8-.81,2.9-4.57L559.37,94.53l-2.42-5,.9.12c-1.31-7.94-2.62-15.88-4-24.21l-2.15.78.6-8.64L548,54.05l7,2.3V40.75l4.51-4.25h-3.45c.82-2.69,1.63-5.34,2.57-8.44-.63-.8-1.49-1.89-1.15-1.47L583.24,4.64l6.68.61L593.68.17,590,10l11,2c2.82,4.48,6.23,9.92,9.76,15.54l7.36-4.53-4.6,5.05c.93,2.73,1.83,5.37,2.79,8.21l-4.4-.52,3.26,6.46v14l6.77-2.09-4.51,3.44,1.29,8-1.9-.17c-1.11,7.77-2.23,15.53-3.4,23.6l3.73-.32.27.71-4.05,1.28c-.62,2.79-1.25,5.66-1.92,8.66l-1-.83L591.49,115l.15,2.82,14.49,1.84c-1-3.08-1.34-4.34-2.35-7.63l3.61,5.28,8.71-.73c-.41,1.11-.79,2.16-1.55,4.25l7.6-2.76L637,121c-1.28-3.24-1.76-4.46-2.24-5.69l8.7.92,2.51-3.36.68.36c-.84,1.94-1.67,3.87-2.91,6.77l8-.83,2.85-4.41L636.76,94.27l-2.22-4.58,1.44-.35-4-12.42c.18-3.57.37-7.49.6-12L629.14,66c.22-2.83.44-5.62.67-8.56l-4.36-3.2,6.92,2V40.73l4.43-3.9-3.24-.72,2.58-8c-.75-.93-1.61-2-1.2-1.47l25.71-22,6.78.6L669.68,2l.71.27c-.9,2.3-1.79,4.61-3,7.72l11.66,2.2a44.1,44.1,0,0,0,3.24,7c1.77,2.77,4.18,5.13,6.43,7.81l6-3.31-3.78,4.46,2.88,8.08L689.31,36l3.25,6.28v14.1l7-2.49-4.72,3.72c.47,2.79.93,5.45,1,5.86-1.89,5.87-3.67,9.64-4.21,13.57-.5,3.63.33,7.44.61,11.79h2.53l.06.79-4,1c-.67,2.92-1.34,5.81-2.28,9.86-.75-1.81-1.24-3-.81-1.94l-18.64,16.42.08,2.8,14.44,2.13c-.94-3.1-1.31-4.33-2.17-7.18,1.9,2.49,2.79,3.66,3.58,4.71l8.49-.79c-.39,1.17-.74,2.22-1.42,4.22l7.51-2.69,14.69,3c-1.1-3.1-1.53-4.32-2.06-5.8l8.76.84,2.33-3.38.69.3c-.76,2-1.53,3.9-2.68,6.83l7.78-.68,2.9-4.47L714.1,94.07c0-.1-1.11-2.29-2.18-4.48l1.49-.32c-1.3-4.08-2.6-8.15-3.75-11.78V65l-3.1,1.13c.25-2.85.49-5.62.76-8.65l-4.56-3.26,7.36,2V39.7l5.47-3.2h-4.77c1-2.78,1.87-5.35,2.86-8.2l-1.34-1.65L737.59,5Zm17.39,85.6c1.49-8.45,2.77-15.76,4.16-23.69L764,67.24V55.88l2.61.31V39.07l-4.11.28c-.83-3.77-1.63-7.43-2.41-11l3.85-.23-6.56-5.61c-1.76-7.6-15-12.51-22.54-9-1.79-.15-4-.07-5.07,1.05-4.06,4-7.77,8.43-12.68,13.88H722c-.76,3.76-1.51,7.44-2.23,11l-5-2.22c-.82,7-1.55,13.15-2.29,19.5l3.19-.69V67a27,27,0,0,0-2.77,11.3c0,2,2.33,4,3.6,5.92l.63-.41,4.21,7.32-3.51,1.75,17.59,21.36,1.51-1.2-1.18-2.84c7.79,2.89,19.19-3.25,23.53-12.48l-1.9-.35q1.8-5.75,3.45-11Zm28.53-22.68-1,0c-.79,3.59-2.23,7.21-2.13,10.78.06,2.31,2.38,4.55,3.69,6.83l.85-.47c1.28,2.38,2.57,4.76,4,7.35l-3.34,1.86L813,114.36l1.59-1.26-1.46-2.84c8.07,2.84,19.79-3.55,23.54-12.52l-1.85-.45,3.63-10.69L842.3,89c1.42-8,2.72-15.35,4.15-23.39l-5,1.68V55.83l2.7.46c-.23-17.6-.23-17.6-4.16-17.07L837.53,28.4l3.73-.39-6.64-5.7c-.22-1.4-.47-3-1.07-6.78l-23.27-3c1.71.63.68,0,.42.19-5.18,4.55-10.28,9.2-17.13,15.4l5.89.33c-.8,3.77-1.57,7.34-2.34,10.94l-4.82-2.3-2.41,19.52,3.42-.69ZM995.87,27.63l-6.41-5.34c-.25-1.6-.48-3.16-1.05-6.9l-21-2.51c0,.79,0,.17,0-.45l-2.12-2.08L949.79,26.24l1.76,2.06,2.75.2c-.78,3.78-1.51,7.34-2.27,11l-4.68-2.71c-.87,7.21-1.61,13.44-2.38,19.82l3.24-.69V67.41c-4.92,2.09-4.79,9.23.91,17.82l.45-1.35,4.14,7.23-3.39,2.09,17.58,21.13,1.51-1.24-1.55-2.89c8.17,2.91,19.5-3.16,23.8-12.46l-1.79-.52,3.3-10.73,4.15,2.37c1.35-8.08,2.56-15.31,3.88-23.19l-4.7,1.56V55.94l3.63.57c-3.24-5.76,4.13-14.08-5.42-18-.6-2.8-1.36-6.4-2.14-10ZM501.76,12.73c.73.55-.21-.33-.33-.23-5.43,4.6-10.79,9.29-17.81,15.4l5.94.58-2.3,10.9-4.85-2.22c-.81,7-1.52,13.13-2.25,19.46L483.3,56V66.15c-1.43,3.13-2.61,5.69-4,8.81,1.27,3.17,2.64,6.61,4.23,10.57l1.18-2,4.14,7.61L485.53,93,503,114.23l1.48-1.23L503,110.15c8.32,2.92,20.15-3.44,23.7-12.37l-1.8-.52c1.27-3.75,2.48-7.31,3.59-10.6l4,2.2c1.39-8,2.65-15.21,4-23.24l-4.74,1.65V56.08l3.47.15c-3.05-5.66,4.58-14.13-5.16-17.35l-2.32-10.45,2.58-.47L522.66,18l1-2.67ZM687.4,89.12c1.41-8.35,2.63-15.62,4-23.41l-4.8,1.41V55.93l3.42.55c-2.78-5.93,4.9-14.36-5.05-17.55-.68-3.32-1.42-6.91-2.16-10.55l3.67-.25-6.55-5.62c-.4-1.61-.87-3.46-1.81-7.21l-22.46-2.66c1.53.48.4-.19.1.08-5.2,4.56-10.3,9.24-17.23,15.55h6.15c-.81,3.7-1.61,7.4-2.41,11.05l-4.89-2.08c-.82,6.94-1.56,13.12-2.31,19.45l3.18-.7v11.2a25.44,25.44,0,0,0-2.73,11.32c0,2,2.36,3.91,3.65,5.86l.64-.46,4,7.23L640.35,93c6.22,7.47,11.94,14.36,17.67,21.25l1.44-1.16L658.11,110c7.73,3.35,20.14-3.32,23.47-12.21L680,97.31l3.53-10.78ZM890,12.44l-2.1-2.11L870.82,28l6.06.53c-.79,3.8-1.54,7.37-2.3,11-.65-.38-1.85-1-4.68-2.66-.89,7.16-1.67,13.38-2.47,19.8l3.28-.65V67.08c-1.71,2.92-3.22,6.38-3.15,9.81.06,2.4,2.29,4.74,3.55,7.1l.93-.44,4.26,7.56-3.54,1.72,17.6,21.47,1.61-1.14-1.52-3.07c8.21,3.11,20.06-3.41,23.65-12.47l-1.78-.42c1.24-3.79,2.39-7.28,3.49-10.65l4,2.41c1.41-8,2.69-15.28,4.11-23.38l-4.9,1.7V55.86l2.47.39c.35-3.68,1.2-7.07.81-10.32-.31-2.61-2.1-5-3.23-7.55l-1.54.78c-.82-3.57-1.65-7.15-2.47-10.71l3.45-.74L912,22.33c-.25-1.61-.5-3.17-1.09-6.93l-21-2.51C889.86,13.69,889.92,13.06,890,12.44ZM560.72,56V66.4l-4,8.68c1.26,2.73,2.78,6,4.29,9.26l1.34-.69c1.27,2.46,2.55,4.91,3.86,7.44L563,93.17l17.44,20.91,1.35-1-1.27-3.18c7.94,3.27,19.59-2.93,23.61-12l-1.67-.64L606,86.63l3.8,2.26L614,65.83l-4.84,1.27V56l3.46.23c-2.88-5.71,4.55-14.11-5.17-17.45l-2.19-10.34,2.53-.42C600.91,16.26,588,9.83,580.26,14.14l-1.84-2-17.11,16,5.81.29c-.84,3.81-1.63,7.46-2.4,11l-4.81-2.28c-.84,7-1.58,13.14-2.34,19.51Z"/><path class="cls-1" d="M588.59,39.19,584,44.13c1.5-3.34,2.14-4.74,2.57-5.69l-73.78-12.5c0-.26.08.67.11.84l-12.58-.65-.38-1.33-31.61,6,1,2.73L456.8,35.58c0-.39-.15-1.61-.23-2.46l-60.84,6.79c.34,1.68.54,2.7,1,4.81l-4-4.28-9.58,2.32c.22-1,.43-2,.77-3.62H318.05c-.12-.62.17.85.45,2.3l-9.6-2.28-3.23,3.43L305,42.1c.94-1.78,1.89-3.55,2.95-5.54l-64.9-13L248.3,20c8.81,2.8,16.49,6,24.5,7.56,8.61,1.66,17.55,1.52,26.29,2.61,3.11.38,6.06,2.08,9.37,3.28V29.6l12.74,1.77c1.59,4.86,50,9,60.29,4l-1.05-2.48,12.63-1.79c-.13,1.18-.35,3.21-.68,6.21L458.25,30,456,25.59l9.63-1,1.88-4.3.86.14c-.4,2.22-.79,4.43-1.43,8l36.27-7.71c-.73-2-1.2-3.31-1.7-4.67l10,1.25,2.6-3.66.77.32c-.64,1.65-1.27,3.3-2.65,6.89,12.53,3.21,24.73,7.12,37.23,9.32,12.79,2.25,25.88,2.83,39.3,4.18-.15-1.45-.34-3.45-.51-5.12l10.64,2.28L602,29.24c-1.17,2.44-1.77,3.7-3.26,6.78H644l-1.3-3.1,12.53-1.78c-.13,1.11-.39,3.2-.76,6.18L720.73,30,718,25.43l9.88-.76,1.82-4.23.85.19c-.36,2.08-.71,4.16-1.33,7.76L765,20.91l-1-4.73,9.48,1.14,2.75-3.52,1,.45c-1.17,2.27-2.33,4.54-3.61,7.05.47,1.87,1,3.9,1.36,5.46l-13.26-.6c-4.6-3.17-9.13-.26-14.41,1.78-5,1.94-10.92,1.65-16.91,2.4.41,1.25.84,2.53,1.05,3.15l-12.53,2.19V33.07l-61.12,6.87c.42,1.74.66,2.74,1.23,5.08L655,40.37l-9.87,2.5,1-2.92h-48c0-.35,0,.53.11,1.5Z"/><path class="cls-1" d="M357.93,71.33l1.92-5.41L298.59,59v2.75L286,59.34l.9-2c-8.6-2.25-16.95-4.63-25.41-6.48-2-.44-4.47.9-5.38,1.11l-12.6.73c-.7-4-1.48-8.39-2.24-12.68L244,43.29,253.55,42l-1.45,4.72,36.08,7.65-1.53-9.9c1.63,3.32,2.3,4.68,3,6.16l10.05.72c-.92,1.17-1.79,2.29-3.46,4.44l66.59,7.47c-.38-2.93-.65-5-.82-6.28l12.6,1.85-1.06,3.32h44.86l-1.93-5,12.57-1.49v5.65l68.63-11.27,7.16-4.68c-1-2.23-1.7-3.69-3.49-7.59l4.9,5.49,9.78-1.4c-.46,1.23-.94,2.48-1.79,4.73l36.18,7.77c-.6-3.49-1-5.69-1.36-7.88l.74-.27c.6,1.33,1.21,2.66,1.95,4.28l9.89.92L559,55.85l66.09,7.41c-.31-2.83-.53-4.85-.68-6.25L637,58.75c-.09.22-.48,1.24-1.42,3.71,5.05,0,9.56-.06,14.07,0,4,.08,8,.58,12,.44,9.9-.36,19.82-.77,29.69-1.69,2-.19,3.78-2.68,5.6-4.06l12-1.59c0,.64-.11,2.2-.18,3.49L757,50.16c.17.44.35.87.52,1.3l10.59-6.22,6.4,4.17-65,13.07,2.79,5.45-.63.54L708.66,65l-9.85,2.44c.41-1.34.8-2.59,1.42-4.6l-30.6,3.38H633.79c.14.44.47,1.44.81,2.48l-10.18-2.47L620.89,71c.46-2.27.65-3.19,1.05-5.13l-61-6.78c-.07.7-.21,2.06-.28,2.66l-12.4-2.41c.11-.3.56-1.5,1-2.58l-31.28-6-.31,1.81H504.81v-.74L431.08,64.39,432.69,68l-.78.76-2.27-3.84-10.51,2.53.52-4.06L404.4,67.18l.11-.91H371.56c.07.26.33,1.33.61,2.46l-9.61-2.36Z"/><path class="cls-1" d="M255.45,20.25l-.95-.45-2.75,3.52-9.48-1.14.95,4.73-35.78,7.48c.62-3.6,1-5.68,1.33-7.76l-.86-.19c-.61,1.44-1.23,2.88-1.81,4.23l-9.88.76c.73,1.21,1.51,2.5,2.72,4.53l-66.22,7.36c.37-3,.62-5.07.76-6.18L121,38.92l1.3,3.1H76.92l3.26-6.78L77,37.55,66.39,35.27c.17,1.67.36,3.67.51,5.12L54.34,38.67,44,36.36l2.64-6.9-.77-.32-2.6,3.66-9.95-1.24L35,36.23c-5.05,1.07-19.26.5-35-.35a13.48,13.48,0,0,1,.14,2c0,.45,0,.9-.05,1.35,14.61,1,27.5,1.79,31.66,1l.38,1.32,12.58.66c0-.13-.09-.69-.11-.85l20.13,3c-.42,1-1.06,2.35-2.57,5.69l4.65-4.94,9.65,2.26c-.07-1-.14-1.85-.11-1.5h48c-.35,1-.69,1.91-1.06,2.92l9.88-2.5L137.25,51,136,45.94l61.12-6.87v2.61l12.53-2.19-1.06-3.15c6-.75,11.89-.46,16.92-2.4,5.28-2,9.81-4.95,14.41-1.78l13.26.6c-.39-1.56-.9-3.59-1.36-5.47Z"/><path class="cls-1" d="M252.72,55.41l-6.39-4.17-10.59,6.22c-.18-.43-.35-.86-.52-1.3L187,65.07c.07-1.29.15-2.85.18-3.49l-12.06,1.59c-1.81,1.38-3.59,3.87-5.59,4.06-9.87.92-19.79,1.33-29.7,1.69-4,.14-8-.36-12-.44-4.5-.08-9,0-14.07,0,1-2.47,1.34-3.49,1.42-3.71L102.62,63c.16,1.4.38,3.42.69,6.25-22.28-2.5-37.68-5-59.95-7.45L46,57.42l-9.89-.92L34.2,52.22l-.74.27c.38,2.19.76,4.39,1.37,7.89-10-2.16-23.57-4.19-34.75-6.25,0,1.1,0,2.2-.08,3.3,10.23,1.73,24.18,3.45,33.63,5.26l-1,2.58,12.4,2.41c.07-.6.21-2,.29-2.66C65.93,67.31,80,69.6,100.16,71.84c-.4,1.94-.59,2.86-1,5.13,1.81-2.42,2.78-3.71,3.53-4.7l10.18,2.47c-.34-1-.67-2-.81-2.48h35.83l30.61-3.38c-.62,2-1,3.26-1.42,4.6L186.88,71c1.12,1.27,2.09,2.35,3.05,3.43l.63-.54-2.79-5.45Z"/><path class="cls-1" d="M1016.91,21.91c-11.83.28-26-.63-34.9,1.25.64-3.62,1-5.83,1.43-8l-.86-.14c-.64,1.46-1.27,2.92-1.87,4.3l-9.63,1c.69,1.33,1.35,2.62,2.29,4.42-22.12,4.65-32.81,10.16-54.8,12.59.32-3,.54-5,.67-6.21l-12.63,1.79c.19.45.63,1.47,1,2.48-10.28,5.06-58.7.88-60.28-4L834.63,29.6v3.8c-3.3-1.2-6.25-2.9-9.37-3.28-8.74-1.09-17.68-.95-26.29-2.61-8-1.54-15.69-4.76-24.5-7.56l-5.24,3.56,64.9,13.05-3,5.54.66.49,3.23-3.43,9.6,2.28c-.21-1.08-.42-2.16-.46-2.4l0,.1H910l-.76,3.62,9.57-2.32,4,4.28c-.42-2.11-.62-3.13-1-4.81,20.42-2.28,29.61-7.6,49.77-12.1.08.85.2,2.07.23,2.46l12.44-2.08-1-2.73c8.3-1.57,22.59,0,33.52,0Z"/><path class="cls-1" d="M1016.91,53.76V51.13c-16.57,2.21-13.52-.68-33.28,2.56V48l-12.57,1.49c.29.75,0,1.18.05,3.45-5.54,1.27-56.43,9.19-71.34,9.19l1.05-3.32L888.23,57c.16,1.29.43,3.35.81,6.28l-66.58-7.47,3.45-4.44-10-.72-3-6.16c.68,4.36,1,6.55,1.54,9.9l-36.08-7.65L779.73,42l-9.55,1.27c-1-1.24-2-2.4-2.76-3.29l2.25,12.68,12.6-.73c.91-.21,3.33-1.55,5.37-1.11,8.47,1.85,16.82,4.23,25.42,6.48-.24.54-.77,1.72-.91,2l12.62,2.4V59L886,65.92c-.58,1.64-.89,2.51-1.91,5.41l4.63-5,9.6,2.36c-.27-1.13-.54-2.2-.6-2.46,11.17,0,49.91-6.31,61.31-7.67,0,.3-.07.61-.11.91l15.25-3.78c-.28,2.21-.4,3.15-.51,4.06l10.5-2.52,2.28,3.84.77-.77c-.68-1.52-1.35-3.05-1.6-3.61C1004.09,53.57,1006.67,54.71,1016.91,53.76Z"/></g></g></svg>