<svg xmlns="http://www.w3.org/2000/svg" viewBox="0 0 420.46 402.87"><defs><style>.cls-1{fill:#be1e2d;}.cls-2{fill:#414042;}.cls-3,.cls-6{fill:#fff;}.cls-4{font-size:18.04px;}.cls-4,.cls-5{fill:#231f20;font-family:CalvinAndHobbesNormal, Calvin and Hobbes;}.cls-5{font-size:15px;}.cls-6{stroke:#fff;stroke-miterlimit:10;stroke-width:0.2px;}</style></defs><g id="Layer_2" data-name="Layer 2"><g id="Layer_1-2" data-name="Layer 1"><path class="cls-1" d="M207.64,50.2,207.3,0,0,.17l.33,50H0V352.64l.33,50.23,207.31-.15-.34-50.08h.34Zm-6,342.43H6v-6H201.66Zm0-12H6v-6H201.66Zm0-12H6v-6H201.66Zm0-328.55H6v-6H201.66Zm0-12H6v-6H201.66Zm0-12H6v-6H201.66Z"/><path class="cls-2" d="M420.46,178.52l-.34-50.2-207.3.17.33,50h-.33V352.64l.33,50.23,207.31-.15-.34-50.08h.34Zm-6,214.11H218.8v-6H414.48Zm0-12H218.8v-6H414.48Zm0-12H218.8v-6H414.48Zm0-200.23H218.8v-6H414.48Zm0-12H218.8v-6H414.48Zm0-12H218.8v-6H414.48Z"/><path class="cls-3" d="M53,277.07l0-145H19.54c0,24.1.06,121,.07,145Zm-3.1-139.39a2.62,2.62,0,0,1-2.6,2.6,2.58,2.58,0,1,1,2.6-2.6Zm-27.21-.19a2.52,2.52,0,0,1,2.58-2.36,2.56,2.56,0,0,1,2.4,2,2.61,2.61,0,0,1-2,3.12c-.13,0-.27,0-.4,0A2.6,2.6,0,0,1,22.66,137.49Zm27.24,134a2.57,2.57,0,0,1-5.14,0,2.57,2.57,0,1,1,5.14,0Zm-27.26,0a2.58,2.58,0,0,1,2.56-2.54,2.62,2.62,0,0,1,2.52,2.64,2.54,2.54,0,1,1-5.08-.1Z"/><text class="cls-4" transform="matrix(0, 1, -1, 0, 28.88, 161.33)">Pasha Bezor</text><path class="cls-3" d="M143.23,242.29,67.83,118.4,39.3,135.76c12.53,20.59,62.91,103.31,75.43,123.88ZM68.15,124.81a2.62,2.62,0,0,1-.87,3.57A2.58,2.58,0,0,1,64.63,124,2.6,2.6,0,0,1,68.15,124.81Zm-23.34,14a2.5,2.5,0,0,1,1-3.35,2.56,2.56,0,0,1,3.09.45,2.6,2.6,0,0,1-.12,3.72,3.92,3.92,0,0,1-.32.25A2.58,2.58,0,0,1,44.81,138.79Zm92.88,100.3a2.57,2.57,0,0,1-4.4,2.66,2.57,2.57,0,1,1,4.4-2.66Zm-23.3,14.15a2.57,2.57,0,0,1,.87-3.5,2.62,2.62,0,0,1,3.52.94,2.54,2.54,0,1,1-4.39,2.56Z"/><text class="cls-4" transform="matrix(0.52, 0.86, -0.86, 0.52, 54.67, 142.99)">Arthur Golyakov</text><path class="cls-3" d="M164.57,319.06l-145,0v33.4c24.09,0,121-.07,145-.07ZM25.18,322.17a2.61,2.61,0,0,1,2.6,2.59,2.58,2.58,0,1,1-2.6-2.59ZM25,349.37a2.51,2.51,0,0,1-2.36-2.57,2.58,2.58,0,0,1,2-2.41,2.62,2.62,0,0,1,3.12,2c0,.14,0,.27,0,.41A2.59,2.59,0,0,1,25,349.37Zm134-27.23a2.57,2.57,0,1,1,0,5.13,2.57,2.57,0,1,1,0-5.13Zm0,27.25a2.57,2.57,0,0,1-2.54-2.56,2.61,2.61,0,0,1,2.63-2.51,2.54,2.54,0,1,1-.09,5.07Z"/><text class="cls-4" transform="matrix(1, 0, 0, 1, 36.98, 343.13)">Vanya Venmer</text><path class="cls-3" d="M164.57,281.27l-145,0v33.4l145-.07ZM25.18,284.38a2.62,2.62,0,0,1,2.6,2.59,2.58,2.58,0,1,1-2.6-2.59ZM25,311.58A2.51,2.51,0,0,1,22.63,309a2.57,2.57,0,0,1,2-2.4,2.6,2.6,0,0,1,3.12,2c0,.13,0,.26,0,.4A2.58,2.58,0,0,1,25,311.58Zm134-27.23a2.57,2.57,0,1,1,0,5.14,2.57,2.57,0,1,1,0-5.14Zm0,27.25a2.57,2.57,0,0,1-2.54-2.55,2.61,2.61,0,0,1,2.63-2.52,2.54,2.54,0,1,1-.09,5.07Z"/><text class="cls-5" transform="matrix(1, 0, 0, 1, 30.63, 305.32)">Stanislav Lobachevskiy</text><path class="cls-6" d="M268.13,199.55l.19,32.49c.06,10.5-3.44,17.82-15,17.89-10.67.06-14.51-7.09-14.57-17.59l-.18-32c-.07-11.85,5.19-17.82,14.88-17.87C262.94,182.39,268.07,188.17,268.13,199.55Zm-20.61-.28.19,33.92c0,5.61,1.76,8.46,5.91,8.44,3.94,0,5.7-2.69,5.67-8.78l-.2-33.83c0-5.6-1.94-8.3-5.79-8.28S247.49,193.15,247.52,199.27Z"/><path class="cls-6" d="M304.4,199.34l.19,32.49c.05,10.51-3.45,17.83-15,17.89-10.67.06-14.52-7.09-14.58-17.59l-.18-32c-.07-11.84,5.2-17.81,14.89-17.87C299.21,182.19,304.34,188,304.4,199.34Zm-20.61-.27L284,233c0,5.6,1.76,8.46,5.9,8.44,3.94,0,5.71-2.69,5.67-8.78l-.19-33.83c0-5.61-1.95-8.3-5.79-8.28S283.75,192.94,283.79,199.07Z"/><path class="cls-6" d="M313.36,213.75l-.08-14.57,8.36-.05.08,14.58Zm.2,35-.09-14.58,8.37,0,.08,14.57Z"/><path class="cls-6" d="M360,199l.18,32.49c.06,10.5-3.44,17.82-15,17.89-10.66.06-14.51-7.09-14.57-17.59l-.18-32c-.07-11.85,5.2-17.82,14.89-17.87C354.83,181.87,360,187.65,360,199Zm-20.61-.28.19,33.92c0,5.61,1.76,8.46,5.9,8.44,3.94,0,5.71-2.69,5.67-8.78L351,198.5c0-5.6-2-8.3-5.8-8.28S339.37,192.63,339.41,198.75Z"/><path class="cls-6" d="M396.29,198.83l.18,32.48c.06,10.51-3.44,17.83-15,17.89-10.67.06-14.51-7.09-14.57-17.59l-.18-32c-.07-11.84,5.19-17.81,14.88-17.87C391.09,181.67,396.22,187.44,396.29,198.83Zm-20.62-.28.2,33.92c0,5.6,1.76,8.46,5.9,8.44,3.94,0,5.7-2.69,5.67-8.78l-.19-33.83c0-5.61-1.95-8.3-5.8-8.28S375.64,192.42,375.67,198.55Z"/><path class="cls-3" d="M270,304.73l3.66,0c2.74,0,4.1,1.38,4.08,4.41v1.06c0,2.82-1,4.77-4.27,4.76H272.3l0,7.53h-2.38Zm2.35,8.28h.88c1.84,0,2.13-1.09,2.14-2.87v-.9c0-1.36-.26-2.5-1.91-2.51h-1.09Z"/><path class="cls-3" d="M279.3,313.5c0-2.24,0-3.32,0-4.64h2.26c0,.3.06,1.37.06,2.18a3,3,0,0,1,3-2.36l0,2.94c-1.61,0-2.88.63-2.89,3.29l0,7.62h-2.38Z"/><path class="cls-3" d="M288,316.32v2.1c0,1.18.25,2.33,1.41,2.34s1.36-1,1.36-2.12v-.08h2.33v.07c0,1.5-.35,4.15-3.66,4.14s-3.77-2-3.76-4.82l0-4.73c0-2,.66-4.55,3.81-4.54,2.8,0,3.66,2,3.65,4.56,0,.77,0,2.3,0,3.09Zm2.86-1.88v-1.53c0-1.27-.25-2.19-1.39-2.2s-1.44.8-1.45,2.19v1.52Z"/><path class="cls-3" d="M295,312.88c0-2.62,0-3.32,0-3.95h2.28a11.73,11.73,0,0,1,.08,1.23,2.48,2.48,0,0,1,2.38-1.44,2,2,0,0,1,2.16,1.53,2.76,2.76,0,0,1,2.58-1.51c1.43,0,2.65.7,2.63,3.36l0,10.53h-2.38l0-10.08c0-1-.23-1.65-1.12-1.65-1.09,0-1.34.9-1.35,2.3l0,9.42h-2.4l0-10c0-1.34-.36-1.73-1.13-1.73-1.08,0-1.33.92-1.34,2.33l0,9.39H295Z"/><path class="cls-3" d="M309.52,309h2.38l-.06,13.66h-2.38Zm0-4.88h2.39l0,2.85h-2.38Z"/><path class="cls-3" d="M316.22,316.43v2.1c0,1.19.24,2.34,1.41,2.34s1.35-1,1.35-2.11v-.09h2.33v.08c0,1.49-.35,4.15-3.65,4.14s-3.78-2.06-3.77-4.82l0-4.74c0-1.95.67-4.55,3.81-4.53,2.8,0,3.67,2,3.66,4.55,0,.78,0,2.31,0,3.09Zm2.85-1.88V313c0-1.26-.25-2.19-1.39-2.19s-1.44.8-1.44,2.19v1.52Z"/><path class="cls-3" d="M323.26,313.68c0-2.24,0-3.32,0-4.64h2.26c0,.3.07,1.37.06,2.18a3,3,0,0,1,3-2.36v2.93c-1.62,0-2.89.64-2.9,3.3l0,7.62h-2.38Z"/><path class="cls-3" d="M331.92,316.5v2.1c0,1.18.24,2.33,1.4,2.34s1.36-1,1.36-2.12v-.08H337v.07c0,1.5-.35,4.15-3.65,4.14s-3.78-2-3.77-4.82l0-4.73c0-2,.66-4.55,3.81-4.54,2.8,0,3.67,2,3.66,4.56,0,.77,0,2.3,0,3.09Zm2.86-1.89v-1.52c0-1.27-.25-2.19-1.39-2.2s-1.44.8-1.44,2.19v1.52Z"/><path class="cls-3" d="M346.41,304.26l-.07,14.86c0,1.89,0,2.93,0,3.68h-2.28c0-.31-.08-1.05-.08-1.32a2.38,2.38,0,0,1-2.41,1.52c-2.39,0-2.89-1.91-2.88-4.55l0-5.45c0-2.39.94-4.09,3.13-4.08a2.31,2.31,0,0,1,2.14,1l0-5.64Zm-5.29,8.89,0,5.46c0,1.46.34,2.23,1.35,2.24,1.24,0,1.51-1.15,1.52-2.84l0-4.33c0-1.48-.14-2.62-1.46-2.62C341.51,311.05,341.12,311.86,341.12,313.15Z"/><path class="cls-3" d="M359.52,313.25l0,5.45c0,2.94-1.45,4.36-3.87,4.35s-3.78-1.45-3.77-4.34l0-5.57c0-2.82,1.57-4.19,3.88-4.18S359.54,310.49,359.52,313.25Zm-5.25-.13,0,5.68c0,1.26.4,2.13,1.44,2.14s1.42-.69,1.42-2.17l0-5.66c0-1.17-.35-2-1.42-2S354.28,311.79,354.27,313.12Z"/><path class="cls-3" d="M361.51,313.39c0-2.76,0-3.55,0-4.19h2.28a11.09,11.09,0,0,1,.08,1.29,2.52,2.52,0,0,1,2.52-1.49c1.59,0,2.76.95,2.74,3.5l0,10.38H366.7l0-9.92c0-1.27-.42-1.81-1.27-1.81-1.05,0-1.57.53-1.58,2.69l0,9h-2.38Z"/><path class="cls-3" d="M262,333.79h1.5v-3.31h2.38l0,3.31h1.8v2.1h-1.8l0,8.54c0,.67.1,1.25.94,1.25a3.13,3.13,0,0,0,.79-.07v1.81a4.19,4.19,0,0,1-1.58.24c-1.55,0-2.52-.56-2.51-2.81l0-9H262Z"/><path class="cls-3" d="M268.75,345.87l4.4-9.86-4,0v-2.17l6.6,0v1.67l-4.27,9.8,4.28,0-.22,2.17-6.82,0Z"/><path class="cls-3" d="M279.25,333.86c.41,2.53,1.35,8.17,1.67,11h0c.24-2.67,1.4-8.3,1.84-11h2.39l-3,13.65h-2.7l-2.8-13.68Z"/><path class="cls-3" d="M288.43,341.32v2.1c0,1.18.25,2.33,1.41,2.34s1.35-1,1.36-2.12v-.08h2.32v.07c0,1.5-.34,4.16-3.65,4.14s-3.77-2-3.76-4.82l0-4.73c0-2,.66-4.55,3.8-4.54,2.8,0,3.67,2,3.66,4.56,0,.78,0,2.31,0,3.09Zm2.86-1.88v-1.53c0-1.27-.24-2.19-1.38-2.19s-1.44.8-1.45,2.19v1.51Z"/><path class="cls-3" d="M294.53,333.92H296l0-3.31h2.37v3.31h1.8V336h-1.8l0,8.53c0,.67.1,1.25.94,1.26a3.56,3.56,0,0,0,.79-.08v1.81a4.19,4.19,0,0,1-1.58.24c-1.55,0-2.52-.56-2.51-2.81l0-9h-1.49Z"/><path class="cls-3" d="M301.54,338.15c0-2.77,0-3.55,0-4.2h2.27a9.11,9.11,0,0,1,.09,1.3,2.52,2.52,0,0,1,2.52-1.5c1.59,0,2.75,1,2.74,3.51l0,10.38h-2.38l0-9.93c0-1.27-.43-1.8-1.28-1.8-1,0-1.56.53-1.57,2.69l0,9H301.5Z"/><path class="cls-3" d="M311.55,334h2.38l-.05,13.67H311.5Zm0-4.87H314V332h-2.38Z"/><path class="cls-3" d="M318.67,340.12h.05c.63-1.51,2-4.4,2.7-6.09h2.5l-2.56,5,2.79,8.64h-2.6l-1.84-6.32-1,2,0,4.3h-2.36l.08-18.54h2.36Z"/><path class="cls-3" d="M325.49,347.71l0-3.82h2.38l0,3.82Z"/><path class="cls-3" d="M337.43,338.16l0,5.45c0,2.94-1.46,4.36-3.87,4.35s-3.79-1.45-3.78-4.34l0-5.57c0-2.83,1.57-4.19,3.88-4.18S337.44,335.4,337.43,338.16Zm-5.25-.13,0,5.68c0,1.26.39,2.13,1.43,2.13s1.42-.69,1.42-2.16l0-5.66c0-1.18-.34-2-1.42-2S332.18,336.7,332.18,338Z"/><path class="cls-3" d="M339.42,338.3c0-2.76,0-3.55,0-4.19h2.27a9.24,9.24,0,0,1,.08,1.29,2.53,2.53,0,0,1,2.52-1.5c1.6,0,2.76,1,2.75,3.51l0,10.38H344.6l0-9.92c0-1.27-.43-1.81-1.28-1.81-1,0-1.56.53-1.57,2.69l0,9h-2.38Z"/><path class="cls-3" d="M349.37,347.81l.08-18.53h2.38l-.08,18.53Z"/><path class="cls-3" d="M354.18,334.17h2.39l-.06,13.66h-2.38Zm0-4.87h2.39l0,2.85h-2.38Z"/><path class="cls-3" d="M359,338.38c0-2.76,0-3.55,0-4.19h2.27a9.07,9.07,0,0,1,.09,1.29,2.52,2.52,0,0,1,2.52-1.5c1.59,0,2.75,1,2.74,3.51l0,10.38h-2.38l0-9.92c0-1.27-.43-1.81-1.28-1.81-1,0-1.56.53-1.57,2.69l0,9h-2.38Z"/><path class="cls-3" d="M370.88,341.65v2.11c0,1.18.24,2.33,1.41,2.34s1.35-1,1.36-2.12v-.09H376V344c0,1.5-.35,4.15-3.65,4.14s-3.78-2.05-3.76-4.82l0-4.73c0-2,.66-4.55,3.8-4.54,2.8,0,3.67,2,3.66,4.56,0,.77,0,2.3,0,3.08Zm2.86-1.88v-1.52c0-1.27-.24-2.19-1.38-2.2s-1.44.8-1.45,2.19v1.52Z"/><path class="cls-6" d="M256,267.62l-.08,18.06c0,5.84-2,9.89-8.43,9.87-5.93,0-8-4-8-9.86l.07-17.81c0-6.58,3-9.87,8.38-9.85S256,261.29,256,267.62Zm-11.46-.27-.08,18.86c0,3.12.94,4.72,3.24,4.73s3.18-1.47,3.2-4.86l.08-18.81c0-3.11-1-4.62-3.18-4.63S244.53,264,244.52,267.35Z"/><path class="cls-6" d="M262.26,295.16l.13-30.78a21.84,21.84,0,0,1-3.92.55v-3.87a9,9,0,0,0,5.3-2.72l3.68,0-.15,36.82Z"/><path class="cls-6" d="M272.12,295.2l0-8.11,5.05,0,0,8.11Z"/><path class="cls-6" d="M282.14,295.24l.13-30.77a22.59,22.59,0,0,1-3.92.54v-3.87a9,9,0,0,0,5.31-2.72l3.67,0-.15,36.82Z"/><path class="cls-6" d="M291.34,295.27v-.63c.07-6.46,2.78-10.92,6.79-16.65,3-4.28,4-5.77,4-9.84s-.5-5.66-2.82-5.67c-2.13,0-2.95,1.62-3,4.64v1.82l-4.67,0v-2c0-4.13,1.34-8.74,7.88-8.71,6.07,0,7.68,4,7.66,9.64,0,5.79-1.79,8.15-4.8,12.26s-5.14,7.77-5.44,10.79l10.89.05-.72,4.36Z"/><path class="cls-6" d="M311.43,295.36l0-8.11,5,0,0,8.11Z"/><path class="cls-6" d="M319.56,295.39v-.63c.07-6.46,2.78-10.92,6.79-16.66,3-4.28,4-5.76,4-9.84s-.5-5.65-2.82-5.66c-2.13,0-2.95,1.61-3,4.63v1.82l-4.67,0v-2c0-4.13,1.34-8.73,7.88-8.71,6.06,0,7.68,4,7.65,9.64,0,5.79-1.78,8.15-4.8,12.27s-5.13,7.77-5.43,10.79l10.88,0-.71,4.36Z"/><path class="cls-6" d="M355.28,268l-.07,18.07c0,5.84-2,9.89-8.44,9.86-5.93,0-8-4-8-9.86l.07-17.8c0-6.59,3-9.88,8.38-9.86S355.3,261.69,355.28,268Zm-11.46-.26-.08,18.85c0,3.12.94,4.72,3.24,4.73s3.19-1.46,3.2-4.85l.08-18.81c0-3.12-1-4.63-3.18-4.63S343.83,264.35,343.82,267.76Z"/><path class="cls-6" d="M358.36,295.55v-.63c.06-6.46,2.77-10.92,6.78-16.66,3-4.28,4-5.76,4-9.84s-.5-5.65-2.82-5.66c-2.13,0-2.95,1.61-3,4.63v1.82l-4.67,0v-2c0-4.13,1.35-8.73,7.88-8.71,6.07,0,7.68,4,7.66,9.64,0,5.79-1.78,8.15-4.8,12.27s-5.14,7.76-5.43,10.79l10.88,0-.71,4.36Z"/><path class="cls-6" d="M394.09,268.18,394,286.24c0,5.84-2,9.9-8.44,9.87-5.93,0-8-4-8-9.86l.07-17.8c0-6.59,3-9.88,8.37-9.86S394.11,261.85,394.09,268.18Zm-11.46-.27-.08,18.86c0,3.12.93,4.72,3.24,4.73S389,290,389,286.65l.07-18.81c0-3.12-1-4.63-3.18-4.64S382.64,264.51,382.63,267.91Z"/><path class="cls-3" d="M52.69,114.41c0-24.08,0-10.24,0-34.33H19.25c0,24.09.06,10.24.07,34.33ZM49.58,85.72a2.62,2.62,0,0,1-2.6,2.6,2.58,2.58,0,1,1,2.6-2.6Zm-27.2-.19A2.52,2.52,0,0,1,25,83.17a2.58,2.58,0,0,1,2.4,2,2.62,2.62,0,0,1-2,3.12l-.4,0A2.58,2.58,0,0,1,22.38,85.53Zm27.23,23.25a2.57,2.57,0,1,1-5.14,0,2.57,2.57,0,1,1,5.14,0Zm-27.26,0a2.58,2.58,0,0,1,2.56-2.54,2.61,2.61,0,0,1,2.52,2.64,2.54,2.54,0,1,1-5.08-.1Z"/><path class="cls-3" d="M74.86,114.41c0-24.08,0-10.24,0-34.33H41.43c0,24.09.06,10.24.07,34.33Zm-3.1-28.69a2.62,2.62,0,0,1-2.6,2.6,2.58,2.58,0,1,1,2.6-2.6Zm-27.2-.19a2.52,2.52,0,0,1,2.57-2.36,2.58,2.58,0,0,1,2.4,2,2.62,2.62,0,0,1-2,3.12l-.4,0A2.58,2.58,0,0,1,44.56,85.53Zm27.23,23.25a2.57,2.57,0,1,1-5.14,0,2.57,2.57,0,1,1,5.14,0Zm-27.26,0a2.58,2.58,0,0,1,2.56-2.54,2.62,2.62,0,0,1,2.52,2.64,2.54,2.54,0,1,1-5.08-.1Z"/><path class="cls-3" d="M52.69,91.45c0-24.07,0-10.23,0-34.33H19.25c0,24.1.06,10.25.07,34.33ZM49.58,62.77a2.62,2.62,0,0,1-2.6,2.6,2.58,2.58,0,1,1,2.6-2.6Zm-27.2-.19A2.51,2.51,0,0,1,25,60.22a2.57,2.57,0,0,1,2.4,2,2.6,2.6,0,0,1-2,3.11c-.13,0-.27,0-.4,0A2.58,2.58,0,0,1,22.38,62.58ZM49.61,85.83a2.57,2.57,0,1,1-5.14,0,2.57,2.57,0,1,1,5.14,0Zm-27.26,0a2.58,2.58,0,0,1,2.56-2.54,2.61,2.61,0,0,1,2.52,2.64,2.54,2.54,0,1,1-5.08-.1Z"/><path class="cls-3" d="M74.86,91.45c0-24.07,0-10.23,0-34.33H41.43c0,24.1.06,10.25.07,34.33Zm-3.1-28.68a2.62,2.62,0,0,1-2.6,2.6,2.58,2.58,0,1,1,2.6-2.6Zm-27.2-.19a2.5,2.5,0,0,1,2.57-2.36,2.57,2.57,0,0,1,2.4,2,2.6,2.6,0,0,1-2,3.11c-.13,0-.27,0-.4,0A2.58,2.58,0,0,1,44.56,62.58ZM71.79,85.83a2.57,2.57,0,1,1-5.14,0,2.57,2.57,0,1,1,5.14,0Zm-27.26,0a2.58,2.58,0,0,1,2.56-2.54,2.62,2.62,0,0,1,2.52,2.64,2.54,2.54,0,1,1-5.08-.1Z"/><rect class="cls-3" x="19.31" y="80.02" width="55.52" height="11.44"/><rect class="cls-3" x="19.56" y="80.27" width="55.52" height="11.44" transform="translate(133.31 38.67) rotate(90)"/></g></g></svg>