<svg xmlns="http://www.w3.org/2000/svg" viewBox="0 0 319.22 285.76"><defs><style>.cls-1{fill:#2e3192;}.cls-2{font-size:18.04px;}.cls-2,.cls-3{fill:#fff;font-family:CalvinAndHobbesNormal, Calvin and Hobbes;}.cls-3{font-size:15px;}</style></defs><g id="Layer_2" data-name="Layer 2"><g id="Layer_1-2" data-name="Layer 1"><path class="cls-1" d="M138.62,215.72l-.05-145H105.18c0,24.1.06,121,.07,145ZM135.51,76.33a2.62,2.62,0,0,1-2.6,2.6,2.58,2.58,0,1,1,2.6-2.6Zm-27.2-.19a2.51,2.51,0,0,1,2.57-2.36,2.56,2.56,0,0,1,2.4,2,2.6,2.6,0,0,1-2,3.12c-.13,0-.27,0-.4,0A2.58,2.58,0,0,1,108.31,76.14Zm27.23,134a2.57,2.57,0,0,1-5.14,0,2.57,2.57,0,1,1,5.14,0Zm-27.26,0a2.58,2.58,0,0,1,2.56-2.54,2.61,2.61,0,0,1,2.52,2.64,2.54,2.54,0,1,1-5.08-.1Z"/><text class="cls-2" transform="matrix(0, 1, -1, 0, 114.49, 108.05)">Iosif Abaab</text><path class="cls-1" d="M102.59,25.18.06,127.76l23.62,23.61c17-17,85.48-85.57,102.51-102.6ZM6.22,125.94a2.6,2.6,0,0,1,3.67,0,2.58,2.58,0,1,1-3.67,0Zm19.1,19.37a2.52,2.52,0,0,1-3.49-.15,2.59,2.59,0,0,1-.29-3.11,2.62,2.62,0,0,1,3.65-.77,3.76,3.76,0,0,1,.31.25A2.59,2.59,0,0,1,25.32,145.31Zm75.47-114A2.57,2.57,0,1,1,104.41,35a2.57,2.57,0,1,1-3.62-3.64Zm19.26,19.28a2.57,2.57,0,0,1-3.6,0,2.6,2.6,0,0,1,.08-3.64,2.54,2.54,0,1,1,3.52,3.65Z"/><text class="cls-2" transform="matrix(0.71, -0.71, 0.71, 0.71, 29.61, 132.12)">Isabel Cavenecia</text><path class="cls-1" d="M126.19,237.74,23.61,135.21,0,158.83c17,17,85.57,85.48,102.6,102.51ZM25.43,141.37a2.61,2.61,0,0,1,0,3.67,2.58,2.58,0,1,1,0-3.67ZM6.06,160.47A2.52,2.52,0,0,1,6.21,157a2.58,2.58,0,0,1,3.88,3.36,3.76,3.76,0,0,1-.25.31A2.58,2.58,0,0,1,6.06,160.47Zm114,75.47a2.57,2.57,0,1,1-3.64,3.62,2.57,2.57,0,1,1,3.64-3.62ZM100.76,255.2a2.57,2.57,0,0,1,0-3.6,2.62,2.62,0,0,1,3.65.08,2.54,2.54,0,1,1-3.66,3.52Z"/><text class="cls-2" transform="matrix(0.71, 0.71, -0.71, 0.71, 30.68, 176.25)"><tspan xml:space="preserve"> Bo Deurloo</tspan></text><path class="cls-1" d="M319.21,126.16l-145,0v33.4c24.1,0,121-.07,145-.07Zm-139.39,3.11a2.61,2.61,0,0,1,2.6,2.59,2.58,2.58,0,1,1-2.6-2.59Zm-.19,27.2a2.51,2.51,0,0,1-2.36-2.57,2.58,2.58,0,0,1,2-2.41,2.62,2.62,0,0,1,3.12,2c0,.14,0,.27,0,.41A2.59,2.59,0,0,1,179.63,156.47Zm134-27.24a2.57,2.57,0,1,1,0,5.14,2.57,2.57,0,1,1,0-5.14Zm0,27.26a2.57,2.57,0,0,1-2.54-2.56,2.63,2.63,0,0,1,2.64-2.51,2.54,2.54,0,1,1-.1,5.07Z"/><text class="cls-2" transform="matrix(1, 0, 0, 1, 196.27, 150.24)">Martin Menso</text><path class="cls-1" d="M253.52,0,151,102.58l23.62,23.61,102.5-102.6ZM157.15,100.76a2.62,2.62,0,0,1,3.68,0,2.58,2.58,0,1,1-3.68,0Zm19.11,19.37a2.52,2.52,0,0,1-3.49-.15,2.57,2.57,0,0,1-.29-3.11,2.6,2.6,0,0,1,3.64-.77c.11.07.21.17.32.25A2.6,2.6,0,0,1,176.26,120.13Zm75.46-114a2.57,2.57,0,1,1,3.63,3.64,2.57,2.57,0,1,1-3.63-3.64ZM271,25.43a2.58,2.58,0,0,1-3.61,0,2.61,2.61,0,0,1,.09-3.64A2.54,2.54,0,1,1,271,25.43Z"/><text class="cls-2" transform="matrix(0.71, -0.71, 0.71, 0.71, 174.69, 112.77)">Nikolas Magkriotis</text><path class="cls-1" d="M275.25,262.16,172.67,159.63l-23.61,23.62c17,17,85.57,85.48,102.6,102.51ZM174.49,165.79a2.6,2.6,0,0,1,0,3.67,2.57,2.57,0,1,1,0-3.67Zm-19.37,19.1a2.52,2.52,0,0,1,.15-3.49,2.59,2.59,0,0,1,3.11-.29,2.62,2.62,0,0,1,.77,3.65,3.76,3.76,0,0,1-.25.31A2.58,2.58,0,0,1,155.12,184.89Zm114,75.47a2.57,2.57,0,1,1-3.64,3.62,2.57,2.57,0,1,1,3.64-3.62Zm-19.28,19.26a2.57,2.57,0,0,1,0-3.6,2.6,2.6,0,0,1,3.64.08,2.54,2.54,0,1,1-3.65,3.52Z"/><text class="cls-3" transform="matrix(0.71, 0.71, -0.71, 0.71, 159.48, 180.31)">Salves Van Der Gronde</text></g></g></svg>
