<svg xmlns="http://www.w3.org/2000/svg" viewBox="0 0 720.96 195.9"><defs><style>.cls-1,.cls-3{font-size:131px;font-family:MyriadPro-Regular, Myriad Pro;}.cls-1,.cls-2,.cls-3,.cls-4{fill:#808285;}.cls-1{letter-spacing:-0.03em;}.cls-2{font-size:131.04px;font-family:OPTIAuroraGroteskNine;letter-spacing:-0.03em;}.cls-3{letter-spacing:0.09em;}</style></defs><g id="Layer_2" data-name="Layer 2"><g id="Layer_1-2" data-name="Layer 1"><text class="cls-1" transform="translate(0 125.15) scale(0.94 1)"><tspan xml:space="preserve">&quot;      </tspan></text><text class="cls-2" transform="translate(172.15 163.15)"><tspan xml:space="preserve">                        </tspan></text><text class="cls-3" transform="translate(669.03 125.15) scale(0.94 1)">&quot;</text><path class="cls-4" d="M118.52,82.68a142.5,142.5,0,0,0-7.92,26.8A147.11,147.11,0,0,0,108,137.37H91.54c-.73-9.62-1.48-19.05-4.05-28.2A155.15,155.15,0,0,0,77,82.87a86.11,86.11,0,0,0-.67,27.36c1.09,9,2.89,17.87,4.39,26.89-1.21.58-25.77.63-29.45-.16,2.27-13.5,4.12-27.07,4.05-40.81a256.73,256.73,0,0,0-4-40.95H90.7a90.9,90.9,0,0,0,11,30.17c5.51-9.75,8.43-20,11.63-30.23h38.37c-2.39,27.41-4.42,54.76,0,82.29H119c.44-9.23,1.16-18.35,1.25-27.47s-.45-18.11-.71-27.17Z"/><path class="cls-4" d="M317.67,55.1c2.94,9.72,10.23,14.32,19.78,16.75-1.89,6-1.83,12-.61,18.33L322,96.89l15.27,8.68a51,51,0,0,0,4.15,31.52H314.77c-1.31-6.48-6.36-9.94-11.63-13.45.32-2.23.62-4.44,1-6.64a14.61,14.61,0,0,0-.78-8.57A10.37,10.37,0,0,0,288.22,104c-.05,11.1,1.7,22.14,4,33.37h-36c.26-2.08.46-4,.75-6,1.84-12.35,3.4-24.72,3.51-37.24a148.91,148.91,0,0,0-4-36.13c-.21-.87-.32-1.77-.54-3ZM288.26,89.4c4.51.85,8.83,1.15,13.13-.37a3.84,3.84,0,0,0,2.86-2.84,25.31,25.31,0,0,0,.39-6.14,4.44,4.44,0,0,0-3.88-4.28,26.58,26.58,0,0,0-6.88-.38,5.38,5.38,0,0,0-3.59,2.25A16.22,16.22,0,0,0,288.26,89.4Z"/><path class="cls-4" d="M351.71,137.46c6.87-27.41,6.52-54.52.06-81.84h37.05c.24,1.67.56,3.37.74,5.08a39.19,39.19,0,0,0,4.61,14.16c3.46,6.54,7.12,13,10.72,19.45.46.83,1.1,1.56,1.86,2.64a20.63,20.63,0,0,0,1.41-9.39,157.09,157.09,0,0,0-3.66-29.93,7.3,7.3,0,0,1-.17-1.48,3.75,3.75,0,0,1,.19-.89h29.12c-6.22,27.34-7.41,54.57-.6,81.83-1.74.64-31.17.83-34.63.17-4.16-14.66-9.92-28.73-21-40.68-1.13,14.34,1.05,27.71,5.22,40.88Z"/><path class="cls-4" d="M489.61,55.55h36.87c.29,2.12.56,4.23.88,6.34a38.8,38.8,0,0,0,4.24,12.46c3.59,6.76,7.35,13.43,11.06,20.12.43.77,1,1.46,1.52,2.19l.7-.07a42.71,42.71,0,0,0,.88-6.19,151.79,151.79,0,0,0-3.62-33.18c-.12-.55-.18-1.11-.31-1.92h29.49c-6.29,27.41-7.47,54.65-.53,82.13H536.31c-1.67-4.83-3.1-9.7-5-14.36a143.36,143.36,0,0,0-6.78-13.87,57,57,0,0,0-9.17-12.09,64.54,64.54,0,0,0,.43,20.35c1.1,6.69,2.7,13.31,4.1,20H489.61c2.72-13.74,4.94-27.23,4.85-41S492.27,69.19,489.61,55.55Z"/><path class="cls-4" d="M662.24,137.44H644.38l-6.6-7.05-5.43,7.19h-27c-2.63-4.52-5.6-9.11-10-12.38s-8.81-5.91-13.63-9.1c3.63-13.42,4.57-27.35-.15-41.44,5-1.76,9.84-4,13.6-7.67s7-7.72,10.77-11.88h36.11c3.49,9.51,11.34,14.22,20.12,18.11-3,5.57-2.66,11.32-1.55,17.44-8.68-1.86-17.21-2.21-25.83.08-.89-2.67-1.7-5.18-2.55-7.68a8,8,0,0,0-11.35-4.49,9.22,9.22,0,0,0-4.74,5.25,28.82,28.82,0,0,0-1.86,7.2c-.45,6.23-.73,12.5.88,18.63,1.11,4.27,3,8,7.62,9.44,2.85.92,5-.21,5.63-3.11.75-3.36-.47-5.86-3.55-7.41V97.23c12.61,1.77,25.15.84,38.09.6C657.29,111,657.59,123.93,662.24,137.44Z"/><path class="cls-4" d="M244.51,74.48a65.2,65.2,0,0,0,.71,43c-9.7,4.14-17.73,10.05-21.72,20.17H186.14c-2.17-4.74-4.79-9.4-9.23-12.39s-9-5.2-13.93-8c2.39-13.86,3.13-28.23-.31-42.73a37.4,37.4,0,0,0,23.26-18.84h36.68C226.54,66,234,71.93,244.51,74.48ZM193.69,96a32,32,0,0,0,0,3.25c.51,4.89,1.81,9.51,5.21,13.23,3.19,3.49,7.74,3.5,11,.07a15.07,15.07,0,0,0,2.32-3.22c3-5.64,3.67-11.69,2.86-17.94A22.39,22.39,0,0,0,210.58,80c-3.42-4.25-8.44-4.37-12-.27a17.69,17.69,0,0,0-2.33,3.53A25.41,25.41,0,0,0,193.69,96Z"/><path class="cls-4" d="M443.77,137.43c7.23-27.64,4.71-54.89,0-82.29h35.67c-5.21,27.47-7,54.78,0,82.29Z"/></g></g></svg>